%TF.GenerationSoftware,KiCad,Pcbnew,8.0.5*%
%TF.CreationDate,2025-02-16T00:46:45-05:00*%
%TF.ProjectId,C128A,43313238-412e-46b6-9963-61645f706362,rev?*%
%TF.SameCoordinates,Original*%
%TF.FileFunction,Copper,L2,Bot*%
%TF.FilePolarity,Positive*%
%FSLAX46Y46*%
G04 Gerber Fmt 4.6, Leading zero omitted, Abs format (unit mm)*
G04 Created by KiCad (PCBNEW 8.0.5) date 2025-02-16 00:46:45*
%MOMM*%
%LPD*%
G01*
G04 APERTURE LIST*
G04 Aperture macros list*
%AMFreePoly0*
4,1,19,0.500000,-0.750000,0.000000,-0.750000,0.000000,-0.744911,-0.071157,-0.744911,-0.207708,-0.704816,-0.327430,-0.627875,-0.420627,-0.520320,-0.479746,-0.390866,-0.500000,-0.250000,-0.500000,0.250000,-0.479746,0.390866,-0.420627,0.520320,-0.327430,0.627875,-0.207708,0.704816,-0.071157,0.744911,0.000000,0.744911,0.000000,0.750000,0.500000,0.750000,0.500000,-0.750000,0.500000,-0.750000,
$1*%
%AMFreePoly1*
4,1,19,0.000000,0.744911,0.071157,0.744911,0.207708,0.704816,0.327430,0.627875,0.420627,0.520320,0.479746,0.390866,0.500000,0.250000,0.500000,-0.250000,0.479746,-0.390866,0.420627,-0.520320,0.327430,-0.627875,0.207708,-0.704816,0.071157,-0.744911,0.000000,-0.744911,0.000000,-0.750000,-0.500000,-0.750000,-0.500000,0.750000,0.000000,0.750000,0.000000,0.744911,0.000000,0.744911,
$1*%
G04 Aperture macros list end*
%TA.AperFunction,ComponentPad*%
%ADD10R,1.700000X1.700000*%
%TD*%
%TA.AperFunction,ComponentPad*%
%ADD11O,1.700000X1.700000*%
%TD*%
%TA.AperFunction,SMDPad,CuDef*%
%ADD12FreePoly0,180.000000*%
%TD*%
%TA.AperFunction,SMDPad,CuDef*%
%ADD13FreePoly1,180.000000*%
%TD*%
%TA.AperFunction,ViaPad*%
%ADD14C,0.350000*%
%TD*%
%TA.AperFunction,ViaPad*%
%ADD15C,0.800000*%
%TD*%
%TA.AperFunction,Conductor*%
%ADD16C,0.400000*%
%TD*%
%TA.AperFunction,Conductor*%
%ADD17C,1.500000*%
%TD*%
%TA.AperFunction,Conductor*%
%ADD18C,0.920000*%
%TD*%
%TA.AperFunction,Conductor*%
%ADD19C,0.800000*%
%TD*%
%TA.AperFunction,Conductor*%
%ADD20C,1.140000*%
%TD*%
%TA.AperFunction,Conductor*%
%ADD21C,2.500000*%
%TD*%
G04 APERTURE END LIST*
D10*
%TO.P,J2,1,Pin_1*%
%TO.N,/~{QCL}*%
X98669000Y-86800000D03*
D11*
%TO.P,J2,2,Pin_2*%
%TO.N,/DCL*%
X101209000Y-86800000D03*
%TO.P,J2,3,Pin_3*%
%TO.N,/~{Q4080}*%
X103749000Y-86800000D03*
%TO.P,J2,4,Pin_4*%
%TO.N,unconnected-(J2-Pin_4-Pad4)*%
X106289000Y-86800000D03*
%TO.P,J2,5,Pin_5*%
%TO.N,/P07*%
X108829000Y-86800000D03*
%TO.P,J2,6,Pin_6*%
%TO.N,/P19*%
X111369000Y-86800000D03*
%TO.P,J2,7,Pin_7*%
%TO.N,unconnected-(J2-Pin_7-Pad7)*%
X113909000Y-86800000D03*
%TO.P,J2,8,Pin_8*%
%TO.N,unconnected-(J2-Pin_8-Pad8)*%
X116449000Y-86800000D03*
%TO.P,J2,9,Pin_9*%
%TO.N,unconnected-(J2-Pin_9-Pad9)*%
X118989000Y-86800000D03*
%TO.P,J2,10,Pin_10*%
%TO.N,unconnected-(J2-Pin_10-Pad10)*%
X121529000Y-86800000D03*
%TO.P,J2,11,Pin_11*%
%TO.N,/P4080*%
X124069000Y-86800000D03*
%TO.P,J2,12,Pin_12*%
%TO.N,/P06*%
X126609000Y-86800000D03*
%TO.P,J2,13,Pin_13*%
%TO.N,unconnected-(J2-Pin_13-Pad13)*%
X129149000Y-86800000D03*
%TO.P,J2,14,Pin_14*%
%TO.N,unconnected-(J2-Pin_14-Pad14)*%
X131689000Y-86800000D03*
%TO.P,J2,15,Pin_15*%
%TO.N,unconnected-(J2-Pin_15-Pad15)*%
X134229000Y-86800000D03*
%TO.P,J2,16,Pin_16*%
%TO.N,unconnected-(J2-Pin_16-Pad16)*%
X136769000Y-86800000D03*
%TO.P,J2,17,Pin_17*%
%TO.N,unconnected-(J2-Pin_17-Pad17)*%
X139309000Y-86800000D03*
%TO.P,J2,18,Pin_18*%
%TO.N,/~{PushCL}*%
X141849000Y-86800000D03*
%TO.P,J2,19,Pin_19*%
%TO.N,GND*%
X144389000Y-86800000D03*
%TO.P,J2,20,Pin_20*%
X146929000Y-86800000D03*
%TO.P,J2,21,Pin_21*%
%TO.N,unconnected-(J2-Pin_21-Pad21)*%
X149469000Y-86800000D03*
%TO.P,J2,22,Pin_22*%
%TO.N,/P08*%
X152009000Y-86800000D03*
%TO.P,J2,23,Pin_23*%
%TO.N,unconnected-(J2-Pin_23-Pad23)*%
X154549000Y-86800000D03*
%TO.P,J2,24,Pin_24*%
%TO.N,unconnected-(J2-Pin_24-Pad24)*%
X157089000Y-86800000D03*
%TO.P,J2,25,Pin_25*%
%TO.N,+5V*%
X159629000Y-86800000D03*
%TO.P,J2,26,Pin_26*%
X162169000Y-86800000D03*
%TO.P,J2,27,Pin_27*%
%TO.N,/~{PushF2}*%
X164709000Y-86800000D03*
%TO.P,J2,28,Pin_28*%
%TO.N,/~{PushCU}*%
X167249000Y-86800000D03*
%TO.P,J2,29,Pin_29*%
%TO.N,/P13*%
X169789000Y-86800000D03*
%TO.P,J2,30,Pin_30*%
%TO.N,/P14*%
X172329000Y-86800000D03*
%TO.P,J2,31,Pin_31*%
%TO.N,/~{PushF8}*%
X174869000Y-86800000D03*
%TO.P,J2,32,Pin_32*%
%TO.N,/P25*%
X177409000Y-86800000D03*
%TO.P,J2,33,Pin_33*%
%TO.N,/P24*%
X179949000Y-86800000D03*
%TO.P,J2,34,Pin_34*%
%TO.N,/~{PushF6}*%
X182489000Y-86800000D03*
%TO.P,J2,35,Pin_35*%
%TO.N,/~{PushF4}*%
X185029000Y-86800000D03*
%TO.P,J2,36,Pin_36*%
%TO.N,/P10*%
X187569000Y-86800000D03*
%TO.P,J2,37,Pin_37*%
%TO.N,/P09*%
X190109000Y-86800000D03*
%TO.P,J2,38,Pin_38*%
%TO.N,/P05*%
X192649000Y-86800000D03*
%TO.P,J2,39,Pin_39*%
%TO.N,+5V*%
X195189000Y-86800000D03*
%TO.P,J2,40,Pin_40*%
X197729000Y-86800000D03*
%TD*%
D12*
%TO.P,JP2,1,A*%
%TO.N,/P25*%
X178840000Y-90610000D03*
D13*
%TO.P,JP2,2,B*%
%TO.N,Net-(JP2-B)*%
X177540000Y-90610000D03*
%TD*%
D12*
%TO.P,JP1,1,A*%
%TO.N,/P09*%
X161295000Y-90737000D03*
D13*
%TO.P,JP1,2,B*%
%TO.N,Net-(JP1-B)*%
X159995000Y-90737000D03*
%TD*%
D14*
%TO.N,*%
X131435000Y-95055000D03*
X176393000Y-97912500D03*
X176329500Y-90102000D03*
X160899000Y-103691000D03*
X166804500Y-89086000D03*
X163210400Y-107170800D03*
X159819500Y-100770000D03*
X161597500Y-88959000D03*
X156962000Y-100960500D03*
X161089500Y-94801000D03*
X167096600Y-99449200D03*
%TO.N,/P14*%
X160391000Y-96833000D03*
X170290000Y-97200000D03*
%TO.N,/P13*%
X164328000Y-108961500D03*
X138024000Y-99500000D03*
X143627000Y-98357000D03*
X174234000Y-90864000D03*
X143944500Y-108961500D03*
%TO.N,GND*%
X156710000Y-96960000D03*
X176727980Y-101197020D03*
X113274000Y-98357000D03*
X135118000Y-107882000D03*
X151247000Y-102675000D03*
X146548000Y-90300000D03*
X135118000Y-102294000D03*
X182734000Y-96588000D03*
X137800000Y-91300000D03*
D15*
X99875500Y-110041000D03*
X103876000Y-98357000D03*
D14*
X158105000Y-96960000D03*
X136515000Y-99056000D03*
X136900000Y-90700000D03*
X137600000Y-90700000D03*
X146300000Y-90900000D03*
X115031750Y-93764750D03*
X141023500Y-102675000D03*
X157787500Y-101405000D03*
X147437000Y-96960000D03*
X152263000Y-97722000D03*
X180203000Y-101151000D03*
D15*
X194415250Y-97265750D03*
D14*
X101463000Y-97595000D03*
X118701010Y-98644990D03*
X154422000Y-90737000D03*
X147500000Y-90900000D03*
X137023000Y-91245000D03*
X146294000Y-102675000D03*
X137277000Y-109787000D03*
X164455000Y-101405000D03*
X121000000Y-100900000D03*
X120581500Y-100447500D03*
X135118000Y-101151000D03*
X135118000Y-101913000D03*
X154422000Y-110422000D03*
X147310000Y-90300000D03*
D15*
X120576500Y-107056500D03*
D14*
X172710000Y-101151000D03*
X148834000Y-111247500D03*
D15*
X123497500Y-103500500D03*
D14*
X152318561Y-107775001D03*
D15*
X109400000Y-101000000D03*
D14*
X185029000Y-96579000D03*
X146929000Y-91100000D03*
X135118000Y-101532000D03*
D15*
X109400500Y-107056500D03*
%TO.N,+5V*%
X109400500Y-104952000D03*
X196967000Y-97214000D03*
D14*
X185156000Y-90864000D03*
D15*
X108882999Y-103002001D03*
D14*
X150000000Y-88600000D03*
X102754500Y-91333000D03*
X109464000Y-92261000D03*
X150100000Y-89300000D03*
X100256500Y-103945000D03*
X102361501Y-103002001D03*
X106754500Y-91333000D03*
X150612000Y-88832000D03*
X120386000Y-92515000D03*
%TO.N,/PULLUP*%
X131435000Y-104199000D03*
X101209000Y-93785000D03*
X106289000Y-94420000D03*
X109972000Y-99500000D03*
%TO.N,/P4080*%
X126101000Y-101024000D03*
X127958001Y-98912999D03*
X128133000Y-96198000D03*
X124577000Y-93023000D03*
%TO.N,/P19*%
X152263000Y-94420000D03*
X127244000Y-95817000D03*
X128393513Y-94420000D03*
X112004000Y-95817000D03*
%TO.N,/~{PushF8}*%
X175039271Y-103099271D03*
X158105000Y-104580000D03*
X142230000Y-105215000D03*
%TO.N,/DCL*%
X100354500Y-91333000D03*
X98100000Y-95400000D03*
%TO.N,Net-(D95-K)*%
X107241500Y-95690000D03*
X125910500Y-102929000D03*
X116131500Y-94801000D03*
X124196000Y-98611000D03*
%TO.N,Net-(D103-K)*%
X100634500Y-100400000D03*
X103050500Y-106294500D03*
X100634500Y-95043000D03*
%TO.N,Net-(C9-Pad1)*%
X106562500Y-101000000D03*
X103500000Y-104700000D03*
%TO.N,/~{PushCL}*%
X152390000Y-103818000D03*
X138071500Y-103977500D03*
%TO.N,/~{PushCU}*%
X149850000Y-105850000D03*
X163058000Y-105215000D03*
X136388000Y-105850000D03*
X153533000Y-105215000D03*
%TO.N,/~{PushF2}*%
X136388000Y-106485000D03*
X163566000Y-106571542D03*
X153533000Y-106485000D03*
X149850000Y-107755000D03*
%TO.N,/~{PushF4}*%
X161407000Y-107755000D03*
X137785000Y-106866000D03*
X158105000Y-107120000D03*
X188712000Y-107755000D03*
%TO.N,/~{PushF6}*%
X142230000Y-105850000D03*
X183759000Y-105850000D03*
X158105000Y-105850000D03*
%TO.N,/~{SRS}*%
X115623500Y-106202000D03*
X117274500Y-107120000D03*
%TO.N,Net-(U4A-~{S})*%
X104320500Y-104008500D03*
X111178500Y-105215000D03*
X113083500Y-106294500D03*
X104320500Y-102040000D03*
%TO.N,Net-(U4B-~{S})*%
X108702000Y-98230000D03*
X116639500Y-105596000D03*
%TO.N,Net-(U7-Pad2)*%
X113147000Y-105659500D03*
X104122500Y-105652000D03*
%TO.N,Net-(JP1-B)*%
X154022500Y-93740000D03*
X159756000Y-91118000D03*
X159756000Y-92959500D03*
%TO.N,Net-(U4B-Q)*%
X151247000Y-97722000D03*
X129974500Y-96833000D03*
X129974500Y-98195010D03*
X108003500Y-96960000D03*
%TO.N,Net-(U4A-Q)*%
X158105000Y-94420000D03*
X130787300Y-96840008D03*
X101778200Y-96340000D03*
X152263000Y-96325000D03*
X129974500Y-98928500D03*
%TO.N,/P08*%
X154803000Y-92896000D03*
X136388000Y-93658000D03*
%TO.N,/P24*%
X178171000Y-99627000D03*
X160772000Y-97468000D03*
%TO.N,Net-(U1-Pad12)*%
X162677000Y-109914000D03*
X142163500Y-108964500D03*
%TO.N,Net-(U2-Pad13)*%
X184359010Y-102455990D03*
X154168000Y-103437000D03*
%TO.N,/P10*%
X189435900Y-93658000D03*
X181346000Y-93658000D03*
%TO.N,/P09*%
X161534000Y-93658000D03*
X181346000Y-95690000D03*
X190109000Y-95690000D03*
X161534000Y-91118000D03*
%TO.N,Net-(U2-Pad5)*%
X152263000Y-105850000D03*
X180203000Y-96325000D03*
X154803000Y-102167000D03*
%TO.N,/P06*%
X126609000Y-97595000D03*
X141849000Y-97595000D03*
%TO.N,Net-(U3-Pad12)*%
X156038010Y-100804990D03*
X144227010Y-100804990D03*
%TO.N,/P05*%
X192649000Y-92261000D03*
X139690000Y-92769000D03*
%TO.N,Net-(U3-Pad13)*%
X145024000Y-107120000D03*
X152263000Y-107120000D03*
%TO.N,Net-(U3-Pad6)*%
X155438000Y-101532000D03*
X137531000Y-100770000D03*
%TO.N,/P07*%
X134477500Y-95568500D03*
%TO.N,Net-(U3-Pad5)*%
X139249001Y-96257999D03*
X139249001Y-108457001D03*
X158105000Y-107882000D03*
X133721000Y-95944000D03*
%TO.N,Net-(JP2-B)*%
X156073000Y-96198000D03*
X177409000Y-96198000D03*
X177410000Y-90610000D03*
%TD*%
D16*
%TO.N,/P14*%
X169923000Y-96833000D02*
X170290000Y-97200000D01*
X160391000Y-96833000D02*
X169923000Y-96833000D01*
D17*
%TO.N,/P13*%
X169789000Y-88002081D02*
X172650919Y-90864000D01*
D16*
X142484000Y-99500000D02*
X143627000Y-98357000D01*
X163883500Y-108961500D02*
X164328000Y-108961500D01*
D17*
X172650919Y-90864000D02*
X174234000Y-90864000D01*
D16*
X138024000Y-99500000D02*
X140710000Y-99500000D01*
X140710000Y-99500000D02*
X142484000Y-99500000D01*
X164328000Y-108961500D02*
X164328000Y-108961500D01*
D17*
X169789000Y-86800000D02*
X169789000Y-88002081D01*
D16*
X143944500Y-108961500D02*
X163883500Y-108961500D01*
D18*
%TO.N,GND*%
X123497500Y-103500500D02*
X123497500Y-104135500D01*
D19*
X108700000Y-101000000D02*
X109400000Y-101000000D01*
D16*
X157787500Y-101405000D02*
X164455000Y-101405000D01*
D17*
X154174513Y-90737000D02*
X147691000Y-90737000D01*
D20*
X154327498Y-111247500D02*
X148834000Y-111247500D01*
D18*
X109800499Y-107456499D02*
X109400500Y-107056500D01*
D17*
X147056000Y-90737000D02*
X146548000Y-90737000D01*
D19*
X103876000Y-98357000D02*
X106057000Y-98357000D01*
D17*
X120581500Y-100447500D02*
X121765001Y-101631001D01*
D16*
X182990487Y-96579000D02*
X185029000Y-96579000D01*
D20*
X154596999Y-110977999D02*
X174694001Y-110977999D01*
X178821323Y-101197020D02*
X176727980Y-101197020D01*
X174694001Y-110977999D02*
X175250000Y-110422000D01*
D17*
X146040000Y-90737000D02*
X137785000Y-90737000D01*
X135118000Y-100742020D02*
X136515000Y-99345020D01*
X190530000Y-101151000D02*
X194415250Y-97265750D01*
D18*
X110324010Y-107980010D02*
X109800499Y-107456499D01*
D20*
X180203000Y-101151000D02*
X178867343Y-101151000D01*
D17*
X154422000Y-90737000D02*
X154174513Y-90737000D01*
D19*
X106057000Y-98357000D02*
X106200000Y-98500000D01*
D16*
X156710000Y-97330000D02*
X156710000Y-96960000D01*
D17*
X190530000Y-101151000D02*
X193048000Y-101151000D01*
D20*
X136261000Y-102675000D02*
X135292999Y-101706999D01*
X178867343Y-101151000D02*
X178821323Y-101197020D01*
D17*
X123497500Y-103500500D02*
X129784000Y-109787000D01*
D19*
X106200000Y-98500000D02*
X108700000Y-101000000D01*
X102225000Y-98357000D02*
X103876000Y-98357000D01*
D17*
X137531000Y-90737000D02*
X137404000Y-90864000D01*
X135118000Y-107882000D02*
X135118000Y-102294000D01*
D20*
X148834000Y-111247500D02*
X138737500Y-111247500D01*
D21*
X194467000Y-98345370D02*
X194467000Y-97214000D01*
D17*
X135118000Y-108263000D02*
X133594000Y-109787000D01*
D20*
X154596999Y-110977999D02*
X154327498Y-111247500D01*
D18*
X119652990Y-107980010D02*
X110324010Y-107980010D01*
D17*
X146548000Y-90737000D02*
X146040000Y-90737000D01*
D20*
X146294000Y-102675000D02*
X141023500Y-102675000D01*
D21*
X194467000Y-104333466D02*
X194467000Y-102570000D01*
D17*
X147564000Y-90737000D02*
X147056000Y-90737000D01*
D21*
X188378466Y-110422000D02*
X194467000Y-104333466D01*
D20*
X138737500Y-111247500D02*
X137451999Y-109961999D01*
D17*
X121765001Y-101631001D02*
X121765001Y-101768001D01*
D16*
X182981487Y-96588000D02*
X182990487Y-96579000D01*
D17*
X135118000Y-102294000D02*
X135118000Y-101532000D01*
X135118000Y-107882000D02*
X135118000Y-108263000D01*
D16*
X152263000Y-97722000D02*
X156318000Y-97722000D01*
D18*
X123497500Y-104135500D02*
X120576500Y-107056500D01*
D20*
X151247000Y-102675000D02*
X146294000Y-102675000D01*
D18*
X109400500Y-107056500D02*
X106416000Y-110041000D01*
D21*
X194467000Y-102570000D02*
X194467000Y-98345370D01*
D17*
X135118000Y-101151000D02*
X135118000Y-100742020D01*
X129784000Y-109787000D02*
X133594000Y-109787000D01*
X180203000Y-101151000D02*
X190530000Y-101151000D01*
D18*
X99875500Y-110041000D02*
X99875500Y-110041000D01*
D20*
X154422000Y-110803000D02*
X154596999Y-110977999D01*
X135292999Y-101706999D02*
X135118000Y-101532000D01*
D16*
X158105000Y-96960000D02*
X156710000Y-96960000D01*
X156710000Y-96960000D02*
X147437000Y-96960000D01*
D17*
X135118000Y-101532000D02*
X135118000Y-101151000D01*
X137277000Y-109787000D02*
X137023000Y-109787000D01*
D20*
X141023500Y-102675000D02*
X136261000Y-102675000D01*
D19*
X101463000Y-97595000D02*
X102225000Y-98357000D01*
D16*
X185029000Y-96579000D02*
X185029000Y-96579000D01*
D17*
X147691000Y-90737000D02*
X147564000Y-90737000D01*
D18*
X106416000Y-110041000D02*
X99875500Y-110041000D01*
D21*
X175250000Y-110422000D02*
X188378466Y-110422000D01*
D17*
X137785000Y-90737000D02*
X137531000Y-90737000D01*
X193048000Y-101151000D02*
X194467000Y-102570000D01*
X194415250Y-97265750D02*
X194467000Y-97214000D01*
D18*
X120576500Y-107056500D02*
X119652990Y-107980010D01*
D17*
X133594000Y-109787000D02*
X137277000Y-109787000D01*
X121765001Y-101768001D02*
X123497500Y-103500500D01*
D16*
X156318000Y-97722000D02*
X156710000Y-97330000D01*
X182734000Y-96588000D02*
X182981487Y-96588000D01*
D20*
X176727980Y-101197020D02*
X172710000Y-101197020D01*
X137451999Y-109961999D02*
X137277000Y-109787000D01*
D17*
X137023000Y-109787000D02*
X135118000Y-107882000D01*
D16*
%TO.N,+5V*%
X108882999Y-103002001D02*
X108882999Y-104434499D01*
D17*
X109464000Y-92261000D02*
X107682500Y-92261000D01*
X158613000Y-88832000D02*
X159375000Y-88070000D01*
D16*
X108882999Y-104434499D02*
X109400500Y-104952000D01*
D17*
X109464000Y-92261000D02*
X109718000Y-92515000D01*
X159375000Y-88070000D02*
X159561081Y-88070000D01*
X159561081Y-88070000D02*
X159629000Y-88002081D01*
X159629000Y-88002081D02*
X159629000Y-86800000D01*
D16*
X102361501Y-103002001D02*
X101199499Y-103002001D01*
D17*
X150231000Y-88832000D02*
X150612000Y-88832000D01*
X150612000Y-88832000D02*
X158613000Y-88832000D01*
X193538000Y-90864000D02*
X196967000Y-94293000D01*
X106754500Y-91333000D02*
X102754500Y-91333000D01*
X196967000Y-94293000D02*
X196967000Y-97214000D01*
D16*
X101199499Y-103002001D02*
X100256500Y-103945000D01*
D17*
X109718000Y-92515000D02*
X120386000Y-92515000D01*
X185156000Y-90864000D02*
X193538000Y-90864000D01*
X107682500Y-92261000D02*
X106754500Y-91333000D01*
D16*
%TO.N,/PULLUP*%
X118899510Y-99297492D02*
X122151992Y-99297492D01*
X122151992Y-99297492D02*
X124894500Y-102040000D01*
X128034510Y-103529010D02*
X128704500Y-104199000D01*
X101209000Y-93785000D02*
X105654000Y-93785000D01*
X109972000Y-99500000D02*
X118697002Y-99500000D01*
X124894500Y-102761542D02*
X125661968Y-103529010D01*
X128704500Y-104199000D02*
X131435000Y-104199000D01*
X124894500Y-102040000D02*
X124894500Y-102761542D01*
X131435000Y-104199000D02*
X131435000Y-104199000D01*
X105654000Y-93785000D02*
X106289000Y-94420000D01*
X118697002Y-99500000D02*
X118899510Y-99297492D01*
X125661968Y-103529010D02*
X128034510Y-103529010D01*
%TO.N,/P4080*%
X128133000Y-95857458D02*
X128133000Y-96198000D01*
X127958001Y-99166999D02*
X126101000Y-101024000D01*
X125298542Y-93023000D02*
X128133000Y-95857458D01*
X124577000Y-93023000D02*
X125298542Y-93023000D01*
X127958001Y-98912999D02*
X127958001Y-99166999D01*
%TO.N,/P19*%
X112004000Y-95817000D02*
X127244000Y-95817000D01*
X130546000Y-94420000D02*
X128393513Y-94420000D01*
X130546000Y-94420000D02*
X152263000Y-94420000D01*
%TO.N,/~{PushF8}*%
X174488000Y-103691000D02*
X174488000Y-103650542D01*
X158105000Y-104580000D02*
X173599000Y-104580000D01*
X173599000Y-104580000D02*
X174488000Y-103691000D01*
X174488000Y-103650542D02*
X175039271Y-103099271D01*
X158105000Y-104580000D02*
X142865000Y-104580000D01*
X142865000Y-104580000D02*
X142230000Y-105215000D01*
%TO.N,/DCL*%
X101209000Y-86800000D02*
X101209000Y-90478500D01*
X101209000Y-90478500D02*
X100354500Y-91333000D01*
X100354500Y-91333000D02*
X98100000Y-93587500D01*
X98100000Y-93587500D02*
X98100000Y-95400000D01*
%TO.N,Net-(D95-K)*%
X124196000Y-100325500D02*
X125910500Y-102040000D01*
X108377987Y-94801000D02*
X116131500Y-94801000D01*
X107241500Y-95690000D02*
X107488987Y-95690000D01*
X107488987Y-95690000D02*
X108377987Y-94801000D01*
X116131500Y-94801000D02*
X116131500Y-94801000D01*
X124196000Y-98611000D02*
X124196000Y-100325500D01*
X125910500Y-102040000D02*
X125910500Y-102929000D01*
%TO.N,Net-(D103-K)*%
X103050500Y-106294500D02*
X103050500Y-106294500D01*
X103050500Y-106294500D02*
X101900000Y-105144000D01*
X101900000Y-105144000D02*
X101900000Y-104312030D01*
X101900000Y-104312030D02*
X102961501Y-103250529D01*
X100634500Y-99883000D02*
X100634500Y-95043000D01*
X103050500Y-106294500D02*
X103050500Y-106294500D01*
X102961501Y-102727001D02*
X100634500Y-100400000D01*
X102961501Y-103250529D02*
X102961501Y-102727001D01*
X100634500Y-100400000D02*
X100634500Y-99883000D01*
%TO.N,Net-(C9-Pad1)*%
X104891500Y-104608500D02*
X106562500Y-102937500D01*
X104891500Y-104608500D02*
X104800000Y-104700000D01*
X106562500Y-101000000D02*
X106562500Y-102937500D01*
X104800000Y-104700000D02*
X103500000Y-104700000D01*
%TO.N,/~{PushCL}*%
X138071500Y-103977500D02*
X152230500Y-103977500D01*
X152230500Y-103977500D02*
X152390000Y-103818000D01*
%TO.N,/~{PushCU}*%
X143373000Y-105850000D02*
X142772990Y-106450010D01*
X163058000Y-105215000D02*
X153533000Y-105215000D01*
X138893010Y-106450010D02*
X138293000Y-105850000D01*
X138293000Y-105850000D02*
X136388000Y-105850000D01*
X149850000Y-105850000D02*
X143373000Y-105850000D01*
X142772990Y-106450010D02*
X138893010Y-106450010D01*
%TO.N,/~{PushF2}*%
X137404000Y-107755000D02*
X136896000Y-107247000D01*
X163185000Y-106485000D02*
X163271542Y-106571542D01*
X136896000Y-107247000D02*
X136896000Y-106993000D01*
X149850000Y-107755000D02*
X137404000Y-107755000D01*
X136896000Y-106993000D02*
X136388000Y-106485000D01*
X153533000Y-106485000D02*
X163185000Y-106485000D01*
X163271542Y-106571542D02*
X163566000Y-106571542D01*
%TO.N,/~{PushF4}*%
X137969020Y-107050020D02*
X143188980Y-107050020D01*
X160772000Y-107120000D02*
X161407000Y-107755000D01*
X137785000Y-106866000D02*
X137969020Y-107050020D01*
X152476542Y-106485000D02*
X153111542Y-107120000D01*
X188712000Y-107755000D02*
X161407000Y-107755000D01*
X143754000Y-106485000D02*
X152476542Y-106485000D01*
X153111542Y-107120000D02*
X158105000Y-107120000D01*
X143188980Y-107050020D02*
X143754000Y-106485000D01*
X158105000Y-107120000D02*
X160772000Y-107120000D01*
%TO.N,/~{PushF6}*%
X153319458Y-105850000D02*
X157857513Y-105850000D01*
X142230000Y-105850000D02*
X142477487Y-105850000D01*
X157857513Y-105850000D02*
X158105000Y-105850000D01*
X142484000Y-105809542D02*
X143113532Y-105180010D01*
X183759000Y-105850000D02*
X158105000Y-105850000D01*
X142477487Y-105850000D02*
X142484000Y-105843487D01*
X152649468Y-105180010D02*
X153319458Y-105850000D01*
X142484000Y-105843487D02*
X142484000Y-105809542D01*
X143113532Y-105180010D02*
X152649468Y-105180010D01*
%TO.N,/~{SRS}*%
X116788987Y-107120000D02*
X117274500Y-107120000D01*
X117274500Y-107120000D02*
X117274500Y-107120000D01*
X115870987Y-106202000D02*
X116788987Y-107120000D01*
X115623500Y-106202000D02*
X115870987Y-106202000D01*
%TO.N,Net-(U4A-~{S})*%
X112010513Y-106294500D02*
X113083500Y-106294500D01*
X111178500Y-105215000D02*
X111178500Y-105462487D01*
X111178500Y-105462487D02*
X112010513Y-106294500D01*
X104320500Y-104008500D02*
X104320500Y-104008500D01*
X104320500Y-104008500D02*
X104320500Y-102040000D01*
X113083500Y-106294500D02*
X113083500Y-106294500D01*
X104320500Y-102040000D02*
X104320500Y-102040000D01*
%TO.N,Net-(U4B-~{S})*%
X116639500Y-105596000D02*
X116639500Y-105596000D01*
X111305500Y-101659000D02*
X115242500Y-105596000D01*
X109371990Y-99748532D02*
X111282458Y-101659000D01*
X111282458Y-101659000D02*
X111305500Y-101659000D01*
X108702000Y-98230000D02*
X108702000Y-98585498D01*
X115242500Y-105596000D02*
X116639500Y-105596000D01*
X108702000Y-98585498D02*
X109371990Y-99255488D01*
X109371990Y-99255488D02*
X109371990Y-99748532D01*
%TO.N,Net-(U7-Pad2)*%
X104836000Y-105652000D02*
X108448000Y-102040000D01*
X112899513Y-105659500D02*
X109273500Y-102040000D01*
X104122500Y-105652000D02*
X104836000Y-105652000D01*
X108448000Y-102040000D02*
X109273500Y-102040000D01*
X113147000Y-105659500D02*
X112899513Y-105659500D01*
%TO.N,Net-(JP1-B)*%
X155038500Y-93740000D02*
X155819000Y-92959500D01*
X154022500Y-93740000D02*
X155038500Y-93740000D01*
X159756000Y-92959500D02*
X159756000Y-92959500D01*
X155819000Y-92959500D02*
X158884416Y-92959500D01*
X158884416Y-92959500D02*
X159756000Y-92959500D01*
%TO.N,/P25*%
X178840000Y-90610000D02*
X178840000Y-89530000D01*
X177409000Y-88099000D02*
X177409000Y-86800000D01*
X178840000Y-89530000D02*
X177409000Y-88099000D01*
%TO.N,Net-(U4B-Q)*%
X142264990Y-98195010D02*
X142738000Y-97722000D01*
X131717512Y-98195012D02*
X131717510Y-98195010D01*
X131781012Y-98195012D02*
X131781010Y-98195010D01*
X136930990Y-98195010D02*
X136930988Y-98195012D01*
X131717510Y-98195010D02*
X129974500Y-98195010D01*
X129974500Y-96833000D02*
X111051500Y-96833000D01*
X111051500Y-96833000D02*
X108511500Y-96833000D01*
X108003500Y-96960000D02*
X108003500Y-96960000D01*
X131781012Y-98195012D02*
X131717512Y-98195012D01*
X108384500Y-96960000D02*
X108003500Y-96960000D01*
X142738000Y-97722000D02*
X151247000Y-97722000D01*
X108511500Y-96833000D02*
X108384500Y-96960000D01*
X129974500Y-98195010D02*
X129974500Y-98195010D01*
X142264990Y-98195010D02*
X136930990Y-98195010D01*
X136930988Y-98195012D02*
X131781012Y-98195012D01*
%TO.N,Net-(U4A-Q)*%
X129727013Y-98928500D02*
X128993523Y-98195010D01*
X102106487Y-96340000D02*
X101778200Y-96340000D01*
X154803000Y-96325000D02*
X156708000Y-94420000D01*
X106279410Y-97560010D02*
X110896512Y-97560010D01*
X152263000Y-96325000D02*
X154803000Y-96325000D01*
X121709519Y-97781999D02*
X111118501Y-97781999D01*
X128993523Y-98195010D02*
X125494510Y-98195010D01*
X125310490Y-98010990D02*
X121938510Y-98010990D01*
X121938510Y-98010990D02*
X121709519Y-97781999D01*
X146468466Y-96840008D02*
X130787300Y-96840008D01*
X146468466Y-96840008D02*
X146983474Y-96325000D01*
X125494510Y-98195010D02*
X125310490Y-98010990D01*
X110896512Y-97560010D02*
X111118501Y-97781999D01*
X129974500Y-98928500D02*
X129727013Y-98928500D01*
X102606495Y-96840008D02*
X102106487Y-96340000D01*
X130787300Y-96840008D02*
X130787300Y-96840008D01*
X105559408Y-96840008D02*
X106279410Y-97560010D01*
X105559408Y-96840008D02*
X102606495Y-96840008D01*
X156708000Y-94420000D02*
X158105000Y-94420000D01*
X146983474Y-96325000D02*
X152263000Y-96325000D01*
%TO.N,/P08*%
X152517000Y-93658000D02*
X152684458Y-93658000D01*
X153446458Y-92896000D02*
X154803000Y-92896000D01*
X136388000Y-93658000D02*
X152517000Y-93658000D01*
X152684458Y-93658000D02*
X153446458Y-92896000D01*
%TO.N,/P24*%
X171018542Y-99627000D02*
X178171000Y-99627000D01*
X160772000Y-97468000D02*
X168859542Y-97468000D01*
X168859542Y-97468000D02*
X171018542Y-99627000D01*
%TO.N,Net-(U1-Pad12)*%
X142163500Y-108964500D02*
X142760510Y-109561510D01*
X162324510Y-109561510D02*
X162677000Y-109914000D01*
X142760510Y-109561510D02*
X162324510Y-109561510D01*
%TO.N,Net-(U2-Pad13)*%
X155184000Y-102929000D02*
X164963000Y-102929000D01*
X164963000Y-102929000D02*
X165344000Y-102548000D01*
X167254468Y-102455990D02*
X184359010Y-102455990D01*
X154676000Y-103437000D02*
X155184000Y-102929000D01*
X167162458Y-102548000D02*
X167254468Y-102455990D01*
X154168000Y-103437000D02*
X154676000Y-103437000D01*
X165344000Y-102548000D02*
X167162458Y-102548000D01*
%TO.N,/P10*%
X189435900Y-93658000D02*
X181346000Y-93658000D01*
X181346000Y-93658000D02*
X181346000Y-93658000D01*
%TO.N,/P09*%
X179066513Y-93658000D02*
X162423000Y-93658000D01*
X181098513Y-95690000D02*
X179066513Y-93658000D01*
X190109000Y-95690000D02*
X181346000Y-95690000D01*
X162423000Y-93658000D02*
X161534000Y-93658000D01*
X161534000Y-93658000D02*
X161534000Y-93658000D01*
X181346000Y-95690000D02*
X181098513Y-95690000D01*
X181346000Y-95690000D02*
X181346000Y-95690000D01*
%TO.N,Net-(U2-Pad5)*%
X164541542Y-102167000D02*
X165430542Y-101278000D01*
X170770010Y-100227010D02*
X178419532Y-100227010D01*
X154803000Y-102167000D02*
X164541542Y-102167000D01*
X178806000Y-99840542D02*
X178806000Y-97214000D01*
X168680990Y-100227010D02*
X170770010Y-100227010D01*
X167630000Y-101278000D02*
X168680990Y-100227010D01*
X165430542Y-101278000D02*
X167630000Y-101278000D01*
X178419532Y-100227010D02*
X178806000Y-99840542D01*
X178806000Y-97214000D02*
X179695000Y-96325000D01*
X179695000Y-96325000D02*
X180203000Y-96325000D01*
%TO.N,/P06*%
X126609000Y-97595000D02*
X141849000Y-97595000D01*
%TO.N,Net-(U3-Pad12)*%
X144227010Y-100804990D02*
X156038010Y-100804990D01*
%TO.N,/P05*%
X152724916Y-92769000D02*
X153232916Y-92261000D01*
X153232916Y-92261000D02*
X192649000Y-92261000D01*
X139690000Y-92769000D02*
X151374000Y-92769000D01*
X151374000Y-92769000D02*
X152724916Y-92769000D01*
%TO.N,Net-(U3-Pad13)*%
X152015513Y-107120000D02*
X152263000Y-107120000D01*
X145024000Y-107120000D02*
X152015513Y-107120000D01*
%TO.N,Net-(U3-Pad6)*%
X144105478Y-101532000D02*
X155438000Y-101532000D01*
X143343478Y-100770000D02*
X144105478Y-101532000D01*
X137531000Y-100770000D02*
X143343478Y-100770000D01*
%TO.N,/P07*%
X128814084Y-95690000D02*
X128733009Y-95608925D01*
X134252991Y-95343991D02*
X133178009Y-95343991D01*
X133178009Y-95343991D02*
X132832000Y-95690000D01*
X128814084Y-95690000D02*
X123353084Y-90229000D01*
X108829000Y-88832000D02*
X108829000Y-86800000D01*
X129784000Y-95690000D02*
X128814084Y-95690000D01*
X110226000Y-90229000D02*
X108829000Y-88832000D01*
X134477500Y-95568500D02*
X134252991Y-95343991D01*
X123353084Y-90229000D02*
X110226000Y-90229000D01*
X132832000Y-95690000D02*
X129784000Y-95690000D01*
%TO.N,Net-(U3-Pad5)*%
X139651509Y-108457001D02*
X139249001Y-108457001D01*
X158105000Y-107882000D02*
X153062564Y-107882000D01*
X133721000Y-95944000D02*
X134016998Y-96239998D01*
X139753500Y-108355010D02*
X139651509Y-108457001D01*
X152589554Y-108355010D02*
X139753500Y-108355010D01*
X134016998Y-96239998D02*
X139249001Y-96239998D01*
X153062564Y-107882000D02*
X152589554Y-108355010D01*
%TO.N,Net-(JP2-B)*%
X156073000Y-96198000D02*
X174107000Y-96198000D01*
X174107000Y-96198000D02*
X177409000Y-96198000D01*
%TD*%
%TA.AperFunction,NonConductor*%
G36*
X132822286Y-94877232D02*
G01*
X132865827Y-94927481D01*
X132875289Y-94993293D01*
X132847668Y-95053774D01*
X132841928Y-95059939D01*
X132684927Y-95216939D01*
X132626571Y-95248803D01*
X132601489Y-95251500D01*
X131960692Y-95251500D01*
X131896896Y-95232768D01*
X131853355Y-95182519D01*
X131843893Y-95116707D01*
X131844145Y-95115041D01*
X131853654Y-95055002D01*
X131853654Y-95054997D01*
X131844145Y-94994959D01*
X131852667Y-94929018D01*
X131895486Y-94878153D01*
X131959007Y-94858512D01*
X131960692Y-94858500D01*
X132758490Y-94858500D01*
X132822286Y-94877232D01*
G37*
%TD.AperFunction*%
%TA.AperFunction,NonConductor*%
G36*
X130973104Y-94877232D02*
G01*
X131016645Y-94927481D01*
X131026107Y-94993293D01*
X131025855Y-94994959D01*
X131016346Y-95054997D01*
X131016346Y-95055002D01*
X131025855Y-95115041D01*
X131017333Y-95180982D01*
X130974514Y-95231847D01*
X130910993Y-95251488D01*
X130909308Y-95251500D01*
X129044594Y-95251500D01*
X128980798Y-95232768D01*
X128961155Y-95216939D01*
X128804155Y-95059939D01*
X128772291Y-95001583D01*
X128777034Y-94935263D01*
X128816879Y-94882036D01*
X128879176Y-94858801D01*
X128887594Y-94858500D01*
X130488270Y-94858500D01*
X130909308Y-94858500D01*
X130973104Y-94877232D01*
G37*
%TD.AperFunction*%
%TA.AperFunction,NonConductor*%
G36*
X133232622Y-96007058D02*
G01*
X133285851Y-96046901D01*
X133305368Y-96087076D01*
X133308460Y-96098615D01*
X133312384Y-96113256D01*
X133319402Y-96125412D01*
X133352229Y-96182271D01*
X133373979Y-96219942D01*
X133372447Y-96220826D01*
X133392883Y-96273700D01*
X133379518Y-96338832D01*
X133333062Y-96386399D01*
X133275291Y-96401508D01*
X130845030Y-96401508D01*
X130729570Y-96401508D01*
X130729567Y-96401508D01*
X130729565Y-96401509D01*
X130618044Y-96431391D01*
X130518057Y-96489119D01*
X130518055Y-96489120D01*
X130518055Y-96489121D01*
X130467840Y-96539335D01*
X130409487Y-96571198D01*
X130343167Y-96566455D01*
X130300967Y-96539335D01*
X130243745Y-96482113D01*
X130217993Y-96467245D01*
X130143755Y-96424383D01*
X130032234Y-96394501D01*
X130032233Y-96394500D01*
X130032230Y-96394500D01*
X130032226Y-96394500D01*
X128687784Y-96394500D01*
X128623988Y-96375768D01*
X128580447Y-96325519D01*
X128570793Y-96261100D01*
X128571500Y-96255729D01*
X128571500Y-96232749D01*
X128590232Y-96168953D01*
X128640481Y-96125412D01*
X128706293Y-96115950D01*
X128720041Y-96118770D01*
X128756354Y-96128500D01*
X128756358Y-96128500D01*
X132889726Y-96128500D01*
X132889730Y-96128500D01*
X133001255Y-96098617D01*
X133037853Y-96077486D01*
X133101245Y-96040888D01*
X133107948Y-96034185D01*
X133166303Y-96002318D01*
X133232622Y-96007058D01*
G37*
%TD.AperFunction*%
%TA.AperFunction,NonConductor*%
G36*
X101939772Y-96797232D02*
G01*
X101959415Y-96813061D01*
X102337251Y-97190897D01*
X102406996Y-97231164D01*
X102406997Y-97231164D01*
X102437240Y-97248625D01*
X102548765Y-97278508D01*
X105328897Y-97278508D01*
X105392693Y-97297240D01*
X105412336Y-97313069D01*
X105616328Y-97517061D01*
X105648192Y-97575417D01*
X105643449Y-97641737D01*
X105603604Y-97694964D01*
X105541307Y-97718199D01*
X105532889Y-97718500D01*
X102538354Y-97718500D01*
X102474558Y-97699768D01*
X102454915Y-97683939D01*
X102165806Y-97394830D01*
X101870020Y-97099044D01*
X101870016Y-97099041D01*
X101870015Y-97099040D01*
X101765444Y-97029170D01*
X101708341Y-97005517D01*
X101656570Y-96963797D01*
X101635573Y-96900711D01*
X101652017Y-96836287D01*
X101700680Y-96790981D01*
X101753498Y-96778500D01*
X101875976Y-96778500D01*
X101939772Y-96797232D01*
G37*
%TD.AperFunction*%
%TA.AperFunction,NonConductor*%
G36*
X126151729Y-97290232D02*
G01*
X126195270Y-97340481D01*
X126204732Y-97406293D01*
X126201912Y-97420041D01*
X126200384Y-97425743D01*
X126200383Y-97425745D01*
X126184248Y-97485961D01*
X126170501Y-97537265D01*
X126170500Y-97537273D01*
X126170500Y-97638510D01*
X126151768Y-97702306D01*
X126101519Y-97745847D01*
X126052500Y-97756510D01*
X125725021Y-97756510D01*
X125661225Y-97737778D01*
X125641582Y-97721949D01*
X125579733Y-97660100D01*
X125506362Y-97617740D01*
X125479747Y-97602374D01*
X125479746Y-97602373D01*
X125479745Y-97602373D01*
X125379144Y-97575417D01*
X125368224Y-97572491D01*
X125368223Y-97572490D01*
X125368220Y-97572490D01*
X125368216Y-97572490D01*
X122169021Y-97572490D01*
X122105225Y-97553758D01*
X122085582Y-97537929D01*
X122020592Y-97472939D01*
X121988728Y-97414583D01*
X121993471Y-97348263D01*
X122033316Y-97295036D01*
X122095613Y-97271801D01*
X122104031Y-97271500D01*
X126087933Y-97271500D01*
X126151729Y-97290232D01*
G37*
%TD.AperFunction*%
%TA.AperFunction,NonConductor*%
G36*
X110729797Y-98017242D02*
G01*
X110749440Y-98033071D01*
X110849256Y-98132887D01*
X110897084Y-98160500D01*
X110949246Y-98190616D01*
X111060771Y-98220499D01*
X111176231Y-98220499D01*
X112738805Y-98220499D01*
X112802601Y-98239231D01*
X112846142Y-98289480D01*
X112854514Y-98347713D01*
X112855346Y-98347713D01*
X112855346Y-98353497D01*
X112855604Y-98355292D01*
X112855353Y-98356954D01*
X112855346Y-98356998D01*
X112855346Y-98357002D01*
X112875834Y-98486364D01*
X112875835Y-98486369D01*
X112875836Y-98486371D01*
X112884663Y-98503694D01*
X112934072Y-98600666D01*
X112935302Y-98603079D01*
X113027921Y-98695698D01*
X113144629Y-98755164D01*
X113144634Y-98755164D01*
X113144635Y-98755165D01*
X113273998Y-98775654D01*
X113274000Y-98775654D01*
X113274002Y-98775654D01*
X113377604Y-98759245D01*
X113403371Y-98755164D01*
X113520079Y-98695698D01*
X113612698Y-98603079D01*
X113672164Y-98486371D01*
X113683511Y-98414728D01*
X113692654Y-98357002D01*
X113692654Y-98356998D01*
X113692647Y-98356954D01*
X113692654Y-98356899D01*
X113692654Y-98347713D01*
X113693842Y-98347713D01*
X113701171Y-98291014D01*
X113743992Y-98240150D01*
X113807514Y-98220511D01*
X113809195Y-98220499D01*
X118260658Y-98220499D01*
X118324454Y-98239231D01*
X118367995Y-98289480D01*
X118377457Y-98355292D01*
X118365797Y-98392069D01*
X118302847Y-98515616D01*
X118302844Y-98515625D01*
X118282356Y-98644987D01*
X118282356Y-98644992D01*
X118302844Y-98774354D01*
X118302845Y-98774359D01*
X118302846Y-98774361D01*
X118342892Y-98852956D01*
X118361731Y-98889929D01*
X118374003Y-98955276D01*
X118348998Y-99016884D01*
X118294655Y-99055193D01*
X118256592Y-99061500D01*
X109914270Y-99061500D01*
X109874278Y-99072216D01*
X109873606Y-99072396D01*
X109807136Y-99070813D01*
X109752073Y-99033545D01*
X109740874Y-99017414D01*
X109725871Y-98991428D01*
X109722878Y-98986243D01*
X109175061Y-98438426D01*
X109143197Y-98380070D01*
X109140500Y-98354987D01*
X109140500Y-98172273D01*
X109140500Y-98172270D01*
X109137347Y-98160501D01*
X109133743Y-98147050D01*
X109135325Y-98080580D01*
X109172593Y-98025517D01*
X109233714Y-97999344D01*
X109247722Y-97998510D01*
X110666001Y-97998510D01*
X110729797Y-98017242D01*
G37*
%TD.AperFunction*%
%TA.AperFunction,NonConductor*%
G36*
X142556756Y-98612511D02*
G01*
X142597872Y-98664763D01*
X142604211Y-98730949D01*
X142573761Y-98790055D01*
X142571776Y-98792089D01*
X142336928Y-99026938D01*
X142278572Y-99058803D01*
X142253489Y-99061500D01*
X140767730Y-99061500D01*
X137966270Y-99061500D01*
X137966267Y-99061500D01*
X137966265Y-99061501D01*
X137854744Y-99091383D01*
X137754755Y-99149112D01*
X137684937Y-99218930D01*
X137626581Y-99250794D01*
X137560261Y-99246051D01*
X137507035Y-99206205D01*
X137485767Y-99158513D01*
X137465512Y-99056685D01*
X137419915Y-98946603D01*
X137391000Y-98876794D01*
X137390999Y-98876792D01*
X137390998Y-98876790D01*
X137351091Y-98817066D01*
X137331225Y-98753616D01*
X137348815Y-98689496D01*
X137398279Y-98645065D01*
X137449206Y-98633510D01*
X142322716Y-98633510D01*
X142322720Y-98633510D01*
X142434245Y-98603627D01*
X142434255Y-98603621D01*
X142441392Y-98600666D01*
X142442474Y-98603278D01*
X142493917Y-98590783D01*
X142556756Y-98612511D01*
G37*
%TD.AperFunction*%
%TA.AperFunction,NonConductor*%
G36*
X121542805Y-98239231D02*
G01*
X121562448Y-98255060D01*
X121587623Y-98280235D01*
X121587622Y-98280235D01*
X121634111Y-98326723D01*
X121669265Y-98361877D01*
X121769255Y-98419607D01*
X121880780Y-98449490D01*
X123639500Y-98449490D01*
X123703296Y-98468222D01*
X123746837Y-98518471D01*
X123757500Y-98567490D01*
X123757500Y-99997989D01*
X123738768Y-100061785D01*
X123688519Y-100105326D01*
X123622707Y-100114788D01*
X123562226Y-100087167D01*
X123556061Y-100081428D01*
X122421236Y-98946603D01*
X122348485Y-98904601D01*
X122321247Y-98888875D01*
X122209726Y-98858993D01*
X122209725Y-98858992D01*
X122209722Y-98858992D01*
X122209718Y-98858992D01*
X119223930Y-98858992D01*
X119160134Y-98840260D01*
X119116593Y-98790011D01*
X119107131Y-98724199D01*
X119107383Y-98722533D01*
X119119664Y-98644992D01*
X119119664Y-98644987D01*
X119099175Y-98515625D01*
X119099174Y-98515624D01*
X119099174Y-98515619D01*
X119070913Y-98460153D01*
X119036223Y-98392069D01*
X119023951Y-98326723D01*
X119048956Y-98265115D01*
X119103300Y-98226806D01*
X119141362Y-98220499D01*
X121479009Y-98220499D01*
X121542805Y-98239231D01*
G37*
%TD.AperFunction*%
%TA.AperFunction,NonConductor*%
G36*
X193223601Y-91956730D02*
G01*
X193255481Y-91979431D01*
X195943939Y-94667889D01*
X195975803Y-94726245D01*
X195978500Y-94751328D01*
X195978500Y-96410276D01*
X195959768Y-96474072D01*
X195909519Y-96517613D01*
X195843707Y-96527075D01*
X195783226Y-96499454D01*
X195755361Y-96463847D01*
X195746957Y-96447354D01*
X195740080Y-96433856D01*
X195655782Y-96317830D01*
X195602367Y-96244311D01*
X195602366Y-96244310D01*
X195602364Y-96244307D01*
X195436693Y-96078636D01*
X195436689Y-96078633D01*
X195436688Y-96078632D01*
X195247143Y-95940919D01*
X195038389Y-95834554D01*
X194815553Y-95762150D01*
X194584150Y-95725500D01*
X194584148Y-95725500D01*
X194349852Y-95725500D01*
X194349849Y-95725500D01*
X194118446Y-95762150D01*
X193895610Y-95834554D01*
X193686856Y-95940919D01*
X193497311Y-96078632D01*
X193331632Y-96244311D01*
X193193919Y-96433856D01*
X193087554Y-96642610D01*
X193015150Y-96865446D01*
X192978500Y-97096849D01*
X192978500Y-97255672D01*
X192959768Y-97319468D01*
X192943939Y-97339111D01*
X190155111Y-100127939D01*
X190096755Y-100159803D01*
X190071672Y-100162500D01*
X180105640Y-100162500D01*
X179914667Y-100200486D01*
X179734770Y-100275003D01*
X179663515Y-100322614D01*
X179600063Y-100342481D01*
X179597958Y-100342500D01*
X179209051Y-100342500D01*
X179145255Y-100323768D01*
X179101714Y-100273519D01*
X179092252Y-100207707D01*
X179119873Y-100147226D01*
X179125598Y-100141075D01*
X179156887Y-100109787D01*
X179214617Y-100009797D01*
X179223900Y-99975152D01*
X179244500Y-99898272D01*
X179244500Y-97444511D01*
X179263232Y-97380715D01*
X179279061Y-97361072D01*
X179842072Y-96798061D01*
X179900428Y-96766197D01*
X179925511Y-96763500D01*
X180260726Y-96763500D01*
X180260730Y-96763500D01*
X180372255Y-96733617D01*
X180472245Y-96675887D01*
X180553887Y-96594245D01*
X180611617Y-96494255D01*
X180641500Y-96382730D01*
X180641500Y-96267270D01*
X180611617Y-96155745D01*
X180605552Y-96145241D01*
X180589877Y-96080628D01*
X180611622Y-96017796D01*
X180663885Y-95976694D01*
X180730073Y-95970373D01*
X180789171Y-96000839D01*
X180791182Y-96002802D01*
X180829268Y-96040888D01*
X180892659Y-96077486D01*
X180892666Y-96077490D01*
X180929255Y-96098616D01*
X180929257Y-96098616D01*
X180929258Y-96098617D01*
X181040783Y-96128500D01*
X181040787Y-96128500D01*
X182289821Y-96128500D01*
X182353617Y-96147232D01*
X182397158Y-96197481D01*
X182406620Y-96263293D01*
X182386254Y-96311638D01*
X182386980Y-96312057D01*
X182383646Y-96317830D01*
X182383432Y-96318340D01*
X182383110Y-96318758D01*
X182325383Y-96418744D01*
X182297850Y-96521501D01*
X182295500Y-96530270D01*
X182295500Y-96645730D01*
X182295500Y-96645733D01*
X182295501Y-96645734D01*
X182325383Y-96757255D01*
X182378766Y-96849717D01*
X182383113Y-96857245D01*
X182464755Y-96938887D01*
X182564745Y-96996617D01*
X182676270Y-97026500D01*
X182676274Y-97026500D01*
X183039213Y-97026500D01*
X183039217Y-97026500D01*
X183057799Y-97021521D01*
X183088340Y-97017500D01*
X185086726Y-97017500D01*
X185086730Y-97017500D01*
X185198255Y-96987617D01*
X185298245Y-96929887D01*
X185379887Y-96848245D01*
X185437617Y-96748255D01*
X185467500Y-96636730D01*
X185467500Y-96521270D01*
X185437617Y-96409745D01*
X185379887Y-96309755D01*
X185379884Y-96309752D01*
X185377430Y-96305501D01*
X185361755Y-96240886D01*
X185383501Y-96178054D01*
X185435764Y-96136953D01*
X185479621Y-96128500D01*
X190166726Y-96128500D01*
X190166730Y-96128500D01*
X190278255Y-96098617D01*
X190378245Y-96040887D01*
X190459887Y-95959245D01*
X190517617Y-95859255D01*
X190547500Y-95747730D01*
X190547500Y-95632270D01*
X190517617Y-95520745D01*
X190459887Y-95420755D01*
X190378245Y-95339113D01*
X190326987Y-95309519D01*
X190278255Y-95281383D01*
X190166734Y-95251501D01*
X190166733Y-95251500D01*
X190166730Y-95251500D01*
X190166726Y-95251500D01*
X181329024Y-95251500D01*
X181265228Y-95232768D01*
X181245585Y-95216939D01*
X179628916Y-93600270D01*
X180907500Y-93600270D01*
X180907500Y-93715730D01*
X180907500Y-93715733D01*
X180907501Y-93715734D01*
X180937383Y-93827255D01*
X180975988Y-93894121D01*
X180995113Y-93927245D01*
X181076755Y-94008887D01*
X181176745Y-94066617D01*
X181288270Y-94096500D01*
X181288274Y-94096500D01*
X189493626Y-94096500D01*
X189493630Y-94096500D01*
X189605155Y-94066617D01*
X189705145Y-94008887D01*
X189786787Y-93927245D01*
X189844517Y-93827255D01*
X189874400Y-93715730D01*
X189874400Y-93600270D01*
X189844517Y-93488745D01*
X189786787Y-93388755D01*
X189705145Y-93307113D01*
X189679393Y-93292245D01*
X189605155Y-93249383D01*
X189493634Y-93219501D01*
X189493633Y-93219500D01*
X189493630Y-93219500D01*
X181403730Y-93219500D01*
X181288270Y-93219500D01*
X181288267Y-93219500D01*
X181288265Y-93219501D01*
X181176744Y-93249383D01*
X181076757Y-93307111D01*
X180995111Y-93388757D01*
X180937383Y-93488744D01*
X180909964Y-93591075D01*
X180907500Y-93600270D01*
X179628916Y-93600270D01*
X179335759Y-93307113D01*
X179335758Y-93307112D01*
X179256481Y-93261342D01*
X179235768Y-93249383D01*
X179124243Y-93219500D01*
X162480730Y-93219500D01*
X161591730Y-93219500D01*
X161476270Y-93219500D01*
X161476267Y-93219500D01*
X161476265Y-93219501D01*
X161364744Y-93249383D01*
X161264757Y-93307111D01*
X161183111Y-93388757D01*
X161125383Y-93488744D01*
X161097964Y-93591075D01*
X161095500Y-93600270D01*
X161095500Y-93715730D01*
X161095500Y-93715733D01*
X161095501Y-93715734D01*
X161125383Y-93827255D01*
X161163988Y-93894121D01*
X161183113Y-93927245D01*
X161264755Y-94008887D01*
X161364745Y-94066617D01*
X161476270Y-94096500D01*
X161591730Y-94096500D01*
X162365270Y-94096500D01*
X178836002Y-94096500D01*
X178899798Y-94115232D01*
X178919441Y-94131061D01*
X180525197Y-95736817D01*
X180557061Y-95795173D01*
X180552318Y-95861493D01*
X180512473Y-95914720D01*
X180450176Y-95937955D01*
X180385207Y-95923822D01*
X180382758Y-95922447D01*
X180372255Y-95916383D01*
X180260734Y-95886501D01*
X180260733Y-95886500D01*
X180260730Y-95886500D01*
X179637270Y-95886500D01*
X179637267Y-95886500D01*
X179637265Y-95886501D01*
X179525744Y-95916383D01*
X179515501Y-95922297D01*
X179499765Y-95931383D01*
X179425755Y-95974111D01*
X178455114Y-96944752D01*
X178455112Y-96944754D01*
X178455112Y-96944755D01*
X178421915Y-97002255D01*
X178421914Y-97002254D01*
X178397384Y-97044742D01*
X178367501Y-97156265D01*
X178367500Y-97156273D01*
X178367500Y-99072216D01*
X178348768Y-99136012D01*
X178298519Y-99179553D01*
X178234100Y-99189207D01*
X178228730Y-99188500D01*
X178228729Y-99188500D01*
X171249053Y-99188500D01*
X171185257Y-99169768D01*
X171165614Y-99153939D01*
X169924172Y-97912497D01*
X175974346Y-97912497D01*
X175974346Y-97912502D01*
X175994834Y-98041864D01*
X175994835Y-98041869D01*
X175994836Y-98041871D01*
X176019357Y-98089996D01*
X176048427Y-98147050D01*
X176054302Y-98158579D01*
X176146921Y-98251198D01*
X176263629Y-98310664D01*
X176263634Y-98310664D01*
X176263635Y-98310665D01*
X176392998Y-98331154D01*
X176393000Y-98331154D01*
X176393002Y-98331154D01*
X176489320Y-98315898D01*
X176522371Y-98310664D01*
X176639079Y-98251198D01*
X176731698Y-98158579D01*
X176791164Y-98041871D01*
X176797155Y-98004044D01*
X176811654Y-97912502D01*
X176811654Y-97912497D01*
X176791165Y-97783135D01*
X176791164Y-97783134D01*
X176791164Y-97783129D01*
X176731698Y-97666421D01*
X176639079Y-97573802D01*
X176639076Y-97573800D01*
X176582990Y-97545223D01*
X176522371Y-97514336D01*
X176522369Y-97514335D01*
X176522364Y-97514334D01*
X176393002Y-97493846D01*
X176392998Y-97493846D01*
X176263635Y-97514334D01*
X176263629Y-97514336D01*
X176146923Y-97573800D01*
X176054300Y-97666423D01*
X175994836Y-97783129D01*
X175994834Y-97783135D01*
X175974346Y-97912497D01*
X169924172Y-97912497D01*
X169484614Y-97472939D01*
X169452750Y-97414583D01*
X169457493Y-97348263D01*
X169497338Y-97295036D01*
X169559635Y-97271801D01*
X169568053Y-97271500D01*
X169692490Y-97271500D01*
X169756286Y-97290232D01*
X169775928Y-97306061D01*
X169899055Y-97429187D01*
X170020755Y-97550887D01*
X170120745Y-97608617D01*
X170232270Y-97638499D01*
X170232272Y-97638499D01*
X170347727Y-97638499D01*
X170347729Y-97638499D01*
X170459254Y-97608617D01*
X170559245Y-97550887D01*
X170640887Y-97469245D01*
X170698617Y-97369254D01*
X170728499Y-97257729D01*
X170728499Y-97142270D01*
X170698617Y-97030745D01*
X170640887Y-96930755D01*
X170548068Y-96837936D01*
X170516206Y-96779583D01*
X170520949Y-96713263D01*
X170560794Y-96660036D01*
X170623091Y-96636801D01*
X170631509Y-96636500D01*
X177466726Y-96636500D01*
X177466730Y-96636500D01*
X177578255Y-96606617D01*
X177678245Y-96548887D01*
X177759887Y-96467245D01*
X177817617Y-96367255D01*
X177847500Y-96255730D01*
X177847500Y-96140270D01*
X177817617Y-96028745D01*
X177759887Y-95928755D01*
X177678245Y-95847113D01*
X177656492Y-95834554D01*
X177578255Y-95789383D01*
X177466734Y-95759501D01*
X177466733Y-95759500D01*
X177466730Y-95759500D01*
X174164730Y-95759500D01*
X156273510Y-95759500D01*
X156209714Y-95740768D01*
X156166173Y-95690519D01*
X156156711Y-95624707D01*
X156184332Y-95564226D01*
X156190071Y-95558061D01*
X156438614Y-95309519D01*
X156855072Y-94893061D01*
X156913428Y-94861197D01*
X156938511Y-94858500D01*
X158162726Y-94858500D01*
X158162730Y-94858500D01*
X158274255Y-94828617D01*
X158322094Y-94800997D01*
X160670846Y-94800997D01*
X160670846Y-94801002D01*
X160691334Y-94930364D01*
X160691335Y-94930369D01*
X160691336Y-94930371D01*
X160711658Y-94970255D01*
X160727620Y-95001583D01*
X160750802Y-95047079D01*
X160843421Y-95139698D01*
X160960129Y-95199164D01*
X160960134Y-95199164D01*
X160960135Y-95199165D01*
X161089498Y-95219654D01*
X161089500Y-95219654D01*
X161089502Y-95219654D01*
X161185820Y-95204398D01*
X161218871Y-95199164D01*
X161335579Y-95139698D01*
X161428198Y-95047079D01*
X161487664Y-94930371D01*
X161498620Y-94861197D01*
X161508154Y-94801002D01*
X161508154Y-94800997D01*
X161487665Y-94671635D01*
X161487664Y-94671634D01*
X161487664Y-94671629D01*
X161428198Y-94554921D01*
X161335579Y-94462302D01*
X161335576Y-94462300D01*
X161279490Y-94433723D01*
X161218871Y-94402836D01*
X161218869Y-94402835D01*
X161218864Y-94402834D01*
X161089502Y-94382346D01*
X161089498Y-94382346D01*
X160960135Y-94402834D01*
X160960129Y-94402836D01*
X160843423Y-94462300D01*
X160750800Y-94554923D01*
X160691336Y-94671629D01*
X160691334Y-94671635D01*
X160670846Y-94800997D01*
X158322094Y-94800997D01*
X158374245Y-94770887D01*
X158455887Y-94689245D01*
X158513617Y-94589255D01*
X158543500Y-94477730D01*
X158543500Y-94362270D01*
X158513617Y-94250745D01*
X158455887Y-94150755D01*
X158374245Y-94069113D01*
X158369920Y-94066616D01*
X158274255Y-94011383D01*
X158162734Y-93981501D01*
X158162733Y-93981500D01*
X158162730Y-93981500D01*
X156650270Y-93981500D01*
X156650267Y-93981500D01*
X156650265Y-93981501D01*
X156563817Y-94004665D01*
X156538745Y-94011383D01*
X156518032Y-94023342D01*
X156464511Y-94054242D01*
X156438753Y-94069113D01*
X154655928Y-95851939D01*
X154597572Y-95883803D01*
X154572489Y-95886500D01*
X152320730Y-95886500D01*
X146925744Y-95886500D01*
X146925741Y-95886500D01*
X146925737Y-95886501D01*
X146818681Y-95915186D01*
X146818682Y-95915187D01*
X146814222Y-95916381D01*
X146814217Y-95916384D01*
X146714229Y-95974112D01*
X146714228Y-95974113D01*
X146321393Y-96366947D01*
X146263037Y-96398811D01*
X146237955Y-96401508D01*
X139805501Y-96401508D01*
X139741705Y-96382776D01*
X139698164Y-96332527D01*
X139687501Y-96283508D01*
X139687501Y-96182271D01*
X139687501Y-96182268D01*
X139657618Y-96070743D01*
X139599888Y-95970753D01*
X139518246Y-95889111D01*
X139513725Y-95886501D01*
X139418256Y-95831381D01*
X139306735Y-95801499D01*
X139306734Y-95801498D01*
X139306731Y-95801498D01*
X139306727Y-95801498D01*
X135022818Y-95801498D01*
X134959022Y-95782766D01*
X134915481Y-95732517D01*
X134906019Y-95666705D01*
X134908838Y-95652958D01*
X134910235Y-95647744D01*
X134916000Y-95626230D01*
X134916000Y-95510771D01*
X134904034Y-95466113D01*
X134886120Y-95399254D01*
X134886117Y-95399249D01*
X134886117Y-95399246D01*
X134828388Y-95299255D01*
X134589072Y-95059939D01*
X134557208Y-95001583D01*
X134561951Y-94935263D01*
X134601796Y-94882036D01*
X134664093Y-94858801D01*
X134672511Y-94858500D01*
X152320726Y-94858500D01*
X152320730Y-94858500D01*
X152432255Y-94828617D01*
X152532245Y-94770887D01*
X152613887Y-94689245D01*
X152671617Y-94589255D01*
X152701500Y-94477730D01*
X152701500Y-94362270D01*
X152671617Y-94250745D01*
X152671616Y-94250743D01*
X152669615Y-94243275D01*
X152671521Y-94242764D01*
X152665545Y-94187121D01*
X152695312Y-94127668D01*
X152751126Y-94094104D01*
X152853713Y-94066617D01*
X152890311Y-94045486D01*
X152953703Y-94008888D01*
X153384242Y-93578348D01*
X153442594Y-93546487D01*
X153508914Y-93551230D01*
X153562141Y-93591075D01*
X153585376Y-93653372D01*
X153584669Y-93677183D01*
X153584000Y-93682267D01*
X153584000Y-93682270D01*
X153584000Y-93797730D01*
X153584000Y-93797733D01*
X153584001Y-93797734D01*
X153613883Y-93909255D01*
X153668968Y-94004665D01*
X153671613Y-94009245D01*
X153753255Y-94090887D01*
X153853245Y-94148617D01*
X153964770Y-94178500D01*
X153964774Y-94178500D01*
X155096226Y-94178500D01*
X155096230Y-94178500D01*
X155207755Y-94148617D01*
X155244353Y-94127486D01*
X155307745Y-94090888D01*
X155966072Y-93432561D01*
X156024428Y-93400697D01*
X156049511Y-93398000D01*
X159813726Y-93398000D01*
X159813730Y-93398000D01*
X159925255Y-93368117D01*
X160025245Y-93310387D01*
X160106887Y-93228745D01*
X160164617Y-93128755D01*
X160194500Y-93017230D01*
X160194500Y-92901770D01*
X160180103Y-92848039D01*
X160181685Y-92781571D01*
X160218952Y-92726508D01*
X160280072Y-92700335D01*
X160294082Y-92699500D01*
X192706726Y-92699500D01*
X192706730Y-92699500D01*
X192818255Y-92669617D01*
X192918245Y-92611887D01*
X192999887Y-92530245D01*
X193057617Y-92430255D01*
X193087500Y-92318730D01*
X193087500Y-92203270D01*
X193058063Y-92093409D01*
X193059645Y-92026941D01*
X193096912Y-91971878D01*
X193158033Y-91945705D01*
X193223601Y-91956730D01*
G37*
%TD.AperFunction*%
%TA.AperFunction,NonConductor*%
G36*
X108220074Y-98017242D02*
G01*
X108263615Y-98067491D01*
X108273077Y-98133303D01*
X108270257Y-98147050D01*
X108263501Y-98172262D01*
X108263500Y-98172273D01*
X108263500Y-98643224D01*
X108263501Y-98643234D01*
X108293379Y-98754744D01*
X108293384Y-98754755D01*
X108310054Y-98783628D01*
X108351111Y-98854742D01*
X108898929Y-99402560D01*
X108930793Y-99460916D01*
X108933490Y-99485999D01*
X108933490Y-99806262D01*
X108933490Y-99806265D01*
X108933491Y-99806266D01*
X108963373Y-99917787D01*
X108984503Y-99954385D01*
X108984503Y-99954386D01*
X109021100Y-100017775D01*
X109163386Y-100160061D01*
X109195250Y-100218417D01*
X109190507Y-100284737D01*
X109150662Y-100337964D01*
X109088365Y-100361199D01*
X109079947Y-100361500D01*
X109013354Y-100361500D01*
X108949558Y-100342768D01*
X108929915Y-100326939D01*
X106802925Y-98199949D01*
X106771061Y-98141593D01*
X106775804Y-98075273D01*
X106815649Y-98022046D01*
X106877946Y-97998811D01*
X106886364Y-97998510D01*
X108156278Y-97998510D01*
X108220074Y-98017242D01*
G37*
%TD.AperFunction*%
%TA.AperFunction,NonConductor*%
G36*
X125143775Y-98468222D02*
G01*
X125163417Y-98484051D01*
X125194983Y-98515616D01*
X125225265Y-98545898D01*
X125325256Y-98603628D01*
X125325260Y-98603629D01*
X125325262Y-98603630D01*
X125406873Y-98625497D01*
X125406884Y-98625499D01*
X125406898Y-98625503D01*
X125436780Y-98633510D01*
X125436781Y-98633510D01*
X125552240Y-98633510D01*
X127425141Y-98633510D01*
X127488937Y-98652242D01*
X127532478Y-98702491D01*
X127541940Y-98768303D01*
X127539120Y-98782051D01*
X127519502Y-98855264D01*
X127519501Y-98855272D01*
X127519501Y-98936488D01*
X127500769Y-99000284D01*
X127484940Y-99019927D01*
X125750113Y-100754753D01*
X125701185Y-100839501D01*
X125692383Y-100854746D01*
X125681334Y-100895982D01*
X125671950Y-100931002D01*
X125637344Y-100987775D01*
X125577538Y-101016826D01*
X125511519Y-101008932D01*
X125474532Y-100983899D01*
X124669061Y-100178428D01*
X124637197Y-100120072D01*
X124634500Y-100094989D01*
X124634500Y-98567490D01*
X124653232Y-98503694D01*
X124703481Y-98460153D01*
X124752500Y-98449490D01*
X125079979Y-98449490D01*
X125143775Y-98468222D01*
G37*
%TD.AperFunction*%
%TA.AperFunction,NonConductor*%
G36*
X156509340Y-101051344D02*
G01*
X156562567Y-101091189D01*
X156573243Y-101108333D01*
X156616512Y-101193254D01*
X156623302Y-101206579D01*
X156715921Y-101299198D01*
X156832629Y-101358664D01*
X156832634Y-101358664D01*
X156832635Y-101358665D01*
X156961998Y-101379154D01*
X156962000Y-101379154D01*
X156962002Y-101379154D01*
X157065604Y-101362745D01*
X157091371Y-101358664D01*
X157177429Y-101314814D01*
X157242776Y-101302543D01*
X157304383Y-101327548D01*
X157342693Y-101381891D01*
X157349000Y-101419954D01*
X157349000Y-101462730D01*
X157378883Y-101574255D01*
X157378884Y-101574256D01*
X157380412Y-101579959D01*
X157378830Y-101646429D01*
X157341563Y-101701492D01*
X157280442Y-101727665D01*
X157266433Y-101728500D01*
X155992784Y-101728500D01*
X155928988Y-101709768D01*
X155885447Y-101659519D01*
X155875793Y-101595100D01*
X155876500Y-101589729D01*
X155876500Y-101474273D01*
X155876500Y-101474270D01*
X155854464Y-101392030D01*
X155856046Y-101325561D01*
X155893313Y-101270498D01*
X155954434Y-101244325D01*
X155968443Y-101243490D01*
X156095736Y-101243490D01*
X156095740Y-101243490D01*
X156207265Y-101213607D01*
X156307255Y-101155877D01*
X156384667Y-101078464D01*
X156443021Y-101046601D01*
X156509340Y-101051344D01*
G37*
%TD.AperFunction*%
%TA.AperFunction,NonConductor*%
G36*
X159900012Y-96655232D02*
G01*
X159943553Y-96705481D01*
X159953207Y-96769900D01*
X159952500Y-96775270D01*
X159952500Y-96890730D01*
X159980872Y-96996617D01*
X159982383Y-97002254D01*
X159982382Y-97002254D01*
X160038265Y-97099044D01*
X160040113Y-97102245D01*
X160121755Y-97183887D01*
X160221745Y-97241617D01*
X160254198Y-97250312D01*
X160310971Y-97284916D01*
X160340023Y-97344722D01*
X160337637Y-97394830D01*
X160333500Y-97410267D01*
X160333500Y-97410270D01*
X160333500Y-97525730D01*
X160333500Y-97525733D01*
X160333501Y-97525734D01*
X160363383Y-97637255D01*
X160410116Y-97718199D01*
X160421113Y-97737245D01*
X160502755Y-97818887D01*
X160602745Y-97876617D01*
X160714270Y-97906500D01*
X168629031Y-97906500D01*
X168692827Y-97925232D01*
X168712470Y-97941061D01*
X170358480Y-99587071D01*
X170390344Y-99645427D01*
X170385601Y-99711747D01*
X170345756Y-99764974D01*
X170283459Y-99788209D01*
X170275041Y-99788510D01*
X168623260Y-99788510D01*
X168623257Y-99788510D01*
X168623253Y-99788511D01*
X168515560Y-99817367D01*
X168515560Y-99817368D01*
X168513647Y-99817880D01*
X168511734Y-99818393D01*
X168411746Y-99876122D01*
X167482928Y-100804939D01*
X167424572Y-100836803D01*
X167399489Y-100839500D01*
X165372812Y-100839500D01*
X165372809Y-100839500D01*
X165372807Y-100839501D01*
X165261290Y-100869382D01*
X165261281Y-100869385D01*
X165252086Y-100874695D01*
X165252085Y-100874696D01*
X165161297Y-100927111D01*
X165061268Y-101027141D01*
X164962707Y-101125700D01*
X164904353Y-101157564D01*
X164838033Y-101152821D01*
X164795833Y-101125701D01*
X164724245Y-101054113D01*
X164723427Y-101053641D01*
X164624255Y-100996383D01*
X164512734Y-100966501D01*
X164512733Y-100966500D01*
X164512730Y-100966500D01*
X164512726Y-100966500D01*
X160345192Y-100966500D01*
X160281396Y-100947768D01*
X160237855Y-100897519D01*
X160228393Y-100831707D01*
X160228645Y-100830041D01*
X160238154Y-100770002D01*
X160238154Y-100769997D01*
X160217665Y-100640635D01*
X160217664Y-100640634D01*
X160217664Y-100640629D01*
X160158198Y-100523921D01*
X160065579Y-100431302D01*
X160065576Y-100431300D01*
X159997027Y-100396373D01*
X159948871Y-100371836D01*
X159948869Y-100371835D01*
X159948864Y-100371834D01*
X159819502Y-100351346D01*
X159819498Y-100351346D01*
X159690135Y-100371834D01*
X159690129Y-100371836D01*
X159573423Y-100431300D01*
X159480800Y-100523923D01*
X159421336Y-100640629D01*
X159421334Y-100640635D01*
X159400846Y-100769997D01*
X159400846Y-100770002D01*
X159410355Y-100830041D01*
X159401833Y-100895982D01*
X159359014Y-100946847D01*
X159295493Y-100966488D01*
X159293808Y-100966500D01*
X157729770Y-100966500D01*
X157729767Y-100966500D01*
X157729765Y-100966501D01*
X157618244Y-100996383D01*
X157554456Y-101033212D01*
X157489842Y-101048887D01*
X157427010Y-101027141D01*
X157385909Y-100974878D01*
X157378909Y-100949480D01*
X157360165Y-100831135D01*
X157360164Y-100831134D01*
X157360164Y-100831129D01*
X157300698Y-100714421D01*
X157208079Y-100621802D01*
X157208076Y-100621800D01*
X157137806Y-100585996D01*
X157091371Y-100562336D01*
X157091369Y-100562335D01*
X157091364Y-100562334D01*
X156962002Y-100541846D01*
X156961998Y-100541846D01*
X156832635Y-100562334D01*
X156832629Y-100562336D01*
X156715921Y-100621801D01*
X156645110Y-100692612D01*
X156586754Y-100724476D01*
X156520435Y-100719733D01*
X156467208Y-100679887D01*
X156447694Y-100639719D01*
X156446627Y-100635735D01*
X156388897Y-100535745D01*
X156307255Y-100454103D01*
X156246651Y-100419113D01*
X156207265Y-100396373D01*
X156095744Y-100366491D01*
X156095743Y-100366490D01*
X156095740Y-100366490D01*
X144169280Y-100366490D01*
X144169277Y-100366490D01*
X144169275Y-100366491D01*
X144057754Y-100396373D01*
X143957767Y-100454101D01*
X143957765Y-100454102D01*
X143957765Y-100454103D01*
X143886176Y-100525691D01*
X143827823Y-100557554D01*
X143761503Y-100552811D01*
X143719301Y-100525690D01*
X143612724Y-100419113D01*
X143612723Y-100419112D01*
X143533841Y-100373570D01*
X143512733Y-100361383D01*
X143401208Y-100331500D01*
X137473270Y-100331500D01*
X137473267Y-100331500D01*
X137473265Y-100331501D01*
X137361744Y-100361383D01*
X137261757Y-100419111D01*
X137180111Y-100500757D01*
X137122383Y-100600744D01*
X137095769Y-100700071D01*
X137092500Y-100712270D01*
X137092500Y-100827730D01*
X137092500Y-100827733D01*
X137092501Y-100827734D01*
X137122383Y-100939255D01*
X137177978Y-101035548D01*
X137180113Y-101039245D01*
X137261755Y-101120887D01*
X137361745Y-101178617D01*
X137473270Y-101208500D01*
X143112967Y-101208500D01*
X143176763Y-101227232D01*
X143196406Y-101243061D01*
X143618406Y-101665061D01*
X143650270Y-101723417D01*
X143645527Y-101789737D01*
X143605682Y-101842964D01*
X143543385Y-101866199D01*
X143534967Y-101866500D01*
X136644770Y-101866500D01*
X136580974Y-101847768D01*
X136561331Y-101831939D01*
X136141061Y-101411669D01*
X136109197Y-101353313D01*
X136106500Y-101328230D01*
X136106500Y-101200348D01*
X136125232Y-101136552D01*
X136141061Y-101116909D01*
X136705159Y-100552811D01*
X137282818Y-99975152D01*
X137390998Y-99813251D01*
X137391204Y-99812755D01*
X137427892Y-99724180D01*
X137469611Y-99672408D01*
X137532697Y-99651410D01*
X137597121Y-99667853D01*
X137639100Y-99710334D01*
X137673113Y-99769245D01*
X137754755Y-99850887D01*
X137854745Y-99908617D01*
X137966270Y-99938500D01*
X137966274Y-99938500D01*
X142541726Y-99938500D01*
X142541730Y-99938500D01*
X142653255Y-99908617D01*
X142690696Y-99887000D01*
X142753245Y-99850888D01*
X143154936Y-99449197D01*
X166677946Y-99449197D01*
X166677946Y-99449202D01*
X166698434Y-99578564D01*
X166698435Y-99578569D01*
X166698436Y-99578571D01*
X166702767Y-99587071D01*
X166746248Y-99672408D01*
X166757902Y-99695279D01*
X166850521Y-99787898D01*
X166967229Y-99847364D01*
X166967234Y-99847364D01*
X166967235Y-99847365D01*
X167096598Y-99867854D01*
X167096600Y-99867854D01*
X167096602Y-99867854D01*
X167203727Y-99850887D01*
X167225971Y-99847364D01*
X167342679Y-99787898D01*
X167435298Y-99695279D01*
X167494764Y-99578571D01*
X167509426Y-99485999D01*
X167515254Y-99449202D01*
X167515254Y-99449197D01*
X167494765Y-99319835D01*
X167494764Y-99319834D01*
X167494764Y-99319829D01*
X167435298Y-99203121D01*
X167342679Y-99110502D01*
X167342676Y-99110500D01*
X167264785Y-99070813D01*
X167225971Y-99051036D01*
X167225969Y-99051035D01*
X167225964Y-99051034D01*
X167096602Y-99030546D01*
X167096598Y-99030546D01*
X166967235Y-99051034D01*
X166967229Y-99051036D01*
X166850523Y-99110500D01*
X166757900Y-99203123D01*
X166698436Y-99319829D01*
X166698434Y-99319835D01*
X166677946Y-99449197D01*
X143154936Y-99449197D01*
X143977888Y-98626245D01*
X144035617Y-98526255D01*
X144065499Y-98414730D01*
X144065499Y-98299270D01*
X144064792Y-98293900D01*
X144075038Y-98228205D01*
X144119175Y-98178479D01*
X144181783Y-98160500D01*
X151304726Y-98160500D01*
X151304730Y-98160500D01*
X151416255Y-98130617D01*
X151516245Y-98072887D01*
X151597887Y-97991245D01*
X151652809Y-97896117D01*
X151700930Y-97850235D01*
X151766217Y-97837652D01*
X151827943Y-97862364D01*
X151857190Y-97896116D01*
X151912113Y-97991245D01*
X151993755Y-98072887D01*
X152093745Y-98130617D01*
X152205270Y-98160500D01*
X152205274Y-98160500D01*
X156375726Y-98160500D01*
X156375730Y-98160500D01*
X156487255Y-98130617D01*
X156523853Y-98109486D01*
X156587245Y-98072888D01*
X157060888Y-97599245D01*
X157101992Y-97528050D01*
X157118617Y-97499255D01*
X157122179Y-97485960D01*
X157156784Y-97429187D01*
X157216590Y-97400134D01*
X157236159Y-97398500D01*
X158162726Y-97398500D01*
X158162730Y-97398500D01*
X158274255Y-97368617D01*
X158374245Y-97310887D01*
X158455887Y-97229245D01*
X158513617Y-97129255D01*
X158543500Y-97017730D01*
X158543500Y-96902270D01*
X158513617Y-96790745D01*
X158513615Y-96790742D01*
X158512088Y-96785041D01*
X158513670Y-96718571D01*
X158550937Y-96663508D01*
X158612058Y-96637335D01*
X158626067Y-96636500D01*
X159836216Y-96636500D01*
X159900012Y-96655232D01*
G37*
%TD.AperFunction*%
%TA.AperFunction,NonConductor*%
G36*
X171942242Y-100684242D02*
G01*
X171985783Y-100734491D01*
X171995245Y-100800303D01*
X171987463Y-100828667D01*
X171932571Y-100961184D01*
X171932570Y-100961187D01*
X171901500Y-101117390D01*
X171901500Y-101276649D01*
X171932569Y-101432849D01*
X171932570Y-101432851D01*
X171993517Y-101579988D01*
X172081997Y-101712409D01*
X172185641Y-101816053D01*
X172217504Y-101874407D01*
X172212761Y-101940727D01*
X172172916Y-101993954D01*
X172110619Y-102017189D01*
X172102201Y-102017490D01*
X167196738Y-102017490D01*
X167196735Y-102017490D01*
X167196733Y-102017491D01*
X167085212Y-102047373D01*
X167050150Y-102067617D01*
X167050149Y-102067616D01*
X167012079Y-102089596D01*
X167004989Y-102093690D01*
X166945989Y-102109500D01*
X165504053Y-102109500D01*
X165440257Y-102090768D01*
X165396716Y-102040519D01*
X165387254Y-101974707D01*
X165414875Y-101914226D01*
X165420614Y-101908061D01*
X165577614Y-101751061D01*
X165635970Y-101719197D01*
X165661053Y-101716500D01*
X167687726Y-101716500D01*
X167687730Y-101716500D01*
X167799255Y-101686617D01*
X167850026Y-101657304D01*
X167899245Y-101628888D01*
X168828061Y-100700070D01*
X168886417Y-100668207D01*
X168911500Y-100665510D01*
X170712280Y-100665510D01*
X171878446Y-100665510D01*
X171942242Y-100684242D01*
G37*
%TD.AperFunction*%
%TA.AperFunction,NonConductor*%
G36*
X121985277Y-99754724D02*
G01*
X122004920Y-99770553D01*
X124421439Y-102187072D01*
X124453303Y-102245428D01*
X124456000Y-102270511D01*
X124456000Y-102776171D01*
X124437268Y-102839967D01*
X124387019Y-102883508D01*
X124321207Y-102892970D01*
X124260726Y-102865349D01*
X124254561Y-102859610D01*
X122716479Y-101321528D01*
X122690902Y-101283249D01*
X122674506Y-101243665D01*
X122671226Y-101235745D01*
X122641002Y-101162776D01*
X122640997Y-101162767D01*
X122532823Y-101000874D01*
X122532821Y-101000871D01*
X121469381Y-99937431D01*
X121437517Y-99879075D01*
X121442260Y-99812755D01*
X121482105Y-99759528D01*
X121544402Y-99736293D01*
X121552820Y-99735992D01*
X121921481Y-99735992D01*
X121985277Y-99754724D01*
G37*
%TD.AperFunction*%
%TA.AperFunction,NonConductor*%
G36*
X174402837Y-102913222D02*
G01*
X174446378Y-102963471D01*
X174455840Y-103029283D01*
X174428219Y-103089764D01*
X174422480Y-103095929D01*
X174137113Y-103381295D01*
X174137112Y-103381297D01*
X174109851Y-103428515D01*
X174109850Y-103428517D01*
X174089613Y-103463566D01*
X174070863Y-103488001D01*
X173451928Y-104106938D01*
X173393572Y-104138803D01*
X173368489Y-104141500D01*
X161318154Y-104141500D01*
X161254358Y-104122768D01*
X161210817Y-104072519D01*
X161201355Y-104006707D01*
X161228976Y-103946226D01*
X161234701Y-103940075D01*
X161237698Y-103937079D01*
X161297164Y-103820371D01*
X161306646Y-103760501D01*
X161317654Y-103691002D01*
X161317654Y-103690997D01*
X161297165Y-103561635D01*
X161297164Y-103561634D01*
X161297164Y-103561629D01*
X161285670Y-103539070D01*
X161273398Y-103473724D01*
X161298403Y-103412116D01*
X161352747Y-103373807D01*
X161390809Y-103367500D01*
X165020726Y-103367500D01*
X165020730Y-103367500D01*
X165132255Y-103337617D01*
X165168853Y-103316486D01*
X165232245Y-103279888D01*
X165491070Y-103021061D01*
X165549426Y-102989197D01*
X165574509Y-102986500D01*
X167220184Y-102986500D01*
X167220188Y-102986500D01*
X167331713Y-102956617D01*
X167377787Y-102930016D01*
X167411942Y-102910297D01*
X167470938Y-102894490D01*
X174339041Y-102894490D01*
X174402837Y-102913222D01*
G37*
%TD.AperFunction*%
%TA.AperFunction,NonConductor*%
G36*
X154312012Y-101989232D02*
G01*
X154355553Y-102039481D01*
X154365207Y-102103900D01*
X154364500Y-102109270D01*
X154364500Y-102224730D01*
X154394383Y-102336255D01*
X154452113Y-102436245D01*
X154533755Y-102517887D01*
X154633745Y-102575617D01*
X154659922Y-102582631D01*
X154716693Y-102617234D01*
X154745746Y-102677040D01*
X154737853Y-102743058D01*
X154712819Y-102780047D01*
X154528929Y-102963938D01*
X154470573Y-102995803D01*
X154445490Y-102998500D01*
X154110270Y-102998500D01*
X154110267Y-102998500D01*
X154110265Y-102998501D01*
X153998744Y-103028383D01*
X153898757Y-103086111D01*
X153817111Y-103167757D01*
X153759383Y-103267744D01*
X153730964Y-103373807D01*
X153729500Y-103379270D01*
X153729500Y-103494730D01*
X153729500Y-103494733D01*
X153729501Y-103494734D01*
X153759383Y-103606255D01*
X153783915Y-103648746D01*
X153817113Y-103706245D01*
X153898755Y-103787887D01*
X153998745Y-103845617D01*
X154110270Y-103875500D01*
X154110274Y-103875500D01*
X154733726Y-103875500D01*
X154733730Y-103875500D01*
X154845255Y-103845617D01*
X154881853Y-103824486D01*
X154945245Y-103787888D01*
X155331071Y-103402060D01*
X155389427Y-103370197D01*
X155414510Y-103367500D01*
X160407191Y-103367500D01*
X160470987Y-103386232D01*
X160514528Y-103436481D01*
X160523990Y-103502293D01*
X160512330Y-103539070D01*
X160500837Y-103561626D01*
X160500834Y-103561635D01*
X160480346Y-103690997D01*
X160480346Y-103691002D01*
X160500834Y-103820364D01*
X160500835Y-103820369D01*
X160500836Y-103820371D01*
X160523332Y-103864521D01*
X160551482Y-103919770D01*
X160560302Y-103937079D01*
X160563286Y-103940063D01*
X160565753Y-103944581D01*
X160565758Y-103944588D01*
X160565757Y-103944588D01*
X160595149Y-103998417D01*
X160590406Y-104064737D01*
X160550561Y-104117964D01*
X160488264Y-104141199D01*
X160479846Y-104141500D01*
X152911068Y-104141500D01*
X152847272Y-104122768D01*
X152803731Y-104072519D01*
X152794269Y-104006707D01*
X152797088Y-103992961D01*
X152805854Y-103960245D01*
X152828499Y-103875730D01*
X152828499Y-103760270D01*
X152798617Y-103648746D01*
X152740888Y-103548755D01*
X152659245Y-103467112D01*
X152659244Y-103467111D01*
X152559253Y-103409382D01*
X152494863Y-103392129D01*
X152447730Y-103379501D01*
X152332270Y-103379501D01*
X152287551Y-103391483D01*
X152220746Y-103409382D01*
X152220742Y-103409384D01*
X152120757Y-103467110D01*
X152083427Y-103504440D01*
X152025070Y-103536304D01*
X151999989Y-103539000D01*
X151798188Y-103539000D01*
X151734392Y-103520268D01*
X151690851Y-103470019D01*
X151681389Y-103404207D01*
X151709010Y-103343726D01*
X151732628Y-103322887D01*
X151762389Y-103303003D01*
X151875003Y-103190389D01*
X151963483Y-103057968D01*
X152024430Y-102910831D01*
X152055500Y-102754630D01*
X152055500Y-102595370D01*
X152024430Y-102439169D01*
X151963483Y-102292032D01*
X151875003Y-102159611D01*
X151875001Y-102159609D01*
X151871782Y-102154791D01*
X151873846Y-102153411D01*
X151852083Y-102102124D01*
X151863324Y-102036592D01*
X151908210Y-101987541D01*
X151969294Y-101970500D01*
X154248216Y-101970500D01*
X154312012Y-101989232D01*
G37*
%TD.AperFunction*%
%TA.AperFunction,NonConductor*%
G36*
X137724287Y-103502232D02*
G01*
X137767828Y-103552481D01*
X137777290Y-103618293D01*
X137749669Y-103678774D01*
X137743943Y-103684924D01*
X137722626Y-103706242D01*
X137720611Y-103708257D01*
X137662883Y-103808244D01*
X137641708Y-103887273D01*
X137633000Y-103919770D01*
X137633000Y-104035230D01*
X137633000Y-104035233D01*
X137633001Y-104035234D01*
X137662883Y-104146755D01*
X137713538Y-104234492D01*
X137720613Y-104246745D01*
X137802255Y-104328387D01*
X137902245Y-104386117D01*
X138013770Y-104416000D01*
X142123989Y-104416000D01*
X142187785Y-104434732D01*
X142231326Y-104484981D01*
X142240788Y-104550793D01*
X142213167Y-104611274D01*
X142207428Y-104617439D01*
X141879113Y-104945753D01*
X141821383Y-105045745D01*
X141796458Y-105138768D01*
X141791500Y-105157270D01*
X141791500Y-105272730D01*
X141821383Y-105384254D01*
X141872909Y-105473501D01*
X141888584Y-105538115D01*
X141872909Y-105591500D01*
X141821383Y-105680744D01*
X141791501Y-105792265D01*
X141791500Y-105792273D01*
X141791500Y-105893510D01*
X141772768Y-105957306D01*
X141722519Y-106000847D01*
X141673500Y-106011510D01*
X139123520Y-106011510D01*
X139059724Y-105992778D01*
X139040081Y-105976949D01*
X138818101Y-105754969D01*
X138562245Y-105499112D01*
X138562244Y-105499111D01*
X138562243Y-105499110D01*
X138496370Y-105461079D01*
X138462257Y-105441384D01*
X138462256Y-105441383D01*
X138462255Y-105441383D01*
X138365675Y-105415504D01*
X138350734Y-105411501D01*
X138350733Y-105411500D01*
X138350730Y-105411500D01*
X136330270Y-105411500D01*
X136330268Y-105411500D01*
X136330262Y-105411501D01*
X136255040Y-105431657D01*
X136188570Y-105430075D01*
X136133508Y-105392807D01*
X136107334Y-105331686D01*
X136106500Y-105317678D01*
X136106500Y-103601500D01*
X136125232Y-103537704D01*
X136175481Y-103494163D01*
X136224500Y-103483500D01*
X137660491Y-103483500D01*
X137724287Y-103502232D01*
G37*
%TD.AperFunction*%
%TA.AperFunction,NonConductor*%
G36*
X151806646Y-105637242D02*
G01*
X151850187Y-105687491D01*
X151859649Y-105753303D01*
X151859397Y-105754969D01*
X151844346Y-105849998D01*
X151844346Y-105850002D01*
X151853855Y-105910041D01*
X151845333Y-105975982D01*
X151802514Y-106026847D01*
X151738993Y-106046488D01*
X151737308Y-106046500D01*
X150404784Y-106046500D01*
X150340988Y-106027768D01*
X150297447Y-105977519D01*
X150287793Y-105913100D01*
X150288500Y-105907729D01*
X150288500Y-105792273D01*
X150288500Y-105792270D01*
X150288498Y-105792262D01*
X150281743Y-105767050D01*
X150283325Y-105700580D01*
X150320593Y-105645517D01*
X150381714Y-105619344D01*
X150395722Y-105618510D01*
X151742850Y-105618510D01*
X151806646Y-105637242D01*
G37*
%TD.AperFunction*%
%TA.AperFunction,NonConductor*%
G36*
X137531673Y-106307232D02*
G01*
X137575214Y-106357481D01*
X137584676Y-106423293D01*
X137557055Y-106483774D01*
X137526881Y-106508688D01*
X137515755Y-106515112D01*
X137515752Y-106515114D01*
X137434113Y-106596753D01*
X137395988Y-106662788D01*
X137347867Y-106708671D01*
X137282580Y-106721254D01*
X137220854Y-106696542D01*
X137210365Y-106687233D01*
X137165245Y-106642113D01*
X137013068Y-106489935D01*
X136981206Y-106431583D01*
X136985949Y-106365263D01*
X137025794Y-106312036D01*
X137088091Y-106288801D01*
X137096509Y-106288500D01*
X137467877Y-106288500D01*
X137531673Y-106307232D01*
G37*
%TD.AperFunction*%
%TA.AperFunction,NonConductor*%
G36*
X119711088Y-99754724D02*
G01*
X119754629Y-99804973D01*
X119764091Y-99870785D01*
X119745405Y-99919550D01*
X119705501Y-99979269D01*
X119705499Y-99979272D01*
X119630988Y-100159164D01*
X119607946Y-100275003D01*
X119593000Y-100350141D01*
X119593000Y-100544859D01*
X119612050Y-100640629D01*
X119630988Y-100735835D01*
X119705499Y-100915727D01*
X119705501Y-100915730D01*
X119813680Y-101077630D01*
X120813521Y-102077471D01*
X120839100Y-102115754D01*
X120889001Y-102236228D01*
X120889004Y-102236234D01*
X120997178Y-102398127D01*
X120997180Y-102398130D01*
X120997183Y-102398133D01*
X122538672Y-103939623D01*
X122570535Y-103997977D01*
X122565792Y-104064297D01*
X122538671Y-104106499D01*
X120131232Y-106513940D01*
X119398223Y-107246949D01*
X119339867Y-107278813D01*
X119314784Y-107281510D01*
X117831000Y-107281510D01*
X117767204Y-107262778D01*
X117723663Y-107212529D01*
X117713000Y-107163510D01*
X117713000Y-107062273D01*
X117713000Y-107062270D01*
X117683117Y-106950745D01*
X117625387Y-106850755D01*
X117543745Y-106769113D01*
X117443755Y-106711383D01*
X117332230Y-106681500D01*
X117332226Y-106681500D01*
X117019498Y-106681500D01*
X116955702Y-106662768D01*
X116936059Y-106646939D01*
X116525059Y-106235939D01*
X116493195Y-106177583D01*
X116497938Y-106111263D01*
X116537783Y-106058036D01*
X116600080Y-106034801D01*
X116608498Y-106034500D01*
X116697226Y-106034500D01*
X116697230Y-106034500D01*
X116808755Y-106004617D01*
X116908745Y-105946887D01*
X116990387Y-105865245D01*
X117048117Y-105765255D01*
X117078000Y-105653730D01*
X117078000Y-105538270D01*
X117048117Y-105426745D01*
X116990387Y-105326755D01*
X116908745Y-105245113D01*
X116866982Y-105221001D01*
X116808755Y-105187383D01*
X116697234Y-105157501D01*
X116697233Y-105157500D01*
X116697230Y-105157500D01*
X116697226Y-105157500D01*
X115473011Y-105157500D01*
X115409215Y-105138768D01*
X115389572Y-105122939D01*
X111574746Y-101308113D01*
X111574745Y-101308112D01*
X111533681Y-101284404D01*
X111509245Y-101265654D01*
X110383530Y-100139939D01*
X110351666Y-100081583D01*
X110356409Y-100015263D01*
X110396254Y-99962036D01*
X110458551Y-99938801D01*
X110466969Y-99938500D01*
X118754728Y-99938500D01*
X118754732Y-99938500D01*
X118866257Y-99908617D01*
X118903698Y-99887000D01*
X118966247Y-99850888D01*
X119046582Y-99770553D01*
X119104938Y-99738689D01*
X119130021Y-99735992D01*
X119647292Y-99735992D01*
X119711088Y-99754724D01*
G37*
%TD.AperFunction*%
%TA.AperFunction,NonConductor*%
G36*
X162756549Y-106942232D02*
G01*
X162800090Y-106992481D01*
X162809552Y-107058293D01*
X162809300Y-107059958D01*
X162791746Y-107170796D01*
X162791746Y-107170798D01*
X162791746Y-107170800D01*
X162792844Y-107177730D01*
X162793210Y-107180043D01*
X162784687Y-107245983D01*
X162741867Y-107296848D01*
X162678345Y-107316488D01*
X162676662Y-107316500D01*
X161637511Y-107316500D01*
X161573715Y-107297768D01*
X161554072Y-107281939D01*
X161397072Y-107124939D01*
X161365208Y-107066583D01*
X161369951Y-107000263D01*
X161409796Y-106947036D01*
X161472093Y-106923801D01*
X161480511Y-106923500D01*
X162692753Y-106923500D01*
X162756549Y-106942232D01*
G37*
%TD.AperFunction*%
%TA.AperFunction,NonConductor*%
G36*
X144533012Y-106942232D02*
G01*
X144576553Y-106992481D01*
X144586207Y-107056900D01*
X144585500Y-107062270D01*
X144585500Y-107177729D01*
X144586207Y-107183100D01*
X144575961Y-107248795D01*
X144531824Y-107298521D01*
X144469216Y-107316500D01*
X143827511Y-107316500D01*
X143763715Y-107297768D01*
X143720174Y-107247519D01*
X143710712Y-107181707D01*
X143738333Y-107121226D01*
X143744072Y-107115061D01*
X143901072Y-106958061D01*
X143959428Y-106926197D01*
X143984511Y-106923500D01*
X144469216Y-106923500D01*
X144533012Y-106942232D01*
G37*
%TD.AperFunction*%
%TA.AperFunction,NonConductor*%
G36*
X192653468Y-102158232D02*
G01*
X192673111Y-102174061D01*
X192943939Y-102444889D01*
X192975803Y-102503245D01*
X192978500Y-102528328D01*
X192978500Y-103668030D01*
X192959768Y-103731826D01*
X192943939Y-103751469D01*
X189219708Y-107475699D01*
X189161352Y-107507563D01*
X189095032Y-107502820D01*
X189052832Y-107475700D01*
X188981245Y-107404113D01*
X188955493Y-107389245D01*
X188881255Y-107346383D01*
X188769734Y-107316501D01*
X188769733Y-107316500D01*
X188769730Y-107316500D01*
X188769726Y-107316500D01*
X163744138Y-107316500D01*
X163680342Y-107297768D01*
X163636801Y-107247519D01*
X163627339Y-107181707D01*
X163627590Y-107180043D01*
X163627956Y-107177730D01*
X163629054Y-107170800D01*
X163621033Y-107120157D01*
X163629554Y-107054217D01*
X163672373Y-107003351D01*
X163707036Y-106987720D01*
X163735255Y-106980159D01*
X163835245Y-106922429D01*
X163916887Y-106840787D01*
X163974617Y-106740797D01*
X164004500Y-106629272D01*
X164004500Y-106513812D01*
X163983929Y-106437039D01*
X163985511Y-106370571D01*
X164022778Y-106315508D01*
X164083899Y-106289335D01*
X164097908Y-106288500D01*
X183816726Y-106288500D01*
X183816730Y-106288500D01*
X183928255Y-106258617D01*
X184028245Y-106200887D01*
X184109887Y-106119245D01*
X184167617Y-106019255D01*
X184197500Y-105907730D01*
X184197500Y-105792270D01*
X184167617Y-105680745D01*
X184109887Y-105580755D01*
X184028245Y-105499113D01*
X184012885Y-105490245D01*
X183928255Y-105441383D01*
X183816734Y-105411501D01*
X183816733Y-105411500D01*
X183816730Y-105411500D01*
X183816726Y-105411500D01*
X163612784Y-105411500D01*
X163548988Y-105392768D01*
X163505447Y-105342519D01*
X163495793Y-105278100D01*
X163496500Y-105272729D01*
X163496500Y-105157270D01*
X163495793Y-105151900D01*
X163506039Y-105086205D01*
X163550176Y-105036479D01*
X163612784Y-105018500D01*
X173656726Y-105018500D01*
X173656730Y-105018500D01*
X173768255Y-104988617D01*
X173804853Y-104967486D01*
X173868245Y-104930888D01*
X174838888Y-103960245D01*
X174885276Y-103879898D01*
X174886365Y-103878011D01*
X174905138Y-103853536D01*
X175390157Y-103368518D01*
X175390160Y-103368514D01*
X175447888Y-103268525D01*
X175477771Y-103157001D01*
X175477771Y-103041541D01*
X175477770Y-103041538D01*
X175476761Y-103033873D01*
X175478394Y-103033657D01*
X175479750Y-102976568D01*
X175517014Y-102921503D01*
X175578133Y-102895325D01*
X175592149Y-102894490D01*
X184416736Y-102894490D01*
X184416740Y-102894490D01*
X184528265Y-102864607D01*
X184628255Y-102806877D01*
X184709897Y-102725235D01*
X184767627Y-102625245D01*
X184797510Y-102513720D01*
X184797510Y-102398260D01*
X184767977Y-102288041D01*
X184769559Y-102221571D01*
X184806827Y-102166508D01*
X184867947Y-102140335D01*
X184881956Y-102139500D01*
X190432641Y-102139500D01*
X192589672Y-102139500D01*
X192653468Y-102158232D01*
G37*
%TD.AperFunction*%
%TA.AperFunction,NonConductor*%
G36*
X151859833Y-107577232D02*
G01*
X151903374Y-107627481D01*
X151912836Y-107693293D01*
X151912584Y-107694959D01*
X151910671Y-107707041D01*
X151899907Y-107775001D01*
X151900706Y-107780049D01*
X151892187Y-107845988D01*
X151849370Y-107896855D01*
X151785849Y-107916498D01*
X151784160Y-107916510D01*
X150406500Y-107916510D01*
X150342704Y-107897778D01*
X150299163Y-107847529D01*
X150288500Y-107798510D01*
X150288500Y-107697270D01*
X150287793Y-107691900D01*
X150298039Y-107626205D01*
X150342176Y-107576479D01*
X150404784Y-107558500D01*
X151796037Y-107558500D01*
X151859833Y-107577232D01*
G37*
%TD.AperFunction*%
%TA.AperFunction,NonConductor*%
G36*
X128826808Y-98652242D02*
G01*
X128846451Y-98668071D01*
X129457768Y-99279388D01*
X129557759Y-99337118D01*
X129557762Y-99337118D01*
X129557767Y-99337121D01*
X129634757Y-99357749D01*
X129634762Y-99357750D01*
X129634780Y-99357755D01*
X129669283Y-99367000D01*
X129669284Y-99367000D01*
X129669287Y-99367000D01*
X130032226Y-99367000D01*
X130032230Y-99367000D01*
X130143755Y-99337117D01*
X130243745Y-99279387D01*
X130325387Y-99197745D01*
X130383117Y-99097755D01*
X130413000Y-98986230D01*
X130413000Y-98870770D01*
X130391361Y-98790011D01*
X130389228Y-98782051D01*
X130390810Y-98715581D01*
X130428078Y-98660518D01*
X130489198Y-98634345D01*
X130503207Y-98633510D01*
X131651545Y-98633510D01*
X131651573Y-98633512D01*
X131659782Y-98633512D01*
X131659783Y-98633512D01*
X131723282Y-98633512D01*
X131723283Y-98633512D01*
X131838742Y-98633512D01*
X135543680Y-98633512D01*
X135607476Y-98652244D01*
X135651017Y-98702493D01*
X135660479Y-98768305D01*
X135632858Y-98828786D01*
X135627119Y-98834951D01*
X134350180Y-100111889D01*
X134242001Y-100273789D01*
X134205720Y-100361382D01*
X134167486Y-100453685D01*
X134129500Y-100644660D01*
X134129500Y-107804672D01*
X134110768Y-107868468D01*
X134094939Y-107888111D01*
X133219111Y-108763939D01*
X133160755Y-108795803D01*
X133135672Y-108798500D01*
X130242329Y-108798500D01*
X130178533Y-108779768D01*
X130158890Y-108763939D01*
X127866193Y-106471242D01*
X125563898Y-104168948D01*
X125532035Y-104110593D01*
X125536778Y-104044273D01*
X125576623Y-103991046D01*
X125638920Y-103967811D01*
X125647338Y-103967510D01*
X125719698Y-103967510D01*
X127803999Y-103967510D01*
X127867795Y-103986242D01*
X127887438Y-104002071D01*
X128435255Y-104549888D01*
X128498646Y-104586486D01*
X128509522Y-104592765D01*
X128535242Y-104607616D01*
X128535244Y-104607616D01*
X128535245Y-104607617D01*
X128646770Y-104637500D01*
X128646774Y-104637500D01*
X131492726Y-104637500D01*
X131492730Y-104637500D01*
X131604255Y-104607617D01*
X131704245Y-104549887D01*
X131785887Y-104468245D01*
X131843617Y-104368255D01*
X131873500Y-104256730D01*
X131873500Y-104141270D01*
X131843617Y-104029745D01*
X131785887Y-103929755D01*
X131704245Y-103848113D01*
X131699920Y-103845616D01*
X131604255Y-103790383D01*
X131492734Y-103760501D01*
X131492733Y-103760500D01*
X131492730Y-103760500D01*
X131492726Y-103760500D01*
X128935011Y-103760500D01*
X128871215Y-103741768D01*
X128851572Y-103725939D01*
X128303753Y-103178120D01*
X128230136Y-103135618D01*
X128203767Y-103120394D01*
X128203766Y-103120393D01*
X128203765Y-103120393D01*
X128092240Y-103090510D01*
X128092236Y-103090510D01*
X126467000Y-103090510D01*
X126403204Y-103071778D01*
X126359663Y-103021529D01*
X126349000Y-102972510D01*
X126349000Y-101982273D01*
X126349000Y-101982270D01*
X126319117Y-101870745D01*
X126261387Y-101770755D01*
X126241693Y-101751061D01*
X126179745Y-101689112D01*
X126179745Y-101689113D01*
X126141099Y-101650467D01*
X126109235Y-101592111D01*
X126113978Y-101525791D01*
X126153823Y-101472564D01*
X126193993Y-101453050D01*
X126270254Y-101432617D01*
X126370245Y-101374888D01*
X128308889Y-99436244D01*
X128346771Y-99370629D01*
X128366618Y-99336254D01*
X128396501Y-99224729D01*
X128396501Y-98855269D01*
X128376882Y-98782049D01*
X128378464Y-98715581D01*
X128415731Y-98660518D01*
X128476852Y-98634345D01*
X128490861Y-98633510D01*
X128763012Y-98633510D01*
X128826808Y-98652242D01*
G37*
%TD.AperFunction*%
%TA.AperFunction,NonConductor*%
G36*
X143451796Y-108812242D02*
G01*
X143495337Y-108862491D01*
X143506000Y-108911510D01*
X143506000Y-109005010D01*
X143487268Y-109068806D01*
X143437019Y-109112347D01*
X143388000Y-109123010D01*
X142991021Y-109123010D01*
X142927225Y-109104278D01*
X142907582Y-109088449D01*
X142814082Y-108994949D01*
X142782218Y-108936593D01*
X142786961Y-108870273D01*
X142826806Y-108817046D01*
X142889103Y-108793811D01*
X142897521Y-108793510D01*
X143388000Y-108793510D01*
X143451796Y-108812242D01*
G37*
%TD.AperFunction*%
%TA.AperFunction,NonConductor*%
G36*
X160605285Y-107577232D02*
G01*
X160624928Y-107593061D01*
X161137755Y-108105888D01*
X161201146Y-108142486D01*
X161212022Y-108148765D01*
X161237742Y-108163616D01*
X161237744Y-108163616D01*
X161237745Y-108163617D01*
X161349270Y-108193500D01*
X161349271Y-108193500D01*
X161464730Y-108193500D01*
X188217031Y-108193500D01*
X188280827Y-108212232D01*
X188324368Y-108262481D01*
X188333830Y-108328293D01*
X188306209Y-108388774D01*
X188300470Y-108394939D01*
X187796470Y-108898939D01*
X187738114Y-108930803D01*
X187713031Y-108933500D01*
X175132849Y-108933500D01*
X174901446Y-108970150D01*
X174678610Y-109042554D01*
X174469856Y-109148919D01*
X174280311Y-109286632D01*
X174114632Y-109452311D01*
X173976919Y-109641856D01*
X173870554Y-109850610D01*
X173798150Y-110073447D01*
X173797069Y-110077953D01*
X173795124Y-110077486D01*
X173770253Y-110130004D01*
X173713825Y-110165170D01*
X173682157Y-110169499D01*
X163216288Y-110169499D01*
X163152492Y-110150767D01*
X163108951Y-110100518D01*
X163099489Y-110034706D01*
X163102308Y-110020960D01*
X163102902Y-110018742D01*
X163115499Y-109971730D01*
X163115499Y-109856270D01*
X163085617Y-109744745D01*
X163027888Y-109644755D01*
X162984569Y-109601436D01*
X162952707Y-109543083D01*
X162957450Y-109476763D01*
X162997295Y-109423536D01*
X163059592Y-109400301D01*
X163068010Y-109400000D01*
X164385726Y-109400000D01*
X164385730Y-109400000D01*
X164497255Y-109370117D01*
X164597245Y-109312387D01*
X164678887Y-109230745D01*
X164736617Y-109130755D01*
X164766500Y-109019230D01*
X164766500Y-108903770D01*
X164736617Y-108792245D01*
X164678887Y-108692255D01*
X164597245Y-108610613D01*
X164577153Y-108599013D01*
X164497255Y-108552883D01*
X164385734Y-108523001D01*
X164385733Y-108523000D01*
X164385730Y-108523000D01*
X164385726Y-108523000D01*
X158303287Y-108523000D01*
X158239491Y-108504268D01*
X158195950Y-108454019D01*
X158186488Y-108388207D01*
X158214109Y-108327726D01*
X158267141Y-108293644D01*
X158267113Y-108293575D01*
X158267498Y-108293415D01*
X158270043Y-108291780D01*
X158272698Y-108291034D01*
X158274255Y-108290617D01*
X158374245Y-108232887D01*
X158455887Y-108151245D01*
X158513617Y-108051255D01*
X158543500Y-107939730D01*
X158543500Y-107824270D01*
X158513617Y-107712745D01*
X158513615Y-107712742D01*
X158512088Y-107707041D01*
X158513670Y-107640571D01*
X158550937Y-107585508D01*
X158612058Y-107559335D01*
X158626067Y-107558500D01*
X160541489Y-107558500D01*
X160605285Y-107577232D01*
G37*
%TD.AperFunction*%
%TA.AperFunction,NonConductor*%
G36*
X136301774Y-107019332D02*
G01*
X136307939Y-107025071D01*
X136422939Y-107140071D01*
X136454803Y-107198427D01*
X136457500Y-107223510D01*
X136457500Y-107304730D01*
X136457500Y-107304733D01*
X136457501Y-107304734D01*
X136487383Y-107416256D01*
X136491665Y-107423672D01*
X136498958Y-107436303D01*
X136536754Y-107501768D01*
X136545112Y-107516245D01*
X137053113Y-108024245D01*
X137053112Y-108024245D01*
X137124770Y-108095902D01*
X137134755Y-108105887D01*
X137234745Y-108163617D01*
X137346270Y-108193500D01*
X138711857Y-108193500D01*
X138775653Y-108212232D01*
X138819194Y-108262481D01*
X138828656Y-108328293D01*
X138825836Y-108342041D01*
X138811662Y-108394939D01*
X138810501Y-108399271D01*
X138810501Y-108514731D01*
X138840384Y-108626256D01*
X138898114Y-108726246D01*
X138979756Y-108807888D01*
X139079746Y-108865618D01*
X139191271Y-108895501D01*
X139191275Y-108895501D01*
X139709235Y-108895501D01*
X139709239Y-108895501D01*
X139820764Y-108865618D01*
X139857362Y-108844487D01*
X139892011Y-108824483D01*
X139918282Y-108809317D01*
X139977278Y-108793510D01*
X141607000Y-108793510D01*
X141670796Y-108812242D01*
X141714337Y-108862491D01*
X141725000Y-108911510D01*
X141725000Y-109022230D01*
X141754883Y-109133754D01*
X141812612Y-109233745D01*
X142491265Y-109912398D01*
X142554656Y-109948996D01*
X142565532Y-109955275D01*
X142591252Y-109970126D01*
X142591254Y-109970126D01*
X142591255Y-109970127D01*
X142702780Y-110000010D01*
X142702781Y-110000010D01*
X142818240Y-110000010D01*
X153796720Y-110000010D01*
X153860516Y-110018742D01*
X153904057Y-110068991D01*
X153913519Y-110134803D01*
X153885898Y-110195284D01*
X153880159Y-110201449D01*
X153793997Y-110287610D01*
X153727882Y-110386558D01*
X153676864Y-110429195D01*
X153629769Y-110439000D01*
X139121270Y-110439000D01*
X139057474Y-110420268D01*
X139037831Y-110404439D01*
X138276524Y-109643132D01*
X138244660Y-109584776D01*
X138244230Y-109582712D01*
X138227513Y-109498665D01*
X138152997Y-109318770D01*
X138044818Y-109156868D01*
X137907132Y-109019182D01*
X137745230Y-108911003D01*
X137565335Y-108836487D01*
X137565333Y-108836486D01*
X137565332Y-108836486D01*
X137481980Y-108819906D01*
X137423064Y-108789087D01*
X137421562Y-108787612D01*
X136141061Y-107507111D01*
X136109197Y-107448755D01*
X136106500Y-107423672D01*
X136106500Y-107108510D01*
X136125232Y-107044714D01*
X136175481Y-107001173D01*
X136241293Y-106991711D01*
X136301774Y-107019332D01*
G37*
%TD.AperFunction*%
%TA.AperFunction,NonConductor*%
G36*
X197511208Y-83033300D02*
G01*
X197783222Y-83052755D01*
X197799864Y-83055148D01*
X198062223Y-83112221D01*
X198078364Y-83116960D01*
X198329926Y-83210788D01*
X198345237Y-83217780D01*
X198580874Y-83346447D01*
X198595035Y-83355548D01*
X198809963Y-83516442D01*
X198822687Y-83527467D01*
X199012532Y-83717312D01*
X199023557Y-83730036D01*
X199184451Y-83944964D01*
X199193553Y-83959128D01*
X199322218Y-84194761D01*
X199329212Y-84210075D01*
X199423037Y-84461629D01*
X199427780Y-84477783D01*
X199478803Y-84712330D01*
X199481500Y-84737413D01*
X199481500Y-110537767D01*
X199478802Y-110562857D01*
X199427737Y-110797532D01*
X199422991Y-110813689D01*
X199329122Y-111065292D01*
X199322124Y-111080610D01*
X199193389Y-111316295D01*
X199184283Y-111330461D01*
X199023310Y-111545419D01*
X199012279Y-111558144D01*
X198822347Y-111747997D01*
X198809618Y-111759022D01*
X198729186Y-111819202D01*
X198613863Y-111905488D01*
X198594598Y-111919902D01*
X198580428Y-111929003D01*
X198344688Y-112057640D01*
X198329367Y-112064631D01*
X198077722Y-112158398D01*
X198061564Y-112163137D01*
X198049782Y-112165695D01*
X198021615Y-112171812D01*
X197996576Y-112174500D01*
X154784400Y-112174500D01*
X154720604Y-112155768D01*
X154677063Y-112105519D01*
X154667601Y-112039707D01*
X154695222Y-111979226D01*
X154718843Y-111958387D01*
X154842884Y-111875505D01*
X154842883Y-111875505D01*
X154842887Y-111875503D01*
X154897330Y-111821060D01*
X154955686Y-111789196D01*
X154980769Y-111786499D01*
X174614371Y-111786499D01*
X174620947Y-111786499D01*
X174674519Y-111799361D01*
X174678608Y-111801444D01*
X174678614Y-111801447D01*
X174901442Y-111873848D01*
X174901443Y-111873848D01*
X174901446Y-111873849D01*
X174996587Y-111888917D01*
X175132852Y-111910500D01*
X175132858Y-111910500D01*
X188495610Y-111910500D01*
X188495613Y-111910500D01*
X188495614Y-111910500D01*
X188523447Y-111906090D01*
X188527254Y-111905488D01*
X188527254Y-111905487D01*
X188727024Y-111873849D01*
X188895205Y-111819202D01*
X188949852Y-111801447D01*
X189158610Y-111695080D01*
X189348159Y-111557364D01*
X189513830Y-111391693D01*
X189513831Y-111391692D01*
X195602364Y-105303159D01*
X195627945Y-105267950D01*
X195740080Y-105113610D01*
X195846447Y-104904852D01*
X195858013Y-104869255D01*
X195918848Y-104682025D01*
X195923430Y-104653095D01*
X195950642Y-104481286D01*
X195952708Y-104468242D01*
X195955500Y-104450614D01*
X195955500Y-102452852D01*
X195955500Y-98228222D01*
X195955500Y-97868429D01*
X195974232Y-97804633D01*
X196024481Y-97761092D01*
X196090293Y-97751630D01*
X196150774Y-97779251D01*
X196171612Y-97802871D01*
X196199182Y-97844132D01*
X196336868Y-97981818D01*
X196498770Y-98089997D01*
X196678665Y-98164513D01*
X196795467Y-98187746D01*
X196869640Y-98202500D01*
X196869641Y-98202500D01*
X197064360Y-98202500D01*
X197112103Y-98193003D01*
X197255335Y-98164513D01*
X197435230Y-98089997D01*
X197597132Y-97981818D01*
X197734818Y-97844132D01*
X197842997Y-97682230D01*
X197917513Y-97502335D01*
X197955500Y-97311359D01*
X197955500Y-94195641D01*
X197955097Y-94193617D01*
X197917513Y-94004665D01*
X197885444Y-93927245D01*
X197885443Y-93927242D01*
X197843001Y-93824775D01*
X197842996Y-93824766D01*
X197734822Y-93662873D01*
X197734820Y-93662870D01*
X194168130Y-90096180D01*
X194006230Y-89988001D01*
X193887003Y-89938617D01*
X193887003Y-89938616D01*
X193887001Y-89938616D01*
X193826335Y-89913487D01*
X193826334Y-89913486D01*
X193635360Y-89875500D01*
X193635359Y-89875500D01*
X185058641Y-89875500D01*
X185058640Y-89875500D01*
X184867667Y-89913486D01*
X184687770Y-89988003D01*
X184525869Y-90096181D01*
X184388181Y-90233869D01*
X184280003Y-90395770D01*
X184205486Y-90575667D01*
X184167500Y-90766640D01*
X184167500Y-90961359D01*
X184187867Y-91063755D01*
X184205487Y-91152335D01*
X184280003Y-91332230D01*
X184388182Y-91494132D01*
X184515113Y-91621063D01*
X184546976Y-91679417D01*
X184542233Y-91745737D01*
X184502388Y-91798964D01*
X184440091Y-91822199D01*
X184431673Y-91822500D01*
X179021763Y-91822500D01*
X178957967Y-91803768D01*
X178914426Y-91753519D01*
X178904964Y-91687707D01*
X178932585Y-91627226D01*
X178988519Y-91591280D01*
X179085463Y-91562814D01*
X179118445Y-91553130D01*
X179181490Y-91524339D01*
X179302444Y-91446607D01*
X179354824Y-91401218D01*
X179448978Y-91292557D01*
X179486447Y-91234254D01*
X179546175Y-91103469D01*
X179565701Y-91036969D01*
X179586163Y-90894654D01*
X179586164Y-90825347D01*
X179584701Y-90815170D01*
X179583500Y-90798377D01*
X179583500Y-90421622D01*
X179584701Y-90404827D01*
X179586164Y-90394653D01*
X179586163Y-90325346D01*
X179565701Y-90183031D01*
X179546175Y-90116531D01*
X179486447Y-89985746D01*
X179456159Y-89938617D01*
X179448979Y-89927444D01*
X179406231Y-89878110D01*
X179354824Y-89818782D01*
X179339174Y-89805220D01*
X179319224Y-89787933D01*
X179283279Y-89731998D01*
X179278500Y-89698756D01*
X179278500Y-89472273D01*
X179278500Y-89472270D01*
X179248617Y-89360745D01*
X179213679Y-89300231D01*
X179190888Y-89260755D01*
X177885760Y-87955627D01*
X177853896Y-87897271D01*
X177858639Y-87830951D01*
X177898484Y-87777724D01*
X177907069Y-87771869D01*
X178067778Y-87672363D01*
X178216857Y-87536459D01*
X178338426Y-87375476D01*
X178428344Y-87194896D01*
X178483550Y-87000868D01*
X178502163Y-86800000D01*
X178855837Y-86800000D01*
X178874450Y-87000866D01*
X178874452Y-87000876D01*
X178929656Y-87194897D01*
X179019571Y-87375472D01*
X179141146Y-87536463D01*
X179263745Y-87648226D01*
X179290222Y-87672363D01*
X179461735Y-87778559D01*
X179649842Y-87851432D01*
X179848136Y-87888500D01*
X179848139Y-87888500D01*
X180049861Y-87888500D01*
X180049864Y-87888500D01*
X180248158Y-87851432D01*
X180436265Y-87778559D01*
X180607778Y-87672363D01*
X180756857Y-87536459D01*
X180878426Y-87375476D01*
X180968344Y-87194896D01*
X181023550Y-87000868D01*
X181042163Y-86800000D01*
X181395837Y-86800000D01*
X181414450Y-87000866D01*
X181414452Y-87000876D01*
X181469656Y-87194897D01*
X181559571Y-87375472D01*
X181681146Y-87536463D01*
X181803745Y-87648226D01*
X181830222Y-87672363D01*
X182001735Y-87778559D01*
X182189842Y-87851432D01*
X182388136Y-87888500D01*
X182388139Y-87888500D01*
X182589861Y-87888500D01*
X182589864Y-87888500D01*
X182788158Y-87851432D01*
X182976265Y-87778559D01*
X183147778Y-87672363D01*
X183296857Y-87536459D01*
X183418426Y-87375476D01*
X183508344Y-87194896D01*
X183563550Y-87000868D01*
X183582163Y-86800000D01*
X183935837Y-86800000D01*
X183954450Y-87000866D01*
X183954452Y-87000876D01*
X184009656Y-87194897D01*
X184099571Y-87375472D01*
X184221146Y-87536463D01*
X184343745Y-87648226D01*
X184370222Y-87672363D01*
X184541735Y-87778559D01*
X184729842Y-87851432D01*
X184928136Y-87888500D01*
X184928139Y-87888500D01*
X185129861Y-87888500D01*
X185129864Y-87888500D01*
X185328158Y-87851432D01*
X185516265Y-87778559D01*
X185687778Y-87672363D01*
X185836857Y-87536459D01*
X185958426Y-87375476D01*
X186048344Y-87194896D01*
X186103550Y-87000868D01*
X186122163Y-86800000D01*
X186475837Y-86800000D01*
X186494450Y-87000866D01*
X186494452Y-87000876D01*
X186549656Y-87194897D01*
X186639571Y-87375472D01*
X186761146Y-87536463D01*
X186883745Y-87648226D01*
X186910222Y-87672363D01*
X187081735Y-87778559D01*
X187269842Y-87851432D01*
X187468136Y-87888500D01*
X187468139Y-87888500D01*
X187669861Y-87888500D01*
X187669864Y-87888500D01*
X187868158Y-87851432D01*
X188056265Y-87778559D01*
X188227778Y-87672363D01*
X188376857Y-87536459D01*
X188498426Y-87375476D01*
X188588344Y-87194896D01*
X188643550Y-87000868D01*
X188662163Y-86800000D01*
X189015837Y-86800000D01*
X189034450Y-87000866D01*
X189034452Y-87000876D01*
X189089656Y-87194897D01*
X189179571Y-87375472D01*
X189301146Y-87536463D01*
X189423745Y-87648226D01*
X189450222Y-87672363D01*
X189621735Y-87778559D01*
X189809842Y-87851432D01*
X190008136Y-87888500D01*
X190008139Y-87888500D01*
X190209861Y-87888500D01*
X190209864Y-87888500D01*
X190408158Y-87851432D01*
X190596265Y-87778559D01*
X190767778Y-87672363D01*
X190916857Y-87536459D01*
X191038426Y-87375476D01*
X191128344Y-87194896D01*
X191183550Y-87000868D01*
X191202163Y-86800000D01*
X191555837Y-86800000D01*
X191574450Y-87000866D01*
X191574452Y-87000876D01*
X191629656Y-87194897D01*
X191719571Y-87375472D01*
X191841146Y-87536463D01*
X191963745Y-87648226D01*
X191990222Y-87672363D01*
X192161735Y-87778559D01*
X192349842Y-87851432D01*
X192548136Y-87888500D01*
X192548139Y-87888500D01*
X192749861Y-87888500D01*
X192749864Y-87888500D01*
X192948158Y-87851432D01*
X193136265Y-87778559D01*
X193307778Y-87672363D01*
X193456857Y-87536459D01*
X193578426Y-87375476D01*
X193668344Y-87194896D01*
X193723550Y-87000868D01*
X193742163Y-86800000D01*
X194095837Y-86800000D01*
X194114450Y-87000866D01*
X194114452Y-87000876D01*
X194169656Y-87194897D01*
X194259571Y-87375472D01*
X194381146Y-87536463D01*
X194503745Y-87648226D01*
X194530222Y-87672363D01*
X194701735Y-87778559D01*
X194889842Y-87851432D01*
X195088136Y-87888500D01*
X195088139Y-87888500D01*
X195289861Y-87888500D01*
X195289864Y-87888500D01*
X195488158Y-87851432D01*
X195676265Y-87778559D01*
X195847778Y-87672363D01*
X195996857Y-87536459D01*
X196118426Y-87375476D01*
X196208344Y-87194896D01*
X196263550Y-87000868D01*
X196282163Y-86800000D01*
X196635837Y-86800000D01*
X196654450Y-87000866D01*
X196654452Y-87000876D01*
X196709656Y-87194897D01*
X196799571Y-87375472D01*
X196921146Y-87536463D01*
X197043745Y-87648226D01*
X197070222Y-87672363D01*
X197241735Y-87778559D01*
X197429842Y-87851432D01*
X197628136Y-87888500D01*
X197628139Y-87888500D01*
X197829861Y-87888500D01*
X197829864Y-87888500D01*
X198028158Y-87851432D01*
X198216265Y-87778559D01*
X198387778Y-87672363D01*
X198536857Y-87536459D01*
X198658426Y-87375476D01*
X198748344Y-87194896D01*
X198803550Y-87000868D01*
X198822163Y-86800000D01*
X198803550Y-86599132D01*
X198748344Y-86405104D01*
X198747617Y-86403644D01*
X198658428Y-86224527D01*
X198536853Y-86063536D01*
X198387779Y-85927638D01*
X198387778Y-85927637D01*
X198216265Y-85821441D01*
X198028158Y-85748568D01*
X197829864Y-85711500D01*
X197628136Y-85711500D01*
X197429842Y-85748568D01*
X197241734Y-85821441D01*
X197070220Y-85927638D01*
X196921146Y-86063536D01*
X196799571Y-86224527D01*
X196709656Y-86405102D01*
X196654452Y-86599123D01*
X196654450Y-86599133D01*
X196635837Y-86800000D01*
X196282163Y-86800000D01*
X196263550Y-86599132D01*
X196208344Y-86405104D01*
X196207617Y-86403644D01*
X196118428Y-86224527D01*
X195996853Y-86063536D01*
X195847779Y-85927638D01*
X195847778Y-85927637D01*
X195676265Y-85821441D01*
X195488158Y-85748568D01*
X195289864Y-85711500D01*
X195088136Y-85711500D01*
X194889842Y-85748568D01*
X194701734Y-85821441D01*
X194530220Y-85927638D01*
X194381146Y-86063536D01*
X194259571Y-86224527D01*
X194169656Y-86405102D01*
X194114452Y-86599123D01*
X194114450Y-86599133D01*
X194095837Y-86800000D01*
X193742163Y-86800000D01*
X193723550Y-86599132D01*
X193668344Y-86405104D01*
X193667617Y-86403644D01*
X193578428Y-86224527D01*
X193456853Y-86063536D01*
X193307779Y-85927638D01*
X193307778Y-85927637D01*
X193136265Y-85821441D01*
X192948158Y-85748568D01*
X192749864Y-85711500D01*
X192548136Y-85711500D01*
X192349842Y-85748568D01*
X192161734Y-85821441D01*
X191990220Y-85927638D01*
X191841146Y-86063536D01*
X191719571Y-86224527D01*
X191629656Y-86405102D01*
X191574452Y-86599123D01*
X191574450Y-86599133D01*
X191555837Y-86800000D01*
X191202163Y-86800000D01*
X191183550Y-86599132D01*
X191128344Y-86405104D01*
X191127617Y-86403644D01*
X191038428Y-86224527D01*
X190916853Y-86063536D01*
X190767779Y-85927638D01*
X190767778Y-85927637D01*
X190596265Y-85821441D01*
X190408158Y-85748568D01*
X190209864Y-85711500D01*
X190008136Y-85711500D01*
X189809842Y-85748568D01*
X189621734Y-85821441D01*
X189450220Y-85927638D01*
X189301146Y-86063536D01*
X189179571Y-86224527D01*
X189089656Y-86405102D01*
X189034452Y-86599123D01*
X189034450Y-86599133D01*
X189015837Y-86800000D01*
X188662163Y-86800000D01*
X188643550Y-86599132D01*
X188588344Y-86405104D01*
X188587617Y-86403644D01*
X188498428Y-86224527D01*
X188376853Y-86063536D01*
X188227779Y-85927638D01*
X188227778Y-85927637D01*
X188056265Y-85821441D01*
X187868158Y-85748568D01*
X187669864Y-85711500D01*
X187468136Y-85711500D01*
X187269842Y-85748568D01*
X187081734Y-85821441D01*
X186910220Y-85927638D01*
X186761146Y-86063536D01*
X186639571Y-86224527D01*
X186549656Y-86405102D01*
X186494452Y-86599123D01*
X186494450Y-86599133D01*
X186475837Y-86800000D01*
X186122163Y-86800000D01*
X186103550Y-86599132D01*
X186048344Y-86405104D01*
X186047617Y-86403644D01*
X185958428Y-86224527D01*
X185836853Y-86063536D01*
X185687779Y-85927638D01*
X185687778Y-85927637D01*
X185516265Y-85821441D01*
X185328158Y-85748568D01*
X185129864Y-85711500D01*
X184928136Y-85711500D01*
X184729842Y-85748568D01*
X184541734Y-85821441D01*
X184370220Y-85927638D01*
X184221146Y-86063536D01*
X184099571Y-86224527D01*
X184009656Y-86405102D01*
X183954452Y-86599123D01*
X183954450Y-86599133D01*
X183935837Y-86800000D01*
X183582163Y-86800000D01*
X183563550Y-86599132D01*
X183508344Y-86405104D01*
X183507617Y-86403644D01*
X183418428Y-86224527D01*
X183296853Y-86063536D01*
X183147779Y-85927638D01*
X183147778Y-85927637D01*
X182976265Y-85821441D01*
X182788158Y-85748568D01*
X182589864Y-85711500D01*
X182388136Y-85711500D01*
X182189842Y-85748568D01*
X182001734Y-85821441D01*
X181830220Y-85927638D01*
X181681146Y-86063536D01*
X181559571Y-86224527D01*
X181469656Y-86405102D01*
X181414452Y-86599123D01*
X181414450Y-86599133D01*
X181395837Y-86800000D01*
X181042163Y-86800000D01*
X181023550Y-86599132D01*
X180968344Y-86405104D01*
X180967617Y-86403644D01*
X180878428Y-86224527D01*
X180756853Y-86063536D01*
X180607779Y-85927638D01*
X180607778Y-85927637D01*
X180436265Y-85821441D01*
X180248158Y-85748568D01*
X180049864Y-85711500D01*
X179848136Y-85711500D01*
X179649842Y-85748568D01*
X179461734Y-85821441D01*
X179290220Y-85927638D01*
X179141146Y-86063536D01*
X179019571Y-86224527D01*
X178929656Y-86405102D01*
X178874452Y-86599123D01*
X178874450Y-86599133D01*
X178855837Y-86800000D01*
X178502163Y-86800000D01*
X178483550Y-86599132D01*
X178428344Y-86405104D01*
X178427617Y-86403644D01*
X178338428Y-86224527D01*
X178216853Y-86063536D01*
X178067779Y-85927638D01*
X178067778Y-85927637D01*
X177896265Y-85821441D01*
X177708158Y-85748568D01*
X177509864Y-85711500D01*
X177308136Y-85711500D01*
X177109842Y-85748568D01*
X176921734Y-85821441D01*
X176750220Y-85927638D01*
X176601146Y-86063536D01*
X176479571Y-86224527D01*
X176389656Y-86405102D01*
X176334452Y-86599123D01*
X176334450Y-86599133D01*
X176315837Y-86800000D01*
X176334450Y-87000866D01*
X176334452Y-87000876D01*
X176389656Y-87194897D01*
X176479571Y-87375472D01*
X176601146Y-87536463D01*
X176750220Y-87672361D01*
X176750219Y-87672361D01*
X176750221Y-87672362D01*
X176750222Y-87672363D01*
X176914620Y-87774154D01*
X176958998Y-87823662D01*
X176970500Y-87874478D01*
X176970500Y-88156730D01*
X176970500Y-88156733D01*
X176970501Y-88156734D01*
X177000383Y-88268256D01*
X177010472Y-88285730D01*
X177013178Y-88290416D01*
X177049842Y-88353921D01*
X177058112Y-88368245D01*
X178104928Y-89415061D01*
X178136792Y-89473417D01*
X178132049Y-89539737D01*
X178092204Y-89592964D01*
X178029907Y-89616199D01*
X178021489Y-89616500D01*
X177468105Y-89616500D01*
X177408927Y-89625009D01*
X177399510Y-89626363D01*
X177399509Y-89626363D01*
X177399504Y-89626364D01*
X177261558Y-89666868D01*
X177261556Y-89666869D01*
X177198506Y-89695663D01*
X177077552Y-89773395D01*
X177025185Y-89818773D01*
X177025174Y-89818784D01*
X176931019Y-89927445D01*
X176915859Y-89951036D01*
X176865610Y-89994577D01*
X176799798Y-90004040D01*
X176739318Y-89976420D01*
X176711452Y-89940811D01*
X176668200Y-89855924D01*
X176668199Y-89855923D01*
X176668198Y-89855921D01*
X176575579Y-89763302D01*
X176575576Y-89763300D01*
X176500337Y-89724964D01*
X176458871Y-89703836D01*
X176458869Y-89703835D01*
X176458864Y-89703834D01*
X176329502Y-89683346D01*
X176329498Y-89683346D01*
X176200135Y-89703834D01*
X176200129Y-89703836D01*
X176083423Y-89763300D01*
X175990800Y-89855923D01*
X175931336Y-89972629D01*
X175931334Y-89972635D01*
X175910846Y-90101997D01*
X175910846Y-90102002D01*
X175931334Y-90231364D01*
X175931335Y-90231369D01*
X175931336Y-90231371D01*
X175990802Y-90348079D01*
X176083421Y-90440698D01*
X176200129Y-90500164D01*
X176200134Y-90500164D01*
X176200135Y-90500165D01*
X176329498Y-90520654D01*
X176329500Y-90520654D01*
X176329502Y-90520654D01*
X176430522Y-90504654D01*
X176458871Y-90500164D01*
X176575579Y-90440698D01*
X176595063Y-90421213D01*
X176653417Y-90389351D01*
X176719737Y-90394094D01*
X176772964Y-90433939D01*
X176796199Y-90496236D01*
X176796500Y-90504654D01*
X176796500Y-90798377D01*
X176795299Y-90815170D01*
X176793836Y-90825341D01*
X176793836Y-90894650D01*
X176793837Y-90894658D01*
X176798254Y-90925377D01*
X176812096Y-91021650D01*
X176814300Y-91036974D01*
X176833823Y-91103465D01*
X176893551Y-91234251D01*
X176931020Y-91292555D01*
X176931022Y-91292557D01*
X177025176Y-91401218D01*
X177025183Y-91401224D01*
X177025185Y-91401226D01*
X177077552Y-91446604D01*
X177077554Y-91446605D01*
X177077556Y-91446607D01*
X177198510Y-91524339D01*
X177261555Y-91553130D01*
X177261557Y-91553130D01*
X177261558Y-91553131D01*
X177391481Y-91591280D01*
X177447415Y-91627226D01*
X177475036Y-91687707D01*
X177465574Y-91753519D01*
X177422033Y-91803768D01*
X177358237Y-91822500D01*
X174958327Y-91822500D01*
X174894531Y-91803768D01*
X174850990Y-91753519D01*
X174841528Y-91687707D01*
X174869149Y-91627226D01*
X174874874Y-91621075D01*
X175001818Y-91494132D01*
X175109997Y-91332230D01*
X175184513Y-91152335D01*
X175222500Y-90961359D01*
X175222500Y-90766641D01*
X175218741Y-90747745D01*
X175202779Y-90667498D01*
X175184513Y-90575665D01*
X175109997Y-90395770D01*
X175001818Y-90233868D01*
X174864132Y-90096182D01*
X174702230Y-89988003D01*
X174522335Y-89913487D01*
X174522333Y-89913486D01*
X174522332Y-89913486D01*
X174331360Y-89875500D01*
X174331359Y-89875500D01*
X173109247Y-89875500D01*
X173045451Y-89856768D01*
X173025808Y-89840939D01*
X170812061Y-87627192D01*
X170780197Y-87568836D01*
X170777500Y-87543753D01*
X170777500Y-87284592D01*
X170789871Y-87231994D01*
X170808344Y-87194896D01*
X170863550Y-87000868D01*
X170882163Y-86800000D01*
X171235837Y-86800000D01*
X171254450Y-87000866D01*
X171254452Y-87000876D01*
X171309656Y-87194897D01*
X171399571Y-87375472D01*
X171521146Y-87536463D01*
X171643745Y-87648226D01*
X171670222Y-87672363D01*
X171841735Y-87778559D01*
X172029842Y-87851432D01*
X172228136Y-87888500D01*
X172228139Y-87888500D01*
X172429861Y-87888500D01*
X172429864Y-87888500D01*
X172628158Y-87851432D01*
X172816265Y-87778559D01*
X172987778Y-87672363D01*
X173136857Y-87536459D01*
X173258426Y-87375476D01*
X173348344Y-87194896D01*
X173403550Y-87000868D01*
X173422163Y-86800000D01*
X173775837Y-86800000D01*
X173794450Y-87000866D01*
X173794452Y-87000876D01*
X173849656Y-87194897D01*
X173939571Y-87375472D01*
X174061146Y-87536463D01*
X174183745Y-87648226D01*
X174210222Y-87672363D01*
X174381735Y-87778559D01*
X174569842Y-87851432D01*
X174768136Y-87888500D01*
X174768139Y-87888500D01*
X174969861Y-87888500D01*
X174969864Y-87888500D01*
X175168158Y-87851432D01*
X175356265Y-87778559D01*
X175527778Y-87672363D01*
X175676857Y-87536459D01*
X175798426Y-87375476D01*
X175888344Y-87194896D01*
X175943550Y-87000868D01*
X175962163Y-86800000D01*
X175943550Y-86599132D01*
X175888344Y-86405104D01*
X175887617Y-86403644D01*
X175798428Y-86224527D01*
X175676853Y-86063536D01*
X175527779Y-85927638D01*
X175527778Y-85927637D01*
X175356265Y-85821441D01*
X175168158Y-85748568D01*
X174969864Y-85711500D01*
X174768136Y-85711500D01*
X174569842Y-85748568D01*
X174381734Y-85821441D01*
X174210220Y-85927638D01*
X174061146Y-86063536D01*
X173939571Y-86224527D01*
X173849656Y-86405102D01*
X173794452Y-86599123D01*
X173794450Y-86599133D01*
X173775837Y-86800000D01*
X173422163Y-86800000D01*
X173403550Y-86599132D01*
X173348344Y-86405104D01*
X173347617Y-86403644D01*
X173258428Y-86224527D01*
X173136853Y-86063536D01*
X172987779Y-85927638D01*
X172987778Y-85927637D01*
X172816265Y-85821441D01*
X172628158Y-85748568D01*
X172429864Y-85711500D01*
X172228136Y-85711500D01*
X172029842Y-85748568D01*
X171841734Y-85821441D01*
X171670220Y-85927638D01*
X171521146Y-86063536D01*
X171399571Y-86224527D01*
X171309656Y-86405102D01*
X171254452Y-86599123D01*
X171254450Y-86599133D01*
X171235837Y-86800000D01*
X170882163Y-86800000D01*
X170863550Y-86599132D01*
X170808344Y-86405104D01*
X170807617Y-86403644D01*
X170718428Y-86224527D01*
X170596853Y-86063536D01*
X170447779Y-85927638D01*
X170447778Y-85927637D01*
X170276265Y-85821441D01*
X170088158Y-85748568D01*
X169889864Y-85711500D01*
X169688136Y-85711500D01*
X169489842Y-85748568D01*
X169301734Y-85821441D01*
X169130220Y-85927638D01*
X168981146Y-86063536D01*
X168859571Y-86224527D01*
X168769656Y-86405102D01*
X168714452Y-86599123D01*
X168714450Y-86599133D01*
X168695837Y-86800000D01*
X168714450Y-87000866D01*
X168714452Y-87000876D01*
X168769655Y-87194895D01*
X168788129Y-87231994D01*
X168800500Y-87284592D01*
X168800500Y-88099440D01*
X168838486Y-88290415D01*
X168864792Y-88353922D01*
X168913001Y-88470311D01*
X169021180Y-88632211D01*
X172010030Y-91621061D01*
X172041894Y-91679417D01*
X172037151Y-91745737D01*
X171997306Y-91798964D01*
X171935009Y-91822199D01*
X171926591Y-91822500D01*
X161772030Y-91822500D01*
X161708234Y-91803768D01*
X161664693Y-91753519D01*
X161655231Y-91687707D01*
X161682852Y-91627226D01*
X161708234Y-91605232D01*
X161710929Y-91603500D01*
X161757444Y-91573607D01*
X161809824Y-91528218D01*
X161903978Y-91419557D01*
X161941447Y-91361254D01*
X162001175Y-91230469D01*
X162020701Y-91163969D01*
X162041163Y-91021654D01*
X162041164Y-90952347D01*
X162039701Y-90942170D01*
X162038500Y-90925377D01*
X162038500Y-90548622D01*
X162039701Y-90531827D01*
X162041164Y-90521653D01*
X162041163Y-90452346D01*
X162020701Y-90310031D01*
X162001175Y-90243531D01*
X161941447Y-90112746D01*
X161903978Y-90054443D01*
X161809824Y-89945782D01*
X161809814Y-89945773D01*
X161757447Y-89900395D01*
X161752574Y-89897263D01*
X161636490Y-89822661D01*
X161573445Y-89793870D01*
X161573443Y-89793869D01*
X161573441Y-89793868D01*
X161435495Y-89753364D01*
X161435491Y-89753363D01*
X161435490Y-89753363D01*
X161416209Y-89750590D01*
X161366894Y-89743500D01*
X161366889Y-89743500D01*
X160795000Y-89743500D01*
X160794996Y-89743500D01*
X160719756Y-89755417D01*
X160719749Y-89755420D01*
X160708153Y-89762115D01*
X160643538Y-89777789D01*
X160601162Y-89767722D01*
X160594040Y-89764551D01*
X160495001Y-89743500D01*
X160495000Y-89743500D01*
X159923111Y-89743500D01*
X159923105Y-89743500D01*
X159866445Y-89751647D01*
X159854510Y-89753363D01*
X159854509Y-89753363D01*
X159854504Y-89753364D01*
X159716558Y-89793868D01*
X159716556Y-89793869D01*
X159653506Y-89822663D01*
X159532552Y-89900395D01*
X159480185Y-89945773D01*
X159480174Y-89945784D01*
X159386020Y-90054444D01*
X159348551Y-90112748D01*
X159288823Y-90243534D01*
X159269300Y-90310025D01*
X159248837Y-90452341D01*
X159248836Y-90452349D01*
X159248836Y-90521653D01*
X159250299Y-90531827D01*
X159251500Y-90548622D01*
X159251500Y-90925377D01*
X159250299Y-90942170D01*
X159248836Y-90952341D01*
X159248836Y-91021650D01*
X159248837Y-91021658D01*
X159269300Y-91163974D01*
X159288823Y-91230465D01*
X159348551Y-91361251D01*
X159386020Y-91419555D01*
X159386022Y-91419557D01*
X159480176Y-91528218D01*
X159480183Y-91528224D01*
X159480185Y-91528226D01*
X159532552Y-91573604D01*
X159532554Y-91573605D01*
X159532556Y-91573607D01*
X159579071Y-91603500D01*
X159581766Y-91605232D01*
X159625307Y-91655482D01*
X159634769Y-91721294D01*
X159607148Y-91781774D01*
X159551214Y-91817720D01*
X159517970Y-91822500D01*
X154965680Y-91822500D01*
X154901884Y-91803768D01*
X154858343Y-91753519D01*
X154848881Y-91687707D01*
X154876502Y-91627226D01*
X154900119Y-91606389D01*
X155052132Y-91504818D01*
X155189818Y-91367132D01*
X155297997Y-91205230D01*
X155372513Y-91025335D01*
X155410500Y-90834359D01*
X155410500Y-90639641D01*
X155410097Y-90637617D01*
X155389931Y-90536231D01*
X155372513Y-90448665D01*
X155297997Y-90268770D01*
X155189818Y-90106868D01*
X155104886Y-90021936D01*
X155073024Y-89963583D01*
X155077767Y-89897263D01*
X155117612Y-89844036D01*
X155179909Y-89820801D01*
X155188327Y-89820500D01*
X158710360Y-89820500D01*
X158813898Y-89799905D01*
X158901335Y-89782513D01*
X158962087Y-89757347D01*
X158975848Y-89751648D01*
X158975851Y-89751647D01*
X159081224Y-89708001D01*
X159081225Y-89708000D01*
X159081231Y-89707998D01*
X159243132Y-89599818D01*
X159790426Y-89052522D01*
X159844167Y-89023177D01*
X159843869Y-89022195D01*
X159848589Y-89020763D01*
X159848782Y-89020658D01*
X159849275Y-89020555D01*
X159849400Y-89020516D01*
X159849416Y-89020513D01*
X159923929Y-88989648D01*
X159923932Y-88989647D01*
X159997929Y-88958997D01*
X161178846Y-88958997D01*
X161178846Y-88959002D01*
X161199334Y-89088364D01*
X161199335Y-89088369D01*
X161199336Y-89088371D01*
X161258802Y-89205079D01*
X161351421Y-89297698D01*
X161468129Y-89357164D01*
X161468134Y-89357164D01*
X161468135Y-89357165D01*
X161597498Y-89377654D01*
X161597500Y-89377654D01*
X161597502Y-89377654D01*
X161704267Y-89360744D01*
X161726871Y-89357164D01*
X161843579Y-89297698D01*
X161936198Y-89205079D01*
X161995664Y-89088371D01*
X161996040Y-89085997D01*
X166385846Y-89085997D01*
X166385846Y-89086002D01*
X166406334Y-89215364D01*
X166406335Y-89215369D01*
X166406336Y-89215371D01*
X166437223Y-89275990D01*
X166449574Y-89300231D01*
X166465802Y-89332079D01*
X166558421Y-89424698D01*
X166675129Y-89484164D01*
X166675134Y-89484164D01*
X166675135Y-89484165D01*
X166804498Y-89504654D01*
X166804500Y-89504654D01*
X166804502Y-89504654D01*
X166900820Y-89489398D01*
X166933871Y-89484164D01*
X167050579Y-89424698D01*
X167143198Y-89332079D01*
X167202664Y-89215371D01*
X167217716Y-89120335D01*
X167223154Y-89086002D01*
X167223154Y-89085997D01*
X167202665Y-88956635D01*
X167202664Y-88956634D01*
X167202664Y-88956629D01*
X167143198Y-88839921D01*
X167050579Y-88747302D01*
X167050576Y-88747300D01*
X166983103Y-88712921D01*
X166933871Y-88687836D01*
X166933869Y-88687835D01*
X166933864Y-88687834D01*
X166804502Y-88667346D01*
X166804498Y-88667346D01*
X166675135Y-88687834D01*
X166675129Y-88687836D01*
X166558423Y-88747300D01*
X166465800Y-88839923D01*
X166406336Y-88956629D01*
X166406334Y-88956635D01*
X166385846Y-89085997D01*
X161996040Y-89085997D01*
X162006405Y-89020555D01*
X162016154Y-88959002D01*
X162016154Y-88958997D01*
X161995665Y-88829635D01*
X161995664Y-88829634D01*
X161995664Y-88829629D01*
X161936198Y-88712921D01*
X161843579Y-88620302D01*
X161843576Y-88620300D01*
X161787490Y-88591723D01*
X161726871Y-88560836D01*
X161726869Y-88560835D01*
X161726864Y-88560834D01*
X161597502Y-88540346D01*
X161597498Y-88540346D01*
X161468135Y-88560834D01*
X161468129Y-88560836D01*
X161351423Y-88620300D01*
X161258800Y-88712923D01*
X161199336Y-88829629D01*
X161199334Y-88829635D01*
X161178846Y-88958997D01*
X159997929Y-88958997D01*
X160029305Y-88946001D01*
X160029305Y-88946000D01*
X160029312Y-88945998D01*
X160191213Y-88837818D01*
X160396818Y-88632213D01*
X160504998Y-88470312D01*
X160547275Y-88368245D01*
X160553208Y-88353922D01*
X160579513Y-88290415D01*
X160617500Y-88099440D01*
X160617500Y-87284592D01*
X160629871Y-87231994D01*
X160648344Y-87194896D01*
X160703550Y-87000868D01*
X160722163Y-86800000D01*
X161075837Y-86800000D01*
X161094450Y-87000866D01*
X161094452Y-87000876D01*
X161149656Y-87194897D01*
X161239571Y-87375472D01*
X161361146Y-87536463D01*
X161483745Y-87648226D01*
X161510222Y-87672363D01*
X161681735Y-87778559D01*
X161869842Y-87851432D01*
X162068136Y-87888500D01*
X162068139Y-87888500D01*
X162269861Y-87888500D01*
X162269864Y-87888500D01*
X162468158Y-87851432D01*
X162656265Y-87778559D01*
X162827778Y-87672363D01*
X162976857Y-87536459D01*
X163098426Y-87375476D01*
X163188344Y-87194896D01*
X163243550Y-87000868D01*
X163262163Y-86800000D01*
X163615837Y-86800000D01*
X163634450Y-87000866D01*
X163634452Y-87000876D01*
X163689656Y-87194897D01*
X163779571Y-87375472D01*
X163901146Y-87536463D01*
X164023745Y-87648226D01*
X164050222Y-87672363D01*
X164221735Y-87778559D01*
X164409842Y-87851432D01*
X164608136Y-87888500D01*
X164608139Y-87888500D01*
X164809861Y-87888500D01*
X164809864Y-87888500D01*
X165008158Y-87851432D01*
X165196265Y-87778559D01*
X165367778Y-87672363D01*
X165516857Y-87536459D01*
X165638426Y-87375476D01*
X165728344Y-87194896D01*
X165783550Y-87000868D01*
X165802163Y-86800000D01*
X166155837Y-86800000D01*
X166174450Y-87000866D01*
X166174452Y-87000876D01*
X166229656Y-87194897D01*
X166319571Y-87375472D01*
X166441146Y-87536463D01*
X166563745Y-87648226D01*
X166590222Y-87672363D01*
X166761735Y-87778559D01*
X166949842Y-87851432D01*
X167148136Y-87888500D01*
X167148139Y-87888500D01*
X167349861Y-87888500D01*
X167349864Y-87888500D01*
X167548158Y-87851432D01*
X167736265Y-87778559D01*
X167907778Y-87672363D01*
X168056857Y-87536459D01*
X168178426Y-87375476D01*
X168268344Y-87194896D01*
X168323550Y-87000868D01*
X168342163Y-86800000D01*
X168323550Y-86599132D01*
X168268344Y-86405104D01*
X168267617Y-86403644D01*
X168178428Y-86224527D01*
X168056853Y-86063536D01*
X167907779Y-85927638D01*
X167907778Y-85927637D01*
X167736265Y-85821441D01*
X167548158Y-85748568D01*
X167349864Y-85711500D01*
X167148136Y-85711500D01*
X166949842Y-85748568D01*
X166761734Y-85821441D01*
X166590220Y-85927638D01*
X166441146Y-86063536D01*
X166319571Y-86224527D01*
X166229656Y-86405102D01*
X166174452Y-86599123D01*
X166174450Y-86599133D01*
X166155837Y-86800000D01*
X165802163Y-86800000D01*
X165783550Y-86599132D01*
X165728344Y-86405104D01*
X165727617Y-86403644D01*
X165638428Y-86224527D01*
X165516853Y-86063536D01*
X165367779Y-85927638D01*
X165367778Y-85927637D01*
X165196265Y-85821441D01*
X165008158Y-85748568D01*
X164809864Y-85711500D01*
X164608136Y-85711500D01*
X164409842Y-85748568D01*
X164221734Y-85821441D01*
X164050220Y-85927638D01*
X163901146Y-86063536D01*
X163779571Y-86224527D01*
X163689656Y-86405102D01*
X163634452Y-86599123D01*
X163634450Y-86599133D01*
X163615837Y-86800000D01*
X163262163Y-86800000D01*
X163243550Y-86599132D01*
X163188344Y-86405104D01*
X163187617Y-86403644D01*
X163098428Y-86224527D01*
X162976853Y-86063536D01*
X162827779Y-85927638D01*
X162827778Y-85927637D01*
X162656265Y-85821441D01*
X162468158Y-85748568D01*
X162269864Y-85711500D01*
X162068136Y-85711500D01*
X161869842Y-85748568D01*
X161681734Y-85821441D01*
X161510220Y-85927638D01*
X161361146Y-86063536D01*
X161239571Y-86224527D01*
X161149656Y-86405102D01*
X161094452Y-86599123D01*
X161094450Y-86599133D01*
X161075837Y-86800000D01*
X160722163Y-86800000D01*
X160703550Y-86599132D01*
X160648344Y-86405104D01*
X160647617Y-86403644D01*
X160558428Y-86224527D01*
X160436853Y-86063536D01*
X160287779Y-85927638D01*
X160287778Y-85927637D01*
X160116265Y-85821441D01*
X159928158Y-85748568D01*
X159729864Y-85711500D01*
X159528136Y-85711500D01*
X159329842Y-85748568D01*
X159141734Y-85821441D01*
X158970220Y-85927638D01*
X158821146Y-86063536D01*
X158699571Y-86224527D01*
X158609656Y-86405102D01*
X158554452Y-86599123D01*
X158554450Y-86599133D01*
X158535837Y-86800000D01*
X158554450Y-87000866D01*
X158554452Y-87000876D01*
X158609655Y-87194895D01*
X158628129Y-87231994D01*
X158640500Y-87284592D01*
X158640500Y-87357672D01*
X158621768Y-87421468D01*
X158605939Y-87441111D01*
X158238111Y-87808939D01*
X158179755Y-87840803D01*
X158154672Y-87843500D01*
X157864643Y-87843500D01*
X157800847Y-87824768D01*
X157757306Y-87774519D01*
X157747844Y-87708707D01*
X157775465Y-87648226D01*
X157785147Y-87638297D01*
X157896853Y-87536463D01*
X157896853Y-87536461D01*
X157896857Y-87536459D01*
X158018426Y-87375476D01*
X158108344Y-87194896D01*
X158163550Y-87000868D01*
X158182163Y-86800000D01*
X158163550Y-86599132D01*
X158108344Y-86405104D01*
X158107617Y-86403644D01*
X158018428Y-86224527D01*
X157896853Y-86063536D01*
X157747779Y-85927638D01*
X157747778Y-85927637D01*
X157576265Y-85821441D01*
X157388158Y-85748568D01*
X157189864Y-85711500D01*
X156988136Y-85711500D01*
X156789842Y-85748568D01*
X156601734Y-85821441D01*
X156430220Y-85927638D01*
X156281146Y-86063536D01*
X156159571Y-86224527D01*
X156069656Y-86405102D01*
X156014452Y-86599123D01*
X156014450Y-86599133D01*
X155995837Y-86800000D01*
X156014450Y-87000866D01*
X156014452Y-87000876D01*
X156069656Y-87194897D01*
X156159571Y-87375472D01*
X156281146Y-87536463D01*
X156392853Y-87638297D01*
X156427379Y-87695119D01*
X156425704Y-87761587D01*
X156388359Y-87816597D01*
X156327202Y-87842685D01*
X156313357Y-87843500D01*
X155324643Y-87843500D01*
X155260847Y-87824768D01*
X155217306Y-87774519D01*
X155207844Y-87708707D01*
X155235465Y-87648226D01*
X155245147Y-87638297D01*
X155356853Y-87536463D01*
X155356853Y-87536461D01*
X155356857Y-87536459D01*
X155478426Y-87375476D01*
X155568344Y-87194896D01*
X155623550Y-87000868D01*
X155642163Y-86800000D01*
X155623550Y-86599132D01*
X155568344Y-86405104D01*
X155567617Y-86403644D01*
X155478428Y-86224527D01*
X155356853Y-86063536D01*
X155207779Y-85927638D01*
X155207778Y-85927637D01*
X155036265Y-85821441D01*
X154848158Y-85748568D01*
X154649864Y-85711500D01*
X154448136Y-85711500D01*
X154249842Y-85748568D01*
X154061734Y-85821441D01*
X153890220Y-85927638D01*
X153741146Y-86063536D01*
X153619571Y-86224527D01*
X153529656Y-86405102D01*
X153474452Y-86599123D01*
X153474450Y-86599133D01*
X153455837Y-86800000D01*
X153474450Y-87000866D01*
X153474452Y-87000876D01*
X153529656Y-87194897D01*
X153619571Y-87375472D01*
X153741146Y-87536463D01*
X153852853Y-87638297D01*
X153887379Y-87695119D01*
X153885704Y-87761587D01*
X153848359Y-87816597D01*
X153787202Y-87842685D01*
X153773357Y-87843500D01*
X152784643Y-87843500D01*
X152720847Y-87824768D01*
X152677306Y-87774519D01*
X152667844Y-87708707D01*
X152695465Y-87648226D01*
X152705147Y-87638297D01*
X152816853Y-87536463D01*
X152816853Y-87536461D01*
X152816857Y-87536459D01*
X152938426Y-87375476D01*
X153028344Y-87194896D01*
X153083550Y-87000868D01*
X153102163Y-86800000D01*
X153083550Y-86599132D01*
X153028344Y-86405104D01*
X153027617Y-86403644D01*
X152938428Y-86224527D01*
X152816853Y-86063536D01*
X152667779Y-85927638D01*
X152667778Y-85927637D01*
X152496265Y-85821441D01*
X152308158Y-85748568D01*
X152109864Y-85711500D01*
X151908136Y-85711500D01*
X151709842Y-85748568D01*
X151521734Y-85821441D01*
X151350220Y-85927638D01*
X151201146Y-86063536D01*
X151079571Y-86224527D01*
X150989656Y-86405102D01*
X150934452Y-86599123D01*
X150934450Y-86599133D01*
X150915837Y-86800000D01*
X150934450Y-87000866D01*
X150934452Y-87000876D01*
X150989656Y-87194897D01*
X151079571Y-87375472D01*
X151201146Y-87536463D01*
X151312853Y-87638297D01*
X151347379Y-87695119D01*
X151345704Y-87761587D01*
X151308359Y-87816597D01*
X151247202Y-87842685D01*
X151233357Y-87843500D01*
X150244643Y-87843500D01*
X150180847Y-87824768D01*
X150137306Y-87774519D01*
X150127844Y-87708707D01*
X150155465Y-87648226D01*
X150165147Y-87638297D01*
X150276853Y-87536463D01*
X150276853Y-87536461D01*
X150276857Y-87536459D01*
X150398426Y-87375476D01*
X150488344Y-87194896D01*
X150543550Y-87000868D01*
X150562163Y-86800000D01*
X150543550Y-86599132D01*
X150488344Y-86405104D01*
X150487617Y-86403644D01*
X150398428Y-86224527D01*
X150276853Y-86063536D01*
X150127779Y-85927638D01*
X150127778Y-85927637D01*
X149956265Y-85821441D01*
X149768158Y-85748568D01*
X149569864Y-85711500D01*
X149368136Y-85711500D01*
X149169842Y-85748568D01*
X148981734Y-85821441D01*
X148810220Y-85927638D01*
X148661146Y-86063536D01*
X148539571Y-86224527D01*
X148449656Y-86405102D01*
X148394452Y-86599123D01*
X148394450Y-86599133D01*
X148375837Y-86800000D01*
X148394450Y-87000866D01*
X148394452Y-87000876D01*
X148449656Y-87194897D01*
X148539571Y-87375472D01*
X148661146Y-87536463D01*
X148783745Y-87648226D01*
X148810222Y-87672363D01*
X148981735Y-87778559D01*
X149169842Y-87851432D01*
X149368136Y-87888500D01*
X149368139Y-87888500D01*
X149491673Y-87888500D01*
X149555469Y-87907232D01*
X149599010Y-87957481D01*
X149608472Y-88023293D01*
X149580851Y-88083774D01*
X149575125Y-88089924D01*
X149508324Y-88156726D01*
X149463181Y-88201869D01*
X149355003Y-88363770D01*
X149280486Y-88543667D01*
X149242500Y-88734640D01*
X149242500Y-88929359D01*
X149276689Y-89101245D01*
X149280487Y-89120335D01*
X149355003Y-89300230D01*
X149463182Y-89462132D01*
X149548113Y-89547063D01*
X149579976Y-89605417D01*
X149575233Y-89671737D01*
X149535388Y-89724964D01*
X149473091Y-89748199D01*
X149464673Y-89748500D01*
X137433640Y-89748500D01*
X137242666Y-89786486D01*
X137242664Y-89786487D01*
X137168149Y-89817351D01*
X137168149Y-89817352D01*
X137127394Y-89834233D01*
X137062765Y-89861003D01*
X136900869Y-89969180D01*
X136636180Y-90233869D01*
X136528001Y-90395769D01*
X136527999Y-90395772D01*
X136453488Y-90575664D01*
X136428346Y-90702061D01*
X136415500Y-90766641D01*
X136415500Y-90961359D01*
X136428225Y-91025332D01*
X136453488Y-91152335D01*
X136527999Y-91332227D01*
X136528001Y-91332230D01*
X136636180Y-91494130D01*
X136773869Y-91631819D01*
X136935769Y-91739998D01*
X136935772Y-91740000D01*
X137036627Y-91781774D01*
X137115665Y-91814512D01*
X137306641Y-91852500D01*
X137501359Y-91852500D01*
X137692335Y-91814512D01*
X137872231Y-91739998D01*
X137872239Y-91739992D01*
X137873279Y-91739438D01*
X137874053Y-91739243D01*
X137877588Y-91737780D01*
X137877805Y-91738304D01*
X137928912Y-91725500D01*
X152863407Y-91725500D01*
X152927203Y-91744232D01*
X152970744Y-91794481D01*
X152980206Y-91860293D01*
X152952585Y-91920774D01*
X152946845Y-91926939D01*
X152577843Y-92295939D01*
X152519487Y-92327803D01*
X152494405Y-92330500D01*
X151431730Y-92330500D01*
X139632270Y-92330500D01*
X139632267Y-92330500D01*
X139632265Y-92330501D01*
X139520744Y-92360383D01*
X139420757Y-92418111D01*
X139339111Y-92499757D01*
X139281383Y-92599744D01*
X139254654Y-92699500D01*
X139251500Y-92711270D01*
X139251500Y-92826730D01*
X139281383Y-92938255D01*
X139339113Y-93038245D01*
X139339115Y-93038247D01*
X139341570Y-93042499D01*
X139357245Y-93107114D01*
X139335499Y-93169946D01*
X139283236Y-93211047D01*
X139239379Y-93219500D01*
X136330270Y-93219500D01*
X136330267Y-93219500D01*
X136330265Y-93219501D01*
X136218744Y-93249383D01*
X136118757Y-93307111D01*
X136037111Y-93388757D01*
X135979383Y-93488744D01*
X135951964Y-93591075D01*
X135949500Y-93600270D01*
X135949500Y-93715730D01*
X135979383Y-93827255D01*
X135979384Y-93827256D01*
X135980912Y-93832959D01*
X135979330Y-93899429D01*
X135942063Y-93954492D01*
X135880942Y-93980665D01*
X135866933Y-93981500D01*
X130603730Y-93981500D01*
X128335783Y-93981500D01*
X128335780Y-93981500D01*
X128335778Y-93981501D01*
X128224257Y-94011383D01*
X128124268Y-94069112D01*
X128052237Y-94141143D01*
X127993881Y-94173007D01*
X127927562Y-94168264D01*
X127885360Y-94141143D01*
X123622327Y-89878110D01*
X123558938Y-89841513D01*
X123558937Y-89841513D01*
X123522339Y-89820383D01*
X123410818Y-89790501D01*
X123410817Y-89790500D01*
X123410814Y-89790500D01*
X123410810Y-89790500D01*
X110456510Y-89790500D01*
X110392714Y-89771768D01*
X110373071Y-89755939D01*
X109302061Y-88684928D01*
X109270197Y-88626572D01*
X109267500Y-88601489D01*
X109267500Y-87874478D01*
X109286232Y-87810682D01*
X109323378Y-87774154D01*
X109487778Y-87672363D01*
X109636857Y-87536459D01*
X109758426Y-87375476D01*
X109848344Y-87194896D01*
X109903550Y-87000868D01*
X109922163Y-86800000D01*
X110275837Y-86800000D01*
X110294450Y-87000866D01*
X110294452Y-87000876D01*
X110349656Y-87194897D01*
X110439571Y-87375472D01*
X110561146Y-87536463D01*
X110683745Y-87648226D01*
X110710222Y-87672363D01*
X110881735Y-87778559D01*
X111069842Y-87851432D01*
X111268136Y-87888500D01*
X111268139Y-87888500D01*
X111469861Y-87888500D01*
X111469864Y-87888500D01*
X111668158Y-87851432D01*
X111856265Y-87778559D01*
X112027778Y-87672363D01*
X112176857Y-87536459D01*
X112298426Y-87375476D01*
X112388344Y-87194896D01*
X112443550Y-87000868D01*
X112462163Y-86800000D01*
X112815837Y-86800000D01*
X112834450Y-87000866D01*
X112834452Y-87000876D01*
X112889656Y-87194897D01*
X112979571Y-87375472D01*
X113101146Y-87536463D01*
X113223745Y-87648226D01*
X113250222Y-87672363D01*
X113421735Y-87778559D01*
X113609842Y-87851432D01*
X113808136Y-87888500D01*
X113808139Y-87888500D01*
X114009861Y-87888500D01*
X114009864Y-87888500D01*
X114208158Y-87851432D01*
X114396265Y-87778559D01*
X114567778Y-87672363D01*
X114716857Y-87536459D01*
X114838426Y-87375476D01*
X114928344Y-87194896D01*
X114983550Y-87000868D01*
X115002163Y-86800000D01*
X115355837Y-86800000D01*
X115374450Y-87000866D01*
X115374452Y-87000876D01*
X115429656Y-87194897D01*
X115519571Y-87375472D01*
X115641146Y-87536463D01*
X115763745Y-87648226D01*
X115790222Y-87672363D01*
X115961735Y-87778559D01*
X116149842Y-87851432D01*
X116348136Y-87888500D01*
X116348139Y-87888500D01*
X116549861Y-87888500D01*
X116549864Y-87888500D01*
X116748158Y-87851432D01*
X116936265Y-87778559D01*
X117107778Y-87672363D01*
X117256857Y-87536459D01*
X117378426Y-87375476D01*
X117468344Y-87194896D01*
X117523550Y-87000868D01*
X117542163Y-86800000D01*
X117895837Y-86800000D01*
X117914450Y-87000866D01*
X117914452Y-87000876D01*
X117969656Y-87194897D01*
X118059571Y-87375472D01*
X118181146Y-87536463D01*
X118303745Y-87648226D01*
X118330222Y-87672363D01*
X118501735Y-87778559D01*
X118689842Y-87851432D01*
X118888136Y-87888500D01*
X118888139Y-87888500D01*
X119089861Y-87888500D01*
X119089864Y-87888500D01*
X119288158Y-87851432D01*
X119476265Y-87778559D01*
X119647778Y-87672363D01*
X119796857Y-87536459D01*
X119918426Y-87375476D01*
X120008344Y-87194896D01*
X120063550Y-87000868D01*
X120082163Y-86800000D01*
X120435837Y-86800000D01*
X120454450Y-87000866D01*
X120454452Y-87000876D01*
X120509656Y-87194897D01*
X120599571Y-87375472D01*
X120721146Y-87536463D01*
X120843745Y-87648226D01*
X120870222Y-87672363D01*
X121041735Y-87778559D01*
X121229842Y-87851432D01*
X121428136Y-87888500D01*
X121428139Y-87888500D01*
X121629861Y-87888500D01*
X121629864Y-87888500D01*
X121828158Y-87851432D01*
X122016265Y-87778559D01*
X122187778Y-87672363D01*
X122336857Y-87536459D01*
X122458426Y-87375476D01*
X122548344Y-87194896D01*
X122603550Y-87000868D01*
X122622163Y-86800000D01*
X122975837Y-86800000D01*
X122994450Y-87000866D01*
X122994452Y-87000876D01*
X123049656Y-87194897D01*
X123139571Y-87375472D01*
X123261146Y-87536463D01*
X123383745Y-87648226D01*
X123410222Y-87672363D01*
X123581735Y-87778559D01*
X123769842Y-87851432D01*
X123968136Y-87888500D01*
X123968139Y-87888500D01*
X124169861Y-87888500D01*
X124169864Y-87888500D01*
X124368158Y-87851432D01*
X124556265Y-87778559D01*
X124727778Y-87672363D01*
X124876857Y-87536459D01*
X124998426Y-87375476D01*
X125088344Y-87194896D01*
X125143550Y-87000868D01*
X125162163Y-86800000D01*
X125515837Y-86800000D01*
X125534450Y-87000866D01*
X125534452Y-87000876D01*
X125589656Y-87194897D01*
X125679571Y-87375472D01*
X125801146Y-87536463D01*
X125923745Y-87648226D01*
X125950222Y-87672363D01*
X126121735Y-87778559D01*
X126309842Y-87851432D01*
X126508136Y-87888500D01*
X126508139Y-87888500D01*
X126709861Y-87888500D01*
X126709864Y-87888500D01*
X126908158Y-87851432D01*
X127096265Y-87778559D01*
X127267778Y-87672363D01*
X127416857Y-87536459D01*
X127538426Y-87375476D01*
X127628344Y-87194896D01*
X127683550Y-87000868D01*
X127702163Y-86800000D01*
X128055837Y-86800000D01*
X128074450Y-87000866D01*
X128074452Y-87000876D01*
X128129656Y-87194897D01*
X128219571Y-87375472D01*
X128341146Y-87536463D01*
X128463745Y-87648226D01*
X128490222Y-87672363D01*
X128661735Y-87778559D01*
X128849842Y-87851432D01*
X129048136Y-87888500D01*
X129048139Y-87888500D01*
X129249861Y-87888500D01*
X129249864Y-87888500D01*
X129448158Y-87851432D01*
X129636265Y-87778559D01*
X129807778Y-87672363D01*
X129956857Y-87536459D01*
X130078426Y-87375476D01*
X130168344Y-87194896D01*
X130223550Y-87000868D01*
X130242163Y-86800000D01*
X130595837Y-86800000D01*
X130614450Y-87000866D01*
X130614452Y-87000876D01*
X130669656Y-87194897D01*
X130759571Y-87375472D01*
X130881146Y-87536463D01*
X131003745Y-87648226D01*
X131030222Y-87672363D01*
X131201735Y-87778559D01*
X131389842Y-87851432D01*
X131588136Y-87888500D01*
X131588139Y-87888500D01*
X131789861Y-87888500D01*
X131789864Y-87888500D01*
X131988158Y-87851432D01*
X132176265Y-87778559D01*
X132347778Y-87672363D01*
X132496857Y-87536459D01*
X132618426Y-87375476D01*
X132708344Y-87194896D01*
X132763550Y-87000868D01*
X132782163Y-86800000D01*
X133135837Y-86800000D01*
X133154450Y-87000866D01*
X133154452Y-87000876D01*
X133209656Y-87194897D01*
X133299571Y-87375472D01*
X133421146Y-87536463D01*
X133543745Y-87648226D01*
X133570222Y-87672363D01*
X133741735Y-87778559D01*
X133929842Y-87851432D01*
X134128136Y-87888500D01*
X134128139Y-87888500D01*
X134329861Y-87888500D01*
X134329864Y-87888500D01*
X134528158Y-87851432D01*
X134716265Y-87778559D01*
X134887778Y-87672363D01*
X135036857Y-87536459D01*
X135158426Y-87375476D01*
X135248344Y-87194896D01*
X135303550Y-87000868D01*
X135322163Y-86800000D01*
X135675837Y-86800000D01*
X135694450Y-87000866D01*
X135694452Y-87000876D01*
X135749656Y-87194897D01*
X135839571Y-87375472D01*
X135961146Y-87536463D01*
X136083745Y-87648226D01*
X136110222Y-87672363D01*
X136281735Y-87778559D01*
X136469842Y-87851432D01*
X136668136Y-87888500D01*
X136668139Y-87888500D01*
X136869861Y-87888500D01*
X136869864Y-87888500D01*
X137068158Y-87851432D01*
X137256265Y-87778559D01*
X137427778Y-87672363D01*
X137576857Y-87536459D01*
X137698426Y-87375476D01*
X137788344Y-87194896D01*
X137843550Y-87000868D01*
X137862163Y-86800000D01*
X138215837Y-86800000D01*
X138234450Y-87000866D01*
X138234452Y-87000876D01*
X138289656Y-87194897D01*
X138379571Y-87375472D01*
X138501146Y-87536463D01*
X138623745Y-87648226D01*
X138650222Y-87672363D01*
X138821735Y-87778559D01*
X139009842Y-87851432D01*
X139208136Y-87888500D01*
X139208139Y-87888500D01*
X139409861Y-87888500D01*
X139409864Y-87888500D01*
X139608158Y-87851432D01*
X139796265Y-87778559D01*
X139967778Y-87672363D01*
X140116857Y-87536459D01*
X140238426Y-87375476D01*
X140328344Y-87194896D01*
X140383550Y-87000868D01*
X140402163Y-86800000D01*
X140755837Y-86800000D01*
X140774450Y-87000866D01*
X140774452Y-87000876D01*
X140829656Y-87194897D01*
X140919571Y-87375472D01*
X141041146Y-87536463D01*
X141163745Y-87648226D01*
X141190222Y-87672363D01*
X141361735Y-87778559D01*
X141549842Y-87851432D01*
X141748136Y-87888500D01*
X141748139Y-87888500D01*
X141949861Y-87888500D01*
X141949864Y-87888500D01*
X142148158Y-87851432D01*
X142336265Y-87778559D01*
X142507778Y-87672363D01*
X142656857Y-87536459D01*
X142778426Y-87375476D01*
X142868344Y-87194896D01*
X142923550Y-87000868D01*
X142942163Y-86800000D01*
X143295837Y-86800000D01*
X143314450Y-87000866D01*
X143314452Y-87000876D01*
X143369656Y-87194897D01*
X143459571Y-87375472D01*
X143581146Y-87536463D01*
X143703745Y-87648226D01*
X143730222Y-87672363D01*
X143901735Y-87778559D01*
X144089842Y-87851432D01*
X144288136Y-87888500D01*
X144288139Y-87888500D01*
X144489861Y-87888500D01*
X144489864Y-87888500D01*
X144688158Y-87851432D01*
X144876265Y-87778559D01*
X145047778Y-87672363D01*
X145196857Y-87536459D01*
X145318426Y-87375476D01*
X145408344Y-87194896D01*
X145463550Y-87000868D01*
X145482163Y-86800000D01*
X145835837Y-86800000D01*
X145854450Y-87000866D01*
X145854452Y-87000876D01*
X145909656Y-87194897D01*
X145999571Y-87375472D01*
X146121146Y-87536463D01*
X146243745Y-87648226D01*
X146270222Y-87672363D01*
X146441735Y-87778559D01*
X146629842Y-87851432D01*
X146828136Y-87888500D01*
X146828139Y-87888500D01*
X147029861Y-87888500D01*
X147029864Y-87888500D01*
X147228158Y-87851432D01*
X147416265Y-87778559D01*
X147587778Y-87672363D01*
X147736857Y-87536459D01*
X147858426Y-87375476D01*
X147948344Y-87194896D01*
X148003550Y-87000868D01*
X148022163Y-86800000D01*
X148003550Y-86599132D01*
X147948344Y-86405104D01*
X147947617Y-86403644D01*
X147858428Y-86224527D01*
X147736853Y-86063536D01*
X147587779Y-85927638D01*
X147587778Y-85927637D01*
X147416265Y-85821441D01*
X147228158Y-85748568D01*
X147029864Y-85711500D01*
X146828136Y-85711500D01*
X146629842Y-85748568D01*
X146441734Y-85821441D01*
X146270220Y-85927638D01*
X146121146Y-86063536D01*
X145999571Y-86224527D01*
X145909656Y-86405102D01*
X145854452Y-86599123D01*
X145854450Y-86599133D01*
X145835837Y-86800000D01*
X145482163Y-86800000D01*
X145463550Y-86599132D01*
X145408344Y-86405104D01*
X145407617Y-86403644D01*
X145318428Y-86224527D01*
X145196853Y-86063536D01*
X145047779Y-85927638D01*
X145047778Y-85927637D01*
X144876265Y-85821441D01*
X144688158Y-85748568D01*
X144489864Y-85711500D01*
X144288136Y-85711500D01*
X144089842Y-85748568D01*
X143901734Y-85821441D01*
X143730220Y-85927638D01*
X143581146Y-86063536D01*
X143459571Y-86224527D01*
X143369656Y-86405102D01*
X143314452Y-86599123D01*
X143314450Y-86599133D01*
X143295837Y-86800000D01*
X142942163Y-86800000D01*
X142923550Y-86599132D01*
X142868344Y-86405104D01*
X142867617Y-86403644D01*
X142778428Y-86224527D01*
X142656853Y-86063536D01*
X142507779Y-85927638D01*
X142507778Y-85927637D01*
X142336265Y-85821441D01*
X142148158Y-85748568D01*
X141949864Y-85711500D01*
X141748136Y-85711500D01*
X141549842Y-85748568D01*
X141361734Y-85821441D01*
X141190220Y-85927638D01*
X141041146Y-86063536D01*
X140919571Y-86224527D01*
X140829656Y-86405102D01*
X140774452Y-86599123D01*
X140774450Y-86599133D01*
X140755837Y-86800000D01*
X140402163Y-86800000D01*
X140383550Y-86599132D01*
X140328344Y-86405104D01*
X140327617Y-86403644D01*
X140238428Y-86224527D01*
X140116853Y-86063536D01*
X139967779Y-85927638D01*
X139967778Y-85927637D01*
X139796265Y-85821441D01*
X139608158Y-85748568D01*
X139409864Y-85711500D01*
X139208136Y-85711500D01*
X139009842Y-85748568D01*
X138821734Y-85821441D01*
X138650220Y-85927638D01*
X138501146Y-86063536D01*
X138379571Y-86224527D01*
X138289656Y-86405102D01*
X138234452Y-86599123D01*
X138234450Y-86599133D01*
X138215837Y-86800000D01*
X137862163Y-86800000D01*
X137843550Y-86599132D01*
X137788344Y-86405104D01*
X137787617Y-86403644D01*
X137698428Y-86224527D01*
X137576853Y-86063536D01*
X137427779Y-85927638D01*
X137427778Y-85927637D01*
X137256265Y-85821441D01*
X137068158Y-85748568D01*
X136869864Y-85711500D01*
X136668136Y-85711500D01*
X136469842Y-85748568D01*
X136281734Y-85821441D01*
X136110220Y-85927638D01*
X135961146Y-86063536D01*
X135839571Y-86224527D01*
X135749656Y-86405102D01*
X135694452Y-86599123D01*
X135694450Y-86599133D01*
X135675837Y-86800000D01*
X135322163Y-86800000D01*
X135303550Y-86599132D01*
X135248344Y-86405104D01*
X135247617Y-86403644D01*
X135158428Y-86224527D01*
X135036853Y-86063536D01*
X134887779Y-85927638D01*
X134887778Y-85927637D01*
X134716265Y-85821441D01*
X134528158Y-85748568D01*
X134329864Y-85711500D01*
X134128136Y-85711500D01*
X133929842Y-85748568D01*
X133741734Y-85821441D01*
X133570220Y-85927638D01*
X133421146Y-86063536D01*
X133299571Y-86224527D01*
X133209656Y-86405102D01*
X133154452Y-86599123D01*
X133154450Y-86599133D01*
X133135837Y-86800000D01*
X132782163Y-86800000D01*
X132763550Y-86599132D01*
X132708344Y-86405104D01*
X132707617Y-86403644D01*
X132618428Y-86224527D01*
X132496853Y-86063536D01*
X132347779Y-85927638D01*
X132347778Y-85927637D01*
X132176265Y-85821441D01*
X131988158Y-85748568D01*
X131789864Y-85711500D01*
X131588136Y-85711500D01*
X131389842Y-85748568D01*
X131201734Y-85821441D01*
X131030220Y-85927638D01*
X130881146Y-86063536D01*
X130759571Y-86224527D01*
X130669656Y-86405102D01*
X130614452Y-86599123D01*
X130614450Y-86599133D01*
X130595837Y-86800000D01*
X130242163Y-86800000D01*
X130223550Y-86599132D01*
X130168344Y-86405104D01*
X130167617Y-86403644D01*
X130078428Y-86224527D01*
X129956853Y-86063536D01*
X129807779Y-85927638D01*
X129807778Y-85927637D01*
X129636265Y-85821441D01*
X129448158Y-85748568D01*
X129249864Y-85711500D01*
X129048136Y-85711500D01*
X128849842Y-85748568D01*
X128661734Y-85821441D01*
X128490220Y-85927638D01*
X128341146Y-86063536D01*
X128219571Y-86224527D01*
X128129656Y-86405102D01*
X128074452Y-86599123D01*
X128074450Y-86599133D01*
X128055837Y-86800000D01*
X127702163Y-86800000D01*
X127683550Y-86599132D01*
X127628344Y-86405104D01*
X127627617Y-86403644D01*
X127538428Y-86224527D01*
X127416853Y-86063536D01*
X127267779Y-85927638D01*
X127267778Y-85927637D01*
X127096265Y-85821441D01*
X126908158Y-85748568D01*
X126709864Y-85711500D01*
X126508136Y-85711500D01*
X126309842Y-85748568D01*
X126121734Y-85821441D01*
X125950220Y-85927638D01*
X125801146Y-86063536D01*
X125679571Y-86224527D01*
X125589656Y-86405102D01*
X125534452Y-86599123D01*
X125534450Y-86599133D01*
X125515837Y-86800000D01*
X125162163Y-86800000D01*
X125143550Y-86599132D01*
X125088344Y-86405104D01*
X125087617Y-86403644D01*
X124998428Y-86224527D01*
X124876853Y-86063536D01*
X124727779Y-85927638D01*
X124727778Y-85927637D01*
X124556265Y-85821441D01*
X124368158Y-85748568D01*
X124169864Y-85711500D01*
X123968136Y-85711500D01*
X123769842Y-85748568D01*
X123581734Y-85821441D01*
X123410220Y-85927638D01*
X123261146Y-86063536D01*
X123139571Y-86224527D01*
X123049656Y-86405102D01*
X122994452Y-86599123D01*
X122994450Y-86599133D01*
X122975837Y-86800000D01*
X122622163Y-86800000D01*
X122603550Y-86599132D01*
X122548344Y-86405104D01*
X122547617Y-86403644D01*
X122458428Y-86224527D01*
X122336853Y-86063536D01*
X122187779Y-85927638D01*
X122187778Y-85927637D01*
X122016265Y-85821441D01*
X121828158Y-85748568D01*
X121629864Y-85711500D01*
X121428136Y-85711500D01*
X121229842Y-85748568D01*
X121041734Y-85821441D01*
X120870220Y-85927638D01*
X120721146Y-86063536D01*
X120599571Y-86224527D01*
X120509656Y-86405102D01*
X120454452Y-86599123D01*
X120454450Y-86599133D01*
X120435837Y-86800000D01*
X120082163Y-86800000D01*
X120063550Y-86599132D01*
X120008344Y-86405104D01*
X120007617Y-86403644D01*
X119918428Y-86224527D01*
X119796853Y-86063536D01*
X119647779Y-85927638D01*
X119647778Y-85927637D01*
X119476265Y-85821441D01*
X119288158Y-85748568D01*
X119089864Y-85711500D01*
X118888136Y-85711500D01*
X118689842Y-85748568D01*
X118501734Y-85821441D01*
X118330220Y-85927638D01*
X118181146Y-86063536D01*
X118059571Y-86224527D01*
X117969656Y-86405102D01*
X117914452Y-86599123D01*
X117914450Y-86599133D01*
X117895837Y-86800000D01*
X117542163Y-86800000D01*
X117523550Y-86599132D01*
X117468344Y-86405104D01*
X117467617Y-86403644D01*
X117378428Y-86224527D01*
X117256853Y-86063536D01*
X117107779Y-85927638D01*
X117107778Y-85927637D01*
X116936265Y-85821441D01*
X116748158Y-85748568D01*
X116549864Y-85711500D01*
X116348136Y-85711500D01*
X116149842Y-85748568D01*
X115961734Y-85821441D01*
X115790220Y-85927638D01*
X115641146Y-86063536D01*
X115519571Y-86224527D01*
X115429656Y-86405102D01*
X115374452Y-86599123D01*
X115374450Y-86599133D01*
X115355837Y-86800000D01*
X115002163Y-86800000D01*
X114983550Y-86599132D01*
X114928344Y-86405104D01*
X114927617Y-86403644D01*
X114838428Y-86224527D01*
X114716853Y-86063536D01*
X114567779Y-85927638D01*
X114567778Y-85927637D01*
X114396265Y-85821441D01*
X114208158Y-85748568D01*
X114009864Y-85711500D01*
X113808136Y-85711500D01*
X113609842Y-85748568D01*
X113421734Y-85821441D01*
X113250220Y-85927638D01*
X113101146Y-86063536D01*
X112979571Y-86224527D01*
X112889656Y-86405102D01*
X112834452Y-86599123D01*
X112834450Y-86599133D01*
X112815837Y-86800000D01*
X112462163Y-86800000D01*
X112443550Y-86599132D01*
X112388344Y-86405104D01*
X112387617Y-86403644D01*
X112298428Y-86224527D01*
X112176853Y-86063536D01*
X112027779Y-85927638D01*
X112027778Y-85927637D01*
X111856265Y-85821441D01*
X111668158Y-85748568D01*
X111469864Y-85711500D01*
X111268136Y-85711500D01*
X111069842Y-85748568D01*
X110881734Y-85821441D01*
X110710220Y-85927638D01*
X110561146Y-86063536D01*
X110439571Y-86224527D01*
X110349656Y-86405102D01*
X110294452Y-86599123D01*
X110294450Y-86599133D01*
X110275837Y-86800000D01*
X109922163Y-86800000D01*
X109903550Y-86599132D01*
X109848344Y-86405104D01*
X109847617Y-86403644D01*
X109758428Y-86224527D01*
X109636853Y-86063536D01*
X109487779Y-85927638D01*
X109487778Y-85927637D01*
X109316265Y-85821441D01*
X109128158Y-85748568D01*
X108929864Y-85711500D01*
X108728136Y-85711500D01*
X108529842Y-85748568D01*
X108341734Y-85821441D01*
X108170220Y-85927638D01*
X108021146Y-86063536D01*
X107899571Y-86224527D01*
X107809656Y-86405102D01*
X107754452Y-86599123D01*
X107754450Y-86599133D01*
X107735837Y-86800000D01*
X107754450Y-87000866D01*
X107754452Y-87000876D01*
X107809656Y-87194897D01*
X107899571Y-87375472D01*
X108021146Y-87536463D01*
X108170220Y-87672361D01*
X108170219Y-87672361D01*
X108170221Y-87672362D01*
X108170222Y-87672363D01*
X108334620Y-87774154D01*
X108378998Y-87823662D01*
X108390500Y-87874478D01*
X108390500Y-88889726D01*
X108390501Y-88889736D01*
X108420379Y-89001246D01*
X108420384Y-89001257D01*
X108431501Y-89020512D01*
X108470678Y-89088370D01*
X108478112Y-89101245D01*
X109875113Y-90498245D01*
X109875112Y-90498245D01*
X109917049Y-90540181D01*
X109956755Y-90579887D01*
X110056745Y-90637617D01*
X110168270Y-90667500D01*
X123122573Y-90667500D01*
X123186369Y-90686232D01*
X123206012Y-90702061D01*
X124887012Y-92383061D01*
X124918876Y-92441417D01*
X124914133Y-92507737D01*
X124874288Y-92560964D01*
X124811991Y-92584199D01*
X124803573Y-92584500D01*
X124519270Y-92584500D01*
X124519267Y-92584500D01*
X124519265Y-92584501D01*
X124407744Y-92614383D01*
X124307757Y-92672111D01*
X124226111Y-92753757D01*
X124168383Y-92853744D01*
X124145739Y-92938255D01*
X124138500Y-92965270D01*
X124138500Y-93080730D01*
X124138500Y-93080733D01*
X124138501Y-93080734D01*
X124168383Y-93192255D01*
X124220672Y-93282822D01*
X124226113Y-93292245D01*
X124307755Y-93373887D01*
X124407745Y-93431617D01*
X124519270Y-93461500D01*
X125068031Y-93461500D01*
X125131827Y-93480232D01*
X125151470Y-93496061D01*
X126832470Y-95177061D01*
X126864334Y-95235417D01*
X126859591Y-95301737D01*
X126819746Y-95354964D01*
X126757449Y-95378199D01*
X126749031Y-95378500D01*
X116448622Y-95378500D01*
X116384826Y-95359768D01*
X116341285Y-95309519D01*
X116331823Y-95243707D01*
X116359444Y-95183226D01*
X116389622Y-95158309D01*
X116390331Y-95157899D01*
X116400745Y-95151887D01*
X116482387Y-95070245D01*
X116540117Y-94970255D01*
X116570000Y-94858730D01*
X116570000Y-94743270D01*
X116540117Y-94631745D01*
X116482387Y-94531755D01*
X116400745Y-94450113D01*
X116318856Y-94402834D01*
X116300755Y-94392383D01*
X116189234Y-94362501D01*
X116189233Y-94362500D01*
X116189230Y-94362500D01*
X115260917Y-94362500D01*
X115197121Y-94343768D01*
X115153580Y-94293519D01*
X115144118Y-94227707D01*
X115171739Y-94167226D01*
X115207346Y-94139361D01*
X115214164Y-94135887D01*
X115277829Y-94103448D01*
X115370448Y-94010829D01*
X115429914Y-93894121D01*
X115450404Y-93764750D01*
X115450404Y-93764747D01*
X115430640Y-93639959D01*
X115439162Y-93574018D01*
X115481981Y-93523153D01*
X115545503Y-93503512D01*
X115547187Y-93503500D01*
X120483360Y-93503500D01*
X120557543Y-93488744D01*
X120674335Y-93465513D01*
X120854230Y-93390997D01*
X121016132Y-93282818D01*
X121153818Y-93145132D01*
X121261997Y-92983230D01*
X121336513Y-92803335D01*
X121374500Y-92612359D01*
X121374500Y-92417641D01*
X121336513Y-92226665D01*
X121261997Y-92046770D01*
X121153818Y-91884868D01*
X121016132Y-91747182D01*
X120854230Y-91639003D01*
X120674335Y-91564487D01*
X120674333Y-91564486D01*
X120674332Y-91564486D01*
X120483360Y-91526500D01*
X120483359Y-91526500D01*
X110176328Y-91526500D01*
X110112532Y-91507768D01*
X110098764Y-91496673D01*
X110098613Y-91496859D01*
X110094131Y-91493180D01*
X109932230Y-91385001D01*
X109806685Y-91333000D01*
X109806685Y-91332999D01*
X109806683Y-91332999D01*
X109777952Y-91321098D01*
X109752334Y-91310486D01*
X109561360Y-91272500D01*
X109561359Y-91272500D01*
X108140828Y-91272500D01*
X108077032Y-91253768D01*
X108057389Y-91237939D01*
X107384630Y-90565180D01*
X107222730Y-90457001D01*
X107222731Y-90457001D01*
X107106721Y-90408950D01*
X107106721Y-90408949D01*
X107106719Y-90408949D01*
X107042835Y-90382487D01*
X107042834Y-90382486D01*
X106851860Y-90344500D01*
X106851859Y-90344500D01*
X102657141Y-90344500D01*
X102657140Y-90344500D01*
X102466167Y-90382486D01*
X102286270Y-90457003D01*
X102124369Y-90565181D01*
X101986681Y-90702869D01*
X101878503Y-90864770D01*
X101803986Y-91044667D01*
X101766000Y-91235640D01*
X101766000Y-91430359D01*
X101798477Y-91593637D01*
X101803987Y-91621335D01*
X101878503Y-91801230D01*
X101986682Y-91963132D01*
X102124368Y-92100818D01*
X102286270Y-92208997D01*
X102466165Y-92283513D01*
X102593482Y-92308837D01*
X102657140Y-92321500D01*
X102657141Y-92321500D01*
X106296172Y-92321500D01*
X106359968Y-92340232D01*
X106379611Y-92356061D01*
X107052370Y-93028820D01*
X107052373Y-93028822D01*
X107214266Y-93136996D01*
X107214267Y-93136997D01*
X107214268Y-93136997D01*
X107214269Y-93136998D01*
X107312334Y-93177617D01*
X107394165Y-93211513D01*
X107521482Y-93236837D01*
X107585140Y-93249500D01*
X107585141Y-93249500D01*
X107779859Y-93249500D01*
X109005672Y-93249500D01*
X109069468Y-93268232D01*
X109083235Y-93279326D01*
X109083387Y-93279141D01*
X109087873Y-93282822D01*
X109249766Y-93390996D01*
X109249767Y-93390997D01*
X109249768Y-93390997D01*
X109249769Y-93390998D01*
X109347834Y-93431617D01*
X109429665Y-93465513D01*
X109546457Y-93488744D01*
X109620640Y-93503500D01*
X109620641Y-93503500D01*
X114516313Y-93503500D01*
X114580109Y-93522232D01*
X114623650Y-93572481D01*
X114633112Y-93638293D01*
X114632860Y-93639959D01*
X114613096Y-93764747D01*
X114613096Y-93764752D01*
X114633584Y-93894114D01*
X114633585Y-93894119D01*
X114633586Y-93894121D01*
X114650462Y-93927242D01*
X114692244Y-94009245D01*
X114693052Y-94010829D01*
X114785671Y-94103448D01*
X114785673Y-94103449D01*
X114856154Y-94139361D01*
X114904492Y-94185014D01*
X114920475Y-94249553D01*
X114899028Y-94312488D01*
X114846960Y-94353837D01*
X114802583Y-94362500D01*
X108320257Y-94362500D01*
X108320254Y-94362500D01*
X108320250Y-94362501D01*
X108208735Y-94392381D01*
X108172132Y-94413512D01*
X108172133Y-94413513D01*
X108108744Y-94450110D01*
X107341915Y-95216939D01*
X107283559Y-95248803D01*
X107258476Y-95251500D01*
X107183770Y-95251500D01*
X107183767Y-95251500D01*
X107183765Y-95251501D01*
X107072244Y-95281383D01*
X106972257Y-95339111D01*
X106890611Y-95420757D01*
X106832883Y-95520744D01*
X106804619Y-95626229D01*
X106803000Y-95632270D01*
X106803000Y-95747730D01*
X106803000Y-95747733D01*
X106803001Y-95747734D01*
X106832883Y-95859255D01*
X106874526Y-95931383D01*
X106890613Y-95959245D01*
X106972255Y-96040887D01*
X107072245Y-96098617D01*
X107183770Y-96128500D01*
X107183774Y-96128500D01*
X107546713Y-96128500D01*
X107546717Y-96128500D01*
X107658242Y-96098617D01*
X107694840Y-96077486D01*
X107758232Y-96040888D01*
X108525059Y-95274061D01*
X108583415Y-95242197D01*
X108608498Y-95239500D01*
X111686878Y-95239500D01*
X111750674Y-95258232D01*
X111794215Y-95308481D01*
X111803677Y-95374293D01*
X111776056Y-95434774D01*
X111745878Y-95459691D01*
X111734757Y-95466111D01*
X111653111Y-95547757D01*
X111595383Y-95647744D01*
X111570458Y-95740768D01*
X111565500Y-95759270D01*
X111565500Y-95874730D01*
X111565500Y-95874733D01*
X111565501Y-95874734D01*
X111595383Y-95986255D01*
X111648717Y-96078632D01*
X111653113Y-96086245D01*
X111734755Y-96167887D01*
X111739705Y-96170745D01*
X111745878Y-96174309D01*
X111791761Y-96222429D01*
X111804344Y-96287717D01*
X111779632Y-96349443D01*
X111725472Y-96388010D01*
X111686878Y-96394500D01*
X111109230Y-96394500D01*
X108453770Y-96394500D01*
X108453767Y-96394500D01*
X108453763Y-96394501D01*
X108342253Y-96424379D01*
X108342242Y-96424384D01*
X108242257Y-96482110D01*
X108242255Y-96482111D01*
X108242255Y-96482112D01*
X108237426Y-96486940D01*
X108179073Y-96518803D01*
X108153990Y-96521500D01*
X107945770Y-96521500D01*
X107945767Y-96521500D01*
X107945765Y-96521501D01*
X107834244Y-96551383D01*
X107734257Y-96609111D01*
X107652611Y-96690757D01*
X107594883Y-96790744D01*
X107565001Y-96902265D01*
X107565000Y-96902273D01*
X107565000Y-97003510D01*
X107546268Y-97067306D01*
X107496019Y-97110847D01*
X107447000Y-97121510D01*
X106509921Y-97121510D01*
X106446125Y-97102778D01*
X106426482Y-97086949D01*
X105828652Y-96489119D01*
X105756311Y-96447354D01*
X105746660Y-96441782D01*
X105728664Y-96431391D01*
X105617142Y-96401509D01*
X105617141Y-96401508D01*
X105617138Y-96401508D01*
X105617134Y-96401508D01*
X102837006Y-96401508D01*
X102773210Y-96382776D01*
X102753567Y-96366947D01*
X102375733Y-95989113D01*
X102375732Y-95989112D01*
X102323995Y-95959242D01*
X102311313Y-95951920D01*
X102311313Y-95951919D01*
X102311311Y-95951919D01*
X102275742Y-95931383D01*
X102219754Y-95916381D01*
X102164221Y-95901501D01*
X102164220Y-95901500D01*
X102164217Y-95901500D01*
X101720470Y-95901500D01*
X101720467Y-95901500D01*
X101720465Y-95901501D01*
X101608944Y-95931383D01*
X101508957Y-95989111D01*
X101427311Y-96070757D01*
X101369583Y-96170744D01*
X101343721Y-96267265D01*
X101339700Y-96282270D01*
X101339700Y-96397730D01*
X101339700Y-96397733D01*
X101339701Y-96397734D01*
X101369583Y-96509255D01*
X101427235Y-96609111D01*
X101427313Y-96609245D01*
X101508955Y-96690887D01*
X101587628Y-96736310D01*
X101633510Y-96784430D01*
X101646093Y-96849717D01*
X101621381Y-96911443D01*
X101567220Y-96950010D01*
X101528627Y-96956500D01*
X101400108Y-96956500D01*
X101276763Y-96981035D01*
X101276755Y-96981038D01*
X101236155Y-96997855D01*
X101170047Y-97004962D01*
X101110592Y-96975200D01*
X101076665Y-96918018D01*
X101073000Y-96888837D01*
X101073000Y-94985273D01*
X101073000Y-94985270D01*
X101043117Y-94873745D01*
X100985387Y-94773755D01*
X100903745Y-94692113D01*
X100898772Y-94689242D01*
X100803755Y-94634383D01*
X100692234Y-94604501D01*
X100692233Y-94604500D01*
X100692230Y-94604500D01*
X100576770Y-94604500D01*
X100576767Y-94604500D01*
X100576765Y-94604501D01*
X100465244Y-94634383D01*
X100365257Y-94692111D01*
X100283611Y-94773757D01*
X100225883Y-94873744D01*
X100203708Y-94956504D01*
X100196000Y-94985270D01*
X100196000Y-99825270D01*
X100196000Y-100457730D01*
X100196000Y-100457733D01*
X100196001Y-100457734D01*
X100225882Y-100569251D01*
X100225885Y-100569259D01*
X100235549Y-100585996D01*
X100235551Y-100586000D01*
X100283012Y-100668207D01*
X100283612Y-100669245D01*
X101228329Y-101613962D01*
X101976430Y-102362062D01*
X102008294Y-102420418D01*
X102003551Y-102486738D01*
X101963706Y-102539965D01*
X101901409Y-102563200D01*
X101892991Y-102563501D01*
X101141769Y-102563501D01*
X101141766Y-102563501D01*
X101141762Y-102563502D01*
X101030247Y-102593382D01*
X100993644Y-102614513D01*
X100993645Y-102614514D01*
X100930256Y-102651111D01*
X99905613Y-103675753D01*
X99847883Y-103775745D01*
X99821093Y-103875728D01*
X99818000Y-103887270D01*
X99818000Y-104002730D01*
X99818000Y-104002733D01*
X99818001Y-104002734D01*
X99834497Y-104064297D01*
X99847883Y-104114254D01*
X99905612Y-104214245D01*
X99987255Y-104295888D01*
X100087244Y-104353616D01*
X100087245Y-104353616D01*
X100087246Y-104353617D01*
X100198770Y-104383500D01*
X100198774Y-104383500D01*
X100314226Y-104383500D01*
X100314230Y-104383500D01*
X100425754Y-104353617D01*
X100525745Y-104295888D01*
X101346571Y-103475062D01*
X101404927Y-103443198D01*
X101430010Y-103440501D01*
X101866518Y-103440501D01*
X101930314Y-103459233D01*
X101973855Y-103509482D01*
X101983317Y-103575294D01*
X101955696Y-103635775D01*
X101949957Y-103641939D01*
X101549112Y-104042784D01*
X101514461Y-104102804D01*
X101514459Y-104102806D01*
X101491383Y-104142771D01*
X101463525Y-104246742D01*
X101461500Y-104254300D01*
X101461500Y-105201730D01*
X101461500Y-105201733D01*
X101461501Y-105201734D01*
X101491383Y-105313255D01*
X101501888Y-105331450D01*
X101548104Y-105411500D01*
X101549112Y-105413245D01*
X102781255Y-106645388D01*
X102843804Y-106681500D01*
X102853722Y-106687226D01*
X102881241Y-106703115D01*
X102881245Y-106703117D01*
X102992770Y-106733000D01*
X102992771Y-106733000D01*
X102992774Y-106733000D01*
X103108226Y-106733000D01*
X103108230Y-106733000D01*
X103152840Y-106721046D01*
X103219746Y-106703120D01*
X103219749Y-106703118D01*
X103219755Y-106703117D01*
X103319745Y-106645388D01*
X103401388Y-106563745D01*
X103459117Y-106463755D01*
X103459118Y-106463749D01*
X103459120Y-106463746D01*
X103483902Y-106371255D01*
X103489000Y-106352230D01*
X103489000Y-106236771D01*
X103473994Y-106180765D01*
X103459117Y-106125245D01*
X103459116Y-106125244D01*
X103459116Y-106125242D01*
X103439055Y-106090498D01*
X103436941Y-106086836D01*
X103426269Y-106068352D01*
X103420314Y-106058036D01*
X103401388Y-106025255D01*
X102373061Y-104996928D01*
X102341197Y-104938572D01*
X102338500Y-104913489D01*
X102338500Y-104542540D01*
X102357232Y-104478744D01*
X102373056Y-104459106D01*
X103312389Y-103519774D01*
X103370118Y-103419784D01*
X103378729Y-103387647D01*
X103400001Y-103308259D01*
X103400001Y-102669271D01*
X103370118Y-102557746D01*
X103312388Y-102457756D01*
X103275050Y-102420418D01*
X103230746Y-102376113D01*
X103230746Y-102376114D01*
X101107561Y-100252928D01*
X101075697Y-100194572D01*
X101073000Y-100169489D01*
X101073000Y-98392853D01*
X101091732Y-98329057D01*
X101141981Y-98285516D01*
X101207793Y-98276054D01*
X101268274Y-98303675D01*
X101274424Y-98309400D01*
X101817980Y-98852956D01*
X101922557Y-98922831D01*
X102038757Y-98970963D01*
X102141642Y-98991427D01*
X102141644Y-98991428D01*
X102141645Y-98991428D01*
X102162113Y-98995500D01*
X102162114Y-98995500D01*
X102287887Y-98995500D01*
X103798472Y-98995500D01*
X103813113Y-98995500D01*
X105743646Y-98995500D01*
X105807442Y-99014232D01*
X105827085Y-99030061D01*
X108264889Y-101467865D01*
X108296752Y-101526219D01*
X108292009Y-101592539D01*
X108252164Y-101645766D01*
X108240450Y-101653492D01*
X108178758Y-101689110D01*
X107202439Y-102665428D01*
X107144083Y-102697292D01*
X107077763Y-102692549D01*
X107024536Y-102652704D01*
X107001301Y-102590407D01*
X107001000Y-102581989D01*
X107001000Y-100942273D01*
X107001000Y-100942270D01*
X106971117Y-100830745D01*
X106913387Y-100730755D01*
X106831745Y-100649113D01*
X106824032Y-100644660D01*
X106731755Y-100591383D01*
X106620234Y-100561501D01*
X106620233Y-100561500D01*
X106620230Y-100561500D01*
X106504770Y-100561500D01*
X106504767Y-100561500D01*
X106504765Y-100561501D01*
X106393244Y-100591383D01*
X106293257Y-100649111D01*
X106211611Y-100730757D01*
X106153883Y-100830744D01*
X106124001Y-100942265D01*
X106124000Y-100942273D01*
X106124000Y-102706988D01*
X106105268Y-102770784D01*
X106089439Y-102790427D01*
X104960439Y-103919427D01*
X104902083Y-103951291D01*
X104835763Y-103946548D01*
X104782536Y-103906703D01*
X104759301Y-103844406D01*
X104759000Y-103835988D01*
X104759000Y-101982273D01*
X104759000Y-101982270D01*
X104729117Y-101870745D01*
X104671387Y-101770755D01*
X104589745Y-101689113D01*
X104585420Y-101686616D01*
X104489755Y-101631383D01*
X104378234Y-101601501D01*
X104378233Y-101601500D01*
X104378230Y-101601500D01*
X104262770Y-101601500D01*
X104262767Y-101601500D01*
X104262765Y-101601501D01*
X104151244Y-101631383D01*
X104051257Y-101689111D01*
X103969611Y-101770757D01*
X103911883Y-101870744D01*
X103885154Y-101970500D01*
X103882000Y-101982270D01*
X103882000Y-104066230D01*
X103882000Y-104066233D01*
X103882001Y-104066234D01*
X103894521Y-104112959D01*
X103892939Y-104179429D01*
X103855672Y-104234492D01*
X103794551Y-104260665D01*
X103780542Y-104261500D01*
X103442270Y-104261500D01*
X103442267Y-104261500D01*
X103442265Y-104261501D01*
X103330744Y-104291383D01*
X103230757Y-104349111D01*
X103149111Y-104430757D01*
X103091383Y-104530744D01*
X103062779Y-104637498D01*
X103061500Y-104642270D01*
X103061500Y-104757730D01*
X103061500Y-104757733D01*
X103061501Y-104757734D01*
X103091383Y-104869254D01*
X103091382Y-104869254D01*
X103149111Y-104969242D01*
X103149113Y-104969245D01*
X103230755Y-105050887D01*
X103330745Y-105108617D01*
X103442270Y-105138500D01*
X103730991Y-105138500D01*
X103794787Y-105157232D01*
X103838328Y-105207481D01*
X103847790Y-105273293D01*
X103820169Y-105333774D01*
X103814443Y-105339924D01*
X103775859Y-105378509D01*
X103771611Y-105382757D01*
X103713883Y-105482744D01*
X103687621Y-105580757D01*
X103684000Y-105594270D01*
X103684000Y-105709730D01*
X103684000Y-105709733D01*
X103684001Y-105709734D01*
X103713883Y-105821255D01*
X103763807Y-105907726D01*
X103771613Y-105921245D01*
X103853255Y-106002887D01*
X103953245Y-106060617D01*
X104064770Y-106090500D01*
X104064774Y-106090500D01*
X104893726Y-106090500D01*
X104893730Y-106090500D01*
X105005255Y-106060617D01*
X105041853Y-106039486D01*
X105105245Y-106002888D01*
X108053970Y-103054160D01*
X108112324Y-103022298D01*
X108178644Y-103027041D01*
X108231871Y-103066886D01*
X108254546Y-103123376D01*
X108258498Y-103155922D01*
X108258499Y-103155926D01*
X108313483Y-103300907D01*
X108313484Y-103300909D01*
X108401560Y-103428510D01*
X108401565Y-103428516D01*
X108404745Y-103431333D01*
X108440077Y-103487657D01*
X108444499Y-103519659D01*
X108444499Y-104492229D01*
X108444499Y-104492232D01*
X108444500Y-104492233D01*
X108469755Y-104586488D01*
X108474382Y-104603754D01*
X108493865Y-104637498D01*
X108493866Y-104637500D01*
X108532111Y-104703744D01*
X108725330Y-104896963D01*
X108757194Y-104955319D01*
X108759031Y-104966178D01*
X108776000Y-105105927D01*
X108830984Y-105250906D01*
X108830985Y-105250908D01*
X108919061Y-105378509D01*
X108919062Y-105378510D01*
X108919065Y-105378514D01*
X108979051Y-105431657D01*
X109035124Y-105481334D01*
X109040671Y-105484245D01*
X109172422Y-105553393D01*
X109322972Y-105590500D01*
X109478028Y-105590500D01*
X109628578Y-105553393D01*
X109765874Y-105481335D01*
X109881935Y-105378514D01*
X109970016Y-105250905D01*
X110025000Y-105105925D01*
X110043690Y-104952000D01*
X110025000Y-104798075D01*
X109970016Y-104653095D01*
X109970015Y-104653093D01*
X109970014Y-104653091D01*
X109881938Y-104525490D01*
X109881937Y-104525489D01*
X109881935Y-104525486D01*
X109807002Y-104459101D01*
X109765875Y-104422665D01*
X109628582Y-104350609D01*
X109628581Y-104350608D01*
X109628578Y-104350607D01*
X109628575Y-104350606D01*
X109628572Y-104350605D01*
X109478028Y-104313500D01*
X109439499Y-104313500D01*
X109375703Y-104294768D01*
X109332162Y-104244519D01*
X109321499Y-104195500D01*
X109321499Y-103519659D01*
X109340231Y-103455863D01*
X109361253Y-103431333D01*
X109364434Y-103428515D01*
X109452515Y-103300906D01*
X109507499Y-103155926D01*
X109507499Y-103155918D01*
X109509206Y-103148999D01*
X109512031Y-103149695D01*
X109533003Y-103100866D01*
X109588105Y-103063656D01*
X109654576Y-103062144D01*
X109707280Y-103092577D01*
X110688986Y-104072519D01*
X111168120Y-104550793D01*
X111192828Y-104575456D01*
X111224745Y-104633784D01*
X111220061Y-104700107D01*
X111180264Y-104753370D01*
X111124868Y-104775960D01*
X111120772Y-104776499D01*
X111009244Y-104806383D01*
X110909257Y-104864111D01*
X110827611Y-104945757D01*
X110769883Y-105045744D01*
X110740001Y-105157265D01*
X110740000Y-105157273D01*
X110740000Y-105520213D01*
X110740001Y-105520223D01*
X110769879Y-105631733D01*
X110769884Y-105631744D01*
X110781579Y-105652000D01*
X110821201Y-105720629D01*
X110827612Y-105731732D01*
X111741268Y-106645388D01*
X111765247Y-106659232D01*
X111835841Y-106699990D01*
X111841257Y-106703117D01*
X111841261Y-106703118D01*
X111872107Y-106711383D01*
X111952783Y-106733000D01*
X111952787Y-106733000D01*
X113141226Y-106733000D01*
X113141230Y-106733000D01*
X113252755Y-106703117D01*
X113352745Y-106645387D01*
X113434387Y-106563745D01*
X113492117Y-106463755D01*
X113522000Y-106352230D01*
X113522000Y-106236770D01*
X113492117Y-106125245D01*
X113467577Y-106082741D01*
X113451902Y-106018127D01*
X113473648Y-105955295D01*
X113486323Y-105940308D01*
X113497887Y-105928745D01*
X113555617Y-105828755D01*
X113585500Y-105717230D01*
X113585500Y-105601770D01*
X113555617Y-105490245D01*
X113497887Y-105390255D01*
X113416245Y-105308613D01*
X113316255Y-105250883D01*
X113204730Y-105221000D01*
X113204726Y-105221000D01*
X113129731Y-105221000D01*
X113065935Y-105202268D01*
X113046367Y-105186514D01*
X109628113Y-101774400D01*
X109596196Y-101716072D01*
X109600880Y-101649749D01*
X109640677Y-101596486D01*
X109656636Y-101586404D01*
X109666365Y-101581297D01*
X109676033Y-101576769D01*
X109702443Y-101565831D01*
X109721450Y-101553130D01*
X109732155Y-101546768D01*
X109765374Y-101529335D01*
X109784875Y-101512057D01*
X109797554Y-101502279D01*
X109807020Y-101495955D01*
X109835330Y-101467643D01*
X109840468Y-101462806D01*
X109881435Y-101426514D01*
X109886476Y-101419209D01*
X109892385Y-101411368D01*
X109895944Y-101407030D01*
X109895955Y-101407020D01*
X109927773Y-101359399D01*
X109928627Y-101358142D01*
X109969516Y-101298905D01*
X109992990Y-101237004D01*
X109994254Y-101233819D01*
X109997819Y-101225213D01*
X110039545Y-101173448D01*
X110102633Y-101152459D01*
X110167055Y-101168910D01*
X110190270Y-101186945D01*
X111013214Y-102009889D01*
X111054272Y-102033593D01*
X111078713Y-102052346D01*
X114973255Y-105946888D01*
X115036646Y-105983486D01*
X115052740Y-105992778D01*
X115070248Y-106002887D01*
X115073245Y-106004617D01*
X115098993Y-106011516D01*
X115155767Y-106046120D01*
X115184819Y-106105926D01*
X115185444Y-106140891D01*
X115185000Y-106144264D01*
X115185000Y-106144270D01*
X115185000Y-106259730D01*
X115185000Y-106259733D01*
X115185001Y-106259734D01*
X115214883Y-106371255D01*
X115268289Y-106463757D01*
X115272613Y-106471245D01*
X115354255Y-106552887D01*
X115454245Y-106610617D01*
X115565770Y-106640500D01*
X115640476Y-106640500D01*
X115704272Y-106659232D01*
X115723915Y-106675061D01*
X116128925Y-107080071D01*
X116160789Y-107138427D01*
X116156046Y-107204747D01*
X116116201Y-107257974D01*
X116053904Y-107281209D01*
X116045486Y-107281510D01*
X110662216Y-107281510D01*
X110598420Y-107262778D01*
X110578777Y-107246949D01*
X109845766Y-106513938D01*
X109731372Y-106437502D01*
X109731365Y-106437498D01*
X109731366Y-106437498D01*
X109731364Y-106437497D01*
X109604245Y-106384843D01*
X109604243Y-106384842D01*
X109604242Y-106384842D01*
X109558854Y-106375813D01*
X109469297Y-106357999D01*
X109331703Y-106357999D01*
X109265064Y-106371255D01*
X109196757Y-106384842D01*
X109196755Y-106384843D01*
X109094327Y-106427270D01*
X109069634Y-106437498D01*
X108964510Y-106507740D01*
X108955236Y-106513936D01*
X106161233Y-109307939D01*
X106102877Y-109339803D01*
X106077794Y-109342500D01*
X99806704Y-109342500D01*
X99671754Y-109369343D01*
X99544640Y-109421994D01*
X99430233Y-109498438D01*
X99332938Y-109595733D01*
X99256494Y-109710140D01*
X99203843Y-109837254D01*
X99177000Y-109972204D01*
X99177000Y-110109795D01*
X99203843Y-110244745D01*
X99256494Y-110371859D01*
X99256496Y-110371862D01*
X99256497Y-110371864D01*
X99332939Y-110486268D01*
X99430232Y-110583561D01*
X99544636Y-110660003D01*
X99544638Y-110660004D01*
X99544640Y-110660005D01*
X99577116Y-110673456D01*
X99671755Y-110712657D01*
X99806704Y-110739500D01*
X106341365Y-110739500D01*
X106341385Y-110739501D01*
X106347203Y-110739501D01*
X106484793Y-110739501D01*
X106484797Y-110739501D01*
X106619745Y-110712657D01*
X106746864Y-110660003D01*
X106773218Y-110642394D01*
X106773219Y-110642394D01*
X106825712Y-110607318D01*
X106861268Y-110583561D01*
X106958561Y-110486268D01*
X106958563Y-110486264D01*
X109317064Y-108127763D01*
X109375416Y-108095902D01*
X109441736Y-108100645D01*
X109483938Y-108127766D01*
X109781446Y-108425274D01*
X109781449Y-108425278D01*
X109878742Y-108522571D01*
X109993146Y-108599013D01*
X109993148Y-108599014D01*
X109993150Y-108599015D01*
X109993152Y-108599016D01*
X110083526Y-108636449D01*
X110083527Y-108636450D01*
X110098744Y-108642752D01*
X110120265Y-108651667D01*
X110255213Y-108678510D01*
X110255214Y-108678510D01*
X119578355Y-108678510D01*
X119578375Y-108678511D01*
X119584193Y-108678511D01*
X119721783Y-108678511D01*
X119721787Y-108678511D01*
X119856735Y-108651667D01*
X119983854Y-108599013D01*
X119983854Y-108599012D01*
X119983858Y-108599011D01*
X119993513Y-108592559D01*
X119993514Y-108592557D01*
X120098258Y-108522571D01*
X120195551Y-108425278D01*
X120195553Y-108425274D01*
X121119060Y-107501768D01*
X123526499Y-105094327D01*
X123584855Y-105062464D01*
X123651175Y-105067207D01*
X123693377Y-105094328D01*
X129153868Y-110554819D01*
X129315770Y-110662998D01*
X129390285Y-110693862D01*
X129495665Y-110737513D01*
X129686640Y-110775500D01*
X129686641Y-110775500D01*
X129686642Y-110775500D01*
X129881359Y-110775500D01*
X133496641Y-110775500D01*
X136925641Y-110775500D01*
X137073230Y-110775500D01*
X137137026Y-110794232D01*
X137156669Y-110810061D01*
X138222113Y-111875505D01*
X138346155Y-111958387D01*
X138388792Y-112009405D01*
X138397079Y-112075375D01*
X138368383Y-112135353D01*
X138311816Y-112170295D01*
X138280598Y-112174500D01*
X97804074Y-112174500D01*
X97778920Y-112171788D01*
X97547218Y-112121234D01*
X97531053Y-112116475D01*
X97279349Y-112022381D01*
X97264026Y-112015369D01*
X97028275Y-111886371D01*
X97014107Y-111877246D01*
X96799151Y-111715992D01*
X96786427Y-111704943D01*
X96596627Y-111514709D01*
X96585607Y-111501960D01*
X96424838Y-111286627D01*
X96415746Y-111272439D01*
X96392873Y-111230411D01*
X96287287Y-111036395D01*
X96280312Y-111021059D01*
X96187377Y-110770713D01*
X96180000Y-110729647D01*
X96180000Y-93529770D01*
X97661500Y-93529770D01*
X97661500Y-95457730D01*
X97661500Y-95457733D01*
X97661501Y-95457734D01*
X97691383Y-95569255D01*
X97747646Y-95666705D01*
X97749113Y-95669245D01*
X97830755Y-95750887D01*
X97930745Y-95808617D01*
X98042270Y-95838500D01*
X98042274Y-95838500D01*
X98157726Y-95838500D01*
X98157730Y-95838500D01*
X98269255Y-95808617D01*
X98369245Y-95750887D01*
X98450887Y-95669245D01*
X98508617Y-95569255D01*
X98538500Y-95457730D01*
X98538500Y-93818009D01*
X98557232Y-93754213D01*
X98573056Y-93734575D01*
X98580361Y-93727270D01*
X100770500Y-93727270D01*
X100770500Y-93842730D01*
X100770500Y-93842733D01*
X100770501Y-93842734D01*
X100800383Y-93954255D01*
X100853053Y-94045482D01*
X100858113Y-94054245D01*
X100939755Y-94135887D01*
X101039745Y-94193617D01*
X101151270Y-94223500D01*
X105423489Y-94223500D01*
X105487285Y-94242232D01*
X105506928Y-94258061D01*
X106019755Y-94770888D01*
X106119746Y-94828617D01*
X106119749Y-94828617D01*
X106119754Y-94828620D01*
X106217124Y-94854709D01*
X106231271Y-94858500D01*
X106231275Y-94858500D01*
X106346726Y-94858500D01*
X106346730Y-94858500D01*
X106391340Y-94846546D01*
X106458246Y-94828620D01*
X106458249Y-94828618D01*
X106458255Y-94828617D01*
X106558245Y-94770888D01*
X106639888Y-94689245D01*
X106697617Y-94589255D01*
X106697618Y-94589249D01*
X106697620Y-94589246D01*
X106727498Y-94477736D01*
X106727500Y-94477730D01*
X106727500Y-94362271D01*
X106709078Y-94293519D01*
X106697620Y-94250754D01*
X106697617Y-94250749D01*
X106697617Y-94250746D01*
X106639888Y-94150755D01*
X105923245Y-93434112D01*
X105923243Y-93434110D01*
X105859854Y-93397513D01*
X105859853Y-93397513D01*
X105823255Y-93376383D01*
X105711734Y-93346501D01*
X105711733Y-93346500D01*
X105711730Y-93346500D01*
X101151270Y-93346500D01*
X101151267Y-93346500D01*
X101151265Y-93346501D01*
X101039744Y-93376383D01*
X100939757Y-93434111D01*
X100858111Y-93515757D01*
X100800383Y-93615744D01*
X100782558Y-93682270D01*
X100770500Y-93727270D01*
X98580361Y-93727270D01*
X100614029Y-91693601D01*
X100614034Y-91693598D01*
X100623743Y-91683888D01*
X100623745Y-91683888D01*
X101559887Y-90747745D01*
X101617617Y-90647755D01*
X101627733Y-90610000D01*
X101647500Y-90536230D01*
X101647500Y-87874478D01*
X101666232Y-87810682D01*
X101703378Y-87774154D01*
X101867778Y-87672363D01*
X102016857Y-87536459D01*
X102138426Y-87375476D01*
X102228344Y-87194896D01*
X102283550Y-87000868D01*
X102302163Y-86800000D01*
X102655837Y-86800000D01*
X102674450Y-87000866D01*
X102674452Y-87000876D01*
X102729656Y-87194897D01*
X102819571Y-87375472D01*
X102941146Y-87536463D01*
X103063745Y-87648226D01*
X103090222Y-87672363D01*
X103261735Y-87778559D01*
X103449842Y-87851432D01*
X103648136Y-87888500D01*
X103648139Y-87888500D01*
X103849861Y-87888500D01*
X103849864Y-87888500D01*
X104048158Y-87851432D01*
X104236265Y-87778559D01*
X104407778Y-87672363D01*
X104556857Y-87536459D01*
X104678426Y-87375476D01*
X104768344Y-87194896D01*
X104823550Y-87000868D01*
X104842163Y-86800000D01*
X105195837Y-86800000D01*
X105214450Y-87000866D01*
X105214452Y-87000876D01*
X105269656Y-87194897D01*
X105359571Y-87375472D01*
X105481146Y-87536463D01*
X105603745Y-87648226D01*
X105630222Y-87672363D01*
X105801735Y-87778559D01*
X105989842Y-87851432D01*
X106188136Y-87888500D01*
X106188139Y-87888500D01*
X106389861Y-87888500D01*
X106389864Y-87888500D01*
X106588158Y-87851432D01*
X106776265Y-87778559D01*
X106947778Y-87672363D01*
X107096857Y-87536459D01*
X107218426Y-87375476D01*
X107308344Y-87194896D01*
X107363550Y-87000868D01*
X107382163Y-86800000D01*
X107363550Y-86599132D01*
X107308344Y-86405104D01*
X107307617Y-86403644D01*
X107218428Y-86224527D01*
X107096853Y-86063536D01*
X106947779Y-85927638D01*
X106947778Y-85927637D01*
X106776265Y-85821441D01*
X106588158Y-85748568D01*
X106389864Y-85711500D01*
X106188136Y-85711500D01*
X105989842Y-85748568D01*
X105801734Y-85821441D01*
X105630220Y-85927638D01*
X105481146Y-86063536D01*
X105359571Y-86224527D01*
X105269656Y-86405102D01*
X105214452Y-86599123D01*
X105214450Y-86599133D01*
X105195837Y-86800000D01*
X104842163Y-86800000D01*
X104823550Y-86599132D01*
X104768344Y-86405104D01*
X104767617Y-86403644D01*
X104678428Y-86224527D01*
X104556853Y-86063536D01*
X104407779Y-85927638D01*
X104407778Y-85927637D01*
X104236265Y-85821441D01*
X104048158Y-85748568D01*
X103849864Y-85711500D01*
X103648136Y-85711500D01*
X103449842Y-85748568D01*
X103261734Y-85821441D01*
X103090220Y-85927638D01*
X102941146Y-86063536D01*
X102819571Y-86224527D01*
X102729656Y-86405102D01*
X102674452Y-86599123D01*
X102674450Y-86599133D01*
X102655837Y-86800000D01*
X102302163Y-86800000D01*
X102283550Y-86599132D01*
X102228344Y-86405104D01*
X102227617Y-86403644D01*
X102138428Y-86224527D01*
X102016853Y-86063536D01*
X101867779Y-85927638D01*
X101867778Y-85927637D01*
X101696265Y-85821441D01*
X101508158Y-85748568D01*
X101309864Y-85711500D01*
X101108136Y-85711500D01*
X100909842Y-85748568D01*
X100721734Y-85821441D01*
X100550220Y-85927638D01*
X100401146Y-86063536D01*
X100279571Y-86224527D01*
X100189656Y-86405102D01*
X100134452Y-86599123D01*
X100134450Y-86599133D01*
X100115837Y-86800000D01*
X100134450Y-87000866D01*
X100134452Y-87000876D01*
X100189656Y-87194897D01*
X100279571Y-87375472D01*
X100401146Y-87536463D01*
X100550220Y-87672361D01*
X100550219Y-87672361D01*
X100550221Y-87672362D01*
X100550222Y-87672363D01*
X100714620Y-87774154D01*
X100758998Y-87823662D01*
X100770500Y-87874478D01*
X100770500Y-90247989D01*
X100751768Y-90311785D01*
X100735939Y-90331428D01*
X97749110Y-93318257D01*
X97720325Y-93368117D01*
X97720323Y-93368119D01*
X97691385Y-93418239D01*
X97691384Y-93418242D01*
X97691383Y-93418244D01*
X97691383Y-93418245D01*
X97687131Y-93434113D01*
X97663520Y-93522232D01*
X97661500Y-93529770D01*
X96180000Y-93529770D01*
X96180000Y-85926512D01*
X97580500Y-85926512D01*
X97580500Y-87673488D01*
X97594338Y-87743058D01*
X97594339Y-87743059D01*
X97647048Y-87821946D01*
X97647053Y-87821951D01*
X97686496Y-87848305D01*
X97725942Y-87874662D01*
X97795512Y-87888500D01*
X99542488Y-87888500D01*
X99612058Y-87874662D01*
X99690949Y-87821949D01*
X99743662Y-87743058D01*
X99757500Y-87673488D01*
X99757500Y-85926512D01*
X99743662Y-85856942D01*
X99717305Y-85817496D01*
X99690951Y-85778053D01*
X99690946Y-85778048D01*
X99612059Y-85725339D01*
X99612060Y-85725339D01*
X99612059Y-85725338D01*
X99612058Y-85725338D01*
X99542488Y-85711500D01*
X97795512Y-85711500D01*
X97725942Y-85725338D01*
X97725940Y-85725338D01*
X97725940Y-85725339D01*
X97647053Y-85778048D01*
X97647048Y-85778053D01*
X97594339Y-85856940D01*
X97594338Y-85856942D01*
X97580500Y-85926512D01*
X96180000Y-85926512D01*
X96180000Y-84719521D01*
X96182737Y-84694253D01*
X96230840Y-84474830D01*
X96235596Y-84458721D01*
X96329683Y-84207570D01*
X96336671Y-84192323D01*
X96465503Y-83957099D01*
X96474597Y-83942986D01*
X96635545Y-83728478D01*
X96646570Y-83715783D01*
X96836369Y-83526337D01*
X96849074Y-83515347D01*
X97063879Y-83354802D01*
X97078018Y-83345729D01*
X97313474Y-83217342D01*
X97328749Y-83210375D01*
X97580067Y-83116760D01*
X97596179Y-83112035D01*
X97858240Y-83055097D01*
X97874880Y-83052708D01*
X98146566Y-83033299D01*
X98154974Y-83033000D01*
X197502791Y-83033000D01*
X197511208Y-83033300D01*
G37*
%TD.AperFunction*%
M02*
