M48
; DRILL file {KiCad 8.0.5} date 2025-02-16T00:46:47-0500
; FORMAT={-:-/ absolute / inch / decimal}
; #@! TF.CreationDate,2025-02-16T00:46:47-05:00
; #@! TF.GenerationSoftware,Kicad,Pcbnew,8.0.5
; #@! TF.FileFunction,Plated,1,2,PTH
FMAT,2
INCH
; #@! TA.AperFunction,Plated,PTH,ViaDrill
T1C0.0118
; #@! TA.AperFunction,Plated,PTH,ViaDrill
T2C0.0157
; #@! TA.AperFunction,Plated,PTH,ComponentDrill
T3C0.0394
%
G90
G05
T1
X3.8622Y-3.7559
X3.9471Y-4.0923
X3.951Y-3.5958
X3.962Y-3.7419
X3.962Y-3.9528
X3.9846Y-3.6923
X3.9946Y-3.8423
X4.007Y-3.7929
X4.03Y-4.0552
X4.0455Y-3.5958
X4.0571Y-4.1848
X4.0748Y-4.122
X4.0993Y-4.1595
X4.1071Y-4.0173
X4.1071Y-4.0948
X4.1846Y-3.7173
X4.1954Y-3.9764
X4.2029Y-3.5958
X4.2221Y-3.7673
X4.2521Y-3.8173
X4.2796Y-3.8673
X4.3096Y-3.6323
X4.3296Y-3.9173
X4.3771Y-4.1423
X4.4096Y-3.7723
X4.4521Y-4.1848
X4.4546Y-4.1598
X4.4596Y-3.8723
X4.5288Y-3.6915
X4.5521Y-4.1812
X4.5721Y-3.7323
X4.5921Y-4.1573
X4.6171Y-4.2173
X4.6733Y-3.8837
X4.7396Y-3.6423
X4.7473Y-3.9546
X4.7638Y-3.9724
X4.8896Y-3.8823
X4.9046Y-3.6623
X4.9571Y-4.0523
X4.9646Y-3.9773
X4.9846Y-3.8423
X5.0096Y-3.7723
X5.0377Y-3.8942
X5.0446Y-3.7873
X5.0549Y-3.7173
X5.1171Y-3.8123
X5.1171Y-3.8659
X5.1171Y-3.8948
X5.1491Y-3.8126
X5.1746Y-3.7423
X5.1746Y-4.1023
X5.2646Y-3.7773
X5.2944Y-3.7625
X5.3196Y-3.9823
X5.3196Y-3.9973
X5.3196Y-4.0123
X5.3196Y-4.0273
X5.3196Y-4.2473
X5.3696Y-3.6873
X5.3696Y-4.1673
X5.3696Y-4.1923
X5.3746Y-3.8998
X5.3898Y-3.5709
X5.3946Y-3.5923
X5.4046Y-4.3223
X5.4146Y-3.9673
X5.4173Y-3.5709
X5.4246Y-4.2073
X5.4252Y-3.5945
X5.434Y-3.9173
X5.4359Y-4.0936
X5.4822Y-3.7897
X5.4822Y-4.27
X5.4996Y-3.6523
X5.5521Y-4.0423
X5.5846Y-3.8423
X5.597Y-4.2899
X5.5996Y-4.1423
X5.5996Y-4.1673
X5.6546Y-3.8723
X5.6671Y-4.2898
X5.6782Y-3.9687
X5.7096Y-4.2173
X5.7596Y-4.0423
X5.7598Y-3.5787
X5.7696Y-3.5551
X5.7846Y-3.5866
X5.7996Y-3.5551
X5.8046Y-3.8173
X5.8071Y-3.5787
X5.8596Y-4.3798
X5.8996Y-4.1673
X5.8996Y-4.2423
X5.9055Y-3.4882
X5.9094Y-3.5157
X5.9296Y-3.4973
X5.9546Y-3.8473
X5.9546Y-4.0423
X5.9946Y-3.7173
X5.9946Y-3.7923
X5.9946Y-3.8473
X5.9946Y-4.1673
X5.9946Y-4.2173
X5.9968Y-4.2431
X5.9996Y-4.0873
X6.0446Y-4.1423
X6.0446Y-4.1923
X6.0639Y-3.6906
X6.0696Y-4.0723
X6.0796Y-3.5723
X6.0796Y-4.3473
X6.0946Y-3.6573
X6.0946Y-4.0223
X6.1196Y-3.9973
X6.1432Y-3.9687
X6.1446Y-3.7873
X6.1697Y-3.8173
X6.1796Y-3.9748
X6.2121Y-3.9923
X6.2246Y-3.7173
X6.2246Y-3.8173
X6.2246Y-4.1173
X6.2246Y-4.1673
X6.2246Y-4.2173
X6.2246Y-4.2473
X6.2896Y-3.5873
X6.2896Y-3.6598
X6.2921Y-3.9673
X6.3146Y-3.8123
X6.3296Y-3.8373
X6.3346Y-4.0823
X6.3421Y-3.7323
X6.3546Y-4.2423
X6.3596Y-3.5873
X6.3596Y-3.6873
X6.3621Y-3.5023
X6.4046Y-4.3273
X6.4196Y-4.1423
X6.4256Y-4.2193
X6.4396Y-4.1957
X6.4696Y-4.2898
X6.4746Y-3.9923
X6.5671Y-3.5073
X6.5786Y-3.9153
X6.7043Y-3.8268
X6.7996Y-3.9823
X6.8596Y-3.5773
X6.8913Y-4.059
X6.9421Y-3.5473
X6.9446Y-3.8548
X6.9578Y-3.9841
X6.9846Y-3.7873
X6.9846Y-3.5673
X7.0146Y-3.9223
X7.0946Y-3.7923
X7.0946Y-3.9823
X7.1396Y-3.6873
X7.1396Y-3.7673
X7.1943Y-3.8027
X7.2346Y-4.1673
X7.2582Y-4.0337
X7.2846Y-3.8023
X7.2896Y-3.5773
X7.4296Y-4.2423
X7.4581Y-3.6873
X7.4846Y-3.7673
X7.5846Y-3.6323
T2
X3.9321Y-4.3323
X4.0896Y-3.8723
X4.2867Y-4.0552
X4.3071Y-3.9764
X4.3071Y-4.132
X4.3071Y-4.2148
X4.7471Y-4.2148
X4.8621Y-4.0748
X7.6541Y-3.8294
X7.7546Y-3.8273
T3
X3.8846Y-3.4173
X3.9846Y-3.4173
X4.0846Y-3.4173
X4.1846Y-3.4173
X4.2846Y-3.4173
X4.3846Y-3.4173
X4.4846Y-3.4173
X4.5846Y-3.4173
X4.6846Y-3.4173
X4.7846Y-3.4173
X4.8846Y-3.4173
X4.9846Y-3.4173
X5.0846Y-3.4173
X5.1846Y-3.4173
X5.2846Y-3.4173
X5.3846Y-3.4173
X5.4846Y-3.4173
X5.5846Y-3.4173
X5.6846Y-3.4173
X5.7846Y-3.4173
X5.8846Y-3.4173
X5.9846Y-3.4173
X6.0846Y-3.4173
X6.1846Y-3.4173
X6.2846Y-3.4173
X6.3846Y-3.4173
X6.4846Y-3.4173
X6.5846Y-3.4173
X6.6846Y-3.4173
X6.7846Y-3.4173
X6.8846Y-3.4173
X6.9846Y-3.4173
X7.0846Y-3.4173
X7.1846Y-3.4173
X7.2846Y-3.4173
X7.3846Y-3.4173
X7.4846Y-3.4173
X7.5846Y-3.4173
X7.6846Y-3.4173
X7.7846Y-3.4173
M30
