%TF.GenerationSoftware,KiCad,Pcbnew,8.0.5*%
%TF.CreationDate,2025-02-16T00:46:45-05:00*%
%TF.ProjectId,C128A,43313238-412e-46b6-9963-61645f706362,rev?*%
%TF.SameCoordinates,Original*%
%TF.FileFunction,Legend,Top*%
%TF.FilePolarity,Positive*%
%FSLAX46Y46*%
G04 Gerber Fmt 4.6, Leading zero omitted, Abs format (unit mm)*
G04 Created by KiCad (PCBNEW 8.0.5) date 2025-02-16 00:46:45*
%MOMM*%
%LPD*%
G01*
G04 APERTURE LIST*
%ADD10C,0.300000*%
%ADD11C,0.150000*%
%ADD12C,0.120000*%
G04 APERTURE END LIST*
D10*
X196780328Y-111008998D02*
X198280328Y-110508998D01*
X198280328Y-110508998D02*
X196780328Y-110008998D01*
X198280328Y-108723284D02*
X198280328Y-109580427D01*
X198280328Y-109151856D02*
X196780328Y-109151856D01*
X196780328Y-109151856D02*
X196994614Y-109294713D01*
X196994614Y-109294713D02*
X197137471Y-109437570D01*
X197137471Y-109437570D02*
X197208900Y-109580427D01*
X198137471Y-108080428D02*
X198208900Y-108008999D01*
X198208900Y-108008999D02*
X198280328Y-108080428D01*
X198280328Y-108080428D02*
X198208900Y-108151856D01*
X198208900Y-108151856D02*
X198137471Y-108080428D01*
X198137471Y-108080428D02*
X198280328Y-108080428D01*
X196780328Y-107080427D02*
X196780328Y-106937570D01*
X196780328Y-106937570D02*
X196851757Y-106794713D01*
X196851757Y-106794713D02*
X196923185Y-106723285D01*
X196923185Y-106723285D02*
X197066042Y-106651856D01*
X197066042Y-106651856D02*
X197351757Y-106580427D01*
X197351757Y-106580427D02*
X197708900Y-106580427D01*
X197708900Y-106580427D02*
X197994614Y-106651856D01*
X197994614Y-106651856D02*
X198137471Y-106723285D01*
X198137471Y-106723285D02*
X198208900Y-106794713D01*
X198208900Y-106794713D02*
X198280328Y-106937570D01*
X198280328Y-106937570D02*
X198280328Y-107080427D01*
X198280328Y-107080427D02*
X198208900Y-107223285D01*
X198208900Y-107223285D02*
X198137471Y-107294713D01*
X198137471Y-107294713D02*
X197994614Y-107366142D01*
X197994614Y-107366142D02*
X197708900Y-107437570D01*
X197708900Y-107437570D02*
X197351757Y-107437570D01*
X197351757Y-107437570D02*
X197066042Y-107366142D01*
X197066042Y-107366142D02*
X196923185Y-107294713D01*
X196923185Y-107294713D02*
X196851757Y-107223285D01*
X196851757Y-107223285D02*
X196780328Y-107080427D01*
X197280328Y-105294714D02*
X198280328Y-105294714D01*
X196708900Y-105651856D02*
X197780328Y-106008999D01*
X197780328Y-106008999D02*
X197780328Y-105080428D01*
D11*
X98654819Y-106334047D02*
X98178628Y-106667380D01*
X98654819Y-106905475D02*
X97654819Y-106905475D01*
X97654819Y-106905475D02*
X97654819Y-106524523D01*
X97654819Y-106524523D02*
X97702438Y-106429285D01*
X97702438Y-106429285D02*
X97750057Y-106381666D01*
X97750057Y-106381666D02*
X97845295Y-106334047D01*
X97845295Y-106334047D02*
X97988152Y-106334047D01*
X97988152Y-106334047D02*
X98083390Y-106381666D01*
X98083390Y-106381666D02*
X98131009Y-106429285D01*
X98131009Y-106429285D02*
X98178628Y-106524523D01*
X98178628Y-106524523D02*
X98178628Y-106905475D01*
X98654819Y-105381666D02*
X98654819Y-105953094D01*
X98654819Y-105667380D02*
X97654819Y-105667380D01*
X97654819Y-105667380D02*
X97797676Y-105762618D01*
X97797676Y-105762618D02*
X97892914Y-105857856D01*
X97892914Y-105857856D02*
X97940533Y-105953094D01*
X97654819Y-104762618D02*
X97654819Y-104667380D01*
X97654819Y-104667380D02*
X97702438Y-104572142D01*
X97702438Y-104572142D02*
X97750057Y-104524523D01*
X97750057Y-104524523D02*
X97845295Y-104476904D01*
X97845295Y-104476904D02*
X98035771Y-104429285D01*
X98035771Y-104429285D02*
X98273866Y-104429285D01*
X98273866Y-104429285D02*
X98464342Y-104476904D01*
X98464342Y-104476904D02*
X98559580Y-104524523D01*
X98559580Y-104524523D02*
X98607200Y-104572142D01*
X98607200Y-104572142D02*
X98654819Y-104667380D01*
X98654819Y-104667380D02*
X98654819Y-104762618D01*
X98654819Y-104762618D02*
X98607200Y-104857856D01*
X98607200Y-104857856D02*
X98559580Y-104905475D01*
X98559580Y-104905475D02*
X98464342Y-104953094D01*
X98464342Y-104953094D02*
X98273866Y-105000713D01*
X98273866Y-105000713D02*
X98035771Y-105000713D01*
X98035771Y-105000713D02*
X97845295Y-104953094D01*
X97845295Y-104953094D02*
X97750057Y-104905475D01*
X97750057Y-104905475D02*
X97702438Y-104857856D01*
X97702438Y-104857856D02*
X97654819Y-104762618D01*
X97654819Y-104095951D02*
X97654819Y-103429285D01*
X97654819Y-103429285D02*
X98654819Y-103857856D01*
X183068523Y-93284580D02*
X183020904Y-93332200D01*
X183020904Y-93332200D02*
X182878047Y-93379819D01*
X182878047Y-93379819D02*
X182782809Y-93379819D01*
X182782809Y-93379819D02*
X182639952Y-93332200D01*
X182639952Y-93332200D02*
X182544714Y-93236961D01*
X182544714Y-93236961D02*
X182497095Y-93141723D01*
X182497095Y-93141723D02*
X182449476Y-92951247D01*
X182449476Y-92951247D02*
X182449476Y-92808390D01*
X182449476Y-92808390D02*
X182497095Y-92617914D01*
X182497095Y-92617914D02*
X182544714Y-92522676D01*
X182544714Y-92522676D02*
X182639952Y-92427438D01*
X182639952Y-92427438D02*
X182782809Y-92379819D01*
X182782809Y-92379819D02*
X182878047Y-92379819D01*
X182878047Y-92379819D02*
X183020904Y-92427438D01*
X183020904Y-92427438D02*
X183068523Y-92475057D01*
X183497095Y-92379819D02*
X183497095Y-93189342D01*
X183497095Y-93189342D02*
X183544714Y-93284580D01*
X183544714Y-93284580D02*
X183592333Y-93332200D01*
X183592333Y-93332200D02*
X183687571Y-93379819D01*
X183687571Y-93379819D02*
X183878047Y-93379819D01*
X183878047Y-93379819D02*
X183973285Y-93332200D01*
X183973285Y-93332200D02*
X184020904Y-93284580D01*
X184020904Y-93284580D02*
X184068523Y-93189342D01*
X184068523Y-93189342D02*
X184068523Y-92379819D01*
X184497095Y-92475057D02*
X184544714Y-92427438D01*
X184544714Y-92427438D02*
X184639952Y-92379819D01*
X184639952Y-92379819D02*
X184878047Y-92379819D01*
X184878047Y-92379819D02*
X184973285Y-92427438D01*
X184973285Y-92427438D02*
X185020904Y-92475057D01*
X185020904Y-92475057D02*
X185068523Y-92570295D01*
X185068523Y-92570295D02*
X185068523Y-92665533D01*
X185068523Y-92665533D02*
X185020904Y-92808390D01*
X185020904Y-92808390D02*
X184449476Y-93379819D01*
X184449476Y-93379819D02*
X185068523Y-93379819D01*
X124397819Y-102936857D02*
X123921628Y-103270190D01*
X124397819Y-103508285D02*
X123397819Y-103508285D01*
X123397819Y-103508285D02*
X123397819Y-103127333D01*
X123397819Y-103127333D02*
X123445438Y-103032095D01*
X123445438Y-103032095D02*
X123493057Y-102984476D01*
X123493057Y-102984476D02*
X123588295Y-102936857D01*
X123588295Y-102936857D02*
X123731152Y-102936857D01*
X123731152Y-102936857D02*
X123826390Y-102984476D01*
X123826390Y-102984476D02*
X123874009Y-103032095D01*
X123874009Y-103032095D02*
X123921628Y-103127333D01*
X123921628Y-103127333D02*
X123921628Y-103508285D01*
X124397819Y-102460666D02*
X124397819Y-102270190D01*
X124397819Y-102270190D02*
X124350200Y-102174952D01*
X124350200Y-102174952D02*
X124302580Y-102127333D01*
X124302580Y-102127333D02*
X124159723Y-102032095D01*
X124159723Y-102032095D02*
X123969247Y-101984476D01*
X123969247Y-101984476D02*
X123588295Y-101984476D01*
X123588295Y-101984476D02*
X123493057Y-102032095D01*
X123493057Y-102032095D02*
X123445438Y-102079714D01*
X123445438Y-102079714D02*
X123397819Y-102174952D01*
X123397819Y-102174952D02*
X123397819Y-102365428D01*
X123397819Y-102365428D02*
X123445438Y-102460666D01*
X123445438Y-102460666D02*
X123493057Y-102508285D01*
X123493057Y-102508285D02*
X123588295Y-102555904D01*
X123588295Y-102555904D02*
X123826390Y-102555904D01*
X123826390Y-102555904D02*
X123921628Y-102508285D01*
X123921628Y-102508285D02*
X123969247Y-102460666D01*
X123969247Y-102460666D02*
X124016866Y-102365428D01*
X124016866Y-102365428D02*
X124016866Y-102174952D01*
X124016866Y-102174952D02*
X123969247Y-102079714D01*
X123969247Y-102079714D02*
X123921628Y-102032095D01*
X123921628Y-102032095D02*
X123826390Y-101984476D01*
X123731152Y-101127333D02*
X124397819Y-101127333D01*
X123350200Y-101365428D02*
X124064485Y-101603523D01*
X124064485Y-101603523D02*
X124064485Y-100984476D01*
X102370833Y-99409580D02*
X102323214Y-99457200D01*
X102323214Y-99457200D02*
X102180357Y-99504819D01*
X102180357Y-99504819D02*
X102085119Y-99504819D01*
X102085119Y-99504819D02*
X101942262Y-99457200D01*
X101942262Y-99457200D02*
X101847024Y-99361961D01*
X101847024Y-99361961D02*
X101799405Y-99266723D01*
X101799405Y-99266723D02*
X101751786Y-99076247D01*
X101751786Y-99076247D02*
X101751786Y-98933390D01*
X101751786Y-98933390D02*
X101799405Y-98742914D01*
X101799405Y-98742914D02*
X101847024Y-98647676D01*
X101847024Y-98647676D02*
X101942262Y-98552438D01*
X101942262Y-98552438D02*
X102085119Y-98504819D01*
X102085119Y-98504819D02*
X102180357Y-98504819D01*
X102180357Y-98504819D02*
X102323214Y-98552438D01*
X102323214Y-98552438D02*
X102370833Y-98600057D01*
X102704167Y-98504819D02*
X103370833Y-98504819D01*
X103370833Y-98504819D02*
X102942262Y-99504819D01*
X119698819Y-92522857D02*
X119222628Y-92856190D01*
X119698819Y-93094285D02*
X118698819Y-93094285D01*
X118698819Y-93094285D02*
X118698819Y-92713333D01*
X118698819Y-92713333D02*
X118746438Y-92618095D01*
X118746438Y-92618095D02*
X118794057Y-92570476D01*
X118794057Y-92570476D02*
X118889295Y-92522857D01*
X118889295Y-92522857D02*
X119032152Y-92522857D01*
X119032152Y-92522857D02*
X119127390Y-92570476D01*
X119127390Y-92570476D02*
X119175009Y-92618095D01*
X119175009Y-92618095D02*
X119222628Y-92713333D01*
X119222628Y-92713333D02*
X119222628Y-93094285D01*
X119698819Y-91570476D02*
X119698819Y-92141904D01*
X119698819Y-91856190D02*
X118698819Y-91856190D01*
X118698819Y-91856190D02*
X118841676Y-91951428D01*
X118841676Y-91951428D02*
X118936914Y-92046666D01*
X118936914Y-92046666D02*
X118984533Y-92141904D01*
X118794057Y-91189523D02*
X118746438Y-91141904D01*
X118746438Y-91141904D02*
X118698819Y-91046666D01*
X118698819Y-91046666D02*
X118698819Y-90808571D01*
X118698819Y-90808571D02*
X118746438Y-90713333D01*
X118746438Y-90713333D02*
X118794057Y-90665714D01*
X118794057Y-90665714D02*
X118889295Y-90618095D01*
X118889295Y-90618095D02*
X118984533Y-90618095D01*
X118984533Y-90618095D02*
X119127390Y-90665714D01*
X119127390Y-90665714D02*
X119698819Y-91237142D01*
X119698819Y-91237142D02*
X119698819Y-90618095D01*
X126254819Y-94514285D02*
X125254819Y-94514285D01*
X125254819Y-94514285D02*
X125254819Y-94276190D01*
X125254819Y-94276190D02*
X125302438Y-94133333D01*
X125302438Y-94133333D02*
X125397676Y-94038095D01*
X125397676Y-94038095D02*
X125492914Y-93990476D01*
X125492914Y-93990476D02*
X125683390Y-93942857D01*
X125683390Y-93942857D02*
X125826247Y-93942857D01*
X125826247Y-93942857D02*
X126016723Y-93990476D01*
X126016723Y-93990476D02*
X126111961Y-94038095D01*
X126111961Y-94038095D02*
X126207200Y-94133333D01*
X126207200Y-94133333D02*
X126254819Y-94276190D01*
X126254819Y-94276190D02*
X126254819Y-94514285D01*
X126254819Y-93466666D02*
X126254819Y-93276190D01*
X126254819Y-93276190D02*
X126207200Y-93180952D01*
X126207200Y-93180952D02*
X126159580Y-93133333D01*
X126159580Y-93133333D02*
X126016723Y-93038095D01*
X126016723Y-93038095D02*
X125826247Y-92990476D01*
X125826247Y-92990476D02*
X125445295Y-92990476D01*
X125445295Y-92990476D02*
X125350057Y-93038095D01*
X125350057Y-93038095D02*
X125302438Y-93085714D01*
X125302438Y-93085714D02*
X125254819Y-93180952D01*
X125254819Y-93180952D02*
X125254819Y-93371428D01*
X125254819Y-93371428D02*
X125302438Y-93466666D01*
X125302438Y-93466666D02*
X125350057Y-93514285D01*
X125350057Y-93514285D02*
X125445295Y-93561904D01*
X125445295Y-93561904D02*
X125683390Y-93561904D01*
X125683390Y-93561904D02*
X125778628Y-93514285D01*
X125778628Y-93514285D02*
X125826247Y-93466666D01*
X125826247Y-93466666D02*
X125873866Y-93371428D01*
X125873866Y-93371428D02*
X125873866Y-93180952D01*
X125873866Y-93180952D02*
X125826247Y-93085714D01*
X125826247Y-93085714D02*
X125778628Y-93038095D01*
X125778628Y-93038095D02*
X125683390Y-92990476D01*
X125254819Y-92085714D02*
X125254819Y-92561904D01*
X125254819Y-92561904D02*
X125731009Y-92609523D01*
X125731009Y-92609523D02*
X125683390Y-92561904D01*
X125683390Y-92561904D02*
X125635771Y-92466666D01*
X125635771Y-92466666D02*
X125635771Y-92228571D01*
X125635771Y-92228571D02*
X125683390Y-92133333D01*
X125683390Y-92133333D02*
X125731009Y-92085714D01*
X125731009Y-92085714D02*
X125826247Y-92038095D01*
X125826247Y-92038095D02*
X126064342Y-92038095D01*
X126064342Y-92038095D02*
X126159580Y-92085714D01*
X126159580Y-92085714D02*
X126207200Y-92133333D01*
X126207200Y-92133333D02*
X126254819Y-92228571D01*
X126254819Y-92228571D02*
X126254819Y-92466666D01*
X126254819Y-92466666D02*
X126207200Y-92561904D01*
X126207200Y-92561904D02*
X126159580Y-92609523D01*
X149162819Y-109890047D02*
X148686628Y-110223380D01*
X149162819Y-110461475D02*
X148162819Y-110461475D01*
X148162819Y-110461475D02*
X148162819Y-110080523D01*
X148162819Y-110080523D02*
X148210438Y-109985285D01*
X148210438Y-109985285D02*
X148258057Y-109937666D01*
X148258057Y-109937666D02*
X148353295Y-109890047D01*
X148353295Y-109890047D02*
X148496152Y-109890047D01*
X148496152Y-109890047D02*
X148591390Y-109937666D01*
X148591390Y-109937666D02*
X148639009Y-109985285D01*
X148639009Y-109985285D02*
X148686628Y-110080523D01*
X148686628Y-110080523D02*
X148686628Y-110461475D01*
X149162819Y-108937666D02*
X149162819Y-109509094D01*
X149162819Y-109223380D02*
X148162819Y-109223380D01*
X148162819Y-109223380D02*
X148305676Y-109318618D01*
X148305676Y-109318618D02*
X148400914Y-109413856D01*
X148400914Y-109413856D02*
X148448533Y-109509094D01*
X148162819Y-108318618D02*
X148162819Y-108223380D01*
X148162819Y-108223380D02*
X148210438Y-108128142D01*
X148210438Y-108128142D02*
X148258057Y-108080523D01*
X148258057Y-108080523D02*
X148353295Y-108032904D01*
X148353295Y-108032904D02*
X148543771Y-107985285D01*
X148543771Y-107985285D02*
X148781866Y-107985285D01*
X148781866Y-107985285D02*
X148972342Y-108032904D01*
X148972342Y-108032904D02*
X149067580Y-108080523D01*
X149067580Y-108080523D02*
X149115200Y-108128142D01*
X149115200Y-108128142D02*
X149162819Y-108223380D01*
X149162819Y-108223380D02*
X149162819Y-108318618D01*
X149162819Y-108318618D02*
X149115200Y-108413856D01*
X149115200Y-108413856D02*
X149067580Y-108461475D01*
X149067580Y-108461475D02*
X148972342Y-108509094D01*
X148972342Y-108509094D02*
X148781866Y-108556713D01*
X148781866Y-108556713D02*
X148543771Y-108556713D01*
X148543771Y-108556713D02*
X148353295Y-108509094D01*
X148353295Y-108509094D02*
X148258057Y-108461475D01*
X148258057Y-108461475D02*
X148210438Y-108413856D01*
X148210438Y-108413856D02*
X148162819Y-108318618D01*
X148591390Y-107413856D02*
X148543771Y-107509094D01*
X148543771Y-107509094D02*
X148496152Y-107556713D01*
X148496152Y-107556713D02*
X148400914Y-107604332D01*
X148400914Y-107604332D02*
X148353295Y-107604332D01*
X148353295Y-107604332D02*
X148258057Y-107556713D01*
X148258057Y-107556713D02*
X148210438Y-107509094D01*
X148210438Y-107509094D02*
X148162819Y-107413856D01*
X148162819Y-107413856D02*
X148162819Y-107223380D01*
X148162819Y-107223380D02*
X148210438Y-107128142D01*
X148210438Y-107128142D02*
X148258057Y-107080523D01*
X148258057Y-107080523D02*
X148353295Y-107032904D01*
X148353295Y-107032904D02*
X148400914Y-107032904D01*
X148400914Y-107032904D02*
X148496152Y-107080523D01*
X148496152Y-107080523D02*
X148543771Y-107128142D01*
X148543771Y-107128142D02*
X148591390Y-107223380D01*
X148591390Y-107223380D02*
X148591390Y-107413856D01*
X148591390Y-107413856D02*
X148639009Y-107509094D01*
X148639009Y-107509094D02*
X148686628Y-107556713D01*
X148686628Y-107556713D02*
X148781866Y-107604332D01*
X148781866Y-107604332D02*
X148972342Y-107604332D01*
X148972342Y-107604332D02*
X149067580Y-107556713D01*
X149067580Y-107556713D02*
X149115200Y-107509094D01*
X149115200Y-107509094D02*
X149162819Y-107413856D01*
X149162819Y-107413856D02*
X149162819Y-107223380D01*
X149162819Y-107223380D02*
X149115200Y-107128142D01*
X149115200Y-107128142D02*
X149067580Y-107080523D01*
X149067580Y-107080523D02*
X148972342Y-107032904D01*
X148972342Y-107032904D02*
X148781866Y-107032904D01*
X148781866Y-107032904D02*
X148686628Y-107080523D01*
X148686628Y-107080523D02*
X148639009Y-107128142D01*
X148639009Y-107128142D02*
X148591390Y-107223380D01*
X160084819Y-109890047D02*
X159608628Y-110223380D01*
X160084819Y-110461475D02*
X159084819Y-110461475D01*
X159084819Y-110461475D02*
X159084819Y-110080523D01*
X159084819Y-110080523D02*
X159132438Y-109985285D01*
X159132438Y-109985285D02*
X159180057Y-109937666D01*
X159180057Y-109937666D02*
X159275295Y-109890047D01*
X159275295Y-109890047D02*
X159418152Y-109890047D01*
X159418152Y-109890047D02*
X159513390Y-109937666D01*
X159513390Y-109937666D02*
X159561009Y-109985285D01*
X159561009Y-109985285D02*
X159608628Y-110080523D01*
X159608628Y-110080523D02*
X159608628Y-110461475D01*
X160084819Y-108937666D02*
X160084819Y-109509094D01*
X160084819Y-109223380D02*
X159084819Y-109223380D01*
X159084819Y-109223380D02*
X159227676Y-109318618D01*
X159227676Y-109318618D02*
X159322914Y-109413856D01*
X159322914Y-109413856D02*
X159370533Y-109509094D01*
X159084819Y-108318618D02*
X159084819Y-108223380D01*
X159084819Y-108223380D02*
X159132438Y-108128142D01*
X159132438Y-108128142D02*
X159180057Y-108080523D01*
X159180057Y-108080523D02*
X159275295Y-108032904D01*
X159275295Y-108032904D02*
X159465771Y-107985285D01*
X159465771Y-107985285D02*
X159703866Y-107985285D01*
X159703866Y-107985285D02*
X159894342Y-108032904D01*
X159894342Y-108032904D02*
X159989580Y-108080523D01*
X159989580Y-108080523D02*
X160037200Y-108128142D01*
X160037200Y-108128142D02*
X160084819Y-108223380D01*
X160084819Y-108223380D02*
X160084819Y-108318618D01*
X160084819Y-108318618D02*
X160037200Y-108413856D01*
X160037200Y-108413856D02*
X159989580Y-108461475D01*
X159989580Y-108461475D02*
X159894342Y-108509094D01*
X159894342Y-108509094D02*
X159703866Y-108556713D01*
X159703866Y-108556713D02*
X159465771Y-108556713D01*
X159465771Y-108556713D02*
X159275295Y-108509094D01*
X159275295Y-108509094D02*
X159180057Y-108461475D01*
X159180057Y-108461475D02*
X159132438Y-108413856D01*
X159132438Y-108413856D02*
X159084819Y-108318618D01*
X160084819Y-107509094D02*
X160084819Y-107318618D01*
X160084819Y-107318618D02*
X160037200Y-107223380D01*
X160037200Y-107223380D02*
X159989580Y-107175761D01*
X159989580Y-107175761D02*
X159846723Y-107080523D01*
X159846723Y-107080523D02*
X159656247Y-107032904D01*
X159656247Y-107032904D02*
X159275295Y-107032904D01*
X159275295Y-107032904D02*
X159180057Y-107080523D01*
X159180057Y-107080523D02*
X159132438Y-107128142D01*
X159132438Y-107128142D02*
X159084819Y-107223380D01*
X159084819Y-107223380D02*
X159084819Y-107413856D01*
X159084819Y-107413856D02*
X159132438Y-107509094D01*
X159132438Y-107509094D02*
X159180057Y-107556713D01*
X159180057Y-107556713D02*
X159275295Y-107604332D01*
X159275295Y-107604332D02*
X159513390Y-107604332D01*
X159513390Y-107604332D02*
X159608628Y-107556713D01*
X159608628Y-107556713D02*
X159656247Y-107509094D01*
X159656247Y-107509094D02*
X159703866Y-107413856D01*
X159703866Y-107413856D02*
X159703866Y-107223380D01*
X159703866Y-107223380D02*
X159656247Y-107128142D01*
X159656247Y-107128142D02*
X159608628Y-107080523D01*
X159608628Y-107080523D02*
X159513390Y-107032904D01*
X137138095Y-103554819D02*
X137138095Y-104364342D01*
X137138095Y-104364342D02*
X137185714Y-104459580D01*
X137185714Y-104459580D02*
X137233333Y-104507200D01*
X137233333Y-104507200D02*
X137328571Y-104554819D01*
X137328571Y-104554819D02*
X137519047Y-104554819D01*
X137519047Y-104554819D02*
X137614285Y-104507200D01*
X137614285Y-104507200D02*
X137661904Y-104459580D01*
X137661904Y-104459580D02*
X137709523Y-104364342D01*
X137709523Y-104364342D02*
X137709523Y-103554819D01*
X138661904Y-103554819D02*
X138185714Y-103554819D01*
X138185714Y-103554819D02*
X138138095Y-104031009D01*
X138138095Y-104031009D02*
X138185714Y-103983390D01*
X138185714Y-103983390D02*
X138280952Y-103935771D01*
X138280952Y-103935771D02*
X138519047Y-103935771D01*
X138519047Y-103935771D02*
X138614285Y-103983390D01*
X138614285Y-103983390D02*
X138661904Y-104031009D01*
X138661904Y-104031009D02*
X138709523Y-104126247D01*
X138709523Y-104126247D02*
X138709523Y-104364342D01*
X138709523Y-104364342D02*
X138661904Y-104459580D01*
X138661904Y-104459580D02*
X138614285Y-104507200D01*
X138614285Y-104507200D02*
X138519047Y-104554819D01*
X138519047Y-104554819D02*
X138280952Y-104554819D01*
X138280952Y-104554819D02*
X138185714Y-104507200D01*
X138185714Y-104507200D02*
X138138095Y-104459580D01*
X195593833Y-99323580D02*
X195546214Y-99371200D01*
X195546214Y-99371200D02*
X195403357Y-99418819D01*
X195403357Y-99418819D02*
X195308119Y-99418819D01*
X195308119Y-99418819D02*
X195165262Y-99371200D01*
X195165262Y-99371200D02*
X195070024Y-99275961D01*
X195070024Y-99275961D02*
X195022405Y-99180723D01*
X195022405Y-99180723D02*
X194974786Y-98990247D01*
X194974786Y-98990247D02*
X194974786Y-98847390D01*
X194974786Y-98847390D02*
X195022405Y-98656914D01*
X195022405Y-98656914D02*
X195070024Y-98561676D01*
X195070024Y-98561676D02*
X195165262Y-98466438D01*
X195165262Y-98466438D02*
X195308119Y-98418819D01*
X195308119Y-98418819D02*
X195403357Y-98418819D01*
X195403357Y-98418819D02*
X195546214Y-98466438D01*
X195546214Y-98466438D02*
X195593833Y-98514057D01*
X196498595Y-98418819D02*
X196022405Y-98418819D01*
X196022405Y-98418819D02*
X195974786Y-98895009D01*
X195974786Y-98895009D02*
X196022405Y-98847390D01*
X196022405Y-98847390D02*
X196117643Y-98799771D01*
X196117643Y-98799771D02*
X196355738Y-98799771D01*
X196355738Y-98799771D02*
X196450976Y-98847390D01*
X196450976Y-98847390D02*
X196498595Y-98895009D01*
X196498595Y-98895009D02*
X196546214Y-98990247D01*
X196546214Y-98990247D02*
X196546214Y-99228342D01*
X196546214Y-99228342D02*
X196498595Y-99323580D01*
X196498595Y-99323580D02*
X196450976Y-99371200D01*
X196450976Y-99371200D02*
X196355738Y-99418819D01*
X196355738Y-99418819D02*
X196117643Y-99418819D01*
X196117643Y-99418819D02*
X196022405Y-99371200D01*
X196022405Y-99371200D02*
X195974786Y-99323580D01*
X155128523Y-112017080D02*
X155080904Y-112064700D01*
X155080904Y-112064700D02*
X154938047Y-112112319D01*
X154938047Y-112112319D02*
X154842809Y-112112319D01*
X154842809Y-112112319D02*
X154699952Y-112064700D01*
X154699952Y-112064700D02*
X154604714Y-111969461D01*
X154604714Y-111969461D02*
X154557095Y-111874223D01*
X154557095Y-111874223D02*
X154509476Y-111683747D01*
X154509476Y-111683747D02*
X154509476Y-111540890D01*
X154509476Y-111540890D02*
X154557095Y-111350414D01*
X154557095Y-111350414D02*
X154604714Y-111255176D01*
X154604714Y-111255176D02*
X154699952Y-111159938D01*
X154699952Y-111159938D02*
X154842809Y-111112319D01*
X154842809Y-111112319D02*
X154938047Y-111112319D01*
X154938047Y-111112319D02*
X155080904Y-111159938D01*
X155080904Y-111159938D02*
X155128523Y-111207557D01*
X155557095Y-111112319D02*
X155557095Y-111921842D01*
X155557095Y-111921842D02*
X155604714Y-112017080D01*
X155604714Y-112017080D02*
X155652333Y-112064700D01*
X155652333Y-112064700D02*
X155747571Y-112112319D01*
X155747571Y-112112319D02*
X155938047Y-112112319D01*
X155938047Y-112112319D02*
X156033285Y-112064700D01*
X156033285Y-112064700D02*
X156080904Y-112017080D01*
X156080904Y-112017080D02*
X156128523Y-111921842D01*
X156128523Y-111921842D02*
X156128523Y-111112319D01*
X157033285Y-111112319D02*
X156842809Y-111112319D01*
X156842809Y-111112319D02*
X156747571Y-111159938D01*
X156747571Y-111159938D02*
X156699952Y-111207557D01*
X156699952Y-111207557D02*
X156604714Y-111350414D01*
X156604714Y-111350414D02*
X156557095Y-111540890D01*
X156557095Y-111540890D02*
X156557095Y-111921842D01*
X156557095Y-111921842D02*
X156604714Y-112017080D01*
X156604714Y-112017080D02*
X156652333Y-112064700D01*
X156652333Y-112064700D02*
X156747571Y-112112319D01*
X156747571Y-112112319D02*
X156938047Y-112112319D01*
X156938047Y-112112319D02*
X157033285Y-112064700D01*
X157033285Y-112064700D02*
X157080904Y-112017080D01*
X157080904Y-112017080D02*
X157128523Y-111921842D01*
X157128523Y-111921842D02*
X157128523Y-111683747D01*
X157128523Y-111683747D02*
X157080904Y-111588509D01*
X157080904Y-111588509D02*
X157033285Y-111540890D01*
X157033285Y-111540890D02*
X156938047Y-111493271D01*
X156938047Y-111493271D02*
X156747571Y-111493271D01*
X156747571Y-111493271D02*
X156652333Y-111540890D01*
X156652333Y-111540890D02*
X156604714Y-111588509D01*
X156604714Y-111588509D02*
X156557095Y-111683747D01*
X122616080Y-106667476D02*
X122663700Y-106715095D01*
X122663700Y-106715095D02*
X122711319Y-106857952D01*
X122711319Y-106857952D02*
X122711319Y-106953190D01*
X122711319Y-106953190D02*
X122663700Y-107096047D01*
X122663700Y-107096047D02*
X122568461Y-107191285D01*
X122568461Y-107191285D02*
X122473223Y-107238904D01*
X122473223Y-107238904D02*
X122282747Y-107286523D01*
X122282747Y-107286523D02*
X122139890Y-107286523D01*
X122139890Y-107286523D02*
X121949414Y-107238904D01*
X121949414Y-107238904D02*
X121854176Y-107191285D01*
X121854176Y-107191285D02*
X121758938Y-107096047D01*
X121758938Y-107096047D02*
X121711319Y-106953190D01*
X121711319Y-106953190D02*
X121711319Y-106857952D01*
X121711319Y-106857952D02*
X121758938Y-106715095D01*
X121758938Y-106715095D02*
X121806557Y-106667476D01*
X121711319Y-106238904D02*
X122520842Y-106238904D01*
X122520842Y-106238904D02*
X122616080Y-106191285D01*
X122616080Y-106191285D02*
X122663700Y-106143666D01*
X122663700Y-106143666D02*
X122711319Y-106048428D01*
X122711319Y-106048428D02*
X122711319Y-105857952D01*
X122711319Y-105857952D02*
X122663700Y-105762714D01*
X122663700Y-105762714D02*
X122616080Y-105715095D01*
X122616080Y-105715095D02*
X122520842Y-105667476D01*
X122520842Y-105667476D02*
X121711319Y-105667476D01*
X122139890Y-105048428D02*
X122092271Y-105143666D01*
X122092271Y-105143666D02*
X122044652Y-105191285D01*
X122044652Y-105191285D02*
X121949414Y-105238904D01*
X121949414Y-105238904D02*
X121901795Y-105238904D01*
X121901795Y-105238904D02*
X121806557Y-105191285D01*
X121806557Y-105191285D02*
X121758938Y-105143666D01*
X121758938Y-105143666D02*
X121711319Y-105048428D01*
X121711319Y-105048428D02*
X121711319Y-104857952D01*
X121711319Y-104857952D02*
X121758938Y-104762714D01*
X121758938Y-104762714D02*
X121806557Y-104715095D01*
X121806557Y-104715095D02*
X121901795Y-104667476D01*
X121901795Y-104667476D02*
X121949414Y-104667476D01*
X121949414Y-104667476D02*
X122044652Y-104715095D01*
X122044652Y-104715095D02*
X122092271Y-104762714D01*
X122092271Y-104762714D02*
X122139890Y-104857952D01*
X122139890Y-104857952D02*
X122139890Y-105048428D01*
X122139890Y-105048428D02*
X122187509Y-105143666D01*
X122187509Y-105143666D02*
X122235128Y-105191285D01*
X122235128Y-105191285D02*
X122330366Y-105238904D01*
X122330366Y-105238904D02*
X122520842Y-105238904D01*
X122520842Y-105238904D02*
X122616080Y-105191285D01*
X122616080Y-105191285D02*
X122663700Y-105143666D01*
X122663700Y-105143666D02*
X122711319Y-105048428D01*
X122711319Y-105048428D02*
X122711319Y-104857952D01*
X122711319Y-104857952D02*
X122663700Y-104762714D01*
X122663700Y-104762714D02*
X122616080Y-104715095D01*
X122616080Y-104715095D02*
X122520842Y-104667476D01*
X122520842Y-104667476D02*
X122330366Y-104667476D01*
X122330366Y-104667476D02*
X122235128Y-104715095D01*
X122235128Y-104715095D02*
X122187509Y-104762714D01*
X122187509Y-104762714D02*
X122139890Y-104857952D01*
X100457142Y-90154819D02*
X100123809Y-89678628D01*
X99885714Y-90154819D02*
X99885714Y-89154819D01*
X99885714Y-89154819D02*
X100266666Y-89154819D01*
X100266666Y-89154819D02*
X100361904Y-89202438D01*
X100361904Y-89202438D02*
X100409523Y-89250057D01*
X100409523Y-89250057D02*
X100457142Y-89345295D01*
X100457142Y-89345295D02*
X100457142Y-89488152D01*
X100457142Y-89488152D02*
X100409523Y-89583390D01*
X100409523Y-89583390D02*
X100361904Y-89631009D01*
X100361904Y-89631009D02*
X100266666Y-89678628D01*
X100266666Y-89678628D02*
X99885714Y-89678628D01*
X100933333Y-90154819D02*
X101123809Y-90154819D01*
X101123809Y-90154819D02*
X101219047Y-90107200D01*
X101219047Y-90107200D02*
X101266666Y-90059580D01*
X101266666Y-90059580D02*
X101361904Y-89916723D01*
X101361904Y-89916723D02*
X101409523Y-89726247D01*
X101409523Y-89726247D02*
X101409523Y-89345295D01*
X101409523Y-89345295D02*
X101361904Y-89250057D01*
X101361904Y-89250057D02*
X101314285Y-89202438D01*
X101314285Y-89202438D02*
X101219047Y-89154819D01*
X101219047Y-89154819D02*
X101028571Y-89154819D01*
X101028571Y-89154819D02*
X100933333Y-89202438D01*
X100933333Y-89202438D02*
X100885714Y-89250057D01*
X100885714Y-89250057D02*
X100838095Y-89345295D01*
X100838095Y-89345295D02*
X100838095Y-89583390D01*
X100838095Y-89583390D02*
X100885714Y-89678628D01*
X100885714Y-89678628D02*
X100933333Y-89726247D01*
X100933333Y-89726247D02*
X101028571Y-89773866D01*
X101028571Y-89773866D02*
X101219047Y-89773866D01*
X101219047Y-89773866D02*
X101314285Y-89726247D01*
X101314285Y-89726247D02*
X101361904Y-89678628D01*
X101361904Y-89678628D02*
X101409523Y-89583390D01*
X101742857Y-89154819D02*
X102361904Y-89154819D01*
X102361904Y-89154819D02*
X102028571Y-89535771D01*
X102028571Y-89535771D02*
X102171428Y-89535771D01*
X102171428Y-89535771D02*
X102266666Y-89583390D01*
X102266666Y-89583390D02*
X102314285Y-89631009D01*
X102314285Y-89631009D02*
X102361904Y-89726247D01*
X102361904Y-89726247D02*
X102361904Y-89964342D01*
X102361904Y-89964342D02*
X102314285Y-90059580D01*
X102314285Y-90059580D02*
X102266666Y-90107200D01*
X102266666Y-90107200D02*
X102171428Y-90154819D01*
X102171428Y-90154819D02*
X101885714Y-90154819D01*
X101885714Y-90154819D02*
X101790476Y-90107200D01*
X101790476Y-90107200D02*
X101742857Y-90059580D01*
X103638095Y-104954819D02*
X103638095Y-105764342D01*
X103638095Y-105764342D02*
X103685714Y-105859580D01*
X103685714Y-105859580D02*
X103733333Y-105907200D01*
X103733333Y-105907200D02*
X103828571Y-105954819D01*
X103828571Y-105954819D02*
X104019047Y-105954819D01*
X104019047Y-105954819D02*
X104114285Y-105907200D01*
X104114285Y-105907200D02*
X104161904Y-105859580D01*
X104161904Y-105859580D02*
X104209523Y-105764342D01*
X104209523Y-105764342D02*
X104209523Y-104954819D01*
X104590476Y-104954819D02*
X105257142Y-104954819D01*
X105257142Y-104954819D02*
X104828571Y-105954819D01*
X115058580Y-93951666D02*
X115106200Y-93999285D01*
X115106200Y-93999285D02*
X115153819Y-94142142D01*
X115153819Y-94142142D02*
X115153819Y-94237380D01*
X115153819Y-94237380D02*
X115106200Y-94380237D01*
X115106200Y-94380237D02*
X115010961Y-94475475D01*
X115010961Y-94475475D02*
X114915723Y-94523094D01*
X114915723Y-94523094D02*
X114725247Y-94570713D01*
X114725247Y-94570713D02*
X114582390Y-94570713D01*
X114582390Y-94570713D02*
X114391914Y-94523094D01*
X114391914Y-94523094D02*
X114296676Y-94475475D01*
X114296676Y-94475475D02*
X114201438Y-94380237D01*
X114201438Y-94380237D02*
X114153819Y-94237380D01*
X114153819Y-94237380D02*
X114153819Y-94142142D01*
X114153819Y-94142142D02*
X114201438Y-93999285D01*
X114201438Y-93999285D02*
X114249057Y-93951666D01*
X114153819Y-93094523D02*
X114153819Y-93284999D01*
X114153819Y-93284999D02*
X114201438Y-93380237D01*
X114201438Y-93380237D02*
X114249057Y-93427856D01*
X114249057Y-93427856D02*
X114391914Y-93523094D01*
X114391914Y-93523094D02*
X114582390Y-93570713D01*
X114582390Y-93570713D02*
X114963342Y-93570713D01*
X114963342Y-93570713D02*
X115058580Y-93523094D01*
X115058580Y-93523094D02*
X115106200Y-93475475D01*
X115106200Y-93475475D02*
X115153819Y-93380237D01*
X115153819Y-93380237D02*
X115153819Y-93189761D01*
X115153819Y-93189761D02*
X115106200Y-93094523D01*
X115106200Y-93094523D02*
X115058580Y-93046904D01*
X115058580Y-93046904D02*
X114963342Y-92999285D01*
X114963342Y-92999285D02*
X114725247Y-92999285D01*
X114725247Y-92999285D02*
X114630009Y-93046904D01*
X114630009Y-93046904D02*
X114582390Y-93094523D01*
X114582390Y-93094523D02*
X114534771Y-93189761D01*
X114534771Y-93189761D02*
X114534771Y-93380237D01*
X114534771Y-93380237D02*
X114582390Y-93475475D01*
X114582390Y-93475475D02*
X114630009Y-93523094D01*
X114630009Y-93523094D02*
X114725247Y-93570713D01*
X104764023Y-93372580D02*
X104716404Y-93420200D01*
X104716404Y-93420200D02*
X104573547Y-93467819D01*
X104573547Y-93467819D02*
X104478309Y-93467819D01*
X104478309Y-93467819D02*
X104335452Y-93420200D01*
X104335452Y-93420200D02*
X104240214Y-93324961D01*
X104240214Y-93324961D02*
X104192595Y-93229723D01*
X104192595Y-93229723D02*
X104144976Y-93039247D01*
X104144976Y-93039247D02*
X104144976Y-92896390D01*
X104144976Y-92896390D02*
X104192595Y-92705914D01*
X104192595Y-92705914D02*
X104240214Y-92610676D01*
X104240214Y-92610676D02*
X104335452Y-92515438D01*
X104335452Y-92515438D02*
X104478309Y-92467819D01*
X104478309Y-92467819D02*
X104573547Y-92467819D01*
X104573547Y-92467819D02*
X104716404Y-92515438D01*
X104716404Y-92515438D02*
X104764023Y-92563057D01*
X105192595Y-92467819D02*
X105192595Y-93277342D01*
X105192595Y-93277342D02*
X105240214Y-93372580D01*
X105240214Y-93372580D02*
X105287833Y-93420200D01*
X105287833Y-93420200D02*
X105383071Y-93467819D01*
X105383071Y-93467819D02*
X105573547Y-93467819D01*
X105573547Y-93467819D02*
X105668785Y-93420200D01*
X105668785Y-93420200D02*
X105716404Y-93372580D01*
X105716404Y-93372580D02*
X105764023Y-93277342D01*
X105764023Y-93277342D02*
X105764023Y-92467819D01*
X106668785Y-92801152D02*
X106668785Y-93467819D01*
X106430690Y-92420200D02*
X106192595Y-93134485D01*
X106192595Y-93134485D02*
X106811642Y-93134485D01*
X102738095Y-93554819D02*
X102738095Y-94364342D01*
X102738095Y-94364342D02*
X102785714Y-94459580D01*
X102785714Y-94459580D02*
X102833333Y-94507200D01*
X102833333Y-94507200D02*
X102928571Y-94554819D01*
X102928571Y-94554819D02*
X103119047Y-94554819D01*
X103119047Y-94554819D02*
X103214285Y-94507200D01*
X103214285Y-94507200D02*
X103261904Y-94459580D01*
X103261904Y-94459580D02*
X103309523Y-94364342D01*
X103309523Y-94364342D02*
X103309523Y-93554819D01*
X104214285Y-93888152D02*
X104214285Y-94554819D01*
X103976190Y-93507200D02*
X103738095Y-94221485D01*
X103738095Y-94221485D02*
X104357142Y-94221485D01*
X109454819Y-91042857D02*
X108978628Y-91376190D01*
X109454819Y-91614285D02*
X108454819Y-91614285D01*
X108454819Y-91614285D02*
X108454819Y-91233333D01*
X108454819Y-91233333D02*
X108502438Y-91138095D01*
X108502438Y-91138095D02*
X108550057Y-91090476D01*
X108550057Y-91090476D02*
X108645295Y-91042857D01*
X108645295Y-91042857D02*
X108788152Y-91042857D01*
X108788152Y-91042857D02*
X108883390Y-91090476D01*
X108883390Y-91090476D02*
X108931009Y-91138095D01*
X108931009Y-91138095D02*
X108978628Y-91233333D01*
X108978628Y-91233333D02*
X108978628Y-91614285D01*
X109454819Y-90090476D02*
X109454819Y-90661904D01*
X109454819Y-90376190D02*
X108454819Y-90376190D01*
X108454819Y-90376190D02*
X108597676Y-90471428D01*
X108597676Y-90471428D02*
X108692914Y-90566666D01*
X108692914Y-90566666D02*
X108740533Y-90661904D01*
X109454819Y-89138095D02*
X109454819Y-89709523D01*
X109454819Y-89423809D02*
X108454819Y-89423809D01*
X108454819Y-89423809D02*
X108597676Y-89519047D01*
X108597676Y-89519047D02*
X108692914Y-89614285D01*
X108692914Y-89614285D02*
X108740533Y-89709523D01*
X96609524Y-99554819D02*
X96609524Y-98554819D01*
X96609524Y-98554819D02*
X96847619Y-98554819D01*
X96847619Y-98554819D02*
X96990476Y-98602438D01*
X96990476Y-98602438D02*
X97085714Y-98697676D01*
X97085714Y-98697676D02*
X97133333Y-98792914D01*
X97133333Y-98792914D02*
X97180952Y-98983390D01*
X97180952Y-98983390D02*
X97180952Y-99126247D01*
X97180952Y-99126247D02*
X97133333Y-99316723D01*
X97133333Y-99316723D02*
X97085714Y-99411961D01*
X97085714Y-99411961D02*
X96990476Y-99507200D01*
X96990476Y-99507200D02*
X96847619Y-99554819D01*
X96847619Y-99554819D02*
X96609524Y-99554819D01*
X98133333Y-99554819D02*
X97561905Y-99554819D01*
X97847619Y-99554819D02*
X97847619Y-98554819D01*
X97847619Y-98554819D02*
X97752381Y-98697676D01*
X97752381Y-98697676D02*
X97657143Y-98792914D01*
X97657143Y-98792914D02*
X97561905Y-98840533D01*
X98752381Y-98554819D02*
X98847619Y-98554819D01*
X98847619Y-98554819D02*
X98942857Y-98602438D01*
X98942857Y-98602438D02*
X98990476Y-98650057D01*
X98990476Y-98650057D02*
X99038095Y-98745295D01*
X99038095Y-98745295D02*
X99085714Y-98935771D01*
X99085714Y-98935771D02*
X99085714Y-99173866D01*
X99085714Y-99173866D02*
X99038095Y-99364342D01*
X99038095Y-99364342D02*
X98990476Y-99459580D01*
X98990476Y-99459580D02*
X98942857Y-99507200D01*
X98942857Y-99507200D02*
X98847619Y-99554819D01*
X98847619Y-99554819D02*
X98752381Y-99554819D01*
X98752381Y-99554819D02*
X98657143Y-99507200D01*
X98657143Y-99507200D02*
X98609524Y-99459580D01*
X98609524Y-99459580D02*
X98561905Y-99364342D01*
X98561905Y-99364342D02*
X98514286Y-99173866D01*
X98514286Y-99173866D02*
X98514286Y-98935771D01*
X98514286Y-98935771D02*
X98561905Y-98745295D01*
X98561905Y-98745295D02*
X98609524Y-98650057D01*
X98609524Y-98650057D02*
X98657143Y-98602438D01*
X98657143Y-98602438D02*
X98752381Y-98554819D01*
X99419048Y-98554819D02*
X100038095Y-98554819D01*
X100038095Y-98554819D02*
X99704762Y-98935771D01*
X99704762Y-98935771D02*
X99847619Y-98935771D01*
X99847619Y-98935771D02*
X99942857Y-98983390D01*
X99942857Y-98983390D02*
X99990476Y-99031009D01*
X99990476Y-99031009D02*
X100038095Y-99126247D01*
X100038095Y-99126247D02*
X100038095Y-99364342D01*
X100038095Y-99364342D02*
X99990476Y-99459580D01*
X99990476Y-99459580D02*
X99942857Y-99507200D01*
X99942857Y-99507200D02*
X99847619Y-99554819D01*
X99847619Y-99554819D02*
X99561905Y-99554819D01*
X99561905Y-99554819D02*
X99466667Y-99507200D01*
X99466667Y-99507200D02*
X99419048Y-99459580D01*
X99854819Y-102259857D02*
X99378628Y-102593190D01*
X99854819Y-102831285D02*
X98854819Y-102831285D01*
X98854819Y-102831285D02*
X98854819Y-102450333D01*
X98854819Y-102450333D02*
X98902438Y-102355095D01*
X98902438Y-102355095D02*
X98950057Y-102307476D01*
X98950057Y-102307476D02*
X99045295Y-102259857D01*
X99045295Y-102259857D02*
X99188152Y-102259857D01*
X99188152Y-102259857D02*
X99283390Y-102307476D01*
X99283390Y-102307476D02*
X99331009Y-102355095D01*
X99331009Y-102355095D02*
X99378628Y-102450333D01*
X99378628Y-102450333D02*
X99378628Y-102831285D01*
X99854819Y-101783666D02*
X99854819Y-101593190D01*
X99854819Y-101593190D02*
X99807200Y-101497952D01*
X99807200Y-101497952D02*
X99759580Y-101450333D01*
X99759580Y-101450333D02*
X99616723Y-101355095D01*
X99616723Y-101355095D02*
X99426247Y-101307476D01*
X99426247Y-101307476D02*
X99045295Y-101307476D01*
X99045295Y-101307476D02*
X98950057Y-101355095D01*
X98950057Y-101355095D02*
X98902438Y-101402714D01*
X98902438Y-101402714D02*
X98854819Y-101497952D01*
X98854819Y-101497952D02*
X98854819Y-101688428D01*
X98854819Y-101688428D02*
X98902438Y-101783666D01*
X98902438Y-101783666D02*
X98950057Y-101831285D01*
X98950057Y-101831285D02*
X99045295Y-101878904D01*
X99045295Y-101878904D02*
X99283390Y-101878904D01*
X99283390Y-101878904D02*
X99378628Y-101831285D01*
X99378628Y-101831285D02*
X99426247Y-101783666D01*
X99426247Y-101783666D02*
X99473866Y-101688428D01*
X99473866Y-101688428D02*
X99473866Y-101497952D01*
X99473866Y-101497952D02*
X99426247Y-101402714D01*
X99426247Y-101402714D02*
X99378628Y-101355095D01*
X99378628Y-101355095D02*
X99283390Y-101307476D01*
X98854819Y-100402714D02*
X98854819Y-100878904D01*
X98854819Y-100878904D02*
X99331009Y-100926523D01*
X99331009Y-100926523D02*
X99283390Y-100878904D01*
X99283390Y-100878904D02*
X99235771Y-100783666D01*
X99235771Y-100783666D02*
X99235771Y-100545571D01*
X99235771Y-100545571D02*
X99283390Y-100450333D01*
X99283390Y-100450333D02*
X99331009Y-100402714D01*
X99331009Y-100402714D02*
X99426247Y-100355095D01*
X99426247Y-100355095D02*
X99664342Y-100355095D01*
X99664342Y-100355095D02*
X99759580Y-100402714D01*
X99759580Y-100402714D02*
X99807200Y-100450333D01*
X99807200Y-100450333D02*
X99854819Y-100545571D01*
X99854819Y-100545571D02*
X99854819Y-100783666D01*
X99854819Y-100783666D02*
X99807200Y-100878904D01*
X99807200Y-100878904D02*
X99759580Y-100926523D01*
X182038095Y-93454819D02*
X182038095Y-94264342D01*
X182038095Y-94264342D02*
X182085714Y-94359580D01*
X182085714Y-94359580D02*
X182133333Y-94407200D01*
X182133333Y-94407200D02*
X182228571Y-94454819D01*
X182228571Y-94454819D02*
X182419047Y-94454819D01*
X182419047Y-94454819D02*
X182514285Y-94407200D01*
X182514285Y-94407200D02*
X182561904Y-94359580D01*
X182561904Y-94359580D02*
X182609523Y-94264342D01*
X182609523Y-94264342D02*
X182609523Y-93454819D01*
X183038095Y-93550057D02*
X183085714Y-93502438D01*
X183085714Y-93502438D02*
X183180952Y-93454819D01*
X183180952Y-93454819D02*
X183419047Y-93454819D01*
X183419047Y-93454819D02*
X183514285Y-93502438D01*
X183514285Y-93502438D02*
X183561904Y-93550057D01*
X183561904Y-93550057D02*
X183609523Y-93645295D01*
X183609523Y-93645295D02*
X183609523Y-93740533D01*
X183609523Y-93740533D02*
X183561904Y-93883390D01*
X183561904Y-93883390D02*
X182990476Y-94454819D01*
X182990476Y-94454819D02*
X183609523Y-94454819D01*
X155128523Y-93284580D02*
X155080904Y-93332200D01*
X155080904Y-93332200D02*
X154938047Y-93379819D01*
X154938047Y-93379819D02*
X154842809Y-93379819D01*
X154842809Y-93379819D02*
X154699952Y-93332200D01*
X154699952Y-93332200D02*
X154604714Y-93236961D01*
X154604714Y-93236961D02*
X154557095Y-93141723D01*
X154557095Y-93141723D02*
X154509476Y-92951247D01*
X154509476Y-92951247D02*
X154509476Y-92808390D01*
X154509476Y-92808390D02*
X154557095Y-92617914D01*
X154557095Y-92617914D02*
X154604714Y-92522676D01*
X154604714Y-92522676D02*
X154699952Y-92427438D01*
X154699952Y-92427438D02*
X154842809Y-92379819D01*
X154842809Y-92379819D02*
X154938047Y-92379819D01*
X154938047Y-92379819D02*
X155080904Y-92427438D01*
X155080904Y-92427438D02*
X155128523Y-92475057D01*
X155557095Y-92379819D02*
X155557095Y-93189342D01*
X155557095Y-93189342D02*
X155604714Y-93284580D01*
X155604714Y-93284580D02*
X155652333Y-93332200D01*
X155652333Y-93332200D02*
X155747571Y-93379819D01*
X155747571Y-93379819D02*
X155938047Y-93379819D01*
X155938047Y-93379819D02*
X156033285Y-93332200D01*
X156033285Y-93332200D02*
X156080904Y-93284580D01*
X156080904Y-93284580D02*
X156128523Y-93189342D01*
X156128523Y-93189342D02*
X156128523Y-92379819D01*
X157128523Y-93379819D02*
X156557095Y-93379819D01*
X156842809Y-93379819D02*
X156842809Y-92379819D01*
X156842809Y-92379819D02*
X156747571Y-92522676D01*
X156747571Y-92522676D02*
X156652333Y-92617914D01*
X156652333Y-92617914D02*
X156557095Y-92665533D01*
X114838095Y-104754819D02*
X114838095Y-105564342D01*
X114838095Y-105564342D02*
X114885714Y-105659580D01*
X114885714Y-105659580D02*
X114933333Y-105707200D01*
X114933333Y-105707200D02*
X115028571Y-105754819D01*
X115028571Y-105754819D02*
X115219047Y-105754819D01*
X115219047Y-105754819D02*
X115314285Y-105707200D01*
X115314285Y-105707200D02*
X115361904Y-105659580D01*
X115361904Y-105659580D02*
X115409523Y-105564342D01*
X115409523Y-105564342D02*
X115409523Y-104754819D01*
X116028571Y-105183390D02*
X115933333Y-105135771D01*
X115933333Y-105135771D02*
X115885714Y-105088152D01*
X115885714Y-105088152D02*
X115838095Y-104992914D01*
X115838095Y-104992914D02*
X115838095Y-104945295D01*
X115838095Y-104945295D02*
X115885714Y-104850057D01*
X115885714Y-104850057D02*
X115933333Y-104802438D01*
X115933333Y-104802438D02*
X116028571Y-104754819D01*
X116028571Y-104754819D02*
X116219047Y-104754819D01*
X116219047Y-104754819D02*
X116314285Y-104802438D01*
X116314285Y-104802438D02*
X116361904Y-104850057D01*
X116361904Y-104850057D02*
X116409523Y-104945295D01*
X116409523Y-104945295D02*
X116409523Y-104992914D01*
X116409523Y-104992914D02*
X116361904Y-105088152D01*
X116361904Y-105088152D02*
X116314285Y-105135771D01*
X116314285Y-105135771D02*
X116219047Y-105183390D01*
X116219047Y-105183390D02*
X116028571Y-105183390D01*
X116028571Y-105183390D02*
X115933333Y-105231009D01*
X115933333Y-105231009D02*
X115885714Y-105278628D01*
X115885714Y-105278628D02*
X115838095Y-105373866D01*
X115838095Y-105373866D02*
X115838095Y-105564342D01*
X115838095Y-105564342D02*
X115885714Y-105659580D01*
X115885714Y-105659580D02*
X115933333Y-105707200D01*
X115933333Y-105707200D02*
X116028571Y-105754819D01*
X116028571Y-105754819D02*
X116219047Y-105754819D01*
X116219047Y-105754819D02*
X116314285Y-105707200D01*
X116314285Y-105707200D02*
X116361904Y-105659580D01*
X116361904Y-105659580D02*
X116409523Y-105564342D01*
X116409523Y-105564342D02*
X116409523Y-105373866D01*
X116409523Y-105373866D02*
X116361904Y-105278628D01*
X116361904Y-105278628D02*
X116314285Y-105231009D01*
X116314285Y-105231009D02*
X116219047Y-105183390D01*
X137983523Y-93284580D02*
X137935904Y-93332200D01*
X137935904Y-93332200D02*
X137793047Y-93379819D01*
X137793047Y-93379819D02*
X137697809Y-93379819D01*
X137697809Y-93379819D02*
X137554952Y-93332200D01*
X137554952Y-93332200D02*
X137459714Y-93236961D01*
X137459714Y-93236961D02*
X137412095Y-93141723D01*
X137412095Y-93141723D02*
X137364476Y-92951247D01*
X137364476Y-92951247D02*
X137364476Y-92808390D01*
X137364476Y-92808390D02*
X137412095Y-92617914D01*
X137412095Y-92617914D02*
X137459714Y-92522676D01*
X137459714Y-92522676D02*
X137554952Y-92427438D01*
X137554952Y-92427438D02*
X137697809Y-92379819D01*
X137697809Y-92379819D02*
X137793047Y-92379819D01*
X137793047Y-92379819D02*
X137935904Y-92427438D01*
X137935904Y-92427438D02*
X137983523Y-92475057D01*
X138412095Y-92379819D02*
X138412095Y-93189342D01*
X138412095Y-93189342D02*
X138459714Y-93284580D01*
X138459714Y-93284580D02*
X138507333Y-93332200D01*
X138507333Y-93332200D02*
X138602571Y-93379819D01*
X138602571Y-93379819D02*
X138793047Y-93379819D01*
X138793047Y-93379819D02*
X138888285Y-93332200D01*
X138888285Y-93332200D02*
X138935904Y-93284580D01*
X138935904Y-93284580D02*
X138983523Y-93189342D01*
X138983523Y-93189342D02*
X138983523Y-92379819D01*
X139364476Y-92379819D02*
X139983523Y-92379819D01*
X139983523Y-92379819D02*
X139650190Y-92760771D01*
X139650190Y-92760771D02*
X139793047Y-92760771D01*
X139793047Y-92760771D02*
X139888285Y-92808390D01*
X139888285Y-92808390D02*
X139935904Y-92856009D01*
X139935904Y-92856009D02*
X139983523Y-92951247D01*
X139983523Y-92951247D02*
X139983523Y-93189342D01*
X139983523Y-93189342D02*
X139935904Y-93284580D01*
X139935904Y-93284580D02*
X139888285Y-93332200D01*
X139888285Y-93332200D02*
X139793047Y-93379819D01*
X139793047Y-93379819D02*
X139507333Y-93379819D01*
X139507333Y-93379819D02*
X139412095Y-93332200D01*
X139412095Y-93332200D02*
X139364476Y-93284580D01*
X107533333Y-99759580D02*
X107485714Y-99807200D01*
X107485714Y-99807200D02*
X107342857Y-99854819D01*
X107342857Y-99854819D02*
X107247619Y-99854819D01*
X107247619Y-99854819D02*
X107104762Y-99807200D01*
X107104762Y-99807200D02*
X107009524Y-99711961D01*
X107009524Y-99711961D02*
X106961905Y-99616723D01*
X106961905Y-99616723D02*
X106914286Y-99426247D01*
X106914286Y-99426247D02*
X106914286Y-99283390D01*
X106914286Y-99283390D02*
X106961905Y-99092914D01*
X106961905Y-99092914D02*
X107009524Y-98997676D01*
X107009524Y-98997676D02*
X107104762Y-98902438D01*
X107104762Y-98902438D02*
X107247619Y-98854819D01*
X107247619Y-98854819D02*
X107342857Y-98854819D01*
X107342857Y-98854819D02*
X107485714Y-98902438D01*
X107485714Y-98902438D02*
X107533333Y-98950057D01*
X108009524Y-99854819D02*
X108200000Y-99854819D01*
X108200000Y-99854819D02*
X108295238Y-99807200D01*
X108295238Y-99807200D02*
X108342857Y-99759580D01*
X108342857Y-99759580D02*
X108438095Y-99616723D01*
X108438095Y-99616723D02*
X108485714Y-99426247D01*
X108485714Y-99426247D02*
X108485714Y-99045295D01*
X108485714Y-99045295D02*
X108438095Y-98950057D01*
X108438095Y-98950057D02*
X108390476Y-98902438D01*
X108390476Y-98902438D02*
X108295238Y-98854819D01*
X108295238Y-98854819D02*
X108104762Y-98854819D01*
X108104762Y-98854819D02*
X108009524Y-98902438D01*
X108009524Y-98902438D02*
X107961905Y-98950057D01*
X107961905Y-98950057D02*
X107914286Y-99045295D01*
X107914286Y-99045295D02*
X107914286Y-99283390D01*
X107914286Y-99283390D02*
X107961905Y-99378628D01*
X107961905Y-99378628D02*
X108009524Y-99426247D01*
X108009524Y-99426247D02*
X108104762Y-99473866D01*
X108104762Y-99473866D02*
X108295238Y-99473866D01*
X108295238Y-99473866D02*
X108390476Y-99426247D01*
X108390476Y-99426247D02*
X108438095Y-99378628D01*
X108438095Y-99378628D02*
X108485714Y-99283390D01*
X137338095Y-93854819D02*
X137338095Y-94664342D01*
X137338095Y-94664342D02*
X137385714Y-94759580D01*
X137385714Y-94759580D02*
X137433333Y-94807200D01*
X137433333Y-94807200D02*
X137528571Y-94854819D01*
X137528571Y-94854819D02*
X137719047Y-94854819D01*
X137719047Y-94854819D02*
X137814285Y-94807200D01*
X137814285Y-94807200D02*
X137861904Y-94759580D01*
X137861904Y-94759580D02*
X137909523Y-94664342D01*
X137909523Y-94664342D02*
X137909523Y-93854819D01*
X138290476Y-93854819D02*
X138909523Y-93854819D01*
X138909523Y-93854819D02*
X138576190Y-94235771D01*
X138576190Y-94235771D02*
X138719047Y-94235771D01*
X138719047Y-94235771D02*
X138814285Y-94283390D01*
X138814285Y-94283390D02*
X138861904Y-94331009D01*
X138861904Y-94331009D02*
X138909523Y-94426247D01*
X138909523Y-94426247D02*
X138909523Y-94664342D01*
X138909523Y-94664342D02*
X138861904Y-94759580D01*
X138861904Y-94759580D02*
X138814285Y-94807200D01*
X138814285Y-94807200D02*
X138719047Y-94854819D01*
X138719047Y-94854819D02*
X138433333Y-94854819D01*
X138433333Y-94854819D02*
X138338095Y-94807200D01*
X138338095Y-94807200D02*
X138290476Y-94759580D01*
X98754819Y-109642857D02*
X98278628Y-109976190D01*
X98754819Y-110214285D02*
X97754819Y-110214285D01*
X97754819Y-110214285D02*
X97754819Y-109833333D01*
X97754819Y-109833333D02*
X97802438Y-109738095D01*
X97802438Y-109738095D02*
X97850057Y-109690476D01*
X97850057Y-109690476D02*
X97945295Y-109642857D01*
X97945295Y-109642857D02*
X98088152Y-109642857D01*
X98088152Y-109642857D02*
X98183390Y-109690476D01*
X98183390Y-109690476D02*
X98231009Y-109738095D01*
X98231009Y-109738095D02*
X98278628Y-109833333D01*
X98278628Y-109833333D02*
X98278628Y-110214285D01*
X98754819Y-109166666D02*
X98754819Y-108976190D01*
X98754819Y-108976190D02*
X98707200Y-108880952D01*
X98707200Y-108880952D02*
X98659580Y-108833333D01*
X98659580Y-108833333D02*
X98516723Y-108738095D01*
X98516723Y-108738095D02*
X98326247Y-108690476D01*
X98326247Y-108690476D02*
X97945295Y-108690476D01*
X97945295Y-108690476D02*
X97850057Y-108738095D01*
X97850057Y-108738095D02*
X97802438Y-108785714D01*
X97802438Y-108785714D02*
X97754819Y-108880952D01*
X97754819Y-108880952D02*
X97754819Y-109071428D01*
X97754819Y-109071428D02*
X97802438Y-109166666D01*
X97802438Y-109166666D02*
X97850057Y-109214285D01*
X97850057Y-109214285D02*
X97945295Y-109261904D01*
X97945295Y-109261904D02*
X98183390Y-109261904D01*
X98183390Y-109261904D02*
X98278628Y-109214285D01*
X98278628Y-109214285D02*
X98326247Y-109166666D01*
X98326247Y-109166666D02*
X98373866Y-109071428D01*
X98373866Y-109071428D02*
X98373866Y-108880952D01*
X98373866Y-108880952D02*
X98326247Y-108785714D01*
X98326247Y-108785714D02*
X98278628Y-108738095D01*
X98278628Y-108738095D02*
X98183390Y-108690476D01*
X97754819Y-108357142D02*
X97754819Y-107690476D01*
X97754819Y-107690476D02*
X98754819Y-108119047D01*
X137983523Y-112017080D02*
X137935904Y-112064700D01*
X137935904Y-112064700D02*
X137793047Y-112112319D01*
X137793047Y-112112319D02*
X137697809Y-112112319D01*
X137697809Y-112112319D02*
X137554952Y-112064700D01*
X137554952Y-112064700D02*
X137459714Y-111969461D01*
X137459714Y-111969461D02*
X137412095Y-111874223D01*
X137412095Y-111874223D02*
X137364476Y-111683747D01*
X137364476Y-111683747D02*
X137364476Y-111540890D01*
X137364476Y-111540890D02*
X137412095Y-111350414D01*
X137412095Y-111350414D02*
X137459714Y-111255176D01*
X137459714Y-111255176D02*
X137554952Y-111159938D01*
X137554952Y-111159938D02*
X137697809Y-111112319D01*
X137697809Y-111112319D02*
X137793047Y-111112319D01*
X137793047Y-111112319D02*
X137935904Y-111159938D01*
X137935904Y-111159938D02*
X137983523Y-111207557D01*
X138412095Y-111112319D02*
X138412095Y-111921842D01*
X138412095Y-111921842D02*
X138459714Y-112017080D01*
X138459714Y-112017080D02*
X138507333Y-112064700D01*
X138507333Y-112064700D02*
X138602571Y-112112319D01*
X138602571Y-112112319D02*
X138793047Y-112112319D01*
X138793047Y-112112319D02*
X138888285Y-112064700D01*
X138888285Y-112064700D02*
X138935904Y-112017080D01*
X138935904Y-112017080D02*
X138983523Y-111921842D01*
X138983523Y-111921842D02*
X138983523Y-111112319D01*
X139935904Y-111112319D02*
X139459714Y-111112319D01*
X139459714Y-111112319D02*
X139412095Y-111588509D01*
X139412095Y-111588509D02*
X139459714Y-111540890D01*
X139459714Y-111540890D02*
X139554952Y-111493271D01*
X139554952Y-111493271D02*
X139793047Y-111493271D01*
X139793047Y-111493271D02*
X139888285Y-111540890D01*
X139888285Y-111540890D02*
X139935904Y-111588509D01*
X139935904Y-111588509D02*
X139983523Y-111683747D01*
X139983523Y-111683747D02*
X139983523Y-111921842D01*
X139983523Y-111921842D02*
X139935904Y-112017080D01*
X139935904Y-112017080D02*
X139888285Y-112064700D01*
X139888285Y-112064700D02*
X139793047Y-112112319D01*
X139793047Y-112112319D02*
X139554952Y-112112319D01*
X139554952Y-112112319D02*
X139459714Y-112064700D01*
X139459714Y-112064700D02*
X139412095Y-112017080D01*
X111440080Y-106667476D02*
X111487700Y-106715095D01*
X111487700Y-106715095D02*
X111535319Y-106857952D01*
X111535319Y-106857952D02*
X111535319Y-106953190D01*
X111535319Y-106953190D02*
X111487700Y-107096047D01*
X111487700Y-107096047D02*
X111392461Y-107191285D01*
X111392461Y-107191285D02*
X111297223Y-107238904D01*
X111297223Y-107238904D02*
X111106747Y-107286523D01*
X111106747Y-107286523D02*
X110963890Y-107286523D01*
X110963890Y-107286523D02*
X110773414Y-107238904D01*
X110773414Y-107238904D02*
X110678176Y-107191285D01*
X110678176Y-107191285D02*
X110582938Y-107096047D01*
X110582938Y-107096047D02*
X110535319Y-106953190D01*
X110535319Y-106953190D02*
X110535319Y-106857952D01*
X110535319Y-106857952D02*
X110582938Y-106715095D01*
X110582938Y-106715095D02*
X110630557Y-106667476D01*
X110535319Y-106238904D02*
X111344842Y-106238904D01*
X111344842Y-106238904D02*
X111440080Y-106191285D01*
X111440080Y-106191285D02*
X111487700Y-106143666D01*
X111487700Y-106143666D02*
X111535319Y-106048428D01*
X111535319Y-106048428D02*
X111535319Y-105857952D01*
X111535319Y-105857952D02*
X111487700Y-105762714D01*
X111487700Y-105762714D02*
X111440080Y-105715095D01*
X111440080Y-105715095D02*
X111344842Y-105667476D01*
X111344842Y-105667476D02*
X110535319Y-105667476D01*
X110535319Y-105286523D02*
X110535319Y-104619857D01*
X110535319Y-104619857D02*
X111535319Y-105048428D01*
X154638095Y-103954819D02*
X154638095Y-104764342D01*
X154638095Y-104764342D02*
X154685714Y-104859580D01*
X154685714Y-104859580D02*
X154733333Y-104907200D01*
X154733333Y-104907200D02*
X154828571Y-104954819D01*
X154828571Y-104954819D02*
X155019047Y-104954819D01*
X155019047Y-104954819D02*
X155114285Y-104907200D01*
X155114285Y-104907200D02*
X155161904Y-104859580D01*
X155161904Y-104859580D02*
X155209523Y-104764342D01*
X155209523Y-104764342D02*
X155209523Y-103954819D01*
X156114285Y-103954819D02*
X155923809Y-103954819D01*
X155923809Y-103954819D02*
X155828571Y-104002438D01*
X155828571Y-104002438D02*
X155780952Y-104050057D01*
X155780952Y-104050057D02*
X155685714Y-104192914D01*
X155685714Y-104192914D02*
X155638095Y-104383390D01*
X155638095Y-104383390D02*
X155638095Y-104764342D01*
X155638095Y-104764342D02*
X155685714Y-104859580D01*
X155685714Y-104859580D02*
X155733333Y-104907200D01*
X155733333Y-104907200D02*
X155828571Y-104954819D01*
X155828571Y-104954819D02*
X156019047Y-104954819D01*
X156019047Y-104954819D02*
X156114285Y-104907200D01*
X156114285Y-104907200D02*
X156161904Y-104859580D01*
X156161904Y-104859580D02*
X156209523Y-104764342D01*
X156209523Y-104764342D02*
X156209523Y-104526247D01*
X156209523Y-104526247D02*
X156161904Y-104431009D01*
X156161904Y-104431009D02*
X156114285Y-104383390D01*
X156114285Y-104383390D02*
X156019047Y-104335771D01*
X156019047Y-104335771D02*
X155828571Y-104335771D01*
X155828571Y-104335771D02*
X155733333Y-104383390D01*
X155733333Y-104383390D02*
X155685714Y-104431009D01*
X155685714Y-104431009D02*
X155638095Y-104526247D01*
X154238095Y-94354819D02*
X154238095Y-95164342D01*
X154238095Y-95164342D02*
X154285714Y-95259580D01*
X154285714Y-95259580D02*
X154333333Y-95307200D01*
X154333333Y-95307200D02*
X154428571Y-95354819D01*
X154428571Y-95354819D02*
X154619047Y-95354819D01*
X154619047Y-95354819D02*
X154714285Y-95307200D01*
X154714285Y-95307200D02*
X154761904Y-95259580D01*
X154761904Y-95259580D02*
X154809523Y-95164342D01*
X154809523Y-95164342D02*
X154809523Y-94354819D01*
X155809523Y-95354819D02*
X155238095Y-95354819D01*
X155523809Y-95354819D02*
X155523809Y-94354819D01*
X155523809Y-94354819D02*
X155428571Y-94497676D01*
X155428571Y-94497676D02*
X155333333Y-94592914D01*
X155333333Y-94592914D02*
X155238095Y-94640533D01*
D12*
%TO.C,R107*%
X99140500Y-104987936D02*
X99140500Y-105442064D01*
X100610500Y-104987936D02*
X100610500Y-105442064D01*
%TO.C,CU2*%
X184020252Y-90510000D02*
X183497748Y-90510000D01*
X184020252Y-91980000D02*
X183497748Y-91980000D01*
%TO.C,R94*%
X124858000Y-102521064D02*
X124858000Y-102066936D01*
X126328000Y-102521064D02*
X126328000Y-102066936D01*
%TO.C,C7*%
X100052500Y-99865000D02*
X100052500Y-101735000D01*
X100052500Y-101735000D02*
X104137500Y-101735000D01*
X104137500Y-99865000D02*
X100052500Y-99865000D01*
%TO.C,R12*%
X120159000Y-92107064D02*
X120159000Y-91652936D01*
X121629000Y-92107064D02*
X121629000Y-91652936D01*
%TO.C,D95*%
X123069000Y-91670000D02*
X123069000Y-98970000D01*
X123069000Y-98970000D02*
X125069000Y-98970000D01*
X125069000Y-98970000D02*
X125069000Y-91670000D01*
%TO.C,R108*%
X149623000Y-108998064D02*
X149623000Y-108543936D01*
X151093000Y-108998064D02*
X151093000Y-108543936D01*
%TO.C,R109*%
X160545000Y-108998064D02*
X160545000Y-108543936D01*
X162015000Y-108998064D02*
X162015000Y-108543936D01*
D11*
%TO.C,U5*%
X136349000Y-103225000D02*
X136349000Y-103350000D01*
X136349000Y-103225000D02*
X140999000Y-103225000D01*
X136349000Y-103350000D02*
X134999000Y-103350000D01*
X136349000Y-108475000D02*
X136349000Y-108250000D01*
X136349000Y-108475000D02*
X140999000Y-108475000D01*
X140999000Y-103225000D02*
X140999000Y-103450000D01*
X140999000Y-108475000D02*
X140999000Y-108250000D01*
D12*
%TO.C,C5*%
X194160500Y-98149000D02*
X198245500Y-98149000D01*
X198245500Y-96279000D02*
X194160500Y-96279000D01*
X198245500Y-98149000D02*
X198245500Y-96279000D01*
%TO.C,J2*%
X97339000Y-88130000D02*
X97339000Y-86800000D01*
X98669000Y-88130000D02*
X97339000Y-88130000D01*
X99939000Y-85470000D02*
X199059000Y-85470000D01*
X99939000Y-88130000D02*
X99939000Y-85470000D01*
X99939000Y-88130000D02*
X199059000Y-88130000D01*
X199059000Y-88130000D02*
X199059000Y-85470000D01*
%TO.C,CU6*%
X156080252Y-109242500D02*
X155557748Y-109242500D01*
X156080252Y-110712500D02*
X155557748Y-110712500D01*
%TO.C,CU8*%
X119841500Y-105715748D02*
X119841500Y-106238252D01*
X121311500Y-105715748D02*
X121311500Y-106238252D01*
%TO.C,R93*%
X101781564Y-90598000D02*
X101327436Y-90598000D01*
X101781564Y-92068000D02*
X101327436Y-92068000D01*
D11*
%TO.C,U7*%
X102822500Y-104352000D02*
X102822500Y-104477000D01*
X102822500Y-104352000D02*
X106072500Y-104352000D01*
X102822500Y-104477000D02*
X101747500Y-104477000D01*
X102822500Y-107602000D02*
X102822500Y-107377000D01*
X102822500Y-107602000D02*
X106072500Y-107602000D01*
X106072500Y-104352000D02*
X106072500Y-104577000D01*
X106072500Y-107602000D02*
X106072500Y-107377000D01*
D12*
%TO.C,C6*%
X115514000Y-92185000D02*
X115514000Y-96270000D01*
X115514000Y-96270000D02*
X117384000Y-96270000D01*
X117384000Y-96270000D02*
X117384000Y-92185000D01*
%TO.C,CU4*%
X105715752Y-90598000D02*
X105193248Y-90598000D01*
X105715752Y-92068000D02*
X105193248Y-92068000D01*
D11*
%TO.C,U4*%
X101424000Y-93065000D02*
X101424000Y-93190000D01*
X101424000Y-93065000D02*
X106074000Y-93065000D01*
X101424000Y-93190000D02*
X100074000Y-93190000D01*
X101424000Y-98315000D02*
X101424000Y-98090000D01*
X101424000Y-98315000D02*
X106074000Y-98315000D01*
X106074000Y-93065000D02*
X106074000Y-93290000D01*
X106074000Y-98315000D02*
X106074000Y-98090000D01*
D12*
%TO.C,R11*%
X108348000Y-93430936D02*
X108348000Y-93885064D01*
X109818000Y-93430936D02*
X109818000Y-93885064D01*
%TO.C,D103*%
X97044500Y-89073000D02*
X97044500Y-96483000D01*
X99264500Y-89073000D02*
X97044500Y-89073000D01*
X99264500Y-96483000D02*
X99264500Y-89073000D01*
%TO.C,R95*%
X97165000Y-101827064D02*
X97165000Y-101372936D01*
X98635000Y-101827064D02*
X98635000Y-101372936D01*
D11*
%TO.C,U2*%
X181434000Y-93065000D02*
X181434000Y-93190000D01*
X181434000Y-93065000D02*
X186084000Y-93065000D01*
X181434000Y-93190000D02*
X180084000Y-93190000D01*
X181434000Y-98315000D02*
X181434000Y-98090000D01*
X181434000Y-98315000D02*
X186084000Y-98315000D01*
X186084000Y-93065000D02*
X186084000Y-93290000D01*
X186084000Y-98315000D02*
X186084000Y-98090000D01*
D12*
%TO.C,CU1*%
X156080252Y-90510000D02*
X155557748Y-90510000D01*
X156080252Y-91980000D02*
X155557748Y-91980000D01*
D11*
%TO.C,U8*%
X113998500Y-104352000D02*
X113998500Y-104477000D01*
X113998500Y-104352000D02*
X117248500Y-104352000D01*
X113998500Y-104477000D02*
X112923500Y-104477000D01*
X113998500Y-107602000D02*
X113998500Y-107377000D01*
X113998500Y-107602000D02*
X117248500Y-107602000D01*
X117248500Y-104352000D02*
X117248500Y-104577000D01*
X117248500Y-107602000D02*
X117248500Y-107377000D01*
D12*
%TO.C,CU3*%
X138935252Y-90510000D02*
X138412748Y-90510000D01*
X138935252Y-91980000D02*
X138412748Y-91980000D01*
%TO.C,C9*%
X105515000Y-100065000D02*
X105515000Y-101935000D01*
X105515000Y-101935000D02*
X109600000Y-101935000D01*
X109600000Y-100065000D02*
X105515000Y-100065000D01*
D11*
%TO.C,U3*%
X136349000Y-93065000D02*
X136349000Y-93190000D01*
X136349000Y-93065000D02*
X140999000Y-93065000D01*
X136349000Y-93190000D02*
X134999000Y-93190000D01*
X136349000Y-98315000D02*
X136349000Y-98090000D01*
X136349000Y-98315000D02*
X140999000Y-98315000D01*
X140999000Y-93065000D02*
X140999000Y-93290000D01*
X140999000Y-98315000D02*
X140999000Y-98090000D01*
D12*
%TO.C,R97*%
X99140500Y-108797936D02*
X99140500Y-109252064D01*
X100610500Y-108797936D02*
X100610500Y-109252064D01*
%TO.C,CU5*%
X138935252Y-109242500D02*
X138412748Y-109242500D01*
X138935252Y-110712500D02*
X138412748Y-110712500D01*
%TO.C,CU7*%
X108665500Y-105715748D02*
X108665500Y-106238252D01*
X110135500Y-105715748D02*
X110135500Y-106238252D01*
D11*
%TO.C,U6*%
X153494000Y-103225000D02*
X153494000Y-103350000D01*
X153494000Y-103225000D02*
X158144000Y-103225000D01*
X153494000Y-103350000D02*
X152144000Y-103350000D01*
X153494000Y-108475000D02*
X153494000Y-108250000D01*
X153494000Y-108475000D02*
X158144000Y-108475000D01*
X158144000Y-103225000D02*
X158144000Y-103450000D01*
X158144000Y-108475000D02*
X158144000Y-108250000D01*
%TO.C,U1*%
X153494000Y-93065000D02*
X153494000Y-93190000D01*
X153494000Y-93065000D02*
X158144000Y-93065000D01*
X153494000Y-93190000D02*
X152144000Y-93190000D01*
X153494000Y-98315000D02*
X153494000Y-98090000D01*
X153494000Y-98315000D02*
X158144000Y-98315000D01*
X158144000Y-93065000D02*
X158144000Y-93290000D01*
X158144000Y-98315000D02*
X158144000Y-98090000D01*
%TD*%
M02*
