%TF.GenerationSoftware,KiCad,Pcbnew,8.0.5*%
%TF.CreationDate,2025-02-16T00:46:45-05:00*%
%TF.ProjectId,C128A,43313238-412e-46b6-9963-61645f706362,rev?*%
%TF.SameCoordinates,Original*%
%TF.FileFunction,Legend,Bot*%
%TF.FilePolarity,Positive*%
%FSLAX46Y46*%
G04 Gerber Fmt 4.6, Leading zero omitted, Abs format (unit mm)*
G04 Created by KiCad (PCBNEW 8.0.5) date 2025-02-16 00:46:45*
%MOMM*%
%LPD*%
G01*
G04 APERTURE LIST*
%ADD10C,0.300000*%
%ADD11C,0.150000*%
%ADD12C,0.120000*%
G04 APERTURE END LIST*
D10*
X164495714Y-92890198D02*
X163995714Y-92890198D01*
X163781428Y-93675912D02*
X164495714Y-93675912D01*
X164495714Y-93675912D02*
X164495714Y-92175912D01*
X164495714Y-92175912D02*
X163781428Y-92175912D01*
X163138571Y-93675912D02*
X163138571Y-92175912D01*
X163138571Y-92175912D02*
X162281428Y-93675912D01*
X162281428Y-93675912D02*
X162281428Y-92175912D01*
X161638570Y-93247341D02*
X160924285Y-93247341D01*
X161781427Y-93675912D02*
X161281427Y-92175912D01*
X161281427Y-92175912D02*
X160781427Y-93675912D01*
X159781428Y-92890198D02*
X159567142Y-92961626D01*
X159567142Y-92961626D02*
X159495713Y-93033055D01*
X159495713Y-93033055D02*
X159424285Y-93175912D01*
X159424285Y-93175912D02*
X159424285Y-93390198D01*
X159424285Y-93390198D02*
X159495713Y-93533055D01*
X159495713Y-93533055D02*
X159567142Y-93604484D01*
X159567142Y-93604484D02*
X159709999Y-93675912D01*
X159709999Y-93675912D02*
X160281428Y-93675912D01*
X160281428Y-93675912D02*
X160281428Y-92175912D01*
X160281428Y-92175912D02*
X159781428Y-92175912D01*
X159781428Y-92175912D02*
X159638571Y-92247341D01*
X159638571Y-92247341D02*
X159567142Y-92318769D01*
X159567142Y-92318769D02*
X159495713Y-92461626D01*
X159495713Y-92461626D02*
X159495713Y-92604484D01*
X159495713Y-92604484D02*
X159567142Y-92747341D01*
X159567142Y-92747341D02*
X159638571Y-92818769D01*
X159638571Y-92818769D02*
X159781428Y-92890198D01*
X159781428Y-92890198D02*
X160281428Y-92890198D01*
X158067142Y-93675912D02*
X158781428Y-93675912D01*
X158781428Y-93675912D02*
X158781428Y-92175912D01*
X157567142Y-92890198D02*
X157067142Y-92890198D01*
X156852856Y-93675912D02*
X157567142Y-93675912D01*
X157567142Y-93675912D02*
X157567142Y-92175912D01*
X157567142Y-92175912D02*
X156852856Y-92175912D01*
X165567142Y-96019400D02*
X165352857Y-96090828D01*
X165352857Y-96090828D02*
X164995714Y-96090828D01*
X164995714Y-96090828D02*
X164852857Y-96019400D01*
X164852857Y-96019400D02*
X164781428Y-95947971D01*
X164781428Y-95947971D02*
X164709999Y-95805114D01*
X164709999Y-95805114D02*
X164709999Y-95662257D01*
X164709999Y-95662257D02*
X164781428Y-95519400D01*
X164781428Y-95519400D02*
X164852857Y-95447971D01*
X164852857Y-95447971D02*
X164995714Y-95376542D01*
X164995714Y-95376542D02*
X165281428Y-95305114D01*
X165281428Y-95305114D02*
X165424285Y-95233685D01*
X165424285Y-95233685D02*
X165495714Y-95162257D01*
X165495714Y-95162257D02*
X165567142Y-95019400D01*
X165567142Y-95019400D02*
X165567142Y-94876542D01*
X165567142Y-94876542D02*
X165495714Y-94733685D01*
X165495714Y-94733685D02*
X165424285Y-94662257D01*
X165424285Y-94662257D02*
X165281428Y-94590828D01*
X165281428Y-94590828D02*
X164924285Y-94590828D01*
X164924285Y-94590828D02*
X164709999Y-94662257D01*
X164067143Y-96090828D02*
X164067143Y-94590828D01*
X163424286Y-96090828D02*
X163424286Y-95305114D01*
X163424286Y-95305114D02*
X163495714Y-95162257D01*
X163495714Y-95162257D02*
X163638571Y-95090828D01*
X163638571Y-95090828D02*
X163852857Y-95090828D01*
X163852857Y-95090828D02*
X163995714Y-95162257D01*
X163995714Y-95162257D02*
X164067143Y-95233685D01*
X162710000Y-96090828D02*
X162710000Y-95090828D01*
X162710000Y-94590828D02*
X162781428Y-94662257D01*
X162781428Y-94662257D02*
X162710000Y-94733685D01*
X162710000Y-94733685D02*
X162638571Y-94662257D01*
X162638571Y-94662257D02*
X162710000Y-94590828D01*
X162710000Y-94590828D02*
X162710000Y-94733685D01*
X162209999Y-95090828D02*
X161638571Y-95090828D01*
X161995714Y-96090828D02*
X161995714Y-94805114D01*
X161995714Y-94805114D02*
X161924285Y-94662257D01*
X161924285Y-94662257D02*
X161781428Y-94590828D01*
X161781428Y-94590828D02*
X161638571Y-94590828D01*
X161352856Y-95090828D02*
X160781428Y-95090828D01*
X161138571Y-94590828D02*
X161138571Y-95876542D01*
X161138571Y-95876542D02*
X161067142Y-96019400D01*
X161067142Y-96019400D02*
X160924285Y-96090828D01*
X160924285Y-96090828D02*
X160781428Y-96090828D01*
X159567142Y-96090828D02*
X160281428Y-96090828D01*
X160281428Y-96090828D02*
X160281428Y-94590828D01*
X158852856Y-96090828D02*
X158995713Y-96019400D01*
X158995713Y-96019400D02*
X159067142Y-95947971D01*
X159067142Y-95947971D02*
X159138570Y-95805114D01*
X159138570Y-95805114D02*
X159138570Y-95376542D01*
X159138570Y-95376542D02*
X159067142Y-95233685D01*
X159067142Y-95233685D02*
X158995713Y-95162257D01*
X158995713Y-95162257D02*
X158852856Y-95090828D01*
X158852856Y-95090828D02*
X158638570Y-95090828D01*
X158638570Y-95090828D02*
X158495713Y-95162257D01*
X158495713Y-95162257D02*
X158424285Y-95233685D01*
X158424285Y-95233685D02*
X158352856Y-95376542D01*
X158352856Y-95376542D02*
X158352856Y-95805114D01*
X158352856Y-95805114D02*
X158424285Y-95947971D01*
X158424285Y-95947971D02*
X158495713Y-96019400D01*
X158495713Y-96019400D02*
X158638570Y-96090828D01*
X158638570Y-96090828D02*
X158852856Y-96090828D01*
X157067142Y-96019400D02*
X157209999Y-96090828D01*
X157209999Y-96090828D02*
X157495713Y-96090828D01*
X157495713Y-96090828D02*
X157638570Y-96019400D01*
X157638570Y-96019400D02*
X157709999Y-95947971D01*
X157709999Y-95947971D02*
X157781427Y-95805114D01*
X157781427Y-95805114D02*
X157781427Y-95376542D01*
X157781427Y-95376542D02*
X157709999Y-95233685D01*
X157709999Y-95233685D02*
X157638570Y-95162257D01*
X157638570Y-95162257D02*
X157495713Y-95090828D01*
X157495713Y-95090828D02*
X157209999Y-95090828D01*
X157209999Y-95090828D02*
X157067142Y-95162257D01*
X156424285Y-96090828D02*
X156424285Y-94590828D01*
X156281428Y-95519400D02*
X155852856Y-96090828D01*
X155852856Y-95090828D02*
X156424285Y-95662257D01*
X181755714Y-92770198D02*
X181255714Y-92770198D01*
X181041428Y-93555912D02*
X181755714Y-93555912D01*
X181755714Y-93555912D02*
X181755714Y-92055912D01*
X181755714Y-92055912D02*
X181041428Y-92055912D01*
X180398571Y-93555912D02*
X180398571Y-92055912D01*
X180398571Y-92055912D02*
X179541428Y-93555912D01*
X179541428Y-93555912D02*
X179541428Y-92055912D01*
X178898570Y-93127341D02*
X178184285Y-93127341D01*
X179041427Y-93555912D02*
X178541427Y-92055912D01*
X178541427Y-92055912D02*
X178041427Y-93555912D01*
X177041428Y-92770198D02*
X176827142Y-92841626D01*
X176827142Y-92841626D02*
X176755713Y-92913055D01*
X176755713Y-92913055D02*
X176684285Y-93055912D01*
X176684285Y-93055912D02*
X176684285Y-93270198D01*
X176684285Y-93270198D02*
X176755713Y-93413055D01*
X176755713Y-93413055D02*
X176827142Y-93484484D01*
X176827142Y-93484484D02*
X176969999Y-93555912D01*
X176969999Y-93555912D02*
X177541428Y-93555912D01*
X177541428Y-93555912D02*
X177541428Y-92055912D01*
X177541428Y-92055912D02*
X177041428Y-92055912D01*
X177041428Y-92055912D02*
X176898571Y-92127341D01*
X176898571Y-92127341D02*
X176827142Y-92198769D01*
X176827142Y-92198769D02*
X176755713Y-92341626D01*
X176755713Y-92341626D02*
X176755713Y-92484484D01*
X176755713Y-92484484D02*
X176827142Y-92627341D01*
X176827142Y-92627341D02*
X176898571Y-92698769D01*
X176898571Y-92698769D02*
X177041428Y-92770198D01*
X177041428Y-92770198D02*
X177541428Y-92770198D01*
X175327142Y-93555912D02*
X176041428Y-93555912D01*
X176041428Y-93555912D02*
X176041428Y-92055912D01*
X174827142Y-92770198D02*
X174327142Y-92770198D01*
X174112856Y-93555912D02*
X174827142Y-93555912D01*
X174827142Y-93555912D02*
X174827142Y-92055912D01*
X174827142Y-92055912D02*
X174112856Y-92055912D01*
X182005714Y-95827971D02*
X182077142Y-95899400D01*
X182077142Y-95899400D02*
X182291428Y-95970828D01*
X182291428Y-95970828D02*
X182434285Y-95970828D01*
X182434285Y-95970828D02*
X182648571Y-95899400D01*
X182648571Y-95899400D02*
X182791428Y-95756542D01*
X182791428Y-95756542D02*
X182862857Y-95613685D01*
X182862857Y-95613685D02*
X182934285Y-95327971D01*
X182934285Y-95327971D02*
X182934285Y-95113685D01*
X182934285Y-95113685D02*
X182862857Y-94827971D01*
X182862857Y-94827971D02*
X182791428Y-94685114D01*
X182791428Y-94685114D02*
X182648571Y-94542257D01*
X182648571Y-94542257D02*
X182434285Y-94470828D01*
X182434285Y-94470828D02*
X182291428Y-94470828D01*
X182291428Y-94470828D02*
X182077142Y-94542257D01*
X182077142Y-94542257D02*
X182005714Y-94613685D01*
X180720000Y-95970828D02*
X180720000Y-95185114D01*
X180720000Y-95185114D02*
X180791428Y-95042257D01*
X180791428Y-95042257D02*
X180934285Y-94970828D01*
X180934285Y-94970828D02*
X181220000Y-94970828D01*
X181220000Y-94970828D02*
X181362857Y-95042257D01*
X180720000Y-95899400D02*
X180862857Y-95970828D01*
X180862857Y-95970828D02*
X181220000Y-95970828D01*
X181220000Y-95970828D02*
X181362857Y-95899400D01*
X181362857Y-95899400D02*
X181434285Y-95756542D01*
X181434285Y-95756542D02*
X181434285Y-95613685D01*
X181434285Y-95613685D02*
X181362857Y-95470828D01*
X181362857Y-95470828D02*
X181220000Y-95399400D01*
X181220000Y-95399400D02*
X180862857Y-95399400D01*
X180862857Y-95399400D02*
X180720000Y-95327971D01*
X180005714Y-94970828D02*
X180005714Y-96470828D01*
X180005714Y-95042257D02*
X179862857Y-94970828D01*
X179862857Y-94970828D02*
X179577142Y-94970828D01*
X179577142Y-94970828D02*
X179434285Y-95042257D01*
X179434285Y-95042257D02*
X179362857Y-95113685D01*
X179362857Y-95113685D02*
X179291428Y-95256542D01*
X179291428Y-95256542D02*
X179291428Y-95685114D01*
X179291428Y-95685114D02*
X179362857Y-95827971D01*
X179362857Y-95827971D02*
X179434285Y-95899400D01*
X179434285Y-95899400D02*
X179577142Y-95970828D01*
X179577142Y-95970828D02*
X179862857Y-95970828D01*
X179862857Y-95970828D02*
X180005714Y-95899400D01*
X178719999Y-95899400D02*
X178577142Y-95970828D01*
X178577142Y-95970828D02*
X178291428Y-95970828D01*
X178291428Y-95970828D02*
X178148571Y-95899400D01*
X178148571Y-95899400D02*
X178077142Y-95756542D01*
X178077142Y-95756542D02*
X178077142Y-95685114D01*
X178077142Y-95685114D02*
X178148571Y-95542257D01*
X178148571Y-95542257D02*
X178291428Y-95470828D01*
X178291428Y-95470828D02*
X178505714Y-95470828D01*
X178505714Y-95470828D02*
X178648571Y-95399400D01*
X178648571Y-95399400D02*
X178719999Y-95256542D01*
X178719999Y-95256542D02*
X178719999Y-95185114D01*
X178719999Y-95185114D02*
X178648571Y-95042257D01*
X178648571Y-95042257D02*
X178505714Y-94970828D01*
X178505714Y-94970828D02*
X178291428Y-94970828D01*
X178291428Y-94970828D02*
X178148571Y-95042257D01*
X176719999Y-95970828D02*
X177434285Y-95970828D01*
X177434285Y-95970828D02*
X177434285Y-94470828D01*
X176005713Y-95970828D02*
X176148570Y-95899400D01*
X176148570Y-95899400D02*
X176219999Y-95827971D01*
X176219999Y-95827971D02*
X176291427Y-95685114D01*
X176291427Y-95685114D02*
X176291427Y-95256542D01*
X176291427Y-95256542D02*
X176219999Y-95113685D01*
X176219999Y-95113685D02*
X176148570Y-95042257D01*
X176148570Y-95042257D02*
X176005713Y-94970828D01*
X176005713Y-94970828D02*
X175791427Y-94970828D01*
X175791427Y-94970828D02*
X175648570Y-95042257D01*
X175648570Y-95042257D02*
X175577142Y-95113685D01*
X175577142Y-95113685D02*
X175505713Y-95256542D01*
X175505713Y-95256542D02*
X175505713Y-95685114D01*
X175505713Y-95685114D02*
X175577142Y-95827971D01*
X175577142Y-95827971D02*
X175648570Y-95899400D01*
X175648570Y-95899400D02*
X175791427Y-95970828D01*
X175791427Y-95970828D02*
X176005713Y-95970828D01*
X174219999Y-95899400D02*
X174362856Y-95970828D01*
X174362856Y-95970828D02*
X174648570Y-95970828D01*
X174648570Y-95970828D02*
X174791427Y-95899400D01*
X174791427Y-95899400D02*
X174862856Y-95827971D01*
X174862856Y-95827971D02*
X174934284Y-95685114D01*
X174934284Y-95685114D02*
X174934284Y-95256542D01*
X174934284Y-95256542D02*
X174862856Y-95113685D01*
X174862856Y-95113685D02*
X174791427Y-95042257D01*
X174791427Y-95042257D02*
X174648570Y-94970828D01*
X174648570Y-94970828D02*
X174362856Y-94970828D01*
X174362856Y-94970828D02*
X174219999Y-95042257D01*
X173577142Y-95970828D02*
X173577142Y-94470828D01*
X173434285Y-95399400D02*
X173005713Y-95970828D01*
X173005713Y-94970828D02*
X173577142Y-95542257D01*
D11*
X179023333Y-88264819D02*
X179023333Y-88979104D01*
X179023333Y-88979104D02*
X179070952Y-89121961D01*
X179070952Y-89121961D02*
X179166190Y-89217200D01*
X179166190Y-89217200D02*
X179309047Y-89264819D01*
X179309047Y-89264819D02*
X179404285Y-89264819D01*
X178547142Y-89264819D02*
X178547142Y-88264819D01*
X178547142Y-88264819D02*
X178166190Y-88264819D01*
X178166190Y-88264819D02*
X178070952Y-88312438D01*
X178070952Y-88312438D02*
X178023333Y-88360057D01*
X178023333Y-88360057D02*
X177975714Y-88455295D01*
X177975714Y-88455295D02*
X177975714Y-88598152D01*
X177975714Y-88598152D02*
X178023333Y-88693390D01*
X178023333Y-88693390D02*
X178070952Y-88741009D01*
X178070952Y-88741009D02*
X178166190Y-88788628D01*
X178166190Y-88788628D02*
X178547142Y-88788628D01*
X177594761Y-88360057D02*
X177547142Y-88312438D01*
X177547142Y-88312438D02*
X177451904Y-88264819D01*
X177451904Y-88264819D02*
X177213809Y-88264819D01*
X177213809Y-88264819D02*
X177118571Y-88312438D01*
X177118571Y-88312438D02*
X177070952Y-88360057D01*
X177070952Y-88360057D02*
X177023333Y-88455295D01*
X177023333Y-88455295D02*
X177023333Y-88550533D01*
X177023333Y-88550533D02*
X177070952Y-88693390D01*
X177070952Y-88693390D02*
X177642380Y-89264819D01*
X177642380Y-89264819D02*
X177023333Y-89264819D01*
X161478333Y-88391819D02*
X161478333Y-89106104D01*
X161478333Y-89106104D02*
X161525952Y-89248961D01*
X161525952Y-89248961D02*
X161621190Y-89344200D01*
X161621190Y-89344200D02*
X161764047Y-89391819D01*
X161764047Y-89391819D02*
X161859285Y-89391819D01*
X161002142Y-89391819D02*
X161002142Y-88391819D01*
X161002142Y-88391819D02*
X160621190Y-88391819D01*
X160621190Y-88391819D02*
X160525952Y-88439438D01*
X160525952Y-88439438D02*
X160478333Y-88487057D01*
X160478333Y-88487057D02*
X160430714Y-88582295D01*
X160430714Y-88582295D02*
X160430714Y-88725152D01*
X160430714Y-88725152D02*
X160478333Y-88820390D01*
X160478333Y-88820390D02*
X160525952Y-88868009D01*
X160525952Y-88868009D02*
X160621190Y-88915628D01*
X160621190Y-88915628D02*
X161002142Y-88915628D01*
X159478333Y-89391819D02*
X160049761Y-89391819D01*
X159764047Y-89391819D02*
X159764047Y-88391819D01*
X159764047Y-88391819D02*
X159859285Y-88534676D01*
X159859285Y-88534676D02*
X159954523Y-88629914D01*
X159954523Y-88629914D02*
X160049761Y-88677533D01*
D12*
%TO.C,JP2*%
X176790000Y-90910000D02*
X176790000Y-90310000D01*
X177490000Y-89610000D02*
X178890000Y-89610000D01*
X178890000Y-91610000D02*
X177490000Y-91610000D01*
X179590000Y-90310000D02*
X179590000Y-90910000D01*
X176790000Y-90310000D02*
G75*
G02*
X177490000Y-89610000I700000J0D01*
G01*
X177490000Y-91610000D02*
G75*
G02*
X176790000Y-90910000I0J700000D01*
G01*
X178890000Y-89610000D02*
G75*
G02*
X179590000Y-90310000I1J-699999D01*
G01*
X179590000Y-90910000D02*
G75*
G02*
X178890000Y-91610000I-699999J-1D01*
G01*
%TO.C,JP1*%
X159245000Y-90437000D02*
X159245000Y-91037000D01*
X159945000Y-91737000D02*
X161345000Y-91737000D01*
X161345000Y-89737000D02*
X159945000Y-89737000D01*
X162045000Y-91037000D02*
X162045000Y-90437000D01*
X159245000Y-90437000D02*
G75*
G02*
X159945000Y-89737000I700000J0D01*
G01*
X159945000Y-91737000D02*
G75*
G02*
X159245000Y-91037000I0J700000D01*
G01*
X161345000Y-89737000D02*
G75*
G02*
X162045000Y-90437000I1J-699999D01*
G01*
X162045000Y-91037000D02*
G75*
G02*
X161345000Y-91737000I-699999J-1D01*
G01*
%TD*%
M02*
