M48
; DRILL file {KiCad (5.1.2)-1} date 4/18/2020 10:46:54 PM
; FORMAT={-:-/ absolute / inch / decimal}
; #@! TF.CreationDate,2020-04-18T22:46:54-04:00
; #@! TF.GenerationSoftware,Kicad,Pcbnew,(5.1.2)-1
; #@! TF.FileFunction,NonPlated,1,2,NPTH
FMAT,2
INCH
T1C0.0669
T2C0.1201
T3C0.1575
%
G90
G05
T1
X9.56Y-11.44
X9.96Y-11.44
X8.2255Y-8.8404
X8.6255Y-8.8404
X15.3543Y-9.93
X15.7543Y-9.93
X13.1045Y-8.8405
X13.5045Y-8.8405
X8.05Y-11.44
X8.45Y-11.44
X9.9143Y-8.8404
X10.3143Y-8.8404
X5.0275Y-9.93
X5.4275Y-9.93
X13.3275Y-12.9475
X13.7275Y-12.9475
X5.7825Y-9.93
X6.1825Y-9.93
X16.1093Y-11.44
X16.5093Y-11.44
X5.025Y-8.84
X5.425Y-8.84
X6.915Y-12.195
X7.315Y-12.195
X14.175Y-12.9475
X14.575Y-12.9475
X4.2725Y-9.93
X4.6725Y-9.93
X8.425Y-12.195
X8.825Y-12.195
X4.275Y-11.44
X4.675Y-11.44
X11.445Y-10.685
X11.845Y-10.685
X12.955Y-10.685
X13.355Y-10.685
X2.7625Y-9.93
X3.1625Y-9.93
X11.8225Y-9.93
X12.2225Y-9.93
X15.7343Y-12.195
X16.1343Y-12.195
X7.67Y-10.685
X8.07Y-10.685
X10.69Y-12.195
X11.09Y-12.195
X16.8643Y-10.685
X17.2643Y-10.685
X13.859Y-8.8404
X14.259Y-8.8404
X7.295Y-11.44
X7.695Y-11.44
X11.07Y-11.44
X11.47Y-11.44
X16.1093Y-9.93
X16.5093Y-9.93
X13.8975Y-10.685
X14.2975Y-10.685
X14.61Y-8.8405
X15.01Y-8.8405
X6.54Y-11.44
X6.94Y-11.44
X10.3125Y-9.93
X10.7125Y-9.93
X17.6193Y-11.815
X18.0193Y-11.815
X13.8025Y-11.44
X14.2025Y-11.44
X7.67Y-12.195
X8.07Y-12.195
X17.6193Y-9.93
X18.0193Y-9.93
X5.405Y-10.685
X5.805Y-10.685
X6.16Y-10.685
X6.56Y-10.685
X4.2725Y-8.8404
X4.6725Y-8.8404
X8.425Y-12.95
X8.825Y-12.95
X13.3275Y-12.195
X13.7275Y-12.195
X7.2925Y-9.93
X7.6925Y-9.93
X15.3543Y-11.44
X15.7543Y-11.44
X13.3325Y-9.93
X13.7325Y-9.93
X5.03Y-11.44
X5.43Y-11.44
X3.05Y-12.95
X3.45Y-12.95
X9.935Y-12.195
X10.335Y-12.195
X2.9525Y-10.685
X3.3525Y-10.685
X7.47Y-8.84
X7.87Y-8.84
X3.24Y-11.44
X3.64Y-11.44
X10.69Y-10.685
X11.09Y-10.685
X16.8643Y-12.195
X17.2643Y-12.195
X12.58Y-11.44
X12.98Y-11.44
X3.5175Y-9.93
X3.9175Y-9.93
X17.62Y-8.84
X18.02Y-8.84
X9.18Y-12.195
X9.58Y-12.195
X11.4243Y-8.8404
X11.8243Y-8.8404
X15.3625Y-8.8404
X15.7625Y-8.8404
X8.425Y-10.685
X8.825Y-10.685
X11.825Y-11.44
X12.225Y-11.44
X2.7625Y-8.8404
X3.1625Y-8.8404
X16.115Y-8.84
X16.515Y-8.84
X6.915Y-10.685
X7.315Y-10.685
X12.2Y-10.685
X12.6Y-10.685
X6.7155Y-8.8404
X7.1155Y-8.8404
X16.8675Y-8.8404
X17.2675Y-8.8404
X6.16Y-12.195
X6.56Y-12.195
X9.935Y-10.685
X10.335Y-10.685
X10.67Y-8.84
X11.07Y-8.84
X12.3875Y-12.195
X12.7875Y-12.195
X5.405Y-12.195
X5.805Y-12.195
X9.1593Y-8.8404
X9.5593Y-8.8404
X15.3543Y-10.685
X15.7543Y-10.685
X6.5375Y-9.93
X6.9375Y-9.93
X3.5175Y-8.8404
X3.9175Y-8.8404
X8.8025Y-9.93
X9.2025Y-9.93
X12.3525Y-8.8404
X12.7525Y-8.8404
X16.1093Y-10.685
X16.5093Y-10.685
X3.425Y-12.195
X3.825Y-12.195
X4.65Y-12.195
X5.05Y-12.195
X8.805Y-11.44
X9.205Y-11.44
X14.0875Y-9.93
X14.4875Y-9.93
X4.65Y-10.685
X5.05Y-10.685
X11.445Y-12.195
X11.845Y-12.195
X11.0675Y-9.93
X11.4675Y-9.93
X16.8643Y-11.44
X17.2643Y-11.44
X3.895Y-10.685
X4.295Y-10.685
X9.18Y-10.685
X9.58Y-10.685
X17.6193Y-10.685
X18.0193Y-10.685
X8.0475Y-9.93
X8.4475Y-9.93
X12.5775Y-9.93
X12.9775Y-9.93
X5.9605Y-8.8404
X6.3605Y-8.8404
X9.5575Y-9.93
X9.9575Y-9.93
X10.315Y-11.44
X10.715Y-11.44
X16.8643Y-9.93
X17.2643Y-9.93
X12.48Y-12.9475
X12.88Y-12.9475
X5.785Y-11.44
X6.185Y-11.44
T2
X3.1565Y-11.9194
X4.0935Y-11.9194
X15.4658Y-11.9194
X16.4028Y-11.9194
X17.5437Y-11.3465
X17.5437Y-12.2835
X13.534Y-11.1644
X14.471Y-11.1644
X6.6565Y-12.6744
X10.5935Y-12.6744
T3
X4.85Y-12.195
X9.005Y-11.44
X14.2875Y-9.93
X4.85Y-10.685
X11.645Y-12.195
X11.2675Y-9.93
X17.0643Y-11.44
X4.095Y-10.685
X9.38Y-10.685
X17.8193Y-10.685
X8.2475Y-9.93
X12.7775Y-9.93
X6.1605Y-8.8404
X9.7575Y-9.93
X10.515Y-11.44
X17.0643Y-9.93
X12.68Y-12.9475
X5.985Y-11.44
X9.76Y-11.44
X8.4255Y-8.8404
X15.5543Y-9.93
X13.3045Y-8.8405
X8.25Y-11.44
X10.1143Y-8.8404
X5.2275Y-9.93
X13.5275Y-12.9475
X5.9825Y-9.93
X16.3093Y-11.44
X5.225Y-8.84
X7.115Y-12.195
X14.375Y-12.9475
X4.4725Y-9.93
X8.625Y-12.195
X4.475Y-11.44
X11.645Y-10.685
X13.155Y-10.685
X2.9625Y-9.93
X12.0225Y-9.93
X15.4658Y-12.5194
X15.9343Y-12.195
X16.4028Y-12.5194
X7.87Y-10.685
X10.89Y-12.195
X17.0643Y-10.685
X14.059Y-8.8404
X7.495Y-11.44
X11.27Y-11.44
X16.3093Y-9.93
X14.0975Y-10.685
X14.81Y-8.8405
X6.74Y-11.44
X10.5125Y-9.93
X17.8193Y-11.815
X18.1437Y-11.3465
X18.1437Y-12.2835
X13.534Y-11.7644
X14.0025Y-11.44
X14.471Y-11.7644
X7.87Y-12.195
X17.8193Y-9.93
X5.605Y-10.685
X6.36Y-10.685
X4.4725Y-8.8404
X6.6565Y-13.2744
X8.625Y-12.95
X10.5935Y-13.2744
X13.5275Y-12.195
X7.4925Y-9.93
X15.5543Y-11.44
X13.5325Y-9.93
X5.23Y-11.44
X3.25Y-12.95
X10.135Y-12.195
X3.1525Y-10.685
X7.67Y-8.84
X3.44Y-11.44
X10.89Y-10.685
X17.0643Y-12.195
X12.78Y-11.44
X3.7175Y-9.93
X17.82Y-8.84
X9.38Y-12.195
X11.6243Y-8.8404
X15.5625Y-8.8404
X8.625Y-10.685
X12.025Y-11.44
X2.9625Y-8.8404
X16.315Y-8.84
X7.115Y-10.685
X12.4Y-10.685
X6.9155Y-8.8404
X17.0675Y-8.8404
X6.36Y-12.195
X10.135Y-10.685
X10.87Y-8.84
X12.5875Y-12.195
X5.605Y-12.195
X9.3593Y-8.8404
X15.5543Y-10.685
X6.7375Y-9.93
X3.7175Y-8.8404
X9.0025Y-9.93
X12.5525Y-8.8404
X16.3093Y-10.685
X3.1565Y-12.5194
X3.625Y-12.195
X4.0935Y-12.5194
T0
M30
