M48
; DRILL file {KiCad (5.1.2)-1} date 4/18/2020 10:46:54 PM
; FORMAT={-:-/ absolute / inch / decimal}
; #@! TF.CreationDate,2020-04-18T22:46:54-04:00
; #@! TF.GenerationSoftware,Kicad,Pcbnew,(5.1.2)-1
; #@! TF.FileFunction,Plated,1,2,PTH
FMAT,2
INCH
T1C0.0118
T2C0.0157
T3C0.0256
T4C0.0394
T5C0.0591
T6C0.1181
%
G90
G05
T1
X15.8Y-8.11
X15.85Y-8.09
T2
X2.815Y-8.165
X2.8375Y-8.1425
X2.865Y-8.115
X2.8675Y-11.665
X2.8675Y-13.1875
X2.87Y-10.93
X2.8831Y-10.1519
X2.89Y-8.09
X2.915Y-8.065
X2.965Y-9.325
X3.0Y-9.325
X3.035Y-9.325
X3.0875Y-10.3175
X3.095Y-8.045
X3.28Y-11.06
X3.6622Y-10.1503
X3.6625Y-10.94
X4.4189Y-11.6619
X4.42Y-12.3625
X4.7673Y-10.9069
X4.7675Y-11.66
X4.91Y-8.05
X5.085Y-10.47
X5.11Y-11.985
X5.17Y-10.905
X5.1739Y-10.1519
X5.185Y-8.225
X5.195Y-8.37
X5.255Y-8.98
X5.3341Y-12.75
X5.355Y-8.04
X5.465Y-8.05
X5.48Y-9.71
X5.495Y-11.23
X5.6284Y-8.6866
X5.655Y-8.15
X5.655Y-8.51
X5.685Y-8.15
X5.685Y-8.51
X5.715Y-8.15
X5.715Y-8.51
X5.81Y-8.27
X5.8558Y-10.085
X5.9Y-8.38
X5.9289Y-11.6619
X5.93Y-12.4225
X6.1Y-8.9925
X6.1Y-9.14
X6.2Y-8.15
X6.275Y-10.28
X6.305Y-11.66
X6.3056Y-10.9069
X6.335Y-9.13
X6.58Y-10.48
X6.62Y-11.975
X6.665Y-9.13
X6.6839Y-10.1519
X6.6856Y-10.9069
X6.9225Y-8.9925
X6.9225Y-9.2075
X6.99Y-11.23
X7.02Y-9.715
X7.07Y-9.14
X7.32Y-10.43
X7.3658Y-10.075
X7.395Y-9.15
X7.4389Y-11.6619
X7.4389Y-12.4136
X7.5Y-8.05
X7.5893Y-8.4557
X7.615Y-8.045
X7.68Y-11.18
X7.71Y-8.32
X7.74Y-9.675
X7.78Y-9.135
X7.78Y-10.43
X7.7875Y-11.6625
X7.7881Y-10.9069
X7.875Y-9.18
X8.005Y-11.18
X8.095Y-10.485
X8.12Y-11.985
X8.19Y-9.675
X8.195Y-10.9075
X8.1956Y-10.1519
X8.3775Y-11.9525
X8.46Y-9.73
X8.55Y-11.215
X8.82Y-11.94
X8.8725Y-10.075
X8.9223Y-11.6619
X8.9225Y-12.415
X8.925Y-9.55
X9.165Y-9.675
X9.2Y-11.18
X9.215Y-11.94
X9.285Y-9.175
X9.3075Y-11.66
X9.3081Y-10.9069
X9.5Y-12.7525
X9.545Y-9.7275
X9.595Y-10.485
X9.615Y-11.185
X9.64Y-11.99
X9.6825Y-10.9075
X9.6831Y-10.1519
X9.705Y-9.675
X9.855Y-9.615
X10.02Y-9.71
X10.02Y-11.22
X10.205Y-9.175
X10.325Y-11.94
X10.385Y-8.325
X10.3861Y-10.075
X10.43Y-12.415
X10.4302Y-11.6598
X10.4318Y-8.5232
X10.445Y-8.275
X10.715Y-11.185
X10.8Y-11.935
X10.8325Y-11.66
X10.8339Y-10.9069
X11.01Y-11.13
X11.065Y-8.385
X11.115Y-10.48
X11.145Y-11.185
X11.2156Y-10.1519
X11.2175Y-10.905
X11.315Y-9.175
X11.37Y-9.62
X11.405Y-9.135
X11.515Y-9.715
X11.53Y-11.22
X11.77Y-12.5975
X11.84Y-10.43
X11.8925Y-10.075
X11.945Y-9.48
X11.9685Y-11.6615
X11.97Y-12.4175
X12.155Y-12.515
X12.26Y-10.43
X12.3325Y-11.6625
X12.3339Y-10.9236
X12.5075Y-11.8575
X12.515Y-12.74
X12.52Y-11.03
X12.59Y-10.485
X12.725Y-10.925
X12.7256Y-10.1519
X12.87Y-9.61
X12.995Y-12.745
X13.04Y-9.73
X13.305Y-10.375
X13.3182Y-12.3068
X13.3182Y-12.6668
X13.4052Y-10.1048
X13.4259Y-11.0434
X13.4325Y-9.0775
X13.605Y-8.64
X13.63Y-9.41
X13.665Y-10.465
X13.665Y-11.175
X13.72Y-12.63
X13.85Y-11.995
X14.03Y-8.15
X14.165Y-12.63
X14.195Y-13.165
X14.3025Y-11.595
X14.32Y-10.6
X14.365Y-9.06
X14.4Y-10.085
X14.45Y-10.84
X14.61Y-11.995
X14.645Y-9.325
X14.715Y-8.15
X14.72Y-8.66
X14.985Y-9.34
X15.0476Y-9.2874
X15.095Y-8.64
X15.095Y-9.66
X15.14Y-10.6
X15.19Y-8.85
X15.215Y-13.06
X15.295Y-11.145
X15.335Y-8.935
X15.335Y-9.41
X15.4069Y-8.3181
X15.415Y-8.64
X15.445Y-8.3181
X15.455Y-8.275
X15.475Y-8.58
X15.625Y-8.95
X15.68Y-10.38
X15.745Y-10.2225
X15.755Y-9.4
X15.775Y-8.7275
X15.795Y-13.24
X15.825Y-9.6625
X15.8691Y-9.8059
X15.8756Y-10.1519
X15.88Y-11.6625
X15.8806Y-10.9069
X15.9132Y-9.06
X16.005Y-9.48
X16.055Y-9.55
X16.065Y-8.545
X16.075Y-8.045
X16.115Y-8.96
X16.115Y-9.475
X16.1743Y-8.4557
X16.175Y-10.085
X16.225Y-8.385
X16.245Y-8.045
X16.3Y-9.41
X16.5Y-9.405
X16.505Y-11.235
X16.51Y-10.49
X16.515Y-12.35
X16.54Y-8.045
X16.575Y-9.23
X16.576Y-9.534
X16.58Y-8.525
X16.62Y-9.165
X16.62Y-11.2975
X16.62Y-12.845
X16.6642Y-9.2858
X16.68Y-9.535
X16.715Y-8.045
X16.86Y-8.64
X16.97Y-10.105
X16.98Y-9.475
X17.0152Y-10.3748
X17.165Y-9.275
X17.39Y-12.0325
X17.3903Y-10.9053
X17.3906Y-10.1519
X17.495Y-8.955
X17.57Y-8.6
X17.82Y-8.505
T3
X15.325Y-8.15
X15.375Y-8.15
X15.425Y-8.15
X15.475Y-8.15
X15.525Y-8.15
X15.575Y-8.15
X15.625Y-8.15
X15.675Y-8.15
X15.725Y-8.15
X15.775Y-8.15
X15.825Y-8.15
X15.875Y-8.15
X15.925Y-8.15
X15.975Y-8.15
X16.025Y-8.15
X16.075Y-8.15
X16.125Y-8.15
X16.175Y-8.15
X16.225Y-8.15
X16.275Y-8.15
X16.325Y-8.15
X16.375Y-8.15
X16.425Y-8.15
X16.475Y-8.15
X16.525Y-8.15
T4
X10.565Y-8.275
X10.665Y-8.275
X10.765Y-8.275
X10.865Y-8.275
X10.965Y-8.275
X11.065Y-8.275
X11.165Y-8.275
X11.265Y-8.275
X11.365Y-8.275
X11.465Y-8.275
X11.565Y-8.275
X11.665Y-8.275
X11.765Y-8.275
X11.865Y-8.275
X11.965Y-8.275
X12.065Y-8.275
X12.165Y-8.275
X12.265Y-8.275
X12.365Y-8.275
X12.465Y-8.275
X12.565Y-8.275
X12.665Y-8.275
X12.765Y-8.275
X12.865Y-8.275
X12.965Y-8.275
X13.065Y-8.275
X13.165Y-8.275
X13.265Y-8.275
X13.365Y-8.275
X13.465Y-8.275
X13.565Y-8.275
X13.665Y-8.275
X13.765Y-8.275
X13.865Y-8.275
X13.965Y-8.275
X14.065Y-8.275
X14.165Y-8.275
X14.265Y-8.275
X14.365Y-8.275
X14.465Y-8.275
T5
X9.9643Y-8.7404
X10.2143Y-8.6404
X5.0775Y-9.83
X5.3275Y-9.73
X13.3775Y-12.8475
X13.6275Y-12.7475
X5.8325Y-9.83
X6.0825Y-9.73
X16.1593Y-11.34
X16.4093Y-11.24
X5.075Y-8.74
X5.325Y-8.64
X6.965Y-12.095
X7.215Y-11.995
X14.225Y-12.8475
X14.475Y-12.7475
X4.3225Y-9.83
X4.5725Y-9.73
X8.475Y-12.095
X8.725Y-11.995
X4.325Y-11.34
X4.575Y-11.24
X11.495Y-10.585
X11.745Y-10.485
X13.005Y-10.585
X13.255Y-10.485
X2.8125Y-9.83
X3.0625Y-9.73
X11.8725Y-9.83
X12.1225Y-9.73
X15.7843Y-12.095
X16.0343Y-11.995
X7.72Y-10.585
X7.97Y-10.485
X10.74Y-12.095
X10.99Y-11.995
X16.9143Y-10.585
X17.1643Y-10.485
X13.909Y-8.7404
X14.159Y-8.6404
X7.345Y-11.34
X7.595Y-11.24
X11.12Y-11.34
X11.37Y-11.24
X16.1593Y-9.83
X16.4093Y-9.73
X13.9475Y-10.585
X14.1975Y-10.485
X14.66Y-8.7405
X14.91Y-8.6405
X6.59Y-11.34
X6.84Y-11.24
X10.3625Y-9.83
X10.6125Y-9.73
X17.6693Y-11.715
X17.9193Y-11.615
X13.8525Y-11.34
X14.1025Y-11.24
X7.72Y-12.095
X7.97Y-11.995
X17.6693Y-9.83
X17.9193Y-9.73
X5.455Y-10.585
X5.705Y-10.485
X6.21Y-10.585
X6.46Y-10.485
X4.3225Y-8.7404
X4.5725Y-8.6404
X8.475Y-12.85
X8.725Y-12.75
X13.3775Y-12.095
X13.6275Y-11.995
X7.3425Y-9.83
X7.5925Y-9.73
X15.4043Y-11.34
X15.6543Y-11.24
X13.3825Y-9.83
X13.6325Y-9.73
X5.08Y-11.34
X5.33Y-11.24
X3.1Y-12.85
X3.35Y-12.75
X9.985Y-12.095
X10.235Y-11.995
X3.0025Y-10.585
X3.2525Y-10.485
X7.52Y-8.74
X7.77Y-8.64
X3.29Y-11.34
X3.54Y-11.24
X10.74Y-10.585
X10.99Y-10.485
X16.9143Y-12.095
X17.1643Y-11.995
X12.63Y-11.34
X12.88Y-11.24
X3.5675Y-9.83
X3.8175Y-9.73
X17.67Y-8.74
X17.92Y-8.64
X9.23Y-12.095
X9.48Y-11.995
X11.4743Y-8.7404
X11.7243Y-8.6404
X15.4125Y-8.7404
X15.6625Y-8.6404
X8.475Y-10.585
X8.725Y-10.485
X11.875Y-11.34
X12.125Y-11.24
X2.8125Y-8.7404
X3.0625Y-8.6404
X16.165Y-8.74
X16.415Y-8.64
X6.965Y-10.585
X7.215Y-10.485
X12.25Y-10.585
X12.5Y-10.485
X6.7655Y-8.7404
X7.0155Y-8.6404
X16.9175Y-8.7404
X17.1675Y-8.6404
X6.21Y-12.095
X6.46Y-11.995
X9.985Y-10.585
X10.235Y-10.485
X10.72Y-8.74
X10.97Y-8.64
X12.4375Y-12.095
X12.6875Y-11.995
X5.455Y-12.095
X5.705Y-11.995
X9.2093Y-8.7404
X9.4593Y-8.6404
X15.4043Y-10.585
X15.6543Y-10.485
X6.5875Y-9.83
X6.8375Y-9.73
X3.5675Y-8.7404
X3.8175Y-8.6404
X8.8525Y-9.83
X9.1025Y-9.73
X12.4025Y-8.7404
X12.6525Y-8.6404
X16.1593Y-10.585
X16.4093Y-10.485
X3.475Y-12.095
X3.725Y-11.995
X4.7Y-12.095
X4.95Y-11.995
X8.855Y-11.34
X9.105Y-11.24
X14.1375Y-9.83
X14.3875Y-9.73
X4.7Y-10.585
X4.95Y-10.485
X11.495Y-12.095
X11.745Y-11.995
X11.1175Y-9.83
X11.3675Y-9.73
X16.9143Y-11.34
X17.1643Y-11.24
X3.945Y-10.585
X4.195Y-10.485
X9.23Y-10.585
X9.48Y-10.485
X17.6693Y-10.585
X17.9193Y-10.485
X8.0975Y-9.83
X8.3475Y-9.73
X12.6275Y-9.83
X12.8775Y-9.73
X6.0105Y-8.7404
X6.2605Y-8.6404
X9.6075Y-9.83
X9.8575Y-9.73
X10.365Y-11.34
X10.615Y-11.24
X16.9143Y-9.83
X17.1643Y-9.73
X12.53Y-12.8475
X12.78Y-12.7475
X5.835Y-11.34
X6.085Y-11.24
X9.61Y-11.34
X9.86Y-11.24
X8.2755Y-8.7404
X8.5255Y-8.6404
X15.4043Y-9.83
X15.6543Y-9.73
X13.1545Y-8.7405
X13.4045Y-8.6405
X8.1Y-11.34
X8.35Y-11.24
T6
X2.7559Y-8.2677
X2.7559Y-9.4488
X2.7559Y-11.4173
X2.7559Y-13.189
X4.7244Y-9.4488
X4.7244Y-13.2874
X6.6929Y-9.4488
X7.874Y-8.0709
X8.6614Y-9.4488
X8.6614Y-13.2874
X10.6299Y-9.4488
X11.4173Y-11.6142
X12.5984Y-13.2874
X13.189Y-8.0709
X13.189Y-11.6142
X14.9606Y-10.0394
X14.9606Y-10.8268
X14.9606Y-11.6142
X14.9606Y-12.4016
X16.1417Y-13.189
X18.1102Y-8.2677
X18.1102Y-10.0394
X18.1102Y-13.189
T0
M30
