%FSLAX45Y45*%
G04 Gerber Fmt 4.5, Leading zero omitted, Abs format (unit mm)*
G04 Created by KiCad (PCBNEW (5.1.2)-1) date 2020-04-18 22:46:55*
%MOMM*%
%LPD*%
G04 APERTURE LIST*
%ADD10C,0.050000*%
%ADD11C,0.200000*%
%ADD12C,0.300000*%
G04 APERTURE END LIST*
D10*
X6350000Y-20320000D02*
X6350000Y-34099500D01*
X46482000Y-20320000D02*
X6350000Y-20320000D01*
X46482000Y-34099500D02*
X46482000Y-20320000D01*
X6350000Y-34099500D02*
X46482000Y-34099500D01*
D11*
X40117000Y-20584400D02*
X40147000Y-20614400D01*
X40147000Y-20584400D02*
X40117000Y-20614400D01*
X40244000Y-20533600D02*
X40274000Y-20563600D01*
X40274000Y-20533600D02*
X40244000Y-20563600D01*
X7170100Y-20739100D02*
G75*
G03X7170100Y-20739100I-20000J0D01*
G01*
X7227250Y-20681950D02*
G75*
G03X7227250Y-20681950I-20000J0D01*
G01*
X7297100Y-20612100D02*
G75*
G03X7297100Y-20612100I-20000J0D01*
G01*
X7303450Y-29629100D02*
G75*
G03X7303450Y-29629100I-20000J0D01*
G01*
X7303450Y-33496250D02*
G75*
G03X7303450Y-33496250I-20000J0D01*
G01*
X7309800Y-27762200D02*
G75*
G03X7309800Y-27762200I-20000J0D01*
G01*
X7342999Y-25785901D02*
G75*
G03X7342999Y-25785901I-20000J0D01*
G01*
X7360600Y-20548600D02*
G75*
G03X7360600Y-20548600I-20000J0D01*
G01*
X7424100Y-20485100D02*
G75*
G03X7424100Y-20485100I-20000J0D01*
G01*
X7551100Y-23685500D02*
G75*
G03X7551100Y-23685500I-20000J0D01*
G01*
X7640000Y-23685500D02*
G75*
G03X7640000Y-23685500I-20000J0D01*
G01*
X7728900Y-23685500D02*
G75*
G03X7728900Y-23685500I-20000J0D01*
G01*
X7862250Y-26206450D02*
G75*
G03X7862250Y-26206450I-20000J0D01*
G01*
X7881300Y-20434300D02*
G75*
G03X7881300Y-20434300I-20000J0D01*
G01*
X8351200Y-28092400D02*
G75*
G03X8351200Y-28092400I-20000J0D01*
G01*
X9322025Y-25781725D02*
G75*
G03X9322025Y-25781725I-20000J0D01*
G01*
X9322750Y-27787600D02*
G75*
G03X9322750Y-27787600I-20000J0D01*
G01*
X11243901Y-29621301D02*
G75*
G03X11243901Y-29621301I-20000J0D01*
G01*
X11246800Y-31400750D02*
G75*
G03X11246800Y-31400750I-20000J0D01*
G01*
X12128901Y-27703601D02*
G75*
G03X12128901Y-27703601I-20000J0D01*
G01*
X12129450Y-29616400D02*
G75*
G03X12129450Y-29616400I-20000J0D01*
G01*
X12491400Y-20447000D02*
G75*
G03X12491400Y-20447000I-20000J0D01*
G01*
X12935900Y-26593800D02*
G75*
G03X12935900Y-26593800I-20000J0D01*
G01*
X12999400Y-30441900D02*
G75*
G03X12999400Y-30441900I-20000J0D01*
G01*
X13151800Y-27698700D02*
G75*
G03X13151800Y-27698700I-20000J0D01*
G01*
X13161601Y-25785901D02*
G75*
G03X13161601Y-25785901I-20000J0D01*
G01*
X13189900Y-20891500D02*
G75*
G03X13189900Y-20891500I-20000J0D01*
G01*
X13215300Y-21259800D02*
G75*
G03X13215300Y-21259800I-20000J0D01*
G01*
X13367700Y-22809200D02*
G75*
G03X13367700Y-22809200I-20000J0D01*
G01*
X13568700Y-32385000D02*
G75*
G03X13568700Y-32385000I-20000J0D01*
G01*
X13621700Y-20421600D02*
G75*
G03X13621700Y-20421600I-20000J0D01*
G01*
X13901100Y-20447000D02*
G75*
G03X13901100Y-20447000I-20000J0D01*
G01*
X13939200Y-24663400D02*
G75*
G03X13939200Y-24663400I-20000J0D01*
G01*
X13977300Y-28524200D02*
G75*
G03X13977300Y-28524200I-20000J0D01*
G01*
X14316150Y-22063950D02*
G75*
G03X14316150Y-22063950I-20000J0D01*
G01*
X14383700Y-20701000D02*
G75*
G03X14383700Y-20701000I-20000J0D01*
G01*
X14383700Y-21615400D02*
G75*
G03X14383700Y-21615400I-20000J0D01*
G01*
X14459900Y-20701000D02*
G75*
G03X14459900Y-20701000I-20000J0D01*
G01*
X14459900Y-21615400D02*
G75*
G03X14459900Y-21615400I-20000J0D01*
G01*
X14536100Y-20701000D02*
G75*
G03X14536100Y-20701000I-20000J0D01*
G01*
X14536100Y-21615400D02*
G75*
G03X14536100Y-21615400I-20000J0D01*
G01*
X14777400Y-21005800D02*
G75*
G03X14777400Y-21005800I-20000J0D01*
G01*
X14893702Y-25615900D02*
G75*
G03X14893702Y-25615900I-20000J0D01*
G01*
X15006000Y-21285200D02*
G75*
G03X15006000Y-21285200I-20000J0D01*
G01*
X15079301Y-29621301D02*
G75*
G03X15079301Y-29621301I-20000J0D01*
G01*
X15082200Y-31553150D02*
G75*
G03X15082200Y-31553150I-20000J0D01*
G01*
X15514000Y-22840950D02*
G75*
G03X15514000Y-22840950I-20000J0D01*
G01*
X15514000Y-23215600D02*
G75*
G03X15514000Y-23215600I-20000J0D01*
G01*
X15768000Y-20701000D02*
G75*
G03X15768000Y-20701000I-20000J0D01*
G01*
X15958500Y-26111200D02*
G75*
G03X15958500Y-26111200I-20000J0D01*
G01*
X16034700Y-29616400D02*
G75*
G03X16034700Y-29616400I-20000J0D01*
G01*
X16036149Y-27703601D02*
G75*
G03X16036149Y-27703601I-20000J0D01*
G01*
X16110900Y-23190200D02*
G75*
G03X16110900Y-23190200I-20000J0D01*
G01*
X16733200Y-26619200D02*
G75*
G03X16733200Y-26619200I-20000J0D01*
G01*
X16834800Y-30416500D02*
G75*
G03X16834800Y-30416500I-20000J0D01*
G01*
X16949100Y-23190200D02*
G75*
G03X16949100Y-23190200I-20000J0D01*
G01*
X16997001Y-25785901D02*
G75*
G03X16997001Y-25785901I-20000J0D01*
G01*
X17001349Y-27703601D02*
G75*
G03X17001349Y-27703601I-20000J0D01*
G01*
X17603150Y-22840950D02*
G75*
G03X17603150Y-22840950I-20000J0D01*
G01*
X17603150Y-23387050D02*
G75*
G03X17603150Y-23387050I-20000J0D01*
G01*
X17774600Y-28524200D02*
G75*
G03X17774600Y-28524200I-20000J0D01*
G01*
X17850800Y-24676100D02*
G75*
G03X17850800Y-24676100I-20000J0D01*
G01*
X17977800Y-23215600D02*
G75*
G03X17977800Y-23215600I-20000J0D01*
G01*
X18612800Y-26492200D02*
G75*
G03X18612800Y-26492200I-20000J0D01*
G01*
X18729102Y-25590500D02*
G75*
G03X18729102Y-25590500I-20000J0D01*
G01*
X18803300Y-23241000D02*
G75*
G03X18803300Y-23241000I-20000J0D01*
G01*
X18914701Y-29621301D02*
G75*
G03X18914701Y-29621301I-20000J0D01*
G01*
X18914701Y-31530649D02*
G75*
G03X18914701Y-31530649I-20000J0D01*
G01*
X19070000Y-20447000D02*
G75*
G03X19070000Y-20447000I-20000J0D01*
G01*
X19296800Y-21477500D02*
G75*
G03X19296800Y-21477500I-20000J0D01*
G01*
X19362100Y-20434300D02*
G75*
G03X19362100Y-20434300I-20000J0D01*
G01*
X19527200Y-28397200D02*
G75*
G03X19527200Y-28397200I-20000J0D01*
G01*
X19603400Y-21132800D02*
G75*
G03X19603400Y-21132800I-20000J0D01*
G01*
X19679600Y-24574500D02*
G75*
G03X19679600Y-24574500I-20000J0D01*
G01*
X19781200Y-23202900D02*
G75*
G03X19781200Y-23202900I-20000J0D01*
G01*
X19781200Y-26492200D02*
G75*
G03X19781200Y-26492200I-20000J0D01*
G01*
X19800250Y-29622750D02*
G75*
G03X19800250Y-29622750I-20000J0D01*
G01*
X19801699Y-27703601D02*
G75*
G03X19801699Y-27703601I-20000J0D01*
G01*
X20022500Y-23317200D02*
G75*
G03X20022500Y-23317200I-20000J0D01*
G01*
X20352700Y-28397200D02*
G75*
G03X20352700Y-28397200I-20000J0D01*
G01*
X20581300Y-26631900D02*
G75*
G03X20581300Y-26631900I-20000J0D01*
G01*
X20644800Y-30441900D02*
G75*
G03X20644800Y-30441900I-20000J0D01*
G01*
X20822600Y-24574500D02*
G75*
G03X20822600Y-24574500I-20000J0D01*
G01*
X20835300Y-27705050D02*
G75*
G03X20835300Y-27705050I-20000J0D01*
G01*
X20836749Y-25785901D02*
G75*
G03X20836749Y-25785901I-20000J0D01*
G01*
X21298850Y-30359350D02*
G75*
G03X21298850Y-30359350I-20000J0D01*
G01*
X21508400Y-24714200D02*
G75*
G03X21508400Y-24714200I-20000J0D01*
G01*
X21737000Y-28486100D02*
G75*
G03X21737000Y-28486100I-20000J0D01*
G01*
X22422800Y-30327600D02*
G75*
G03X22422800Y-30327600I-20000J0D01*
G01*
X22556150Y-25590500D02*
G75*
G03X22556150Y-25590500I-20000J0D01*
G01*
X22682601Y-29621301D02*
G75*
G03X22682601Y-29621301I-20000J0D01*
G01*
X22683150Y-31534100D02*
G75*
G03X22683150Y-31534100I-20000J0D01*
G01*
X22689500Y-24257000D02*
G75*
G03X22689500Y-24257000I-20000J0D01*
G01*
X23299100Y-24574500D02*
G75*
G03X23299100Y-24574500I-20000J0D01*
G01*
X23388000Y-28397200D02*
G75*
G03X23388000Y-28397200I-20000J0D01*
G01*
X23426100Y-30327600D02*
G75*
G03X23426100Y-30327600I-20000J0D01*
G01*
X23603900Y-23304500D02*
G75*
G03X23603900Y-23304500I-20000J0D01*
G01*
X23661050Y-29616400D02*
G75*
G03X23661050Y-29616400I-20000J0D01*
G01*
X23662499Y-27703601D02*
G75*
G03X23662499Y-27703601I-20000J0D01*
G01*
X24150000Y-32391350D02*
G75*
G03X24150000Y-32391350I-20000J0D01*
G01*
X24264300Y-24707850D02*
G75*
G03X24264300Y-24707850I-20000J0D01*
G01*
X24391300Y-26631900D02*
G75*
G03X24391300Y-26631900I-20000J0D01*
G01*
X24442100Y-28409900D02*
G75*
G03X24442100Y-28409900I-20000J0D01*
G01*
X24505600Y-30454600D02*
G75*
G03X24505600Y-30454600I-20000J0D01*
G01*
X24613550Y-27705050D02*
G75*
G03X24613550Y-27705050I-20000J0D01*
G01*
X24614999Y-25785901D02*
G75*
G03X24614999Y-25785901I-20000J0D01*
G01*
X24670700Y-24574500D02*
G75*
G03X24670700Y-24574500I-20000J0D01*
G01*
X25051700Y-24422100D02*
G75*
G03X25051700Y-24422100I-20000J0D01*
G01*
X25470800Y-24663400D02*
G75*
G03X25470800Y-24663400I-20000J0D01*
G01*
X25470800Y-28498800D02*
G75*
G03X25470800Y-28498800I-20000J0D01*
G01*
X25940700Y-23304500D02*
G75*
G03X25940700Y-23304500I-20000J0D01*
G01*
X26245500Y-30327600D02*
G75*
G03X26245500Y-30327600I-20000J0D01*
G01*
X26397900Y-21145500D02*
G75*
G03X26397900Y-21145500I-20000J0D01*
G01*
X26400798Y-25590500D02*
G75*
G03X26400798Y-25590500I-20000J0D01*
G01*
X26512200Y-31534100D02*
G75*
G03X26512200Y-31534100I-20000J0D01*
G01*
X26512650Y-29615950D02*
G75*
G03X26512650Y-29615950I-20000J0D01*
G01*
X26516750Y-21648950D02*
G75*
G03X26516750Y-21648950I-20000J0D01*
G01*
X26550300Y-21018500D02*
G75*
G03X26550300Y-21018500I-20000J0D01*
G01*
X27236100Y-28409900D02*
G75*
G03X27236100Y-28409900I-20000J0D01*
G01*
X27452000Y-30314900D02*
G75*
G03X27452000Y-30314900I-20000J0D01*
G01*
X27534550Y-29616400D02*
G75*
G03X27534550Y-29616400I-20000J0D01*
G01*
X27538001Y-27703601D02*
G75*
G03X27538001Y-27703601I-20000J0D01*
G01*
X27985400Y-28270200D02*
G75*
G03X27985400Y-28270200I-20000J0D01*
G01*
X28125100Y-21297900D02*
G75*
G03X28125100Y-21297900I-20000J0D01*
G01*
X28252100Y-26619200D02*
G75*
G03X28252100Y-26619200I-20000J0D01*
G01*
X28328300Y-28409900D02*
G75*
G03X28328300Y-28409900I-20000J0D01*
G01*
X28507549Y-25785901D02*
G75*
G03X28507549Y-25785901I-20000J0D01*
G01*
X28512450Y-27698700D02*
G75*
G03X28512450Y-27698700I-20000J0D01*
G01*
X28760100Y-23304500D02*
G75*
G03X28760100Y-23304500I-20000J0D01*
G01*
X28899800Y-24434800D02*
G75*
G03X28899800Y-24434800I-20000J0D01*
G01*
X28988700Y-23202900D02*
G75*
G03X28988700Y-23202900I-20000J0D01*
G01*
X29268100Y-24676100D02*
G75*
G03X29268100Y-24676100I-20000J0D01*
G01*
X29306200Y-28498800D02*
G75*
G03X29306200Y-28498800I-20000J0D01*
G01*
X29915800Y-31997650D02*
G75*
G03X29915800Y-31997650I-20000J0D01*
G01*
X30093600Y-26492200D02*
G75*
G03X30093600Y-26492200I-20000J0D01*
G01*
X30226950Y-25590500D02*
G75*
G03X30226950Y-25590500I-20000J0D01*
G01*
X30360300Y-24079200D02*
G75*
G03X30360300Y-24079200I-20000J0D01*
G01*
X30419900Y-29620300D02*
G75*
G03X30419900Y-29620300I-20000J0D01*
G01*
X30423800Y-31540450D02*
G75*
G03X30423800Y-31540450I-20000J0D01*
G01*
X30893700Y-31788100D02*
G75*
G03X30893700Y-31788100I-20000J0D01*
G01*
X31160400Y-26492200D02*
G75*
G03X31160400Y-26492200I-20000J0D01*
G01*
X31344550Y-29622750D02*
G75*
G03X31344550Y-29622750I-20000J0D01*
G01*
X31348175Y-27745875D02*
G75*
G03X31348175Y-27745875I-20000J0D01*
G01*
X31789050Y-30118050D02*
G75*
G03X31789050Y-30118050I-20000J0D01*
G01*
X31808100Y-32359600D02*
G75*
G03X31808100Y-32359600I-20000J0D01*
G01*
X31820800Y-28016200D02*
G75*
G03X31820800Y-28016200I-20000J0D01*
G01*
X31998600Y-26631900D02*
G75*
G03X31998600Y-26631900I-20000J0D01*
G01*
X32341500Y-27749500D02*
G75*
G03X32341500Y-27749500I-20000J0D01*
G01*
X32342949Y-25785901D02*
G75*
G03X32342949Y-25785901I-20000J0D01*
G01*
X32709800Y-24409400D02*
G75*
G03X32709800Y-24409400I-20000J0D01*
G01*
X33027300Y-32372300D02*
G75*
G03X33027300Y-32372300I-20000J0D01*
G01*
X33141600Y-24714200D02*
G75*
G03X33141600Y-24714200I-20000J0D01*
G01*
X33814700Y-26352500D02*
G75*
G03X33814700Y-26352500I-20000J0D01*
G01*
X33848250Y-31259250D02*
G75*
G03X33848250Y-31259250I-20000J0D01*
G01*
X33848250Y-32173650D02*
G75*
G03X33848250Y-32173650I-20000J0D01*
G01*
X34069150Y-25666250D02*
G75*
G03X34069150Y-25666250I-20000J0D01*
G01*
X34121700Y-28050150D02*
G75*
G03X34121700Y-28050150I-20000J0D01*
G01*
X34138550Y-23056850D02*
G75*
G03X34138550Y-23056850I-20000J0D01*
G01*
X34576700Y-21945600D02*
G75*
G03X34576700Y-21945600I-20000J0D01*
G01*
X34640200Y-23901400D02*
G75*
G03X34640200Y-23901400I-20000J0D01*
G01*
X34729100Y-26581100D02*
G75*
G03X34729100Y-26581100I-20000J0D01*
G01*
X34729100Y-28384500D02*
G75*
G03X34729100Y-28384500I-20000J0D01*
G01*
X34868800Y-32080200D02*
G75*
G03X34868800Y-32080200I-20000J0D01*
G01*
X35199000Y-30467300D02*
G75*
G03X35199000Y-30467300I-20000J0D01*
G01*
X35656200Y-20701000D02*
G75*
G03X35656200Y-20701000I-20000J0D01*
G01*
X35999100Y-32080200D02*
G75*
G03X35999100Y-32080200I-20000J0D01*
G01*
X36075300Y-33439100D02*
G75*
G03X36075300Y-33439100I-20000J0D01*
G01*
X36348350Y-29451300D02*
G75*
G03X36348350Y-29451300I-20000J0D01*
G01*
X36392800Y-26924000D02*
G75*
G03X36392800Y-26924000I-20000J0D01*
G01*
X36507100Y-23012400D02*
G75*
G03X36507100Y-23012400I-20000J0D01*
G01*
X36596000Y-25615900D02*
G75*
G03X36596000Y-25615900I-20000J0D01*
G01*
X36723000Y-27533600D02*
G75*
G03X36723000Y-27533600I-20000J0D01*
G01*
X37129400Y-30467300D02*
G75*
G03X37129400Y-30467300I-20000J0D01*
G01*
X37218300Y-23685500D02*
G75*
G03X37218300Y-23685500I-20000J0D01*
G01*
X37396100Y-20701000D02*
G75*
G03X37396100Y-20701000I-20000J0D01*
G01*
X37408800Y-21996400D02*
G75*
G03X37408800Y-21996400I-20000J0D01*
G01*
X38081900Y-23723600D02*
G75*
G03X38081900Y-23723600I-20000J0D01*
G01*
X38240798Y-23590102D02*
G75*
G03X38240798Y-23590102I-20000J0D01*
G01*
X38361300Y-21945600D02*
G75*
G03X38361300Y-21945600I-20000J0D01*
G01*
X38361300Y-24536400D02*
G75*
G03X38361300Y-24536400I-20000J0D01*
G01*
X38475600Y-26924000D02*
G75*
G03X38475600Y-26924000I-20000J0D01*
G01*
X38602600Y-22479000D02*
G75*
G03X38602600Y-22479000I-20000J0D01*
G01*
X38666100Y-33172400D02*
G75*
G03X38666100Y-33172400I-20000J0D01*
G01*
X38869300Y-28308300D02*
G75*
G03X38869300Y-28308300I-20000J0D01*
G01*
X38970900Y-22694900D02*
G75*
G03X38970900Y-22694900I-20000J0D01*
G01*
X38970900Y-23901400D02*
G75*
G03X38970900Y-23901400I-20000J0D01*
G01*
X39153601Y-21127899D02*
G75*
G03X39153601Y-21127899I-20000J0D01*
G01*
X39174100Y-21945600D02*
G75*
G03X39174100Y-21945600I-20000J0D01*
G01*
X39250300Y-21127899D02*
G75*
G03X39250300Y-21127899I-20000J0D01*
G01*
X39275700Y-21018500D02*
G75*
G03X39275700Y-21018500I-20000J0D01*
G01*
X39326500Y-21793200D02*
G75*
G03X39326500Y-21793200I-20000J0D01*
G01*
X39707500Y-22733000D02*
G75*
G03X39707500Y-22733000I-20000J0D01*
G01*
X39847200Y-26365200D02*
G75*
G03X39847200Y-26365200I-20000J0D01*
G01*
X40012300Y-25965150D02*
G75*
G03X40012300Y-25965150I-20000J0D01*
G01*
X40037700Y-23876000D02*
G75*
G03X40037700Y-23876000I-20000J0D01*
G01*
X40088500Y-22167850D02*
G75*
G03X40088500Y-22167850I-20000J0D01*
G01*
X40139300Y-33629600D02*
G75*
G03X40139300Y-33629600I-20000J0D01*
G01*
X40215500Y-24542750D02*
G75*
G03X40215500Y-24542750I-20000J0D01*
G01*
X40327501Y-24906999D02*
G75*
G03X40327501Y-24906999I-20000J0D01*
G01*
X40343949Y-25785901D02*
G75*
G03X40343949Y-25785901I-20000J0D01*
G01*
X40355200Y-29622750D02*
G75*
G03X40355200Y-29622750I-20000J0D01*
G01*
X40356649Y-27703601D02*
G75*
G03X40356649Y-27703601I-20000J0D01*
G01*
X40439502Y-23012400D02*
G75*
G03X40439502Y-23012400I-20000J0D01*
G01*
X40672700Y-24079200D02*
G75*
G03X40672700Y-24079200I-20000J0D01*
G01*
X40799700Y-24257000D02*
G75*
G03X40799700Y-24257000I-20000J0D01*
G01*
X40825100Y-21704300D02*
G75*
G03X40825100Y-21704300I-20000J0D01*
G01*
X40850500Y-20434300D02*
G75*
G03X40850500Y-20434300I-20000J0D01*
G01*
X40952100Y-22758400D02*
G75*
G03X40952100Y-22758400I-20000J0D01*
G01*
X40952100Y-24066500D02*
G75*
G03X40952100Y-24066500I-20000J0D01*
G01*
X41102700Y-21477500D02*
G75*
G03X41102700Y-21477500I-20000J0D01*
G01*
X41104500Y-25615900D02*
G75*
G03X41104500Y-25615900I-20000J0D01*
G01*
X41231500Y-21297900D02*
G75*
G03X41231500Y-21297900I-20000J0D01*
G01*
X41282300Y-20434300D02*
G75*
G03X41282300Y-20434300I-20000J0D01*
G01*
X41422000Y-23901400D02*
G75*
G03X41422000Y-23901400I-20000J0D01*
G01*
X41930000Y-23888700D02*
G75*
G03X41930000Y-23888700I-20000J0D01*
G01*
X41942700Y-28536900D02*
G75*
G03X41942700Y-28536900I-20000J0D01*
G01*
X41955400Y-26644600D02*
G75*
G03X41955400Y-26644600I-20000J0D01*
G01*
X41968100Y-31369000D02*
G75*
G03X41968100Y-31369000I-20000J0D01*
G01*
X42031600Y-20434300D02*
G75*
G03X42031600Y-20434300I-20000J0D01*
G01*
X42120500Y-23444200D02*
G75*
G03X42120500Y-23444200I-20000J0D01*
G01*
X42123100Y-24216300D02*
G75*
G03X42123100Y-24216300I-20000J0D01*
G01*
X42133200Y-21653500D02*
G75*
G03X42133200Y-21653500I-20000J0D01*
G01*
X42234800Y-23279100D02*
G75*
G03X42234800Y-23279100I-20000J0D01*
G01*
X42234800Y-28695650D02*
G75*
G03X42234800Y-28695650I-20000J0D01*
G01*
X42234800Y-32626300D02*
G75*
G03X42234800Y-32626300I-20000J0D01*
G01*
X42347102Y-23585898D02*
G75*
G03X42347102Y-23585898I-20000J0D01*
G01*
X42387200Y-24218900D02*
G75*
G03X42387200Y-24218900I-20000J0D01*
G01*
X42476100Y-20434300D02*
G75*
G03X42476100Y-20434300I-20000J0D01*
G01*
X42844400Y-21945600D02*
G75*
G03X42844400Y-21945600I-20000J0D01*
G01*
X43123800Y-25666700D02*
G75*
G03X43123800Y-25666700I-20000J0D01*
G01*
X43149200Y-24066500D02*
G75*
G03X43149200Y-24066500I-20000J0D01*
G01*
X43238701Y-26351899D02*
G75*
G03X43238701Y-26351899I-20000J0D01*
G01*
X43619100Y-23558500D02*
G75*
G03X43619100Y-23558500I-20000J0D01*
G01*
X44190600Y-30562550D02*
G75*
G03X44190600Y-30562550I-20000J0D01*
G01*
X44191468Y-27699568D02*
G75*
G03X44191468Y-27699568I-20000J0D01*
G01*
X44192049Y-25785901D02*
G75*
G03X44192049Y-25785901I-20000J0D01*
G01*
X44457300Y-22745700D02*
G75*
G03X44457300Y-22745700I-20000J0D01*
G01*
X44647800Y-21844000D02*
G75*
G03X44647800Y-21844000I-20000J0D01*
G01*
X45282800Y-21602700D02*
G75*
G03X45282800Y-21602700I-20000J0D01*
G01*
X38925500Y-20668500D02*
X38925500Y-20733500D01*
X38893000Y-20701000D02*
X38958000Y-20701000D01*
X39052500Y-20668500D02*
X39052500Y-20733500D01*
X39020000Y-20701000D02*
X39085000Y-20701000D01*
X39179500Y-20668500D02*
X39179500Y-20733500D01*
X39147000Y-20701000D02*
X39212000Y-20701000D01*
X39306500Y-20668500D02*
X39306500Y-20733500D01*
X39274000Y-20701000D02*
X39339000Y-20701000D01*
X39433500Y-20668500D02*
X39433500Y-20733500D01*
X39401000Y-20701000D02*
X39466000Y-20701000D01*
X39560500Y-20668500D02*
X39560500Y-20733500D01*
X39528000Y-20701000D02*
X39593000Y-20701000D01*
X39687500Y-20668500D02*
X39687500Y-20733500D01*
X39655000Y-20701000D02*
X39720000Y-20701000D01*
X39814500Y-20668500D02*
X39814500Y-20733500D01*
X39782000Y-20701000D02*
X39847000Y-20701000D01*
X39941500Y-20668500D02*
X39941500Y-20733500D01*
X39909000Y-20701000D02*
X39974000Y-20701000D01*
X40068500Y-20668500D02*
X40068500Y-20733500D01*
X40036000Y-20701000D02*
X40101000Y-20701000D01*
X40195500Y-20668500D02*
X40195500Y-20733500D01*
X40163000Y-20701000D02*
X40228000Y-20701000D01*
X40322500Y-20668500D02*
X40322500Y-20733500D01*
X40290000Y-20701000D02*
X40355000Y-20701000D01*
X40449500Y-20668500D02*
X40449500Y-20733500D01*
X40417000Y-20701000D02*
X40482000Y-20701000D01*
X40576500Y-20668500D02*
X40576500Y-20733500D01*
X40544000Y-20701000D02*
X40609000Y-20701000D01*
X40703500Y-20668500D02*
X40703500Y-20733500D01*
X40671000Y-20701000D02*
X40736000Y-20701000D01*
X40830500Y-20668500D02*
X40830500Y-20733500D01*
X40798000Y-20701000D02*
X40863000Y-20701000D01*
X40957500Y-20668500D02*
X40957500Y-20733500D01*
X40925000Y-20701000D02*
X40990000Y-20701000D01*
X41084500Y-20668500D02*
X41084500Y-20733500D01*
X41052000Y-20701000D02*
X41117000Y-20701000D01*
X41211500Y-20668500D02*
X41211500Y-20733500D01*
X41179000Y-20701000D02*
X41244000Y-20701000D01*
X41338500Y-20668500D02*
X41338500Y-20733500D01*
X41306000Y-20701000D02*
X41371000Y-20701000D01*
X41465500Y-20668500D02*
X41465500Y-20733500D01*
X41433000Y-20701000D02*
X41498000Y-20701000D01*
X41592500Y-20668500D02*
X41592500Y-20733500D01*
X41560000Y-20701000D02*
X41625000Y-20701000D01*
X41719500Y-20668500D02*
X41719500Y-20733500D01*
X41687000Y-20701000D02*
X41752000Y-20701000D01*
X41846500Y-20668500D02*
X41846500Y-20733500D01*
X41814000Y-20701000D02*
X41879000Y-20701000D01*
X41973500Y-20668500D02*
X41973500Y-20733500D01*
X41941000Y-20701000D02*
X42006000Y-20701000D01*
X26870456Y-21053856D02*
X26870456Y-20983144D01*
X26799744Y-20983144D01*
X26799744Y-21053856D01*
X26870456Y-21053856D01*
X27124456Y-21053856D02*
X27124456Y-20983144D01*
X27053744Y-20983144D01*
X27053744Y-21053856D01*
X27124456Y-21053856D01*
X27378456Y-21053856D02*
X27378456Y-20983144D01*
X27307744Y-20983144D01*
X27307744Y-21053856D01*
X27378456Y-21053856D01*
X27632456Y-21053856D02*
X27632456Y-20983144D01*
X27561744Y-20983144D01*
X27561744Y-21053856D01*
X27632456Y-21053856D01*
X27886456Y-21053856D02*
X27886456Y-20983144D01*
X27815744Y-20983144D01*
X27815744Y-21053856D01*
X27886456Y-21053856D01*
X28140456Y-21053856D02*
X28140456Y-20983144D01*
X28069744Y-20983144D01*
X28069744Y-21053856D01*
X28140456Y-21053856D01*
X28394456Y-21053856D02*
X28394456Y-20983144D01*
X28323744Y-20983144D01*
X28323744Y-21053856D01*
X28394456Y-21053856D01*
X28648456Y-21053856D02*
X28648456Y-20983144D01*
X28577744Y-20983144D01*
X28577744Y-21053856D01*
X28648456Y-21053856D01*
X28902456Y-21053856D02*
X28902456Y-20983144D01*
X28831744Y-20983144D01*
X28831744Y-21053856D01*
X28902456Y-21053856D01*
X29156456Y-21053856D02*
X29156456Y-20983144D01*
X29085744Y-20983144D01*
X29085744Y-21053856D01*
X29156456Y-21053856D01*
X29410456Y-21053856D02*
X29410456Y-20983144D01*
X29339744Y-20983144D01*
X29339744Y-21053856D01*
X29410456Y-21053856D01*
X29664456Y-21053856D02*
X29664456Y-20983144D01*
X29593744Y-20983144D01*
X29593744Y-21053856D01*
X29664456Y-21053856D01*
X29918456Y-21053856D02*
X29918456Y-20983144D01*
X29847744Y-20983144D01*
X29847744Y-21053856D01*
X29918456Y-21053856D01*
X30172456Y-21053856D02*
X30172456Y-20983144D01*
X30101744Y-20983144D01*
X30101744Y-21053856D01*
X30172456Y-21053856D01*
X30426456Y-21053856D02*
X30426456Y-20983144D01*
X30355744Y-20983144D01*
X30355744Y-21053856D01*
X30426456Y-21053856D01*
X30680456Y-21053856D02*
X30680456Y-20983144D01*
X30609744Y-20983144D01*
X30609744Y-21053856D01*
X30680456Y-21053856D01*
X30934456Y-21053856D02*
X30934456Y-20983144D01*
X30863744Y-20983144D01*
X30863744Y-21053856D01*
X30934456Y-21053856D01*
X31188456Y-21053856D02*
X31188456Y-20983144D01*
X31117744Y-20983144D01*
X31117744Y-21053856D01*
X31188456Y-21053856D01*
X31442456Y-21053856D02*
X31442456Y-20983144D01*
X31371744Y-20983144D01*
X31371744Y-21053856D01*
X31442456Y-21053856D01*
X31696456Y-21053856D02*
X31696456Y-20983144D01*
X31625744Y-20983144D01*
X31625744Y-21053856D01*
X31696456Y-21053856D01*
X31950456Y-21053856D02*
X31950456Y-20983144D01*
X31879744Y-20983144D01*
X31879744Y-21053856D01*
X31950456Y-21053856D01*
X32204456Y-21053856D02*
X32204456Y-20983144D01*
X32133744Y-20983144D01*
X32133744Y-21053856D01*
X32204456Y-21053856D01*
X32458456Y-21053856D02*
X32458456Y-20983144D01*
X32387744Y-20983144D01*
X32387744Y-21053856D01*
X32458456Y-21053856D01*
X32712456Y-21053856D02*
X32712456Y-20983144D01*
X32641744Y-20983144D01*
X32641744Y-21053856D01*
X32712456Y-21053856D01*
X32966456Y-21053856D02*
X32966456Y-20983144D01*
X32895744Y-20983144D01*
X32895744Y-21053856D01*
X32966456Y-21053856D01*
X33220456Y-21053856D02*
X33220456Y-20983144D01*
X33149744Y-20983144D01*
X33149744Y-21053856D01*
X33220456Y-21053856D01*
X33474456Y-21053856D02*
X33474456Y-20983144D01*
X33403744Y-20983144D01*
X33403744Y-21053856D01*
X33474456Y-21053856D01*
X33728456Y-21053856D02*
X33728456Y-20983144D01*
X33657744Y-20983144D01*
X33657744Y-21053856D01*
X33728456Y-21053856D01*
X33982456Y-21053856D02*
X33982456Y-20983144D01*
X33911744Y-20983144D01*
X33911744Y-21053856D01*
X33982456Y-21053856D01*
X34236456Y-21053856D02*
X34236456Y-20983144D01*
X34165744Y-20983144D01*
X34165744Y-21053856D01*
X34236456Y-21053856D01*
X34490456Y-21053856D02*
X34490456Y-20983144D01*
X34419744Y-20983144D01*
X34419744Y-21053856D01*
X34490456Y-21053856D01*
X34744456Y-21053856D02*
X34744456Y-20983144D01*
X34673744Y-20983144D01*
X34673744Y-21053856D01*
X34744456Y-21053856D01*
X34998456Y-21053856D02*
X34998456Y-20983144D01*
X34927744Y-20983144D01*
X34927744Y-21053856D01*
X34998456Y-21053856D01*
X35252456Y-21053856D02*
X35252456Y-20983144D01*
X35181744Y-20983144D01*
X35181744Y-21053856D01*
X35252456Y-21053856D01*
X35506456Y-21053856D02*
X35506456Y-20983144D01*
X35435744Y-20983144D01*
X35435744Y-21053856D01*
X35506456Y-21053856D01*
X35760456Y-21053856D02*
X35760456Y-20983144D01*
X35689744Y-20983144D01*
X35689744Y-21053856D01*
X35760456Y-21053856D01*
X36014456Y-21053856D02*
X36014456Y-20983144D01*
X35943744Y-20983144D01*
X35943744Y-21053856D01*
X36014456Y-21053856D01*
X36268456Y-21053856D02*
X36268456Y-20983144D01*
X36197744Y-20983144D01*
X36197744Y-21053856D01*
X36268456Y-21053856D01*
X36522456Y-21053856D02*
X36522456Y-20983144D01*
X36451744Y-20983144D01*
X36451744Y-21053856D01*
X36522456Y-21053856D01*
X36776456Y-21053856D02*
X36776456Y-20983144D01*
X36705744Y-20983144D01*
X36705744Y-21053856D01*
X36776456Y-21053856D01*
X25309350Y-22275500D02*
X25384350Y-22200500D01*
X25309350Y-22125500D01*
X25234350Y-22200500D01*
X25309350Y-22275500D01*
X25944350Y-22021500D02*
X26019350Y-21946500D01*
X25944350Y-21871500D01*
X25869350Y-21946500D01*
X25944350Y-22021500D01*
X12896850Y-25043200D02*
X12971850Y-24968200D01*
X12896850Y-24893200D01*
X12821850Y-24968200D01*
X12896850Y-25043200D01*
X13531850Y-24789200D02*
X13606850Y-24714200D01*
X13531850Y-24639200D01*
X13456850Y-24714200D01*
X13531850Y-24789200D01*
X33978850Y-32707650D02*
X34053850Y-32632650D01*
X33978850Y-32557650D01*
X33903850Y-32632650D01*
X33978850Y-32707650D01*
X34613850Y-32453650D02*
X34688850Y-32378650D01*
X34613850Y-32303650D01*
X34538850Y-32378650D01*
X34613850Y-32453650D01*
X14814550Y-25043200D02*
X14889550Y-24968200D01*
X14814550Y-24893200D01*
X14739550Y-24968200D01*
X14814550Y-25043200D01*
X15449550Y-24789200D02*
X15524550Y-24714200D01*
X15449550Y-24639200D01*
X15374550Y-24714200D01*
X15449550Y-24789200D01*
X41044650Y-28878600D02*
X41119650Y-28803600D01*
X41044650Y-28728600D01*
X40969650Y-28803600D01*
X41044650Y-28878600D01*
X41679650Y-28624600D02*
X41754650Y-28549600D01*
X41679650Y-28474600D01*
X41604650Y-28549600D01*
X41679650Y-28624600D01*
X12890500Y-22274600D02*
X12965500Y-22199600D01*
X12890500Y-22124600D01*
X12815500Y-22199600D01*
X12890500Y-22274600D01*
X13525500Y-22020600D02*
X13600500Y-21945600D01*
X13525500Y-21870600D01*
X13450500Y-21945600D01*
X13525500Y-22020600D01*
X17691100Y-30796300D02*
X17766100Y-30721300D01*
X17691100Y-30646300D01*
X17616100Y-30721300D01*
X17691100Y-30796300D01*
X18326100Y-30542300D02*
X18401100Y-30467300D01*
X18326100Y-30392300D01*
X18251100Y-30467300D01*
X18326100Y-30542300D01*
X36131500Y-32707650D02*
X36206500Y-32632650D01*
X36131500Y-32557650D01*
X36056500Y-32632650D01*
X36131500Y-32707650D01*
X36766500Y-32453650D02*
X36841500Y-32378650D01*
X36766500Y-32303650D01*
X36691500Y-32378650D01*
X36766500Y-32453650D01*
X10979150Y-25043200D02*
X11054150Y-24968200D01*
X10979150Y-24893200D01*
X10904150Y-24968200D01*
X10979150Y-25043200D01*
X11614150Y-24789200D02*
X11689150Y-24714200D01*
X11614150Y-24639200D01*
X11539150Y-24714200D01*
X11614150Y-24789200D01*
X21526500Y-30796300D02*
X21601500Y-30721300D01*
X21526500Y-30646300D01*
X21451500Y-30721300D01*
X21526500Y-30796300D01*
X22161500Y-30542300D02*
X22236500Y-30467300D01*
X22161500Y-30392300D01*
X22086500Y-30467300D01*
X22161500Y-30542300D01*
X10985500Y-28878600D02*
X11060500Y-28803600D01*
X10985500Y-28728600D01*
X10910500Y-28803600D01*
X10985500Y-28878600D01*
X11620500Y-28624600D02*
X11695500Y-28549600D01*
X11620500Y-28474600D01*
X11545500Y-28549600D01*
X11620500Y-28624600D01*
X29197300Y-26960900D02*
X29272300Y-26885900D01*
X29197300Y-26810900D01*
X29122300Y-26885900D01*
X29197300Y-26960900D01*
X29832300Y-26706900D02*
X29907300Y-26631900D01*
X29832300Y-26556900D01*
X29757300Y-26631900D01*
X29832300Y-26706900D01*
X33032700Y-26960900D02*
X33107700Y-26885900D01*
X33032700Y-26810900D01*
X32957700Y-26885900D01*
X33032700Y-26960900D01*
X33667700Y-26706900D02*
X33742700Y-26631900D01*
X33667700Y-26556900D01*
X33592700Y-26631900D01*
X33667700Y-26706900D01*
X7143750Y-25043200D02*
X7218750Y-24968200D01*
X7143750Y-24893200D01*
X7068750Y-24968200D01*
X7143750Y-25043200D01*
X7778750Y-24789200D02*
X7853750Y-24714200D01*
X7778750Y-24639200D01*
X7703750Y-24714200D01*
X7778750Y-24789200D01*
X30156150Y-25043200D02*
X30231150Y-24968200D01*
X30156150Y-24893200D01*
X30081150Y-24968200D01*
X30156150Y-25043200D01*
X30791150Y-24789200D02*
X30866150Y-24714200D01*
X30791150Y-24639200D01*
X30716150Y-24714200D01*
X30791150Y-24789200D01*
X40092150Y-30796300D02*
X40167150Y-30721300D01*
X40092150Y-30646300D01*
X40017150Y-30721300D01*
X40092150Y-30796300D01*
X40727150Y-30542300D02*
X40802150Y-30467300D01*
X40727150Y-30392300D01*
X40652150Y-30467300D01*
X40727150Y-30542300D01*
X19608800Y-26960900D02*
X19683800Y-26885900D01*
X19608800Y-26810900D01*
X19533800Y-26885900D01*
X19608800Y-26960900D01*
X20243800Y-26706900D02*
X20318800Y-26631900D01*
X20243800Y-26556900D01*
X20168800Y-26631900D01*
X20243800Y-26706900D01*
X27279600Y-30796300D02*
X27354600Y-30721300D01*
X27279600Y-30646300D01*
X27204600Y-30721300D01*
X27279600Y-30796300D01*
X27914600Y-30542300D02*
X27989600Y-30467300D01*
X27914600Y-30392300D01*
X27839600Y-30467300D01*
X27914600Y-30542300D01*
X42962350Y-26960900D02*
X43037350Y-26885900D01*
X42962350Y-26810900D01*
X42887350Y-26885900D01*
X42962350Y-26960900D01*
X43597350Y-26706900D02*
X43672350Y-26631900D01*
X43597350Y-26556900D01*
X43522350Y-26631900D01*
X43597350Y-26706900D01*
X35328860Y-22275500D02*
X35403860Y-22200500D01*
X35328860Y-22125500D01*
X35253860Y-22200500D01*
X35328860Y-22275500D01*
X35963860Y-22021500D02*
X36038860Y-21946500D01*
X35963860Y-21871500D01*
X35888860Y-21946500D01*
X35963860Y-22021500D01*
X18656300Y-28878600D02*
X18731300Y-28803600D01*
X18656300Y-28728600D01*
X18581300Y-28803600D01*
X18656300Y-28878600D01*
X19291300Y-28624600D02*
X19366300Y-28549600D01*
X19291300Y-28474600D01*
X19216300Y-28549600D01*
X19291300Y-28624600D01*
X28244800Y-28878600D02*
X28319800Y-28803600D01*
X28244800Y-28728600D01*
X28169800Y-28803600D01*
X28244800Y-28878600D01*
X28879800Y-28624600D02*
X28954800Y-28549600D01*
X28879800Y-28474600D01*
X28804800Y-28549600D01*
X28879800Y-28624600D01*
X41044650Y-25043200D02*
X41119650Y-24968200D01*
X41044650Y-24893200D01*
X40969650Y-24968200D01*
X41044650Y-25043200D01*
X41679650Y-24789200D02*
X41754650Y-24714200D01*
X41679650Y-24639200D01*
X41604650Y-24714200D01*
X41679650Y-24789200D01*
X35426650Y-26960900D02*
X35501650Y-26885900D01*
X35426650Y-26810900D01*
X35351650Y-26885900D01*
X35426650Y-26960900D01*
X36061650Y-26706900D02*
X36136650Y-26631900D01*
X36061650Y-26556900D01*
X35986650Y-26631900D01*
X36061650Y-26706900D01*
X37236400Y-22275870D02*
X37311400Y-22200870D01*
X37236400Y-22125870D01*
X37161400Y-22200870D01*
X37236400Y-22275870D01*
X37871400Y-22021870D02*
X37946400Y-21946870D01*
X37871400Y-21871870D01*
X37796400Y-21946870D01*
X37871400Y-22021870D01*
X16738600Y-28878600D02*
X16813600Y-28803600D01*
X16738600Y-28728600D01*
X16663600Y-28803600D01*
X16738600Y-28878600D01*
X17373600Y-28624600D02*
X17448600Y-28549600D01*
X17373600Y-28474600D01*
X17298600Y-28549600D01*
X17373600Y-28624600D01*
X26320750Y-25043200D02*
X26395750Y-24968200D01*
X26320750Y-24893200D01*
X26245750Y-24968200D01*
X26320750Y-25043200D01*
X26955750Y-24789200D02*
X27030750Y-24714200D01*
X26955750Y-24639200D01*
X26880750Y-24714200D01*
X26955750Y-24789200D01*
X44880050Y-29831100D02*
X44955050Y-29756100D01*
X44880050Y-29681100D01*
X44805050Y-29756100D01*
X44880050Y-29831100D01*
X45515050Y-29577100D02*
X45590050Y-29502100D01*
X45515050Y-29427100D01*
X45440050Y-29502100D01*
X45515050Y-29577100D01*
X35185350Y-28878600D02*
X35260350Y-28803600D01*
X35185350Y-28728600D01*
X35110350Y-28803600D01*
X35185350Y-28878600D01*
X35820350Y-28624600D02*
X35895350Y-28549600D01*
X35820350Y-28474600D01*
X35745350Y-28549600D01*
X35820350Y-28624600D01*
X19608800Y-30796300D02*
X19683800Y-30721300D01*
X19608800Y-30646300D01*
X19533800Y-30721300D01*
X19608800Y-30796300D01*
X20243800Y-30542300D02*
X20318800Y-30467300D01*
X20243800Y-30392300D01*
X20168800Y-30467300D01*
X20243800Y-30542300D01*
X44880050Y-25043200D02*
X44955050Y-24968200D01*
X44880050Y-24893200D01*
X44805050Y-24968200D01*
X44880050Y-25043200D01*
X45515050Y-24789200D02*
X45590050Y-24714200D01*
X45515050Y-24639200D01*
X45440050Y-24714200D01*
X45515050Y-24789200D01*
X13855700Y-26960900D02*
X13930700Y-26885900D01*
X13855700Y-26810900D01*
X13780700Y-26885900D01*
X13855700Y-26960900D01*
X14490700Y-26706900D02*
X14565700Y-26631900D01*
X14490700Y-26556900D01*
X14415700Y-26631900D01*
X14490700Y-26706900D01*
X15773400Y-26960900D02*
X15848400Y-26885900D01*
X15773400Y-26810900D01*
X15698400Y-26885900D01*
X15773400Y-26960900D01*
X16408400Y-26706900D02*
X16483400Y-26631900D01*
X16408400Y-26556900D01*
X16333400Y-26631900D01*
X16408400Y-26706900D01*
X10979150Y-22275500D02*
X11054150Y-22200500D01*
X10979150Y-22125500D01*
X10904150Y-22200500D01*
X10979150Y-22275500D01*
X11614150Y-22021500D02*
X11689150Y-21946500D01*
X11614150Y-21871500D01*
X11539150Y-21946500D01*
X11614150Y-22021500D01*
X21526500Y-32714000D02*
X21601500Y-32639000D01*
X21526500Y-32564000D01*
X21451500Y-32639000D01*
X21526500Y-32714000D01*
X22161500Y-32460000D02*
X22236500Y-32385000D01*
X22161500Y-32310000D01*
X22086500Y-32385000D01*
X22161500Y-32460000D01*
X33978850Y-30796300D02*
X34053850Y-30721300D01*
X33978850Y-30646300D01*
X33903850Y-30721300D01*
X33978850Y-30796300D01*
X34613850Y-30542300D02*
X34688850Y-30467300D01*
X34613850Y-30392300D01*
X34538850Y-30467300D01*
X34613850Y-30542300D01*
X18649950Y-25043200D02*
X18724950Y-24968200D01*
X18649950Y-24893200D01*
X18574950Y-24968200D01*
X18649950Y-25043200D01*
X19284950Y-24789200D02*
X19359950Y-24714200D01*
X19284950Y-24639200D01*
X19209950Y-24714200D01*
X19284950Y-24789200D01*
X39126950Y-28878600D02*
X39201950Y-28803600D01*
X39126950Y-28728600D01*
X39051950Y-28803600D01*
X39126950Y-28878600D01*
X39761950Y-28624600D02*
X39836950Y-28549600D01*
X39761950Y-28474600D01*
X39686950Y-28549600D01*
X39761950Y-28624600D01*
X33991550Y-25043200D02*
X34066550Y-24968200D01*
X33991550Y-24893200D01*
X33916550Y-24968200D01*
X33991550Y-25043200D01*
X34626550Y-24789200D02*
X34701550Y-24714200D01*
X34626550Y-24639200D01*
X34551550Y-24714200D01*
X34626550Y-24789200D01*
X12903200Y-28878600D02*
X12978200Y-28803600D01*
X12903200Y-28728600D01*
X12828200Y-28803600D01*
X12903200Y-28878600D01*
X13538200Y-28624600D02*
X13613200Y-28549600D01*
X13538200Y-28474600D01*
X13463200Y-28549600D01*
X13538200Y-28624600D01*
X7874000Y-32714000D02*
X7949000Y-32639000D01*
X7874000Y-32564000D01*
X7799000Y-32639000D01*
X7874000Y-32714000D01*
X8509000Y-32460000D02*
X8584000Y-32385000D01*
X8509000Y-32310000D01*
X8434000Y-32385000D01*
X8509000Y-32460000D01*
X25361900Y-30796300D02*
X25436900Y-30721300D01*
X25361900Y-30646300D01*
X25286900Y-30721300D01*
X25361900Y-30796300D01*
X25996900Y-30542300D02*
X26071900Y-30467300D01*
X25996900Y-30392300D01*
X25921900Y-30467300D01*
X25996900Y-30542300D01*
X7626350Y-26960900D02*
X7701350Y-26885900D01*
X7626350Y-26810900D01*
X7551350Y-26885900D01*
X7626350Y-26960900D01*
X8261350Y-26706900D02*
X8336350Y-26631900D01*
X8261350Y-26556900D01*
X8186350Y-26631900D01*
X8261350Y-26706900D01*
X19100800Y-22274600D02*
X19175800Y-22199600D01*
X19100800Y-22124600D01*
X19025800Y-22199600D01*
X19100800Y-22274600D01*
X19735800Y-22020600D02*
X19810800Y-21945600D01*
X19735800Y-21870600D01*
X19660800Y-21945600D01*
X19735800Y-22020600D01*
X8356600Y-28878600D02*
X8431600Y-28803600D01*
X8356600Y-28728600D01*
X8281600Y-28803600D01*
X8356600Y-28878600D01*
X8991600Y-28624600D02*
X9066600Y-28549600D01*
X8991600Y-28474600D01*
X8916600Y-28549600D01*
X8991600Y-28624600D01*
X27279600Y-26960900D02*
X27354600Y-26885900D01*
X27279600Y-26810900D01*
X27204600Y-26885900D01*
X27279600Y-26960900D01*
X27914600Y-26706900D02*
X27989600Y-26631900D01*
X27914600Y-26556900D01*
X27839600Y-26631900D01*
X27914600Y-26706900D01*
X42962350Y-30796300D02*
X43037350Y-30721300D01*
X42962350Y-30646300D01*
X42887350Y-30721300D01*
X42962350Y-30796300D01*
X43597350Y-30542300D02*
X43672350Y-30467300D01*
X43597350Y-30392300D01*
X43522350Y-30467300D01*
X43597350Y-30542300D01*
X32080200Y-28878600D02*
X32155200Y-28803600D01*
X32080200Y-28728600D01*
X32005200Y-28803600D01*
X32080200Y-28878600D01*
X32715200Y-28624600D02*
X32790200Y-28549600D01*
X32715200Y-28474600D01*
X32640200Y-28549600D01*
X32715200Y-28624600D01*
X9061450Y-25043200D02*
X9136450Y-24968200D01*
X9061450Y-24893200D01*
X8986450Y-24968200D01*
X9061450Y-25043200D01*
X9696450Y-24789200D02*
X9771450Y-24714200D01*
X9696450Y-24639200D01*
X9621450Y-24714200D01*
X9696450Y-24789200D01*
X44881800Y-22274600D02*
X44956800Y-22199600D01*
X44881800Y-22124600D01*
X44806800Y-22199600D01*
X44881800Y-22274600D01*
X45516800Y-22020600D02*
X45591800Y-21945600D01*
X45516800Y-21870600D01*
X45441800Y-21945600D01*
X45516800Y-22020600D01*
X23444200Y-30796300D02*
X23519200Y-30721300D01*
X23444200Y-30646300D01*
X23369200Y-30721300D01*
X23444200Y-30796300D01*
X24079200Y-30542300D02*
X24154200Y-30467300D01*
X24079200Y-30392300D01*
X24004200Y-30467300D01*
X24079200Y-30542300D01*
X29144750Y-22275500D02*
X29219750Y-22200500D01*
X29144750Y-22125500D01*
X29069750Y-22200500D01*
X29144750Y-22275500D01*
X29779750Y-22021500D02*
X29854750Y-21946500D01*
X29779750Y-21871500D01*
X29704750Y-21946500D01*
X29779750Y-22021500D01*
X39147750Y-22275500D02*
X39222750Y-22200500D01*
X39147750Y-22125500D01*
X39072750Y-22200500D01*
X39147750Y-22275500D01*
X39782750Y-22021500D02*
X39857750Y-21946500D01*
X39782750Y-21871500D01*
X39707750Y-21946500D01*
X39782750Y-22021500D01*
X21526500Y-26960900D02*
X21601500Y-26885900D01*
X21526500Y-26810900D01*
X21451500Y-26885900D01*
X21526500Y-26960900D01*
X22161500Y-26706900D02*
X22236500Y-26631900D01*
X22161500Y-26556900D01*
X22086500Y-26631900D01*
X22161500Y-26706900D01*
X30162500Y-28878600D02*
X30237500Y-28803600D01*
X30162500Y-28728600D01*
X30087500Y-28803600D01*
X30162500Y-28878600D01*
X30797500Y-28624600D02*
X30872500Y-28549600D01*
X30797500Y-28474600D01*
X30722500Y-28549600D01*
X30797500Y-28624600D01*
X7143750Y-22275500D02*
X7218750Y-22200500D01*
X7143750Y-22125500D01*
X7068750Y-22200500D01*
X7143750Y-22275500D01*
X7778750Y-22021500D02*
X7853750Y-21946500D01*
X7778750Y-21871500D01*
X7703750Y-21946500D01*
X7778750Y-22021500D01*
X41059100Y-22274600D02*
X41134100Y-22199600D01*
X41059100Y-22124600D01*
X40984100Y-22199600D01*
X41059100Y-22274600D01*
X41694100Y-22020600D02*
X41769100Y-21945600D01*
X41694100Y-21870600D01*
X41619100Y-21945600D01*
X41694100Y-22020600D01*
X17691100Y-26960900D02*
X17766100Y-26885900D01*
X17691100Y-26810900D01*
X17616100Y-26885900D01*
X17691100Y-26960900D01*
X18326100Y-26706900D02*
X18401100Y-26631900D01*
X18326100Y-26556900D01*
X18251100Y-26631900D01*
X18326100Y-26706900D01*
X31115000Y-26960900D02*
X31190000Y-26885900D01*
X31115000Y-26810900D01*
X31040000Y-26885900D01*
X31115000Y-26960900D01*
X31750000Y-26706900D02*
X31825000Y-26631900D01*
X31750000Y-26556900D01*
X31675000Y-26631900D01*
X31750000Y-26706900D01*
X17184370Y-22275500D02*
X17259370Y-22200500D01*
X17184370Y-22125500D01*
X17109370Y-22200500D01*
X17184370Y-22275500D01*
X17819370Y-22021500D02*
X17894370Y-21946500D01*
X17819370Y-21871500D01*
X17744370Y-21946500D01*
X17819370Y-22021500D01*
X42970450Y-22275500D02*
X43045450Y-22200500D01*
X42970450Y-22125500D01*
X42895450Y-22200500D01*
X42970450Y-22275500D01*
X43605450Y-22021500D02*
X43680450Y-21946500D01*
X43605450Y-21871500D01*
X43530450Y-21946500D01*
X43605450Y-22021500D01*
X15773400Y-30796300D02*
X15848400Y-30721300D01*
X15773400Y-30646300D01*
X15698400Y-30721300D01*
X15773400Y-30796300D01*
X16408400Y-30542300D02*
X16483400Y-30467300D01*
X16408400Y-30392300D01*
X16333400Y-30467300D01*
X16408400Y-30542300D01*
X25361900Y-26960900D02*
X25436900Y-26885900D01*
X25361900Y-26810900D01*
X25286900Y-26885900D01*
X25361900Y-26960900D01*
X25996900Y-26706900D02*
X26071900Y-26631900D01*
X25996900Y-26556900D01*
X25921900Y-26631900D01*
X25996900Y-26706900D01*
X27228800Y-22274600D02*
X27303800Y-22199600D01*
X27228800Y-22124600D01*
X27153800Y-22199600D01*
X27228800Y-22274600D01*
X27863800Y-22020600D02*
X27938800Y-21945600D01*
X27863800Y-21870600D01*
X27788800Y-21945600D01*
X27863800Y-22020600D01*
X31591250Y-30796300D02*
X31666250Y-30721300D01*
X31591250Y-30646300D01*
X31516250Y-30721300D01*
X31591250Y-30796300D01*
X32226250Y-30542300D02*
X32301250Y-30467300D01*
X32226250Y-30392300D01*
X32151250Y-30467300D01*
X32226250Y-30542300D01*
X13855700Y-30796300D02*
X13930700Y-30721300D01*
X13855700Y-30646300D01*
X13780700Y-30721300D01*
X13855700Y-30796300D01*
X14490700Y-30542300D02*
X14565700Y-30467300D01*
X14490700Y-30392300D01*
X14415700Y-30467300D01*
X14490700Y-30542300D01*
X23391650Y-22275500D02*
X23466650Y-22200500D01*
X23391650Y-22125500D01*
X23316650Y-22200500D01*
X23391650Y-22275500D01*
X24026650Y-22021500D02*
X24101650Y-21946500D01*
X24026650Y-21871500D01*
X23951650Y-21946500D01*
X24026650Y-22021500D01*
X39126950Y-26960900D02*
X39201950Y-26885900D01*
X39126950Y-26810900D01*
X39051950Y-26885900D01*
X39126950Y-26960900D01*
X39761950Y-26706900D02*
X39836950Y-26631900D01*
X39761950Y-26556900D01*
X39686950Y-26631900D01*
X39761950Y-26706900D01*
X16732250Y-25043200D02*
X16807250Y-24968200D01*
X16732250Y-24893200D01*
X16657250Y-24968200D01*
X16732250Y-25043200D01*
X17367250Y-24789200D02*
X17442250Y-24714200D01*
X17367250Y-24639200D01*
X17292250Y-24714200D01*
X17367250Y-24789200D01*
X9061450Y-22275500D02*
X9136450Y-22200500D01*
X9061450Y-22125500D01*
X8986450Y-22200500D01*
X9061450Y-22275500D01*
X9696450Y-22021500D02*
X9771450Y-21946500D01*
X9696450Y-21871500D01*
X9621450Y-21946500D01*
X9696450Y-22021500D01*
X22485350Y-25043200D02*
X22560350Y-24968200D01*
X22485350Y-24893200D01*
X22410350Y-24968200D01*
X22485350Y-25043200D01*
X23120350Y-24789200D02*
X23195350Y-24714200D01*
X23120350Y-24639200D01*
X23045350Y-24714200D01*
X23120350Y-24789200D01*
X31502350Y-22275500D02*
X31577350Y-22200500D01*
X31502350Y-22125500D01*
X31427350Y-22200500D01*
X31502350Y-22275500D01*
X32137350Y-22021500D02*
X32212350Y-21946500D01*
X32137350Y-21871500D01*
X32062350Y-21946500D01*
X32137350Y-22021500D01*
X41044650Y-26960900D02*
X41119650Y-26885900D01*
X41044650Y-26810900D01*
X40969650Y-26885900D01*
X41044650Y-26960900D01*
X41679650Y-26706900D02*
X41754650Y-26631900D01*
X41679650Y-26556900D01*
X41604650Y-26631900D01*
X41679650Y-26706900D01*
X8826500Y-30796300D02*
X8901500Y-30721300D01*
X8826500Y-30646300D01*
X8751500Y-30721300D01*
X8826500Y-30796300D01*
X9461500Y-30542300D02*
X9536500Y-30467300D01*
X9461500Y-30392300D01*
X9386500Y-30467300D01*
X9461500Y-30542300D01*
X11938000Y-30796300D02*
X12013000Y-30721300D01*
X11938000Y-30646300D01*
X11863000Y-30721300D01*
X11938000Y-30796300D01*
X12573000Y-30542300D02*
X12648000Y-30467300D01*
X12573000Y-30392300D01*
X12498000Y-30467300D01*
X12573000Y-30542300D01*
X22491700Y-28878600D02*
X22566700Y-28803600D01*
X22491700Y-28728600D01*
X22416700Y-28803600D01*
X22491700Y-28878600D01*
X23126700Y-28624600D02*
X23201700Y-28549600D01*
X23126700Y-28474600D01*
X23051700Y-28549600D01*
X23126700Y-28624600D01*
X35909250Y-25043200D02*
X35984250Y-24968200D01*
X35909250Y-24893200D01*
X35834250Y-24968200D01*
X35909250Y-25043200D01*
X36544250Y-24789200D02*
X36619250Y-24714200D01*
X36544250Y-24639200D01*
X36469250Y-24714200D01*
X36544250Y-24789200D01*
X11938000Y-26960900D02*
X12013000Y-26885900D01*
X11938000Y-26810900D01*
X11863000Y-26885900D01*
X11938000Y-26960900D01*
X12573000Y-26706900D02*
X12648000Y-26631900D01*
X12573000Y-26556900D01*
X12498000Y-26631900D01*
X12573000Y-26706900D01*
X29197300Y-30796300D02*
X29272300Y-30721300D01*
X29197300Y-30646300D01*
X29122300Y-30721300D01*
X29197300Y-30796300D01*
X29832300Y-30542300D02*
X29907300Y-30467300D01*
X29832300Y-30392300D01*
X29757300Y-30467300D01*
X29832300Y-30542300D01*
X28238450Y-25043200D02*
X28313450Y-24968200D01*
X28238450Y-24893200D01*
X28163450Y-24968200D01*
X28238450Y-25043200D01*
X28873450Y-24789200D02*
X28948450Y-24714200D01*
X28873450Y-24639200D01*
X28798450Y-24714200D01*
X28873450Y-24789200D01*
X42962350Y-28878600D02*
X43037350Y-28803600D01*
X42962350Y-28728600D01*
X42887350Y-28803600D01*
X42962350Y-28878600D01*
X43597350Y-28624600D02*
X43672350Y-28549600D01*
X43597350Y-28474600D01*
X43522350Y-28549600D01*
X43597350Y-28624600D01*
X10020300Y-26960900D02*
X10095300Y-26885900D01*
X10020300Y-26810900D01*
X9945300Y-26885900D01*
X10020300Y-26960900D01*
X10655300Y-26706900D02*
X10730300Y-26631900D01*
X10655300Y-26556900D01*
X10580300Y-26631900D01*
X10655300Y-26706900D01*
X23444200Y-26960900D02*
X23519200Y-26885900D01*
X23444200Y-26810900D01*
X23369200Y-26885900D01*
X23444200Y-26960900D01*
X24079200Y-26706900D02*
X24154200Y-26631900D01*
X24079200Y-26556900D01*
X24004200Y-26631900D01*
X24079200Y-26706900D01*
X44880050Y-26960900D02*
X44955050Y-26885900D01*
X44880050Y-26810900D01*
X44805050Y-26885900D01*
X44880050Y-26960900D01*
X45515050Y-26706900D02*
X45590050Y-26631900D01*
X45515050Y-26556900D01*
X45440050Y-26631900D01*
X45515050Y-26706900D01*
X20567650Y-25043200D02*
X20642650Y-24968200D01*
X20567650Y-24893200D01*
X20492650Y-24968200D01*
X20567650Y-25043200D01*
X21202650Y-24789200D02*
X21277650Y-24714200D01*
X21202650Y-24639200D01*
X21127650Y-24714200D01*
X21202650Y-24789200D01*
X32073850Y-25043200D02*
X32148850Y-24968200D01*
X32073850Y-24893200D01*
X31998850Y-24968200D01*
X32073850Y-25043200D01*
X32708850Y-24789200D02*
X32783850Y-24714200D01*
X32708850Y-24639200D01*
X32633850Y-24714200D01*
X32708850Y-24789200D01*
X15266670Y-22275500D02*
X15341670Y-22200500D01*
X15266670Y-22125500D01*
X15191670Y-22200500D01*
X15266670Y-22275500D01*
X15901670Y-22021500D02*
X15976670Y-21946500D01*
X15901670Y-21871500D01*
X15826670Y-21946500D01*
X15901670Y-22021500D01*
X24403050Y-25043200D02*
X24478050Y-24968200D01*
X24403050Y-24893200D01*
X24328050Y-24968200D01*
X24403050Y-25043200D01*
X25038050Y-24789200D02*
X25113050Y-24714200D01*
X25038050Y-24639200D01*
X24963050Y-24714200D01*
X25038050Y-24789200D01*
X26327100Y-28878600D02*
X26402100Y-28803600D01*
X26327100Y-28728600D01*
X26252100Y-28803600D01*
X26327100Y-28878600D01*
X26962100Y-28624600D02*
X27037100Y-28549600D01*
X26962100Y-28474600D01*
X26887100Y-28549600D01*
X26962100Y-28624600D01*
X42962350Y-25043200D02*
X43037350Y-24968200D01*
X42962350Y-24893200D01*
X42887350Y-24968200D01*
X42962350Y-25043200D01*
X43597350Y-24789200D02*
X43672350Y-24714200D01*
X43597350Y-24639200D01*
X43522350Y-24714200D01*
X43597350Y-24789200D01*
X31826200Y-32707650D02*
X31901200Y-32632650D01*
X31826200Y-32557650D01*
X31751200Y-32632650D01*
X31826200Y-32707650D01*
X32461200Y-32453650D02*
X32536200Y-32378650D01*
X32461200Y-32303650D01*
X32386200Y-32378650D01*
X32461200Y-32453650D01*
X14820900Y-28878600D02*
X14895900Y-28803600D01*
X14820900Y-28728600D01*
X14745900Y-28803600D01*
X14820900Y-28878600D01*
X15455900Y-28624600D02*
X15530900Y-28549600D01*
X15455900Y-28474600D01*
X15380900Y-28549600D01*
X15455900Y-28624600D01*
X24409400Y-28878600D02*
X24484400Y-28803600D01*
X24409400Y-28728600D01*
X24334400Y-28803600D01*
X24409400Y-28878600D01*
X25044400Y-28624600D02*
X25119400Y-28549600D01*
X25044400Y-28474600D01*
X24969400Y-28549600D01*
X25044400Y-28624600D01*
X21019770Y-22275500D02*
X21094770Y-22200500D01*
X21019770Y-22125500D01*
X20944770Y-22200500D01*
X21019770Y-22275500D01*
X21654770Y-22021500D02*
X21729770Y-21946500D01*
X21654770Y-21871500D01*
X21579770Y-21946500D01*
X21654770Y-22021500D01*
X39126950Y-25043200D02*
X39201950Y-24968200D01*
X39126950Y-24893200D01*
X39051950Y-24968200D01*
X39126950Y-25043200D01*
X39761950Y-24789200D02*
X39836950Y-24714200D01*
X39761950Y-24639200D01*
X39686950Y-24714200D01*
X39761950Y-24789200D01*
X33412430Y-22275870D02*
X33487430Y-22200870D01*
X33412430Y-22125870D01*
X33337430Y-22200870D01*
X33412430Y-22275870D01*
X34047430Y-22021870D02*
X34122430Y-21946870D01*
X34047430Y-21871870D01*
X33972430Y-21946870D01*
X34047430Y-22021870D01*
X20574000Y-28878600D02*
X20649000Y-28803600D01*
X20574000Y-28728600D01*
X20499000Y-28803600D01*
X20574000Y-28878600D01*
X21209000Y-28624600D02*
X21284000Y-28549600D01*
X21209000Y-28474600D01*
X21134000Y-28549600D01*
X21209000Y-28624600D01*
X6850000Y-20850000D02*
X7150000Y-21150000D01*
X7150000Y-20850000D02*
X6850000Y-21150000D01*
X7150000Y-21000000D02*
G75*
G03X7150000Y-21000000I-150000J0D01*
G01*
X6850000Y-23850000D02*
X7150000Y-24150000D01*
X7150000Y-23850000D02*
X6850000Y-24150000D01*
X7150000Y-24000000D02*
G75*
G03X7150000Y-24000000I-150000J0D01*
G01*
X6850000Y-28850000D02*
X7150000Y-29150000D01*
X7150000Y-28850000D02*
X6850000Y-29150000D01*
X7150000Y-29000000D02*
G75*
G03X7150000Y-29000000I-150000J0D01*
G01*
X6850000Y-33350000D02*
X7150000Y-33650000D01*
X7150000Y-33350000D02*
X6850000Y-33650000D01*
X7150000Y-33500000D02*
G75*
G03X7150000Y-33500000I-150000J0D01*
G01*
X11850000Y-23850000D02*
X12150000Y-24150000D01*
X12150000Y-23850000D02*
X11850000Y-24150000D01*
X12150000Y-24000000D02*
G75*
G03X12150000Y-24000000I-150000J0D01*
G01*
X11850000Y-33600000D02*
X12150000Y-33900000D01*
X12150000Y-33600000D02*
X11850000Y-33900000D01*
X12150000Y-33750000D02*
G75*
G03X12150000Y-33750000I-150000J0D01*
G01*
X16850000Y-23850000D02*
X17150000Y-24150000D01*
X17150000Y-23850000D02*
X16850000Y-24150000D01*
X17150000Y-24000000D02*
G75*
G03X17150000Y-24000000I-150000J0D01*
G01*
X19850000Y-20350000D02*
X20150000Y-20650000D01*
X20150000Y-20350000D02*
X19850000Y-20650000D01*
X20150000Y-20500000D02*
G75*
G03X20150000Y-20500000I-150000J0D01*
G01*
X21850000Y-23850000D02*
X22150000Y-24150000D01*
X22150000Y-23850000D02*
X21850000Y-24150000D01*
X22150000Y-24000000D02*
G75*
G03X22150000Y-24000000I-150000J0D01*
G01*
X21850000Y-33600000D02*
X22150000Y-33900000D01*
X22150000Y-33600000D02*
X21850000Y-33900000D01*
X22150000Y-33750000D02*
G75*
G03X22150000Y-33750000I-150000J0D01*
G01*
X26850000Y-23850000D02*
X27150000Y-24150000D01*
X27150000Y-23850000D02*
X26850000Y-24150000D01*
X27150000Y-24000000D02*
G75*
G03X27150000Y-24000000I-150000J0D01*
G01*
X28850000Y-29350000D02*
X29150000Y-29650000D01*
X29150000Y-29350000D02*
X28850000Y-29650000D01*
X29150000Y-29500000D02*
G75*
G03X29150000Y-29500000I-150000J0D01*
G01*
X31850000Y-33600000D02*
X32150000Y-33900000D01*
X32150000Y-33600000D02*
X31850000Y-33900000D01*
X32150000Y-33750000D02*
G75*
G03X32150000Y-33750000I-150000J0D01*
G01*
X33350000Y-20350000D02*
X33650000Y-20650000D01*
X33650000Y-20350000D02*
X33350000Y-20650000D01*
X33650000Y-20500000D02*
G75*
G03X33650000Y-20500000I-150000J0D01*
G01*
X33350000Y-29350000D02*
X33650000Y-29650000D01*
X33650000Y-29350000D02*
X33350000Y-29650000D01*
X33650000Y-29500000D02*
G75*
G03X33650000Y-29500000I-150000J0D01*
G01*
X37850000Y-25350000D02*
X38150000Y-25650000D01*
X38150000Y-25350000D02*
X37850000Y-25650000D01*
X38150000Y-25500000D02*
G75*
G03X38150000Y-25500000I-150000J0D01*
G01*
X37850000Y-27350000D02*
X38150000Y-27650000D01*
X38150000Y-27350000D02*
X37850000Y-27650000D01*
X38150000Y-27500000D02*
G75*
G03X38150000Y-27500000I-150000J0D01*
G01*
X37850000Y-29350000D02*
X38150000Y-29650000D01*
X38150000Y-29350000D02*
X37850000Y-29650000D01*
X38150000Y-29500000D02*
G75*
G03X38150000Y-29500000I-150000J0D01*
G01*
X37850000Y-31350000D02*
X38150000Y-31650000D01*
X38150000Y-31350000D02*
X37850000Y-31650000D01*
X38150000Y-31500000D02*
G75*
G03X38150000Y-31500000I-150000J0D01*
G01*
X40850000Y-33350000D02*
X41150000Y-33650000D01*
X41150000Y-33350000D02*
X40850000Y-33650000D01*
X41150000Y-33500000D02*
G75*
G03X41150000Y-33500000I-150000J0D01*
G01*
X45850000Y-20850000D02*
X46150000Y-21150000D01*
X46150000Y-20850000D02*
X45850000Y-21150000D01*
X46150000Y-21000000D02*
G75*
G03X46150000Y-21000000I-150000J0D01*
G01*
X45850000Y-25350000D02*
X46150000Y-25650000D01*
X46150000Y-25350000D02*
X45850000Y-25650000D01*
X46150000Y-25500000D02*
G75*
G03X46150000Y-25500000I-150000J0D01*
G01*
X45850000Y-33350000D02*
X46150000Y-33650000D01*
X46150000Y-33350000D02*
X45850000Y-33650000D01*
X46150000Y-33500000D02*
G75*
G03X46150000Y-33500000I-150000J0D01*
G01*
D12*
X6633928Y-34567714D02*
X6633928Y-34267714D01*
X6705357Y-34267714D01*
X6748214Y-34282000D01*
X6776786Y-34310572D01*
X6791071Y-34339143D01*
X6805357Y-34396286D01*
X6805357Y-34439143D01*
X6791071Y-34496286D01*
X6776786Y-34524857D01*
X6748214Y-34553429D01*
X6705357Y-34567714D01*
X6633928Y-34567714D01*
X6933928Y-34567714D02*
X6933928Y-34367714D01*
X6933928Y-34424857D02*
X6948214Y-34396286D01*
X6962500Y-34382000D01*
X6991071Y-34367714D01*
X7019643Y-34367714D01*
X7119643Y-34567714D02*
X7119643Y-34367714D01*
X7119643Y-34267714D02*
X7105357Y-34282000D01*
X7119643Y-34296286D01*
X7133928Y-34282000D01*
X7119643Y-34267714D01*
X7119643Y-34296286D01*
X7305357Y-34567714D02*
X7276786Y-34553429D01*
X7262500Y-34524857D01*
X7262500Y-34267714D01*
X7462500Y-34567714D02*
X7433928Y-34553429D01*
X7419643Y-34524857D01*
X7419643Y-34267714D01*
X7805357Y-34567714D02*
X7805357Y-34267714D01*
X7905357Y-34482000D01*
X8005357Y-34267714D01*
X8005357Y-34567714D01*
X8276786Y-34567714D02*
X8276786Y-34410572D01*
X8262500Y-34382000D01*
X8233928Y-34367714D01*
X8176786Y-34367714D01*
X8148214Y-34382000D01*
X8276786Y-34553429D02*
X8248214Y-34567714D01*
X8176786Y-34567714D01*
X8148214Y-34553429D01*
X8133928Y-34524857D01*
X8133928Y-34496286D01*
X8148214Y-34467714D01*
X8176786Y-34453429D01*
X8248214Y-34453429D01*
X8276786Y-34439143D01*
X8419643Y-34367714D02*
X8419643Y-34667714D01*
X8419643Y-34382000D02*
X8448214Y-34367714D01*
X8505357Y-34367714D01*
X8533928Y-34382000D01*
X8548214Y-34396286D01*
X8562500Y-34424857D01*
X8562500Y-34510572D01*
X8548214Y-34539143D01*
X8533928Y-34553429D01*
X8505357Y-34567714D01*
X8448214Y-34567714D01*
X8419643Y-34553429D01*
X8691071Y-34539143D02*
X8705357Y-34553429D01*
X8691071Y-34567714D01*
X8676786Y-34553429D01*
X8691071Y-34539143D01*
X8691071Y-34567714D01*
X8691071Y-34382000D02*
X8705357Y-34396286D01*
X8691071Y-34410572D01*
X8676786Y-34396286D01*
X8691071Y-34382000D01*
X8691071Y-34410572D01*
X6317500Y-35047000D02*
X6347500Y-35077000D01*
X6347500Y-35047000D02*
X6317500Y-35077000D01*
X6691071Y-34897714D02*
X6719643Y-34897714D01*
X6748214Y-34912000D01*
X6762500Y-34926286D01*
X6776786Y-34954857D01*
X6791071Y-35012000D01*
X6791071Y-35083429D01*
X6776786Y-35140572D01*
X6762500Y-35169143D01*
X6748214Y-35183429D01*
X6719643Y-35197714D01*
X6691071Y-35197714D01*
X6662500Y-35183429D01*
X6648214Y-35169143D01*
X6633928Y-35140572D01*
X6619643Y-35083429D01*
X6619643Y-35012000D01*
X6633928Y-34954857D01*
X6648214Y-34926286D01*
X6662500Y-34912000D01*
X6691071Y-34897714D01*
X6919643Y-35169143D02*
X6933928Y-35183429D01*
X6919643Y-35197714D01*
X6905357Y-35183429D01*
X6919643Y-35169143D01*
X6919643Y-35197714D01*
X7033928Y-34897714D02*
X7219643Y-34897714D01*
X7119643Y-35012000D01*
X7162500Y-35012000D01*
X7191071Y-35026286D01*
X7205357Y-35040572D01*
X7219643Y-35069143D01*
X7219643Y-35140572D01*
X7205357Y-35169143D01*
X7191071Y-35183429D01*
X7162500Y-35197714D01*
X7076786Y-35197714D01*
X7048214Y-35183429D01*
X7033928Y-35169143D01*
X7405357Y-34897714D02*
X7433928Y-34897714D01*
X7462500Y-34912000D01*
X7476786Y-34926286D01*
X7491071Y-34954857D01*
X7505357Y-35012000D01*
X7505357Y-35083429D01*
X7491071Y-35140572D01*
X7476786Y-35169143D01*
X7462500Y-35183429D01*
X7433928Y-35197714D01*
X7405357Y-35197714D01*
X7376786Y-35183429D01*
X7362500Y-35169143D01*
X7348214Y-35140572D01*
X7333928Y-35083429D01*
X7333928Y-35012000D01*
X7348214Y-34954857D01*
X7362500Y-34926286D01*
X7376786Y-34912000D01*
X7405357Y-34897714D01*
X7633928Y-35197714D02*
X7633928Y-34997714D01*
X7633928Y-35026286D02*
X7648214Y-35012000D01*
X7676786Y-34997714D01*
X7719643Y-34997714D01*
X7748214Y-35012000D01*
X7762500Y-35040572D01*
X7762500Y-35197714D01*
X7762500Y-35040572D02*
X7776786Y-35012000D01*
X7805357Y-34997714D01*
X7848214Y-34997714D01*
X7876786Y-35012000D01*
X7891071Y-35040572D01*
X7891071Y-35197714D01*
X8033928Y-35197714D02*
X8033928Y-34997714D01*
X8033928Y-35026286D02*
X8048214Y-35012000D01*
X8076786Y-34997714D01*
X8119643Y-34997714D01*
X8148214Y-35012000D01*
X8162500Y-35040572D01*
X8162500Y-35197714D01*
X8162500Y-35040572D02*
X8176786Y-35012000D01*
X8205357Y-34997714D01*
X8248214Y-34997714D01*
X8276786Y-35012000D01*
X8291071Y-35040572D01*
X8291071Y-35197714D01*
X8876786Y-34883429D02*
X8619643Y-35269143D01*
X9262500Y-34897714D02*
X9291071Y-34897714D01*
X9319643Y-34912000D01*
X9333928Y-34926286D01*
X9348214Y-34954857D01*
X9362500Y-35012000D01*
X9362500Y-35083429D01*
X9348214Y-35140572D01*
X9333928Y-35169143D01*
X9319643Y-35183429D01*
X9291071Y-35197714D01*
X9262500Y-35197714D01*
X9233928Y-35183429D01*
X9219643Y-35169143D01*
X9205357Y-35140572D01*
X9191071Y-35083429D01*
X9191071Y-35012000D01*
X9205357Y-34954857D01*
X9219643Y-34926286D01*
X9233928Y-34912000D01*
X9262500Y-34897714D01*
X9491071Y-35169143D02*
X9505357Y-35183429D01*
X9491071Y-35197714D01*
X9476786Y-35183429D01*
X9491071Y-35169143D01*
X9491071Y-35197714D01*
X9691071Y-34897714D02*
X9719643Y-34897714D01*
X9748214Y-34912000D01*
X9762500Y-34926286D01*
X9776786Y-34954857D01*
X9791071Y-35012000D01*
X9791071Y-35083429D01*
X9776786Y-35140572D01*
X9762500Y-35169143D01*
X9748214Y-35183429D01*
X9719643Y-35197714D01*
X9691071Y-35197714D01*
X9662500Y-35183429D01*
X9648214Y-35169143D01*
X9633928Y-35140572D01*
X9619643Y-35083429D01*
X9619643Y-35012000D01*
X9633928Y-34954857D01*
X9648214Y-34926286D01*
X9662500Y-34912000D01*
X9691071Y-34897714D01*
X10076786Y-35197714D02*
X9905357Y-35197714D01*
X9991071Y-35197714D02*
X9991071Y-34897714D01*
X9962500Y-34940572D01*
X9933928Y-34969143D01*
X9905357Y-34983429D01*
X10191071Y-34926286D02*
X10205357Y-34912000D01*
X10233928Y-34897714D01*
X10305357Y-34897714D01*
X10333928Y-34912000D01*
X10348214Y-34926286D01*
X10362500Y-34954857D01*
X10362500Y-34983429D01*
X10348214Y-35026286D01*
X10176786Y-35197714D01*
X10362500Y-35197714D01*
X10476786Y-34897714D02*
X10476786Y-34954857D01*
X10591071Y-34897714D02*
X10591071Y-34954857D01*
X11033928Y-35312000D02*
X11019643Y-35297714D01*
X10991071Y-35254857D01*
X10976786Y-35226286D01*
X10962500Y-35183429D01*
X10948214Y-35112000D01*
X10948214Y-35054857D01*
X10962500Y-34983429D01*
X10976786Y-34940572D01*
X10991071Y-34912000D01*
X11019643Y-34869143D01*
X11033928Y-34854857D01*
X11133928Y-34926286D02*
X11148214Y-34912000D01*
X11176786Y-34897714D01*
X11248214Y-34897714D01*
X11276786Y-34912000D01*
X11291071Y-34926286D01*
X11305357Y-34954857D01*
X11305357Y-34983429D01*
X11291071Y-35026286D01*
X11119643Y-35197714D01*
X11305357Y-35197714D01*
X11662500Y-35197714D02*
X11662500Y-34897714D01*
X11791071Y-35197714D02*
X11791071Y-35040572D01*
X11776786Y-35012000D01*
X11748214Y-34997714D01*
X11705357Y-34997714D01*
X11676786Y-35012000D01*
X11662500Y-35026286D01*
X11976786Y-35197714D02*
X11948214Y-35183429D01*
X11933928Y-35169143D01*
X11919643Y-35140572D01*
X11919643Y-35054857D01*
X11933928Y-35026286D01*
X11948214Y-35012000D01*
X11976786Y-34997714D01*
X12019643Y-34997714D01*
X12048214Y-35012000D01*
X12062500Y-35026286D01*
X12076786Y-35054857D01*
X12076786Y-35140572D01*
X12062500Y-35169143D01*
X12048214Y-35183429D01*
X12019643Y-35197714D01*
X11976786Y-35197714D01*
X12248214Y-35197714D02*
X12219643Y-35183429D01*
X12205357Y-35154857D01*
X12205357Y-34897714D01*
X12476786Y-35183429D02*
X12448214Y-35197714D01*
X12391071Y-35197714D01*
X12362500Y-35183429D01*
X12348214Y-35154857D01*
X12348214Y-35040572D01*
X12362500Y-35012000D01*
X12391071Y-34997714D01*
X12448214Y-34997714D01*
X12476786Y-35012000D01*
X12491071Y-35040572D01*
X12491071Y-35069143D01*
X12348214Y-35097714D01*
X12605357Y-35183429D02*
X12633928Y-35197714D01*
X12691071Y-35197714D01*
X12719643Y-35183429D01*
X12733928Y-35154857D01*
X12733928Y-35140572D01*
X12719643Y-35112000D01*
X12691071Y-35097714D01*
X12648214Y-35097714D01*
X12619643Y-35083429D01*
X12605357Y-35054857D01*
X12605357Y-35040572D01*
X12619643Y-35012000D01*
X12648214Y-34997714D01*
X12691071Y-34997714D01*
X12719643Y-35012000D01*
X12833928Y-35312000D02*
X12848214Y-35297714D01*
X12876786Y-35254857D01*
X12891071Y-35226286D01*
X12905357Y-35183429D01*
X12919643Y-35112000D01*
X12919643Y-35054857D01*
X12905357Y-34983429D01*
X12891071Y-34940572D01*
X12876786Y-34912000D01*
X12848214Y-34869143D01*
X12833928Y-34854857D01*
X6347500Y-35458000D02*
G75*
G03X6347500Y-35458000I-20000J0D01*
G01*
X6691071Y-35293714D02*
X6719643Y-35293714D01*
X6748214Y-35308000D01*
X6762500Y-35322286D01*
X6776786Y-35350857D01*
X6791071Y-35408000D01*
X6791071Y-35479429D01*
X6776786Y-35536572D01*
X6762500Y-35565143D01*
X6748214Y-35579429D01*
X6719643Y-35593714D01*
X6691071Y-35593714D01*
X6662500Y-35579429D01*
X6648214Y-35565143D01*
X6633928Y-35536572D01*
X6619643Y-35479429D01*
X6619643Y-35408000D01*
X6633928Y-35350857D01*
X6648214Y-35322286D01*
X6662500Y-35308000D01*
X6691071Y-35293714D01*
X6919643Y-35565143D02*
X6933928Y-35579429D01*
X6919643Y-35593714D01*
X6905357Y-35579429D01*
X6919643Y-35565143D01*
X6919643Y-35593714D01*
X7191071Y-35393714D02*
X7191071Y-35593714D01*
X7119643Y-35279429D02*
X7048214Y-35493714D01*
X7233928Y-35493714D01*
X7405357Y-35293714D02*
X7433928Y-35293714D01*
X7462500Y-35308000D01*
X7476786Y-35322286D01*
X7491071Y-35350857D01*
X7505357Y-35408000D01*
X7505357Y-35479429D01*
X7491071Y-35536572D01*
X7476786Y-35565143D01*
X7462500Y-35579429D01*
X7433928Y-35593714D01*
X7405357Y-35593714D01*
X7376786Y-35579429D01*
X7362500Y-35565143D01*
X7348214Y-35536572D01*
X7333928Y-35479429D01*
X7333928Y-35408000D01*
X7348214Y-35350857D01*
X7362500Y-35322286D01*
X7376786Y-35308000D01*
X7405357Y-35293714D01*
X7633928Y-35593714D02*
X7633928Y-35393714D01*
X7633928Y-35422286D02*
X7648214Y-35408000D01*
X7676786Y-35393714D01*
X7719643Y-35393714D01*
X7748214Y-35408000D01*
X7762500Y-35436572D01*
X7762500Y-35593714D01*
X7762500Y-35436572D02*
X7776786Y-35408000D01*
X7805357Y-35393714D01*
X7848214Y-35393714D01*
X7876786Y-35408000D01*
X7891071Y-35436572D01*
X7891071Y-35593714D01*
X8033928Y-35593714D02*
X8033928Y-35393714D01*
X8033928Y-35422286D02*
X8048214Y-35408000D01*
X8076786Y-35393714D01*
X8119643Y-35393714D01*
X8148214Y-35408000D01*
X8162500Y-35436572D01*
X8162500Y-35593714D01*
X8162500Y-35436572D02*
X8176786Y-35408000D01*
X8205357Y-35393714D01*
X8248214Y-35393714D01*
X8276786Y-35408000D01*
X8291071Y-35436572D01*
X8291071Y-35593714D01*
X8876786Y-35279429D02*
X8619643Y-35665143D01*
X9262500Y-35293714D02*
X9291071Y-35293714D01*
X9319643Y-35308000D01*
X9333928Y-35322286D01*
X9348214Y-35350857D01*
X9362500Y-35408000D01*
X9362500Y-35479429D01*
X9348214Y-35536572D01*
X9333928Y-35565143D01*
X9319643Y-35579429D01*
X9291071Y-35593714D01*
X9262500Y-35593714D01*
X9233928Y-35579429D01*
X9219643Y-35565143D01*
X9205357Y-35536572D01*
X9191071Y-35479429D01*
X9191071Y-35408000D01*
X9205357Y-35350857D01*
X9219643Y-35322286D01*
X9233928Y-35308000D01*
X9262500Y-35293714D01*
X9491071Y-35565143D02*
X9505357Y-35579429D01*
X9491071Y-35593714D01*
X9476786Y-35579429D01*
X9491071Y-35565143D01*
X9491071Y-35593714D01*
X9691071Y-35293714D02*
X9719643Y-35293714D01*
X9748214Y-35308000D01*
X9762500Y-35322286D01*
X9776786Y-35350857D01*
X9791071Y-35408000D01*
X9791071Y-35479429D01*
X9776786Y-35536572D01*
X9762500Y-35565143D01*
X9748214Y-35579429D01*
X9719643Y-35593714D01*
X9691071Y-35593714D01*
X9662500Y-35579429D01*
X9648214Y-35565143D01*
X9633928Y-35536572D01*
X9619643Y-35479429D01*
X9619643Y-35408000D01*
X9633928Y-35350857D01*
X9648214Y-35322286D01*
X9662500Y-35308000D01*
X9691071Y-35293714D01*
X10076786Y-35593714D02*
X9905357Y-35593714D01*
X9991071Y-35593714D02*
X9991071Y-35293714D01*
X9962500Y-35336572D01*
X9933928Y-35365143D01*
X9905357Y-35379429D01*
X10333928Y-35293714D02*
X10276786Y-35293714D01*
X10248214Y-35308000D01*
X10233928Y-35322286D01*
X10205357Y-35365143D01*
X10191071Y-35422286D01*
X10191071Y-35536572D01*
X10205357Y-35565143D01*
X10219643Y-35579429D01*
X10248214Y-35593714D01*
X10305357Y-35593714D01*
X10333928Y-35579429D01*
X10348214Y-35565143D01*
X10362500Y-35536572D01*
X10362500Y-35465143D01*
X10348214Y-35436572D01*
X10333928Y-35422286D01*
X10305357Y-35408000D01*
X10248214Y-35408000D01*
X10219643Y-35422286D01*
X10205357Y-35436572D01*
X10191071Y-35465143D01*
X10476786Y-35293714D02*
X10476786Y-35350857D01*
X10591071Y-35293714D02*
X10591071Y-35350857D01*
X11033928Y-35708000D02*
X11019643Y-35693714D01*
X10991071Y-35650857D01*
X10976786Y-35622286D01*
X10962500Y-35579429D01*
X10948214Y-35508000D01*
X10948214Y-35450857D01*
X10962500Y-35379429D01*
X10976786Y-35336572D01*
X10991071Y-35308000D01*
X11019643Y-35265143D01*
X11033928Y-35250857D01*
X11133928Y-35322286D02*
X11148214Y-35308000D01*
X11176786Y-35293714D01*
X11248214Y-35293714D01*
X11276786Y-35308000D01*
X11291071Y-35322286D01*
X11305357Y-35350857D01*
X11305357Y-35379429D01*
X11291071Y-35422286D01*
X11119643Y-35593714D01*
X11305357Y-35593714D01*
X11405357Y-35293714D02*
X11591071Y-35293714D01*
X11491071Y-35408000D01*
X11533928Y-35408000D01*
X11562500Y-35422286D01*
X11576786Y-35436572D01*
X11591071Y-35465143D01*
X11591071Y-35536572D01*
X11576786Y-35565143D01*
X11562500Y-35579429D01*
X11533928Y-35593714D01*
X11448214Y-35593714D01*
X11419643Y-35579429D01*
X11405357Y-35565143D01*
X11733928Y-35593714D02*
X11791071Y-35593714D01*
X11819643Y-35579429D01*
X11833928Y-35565143D01*
X11862500Y-35522286D01*
X11876786Y-35465143D01*
X11876786Y-35350857D01*
X11862500Y-35322286D01*
X11848214Y-35308000D01*
X11819643Y-35293714D01*
X11762500Y-35293714D01*
X11733928Y-35308000D01*
X11719643Y-35322286D01*
X11705357Y-35350857D01*
X11705357Y-35422286D01*
X11719643Y-35450857D01*
X11733928Y-35465143D01*
X11762500Y-35479429D01*
X11819643Y-35479429D01*
X11848214Y-35465143D01*
X11862500Y-35450857D01*
X11876786Y-35422286D01*
X12233928Y-35593714D02*
X12233928Y-35293714D01*
X12362500Y-35593714D02*
X12362500Y-35436572D01*
X12348214Y-35408000D01*
X12319643Y-35393714D01*
X12276786Y-35393714D01*
X12248214Y-35408000D01*
X12233928Y-35422286D01*
X12548214Y-35593714D02*
X12519643Y-35579429D01*
X12505357Y-35565143D01*
X12491071Y-35536572D01*
X12491071Y-35450857D01*
X12505357Y-35422286D01*
X12519643Y-35408000D01*
X12548214Y-35393714D01*
X12591071Y-35393714D01*
X12619643Y-35408000D01*
X12633928Y-35422286D01*
X12648214Y-35450857D01*
X12648214Y-35536572D01*
X12633928Y-35565143D01*
X12619643Y-35579429D01*
X12591071Y-35593714D01*
X12548214Y-35593714D01*
X12819643Y-35593714D02*
X12791071Y-35579429D01*
X12776786Y-35550857D01*
X12776786Y-35293714D01*
X13048214Y-35579429D02*
X13019643Y-35593714D01*
X12962500Y-35593714D01*
X12933928Y-35579429D01*
X12919643Y-35550857D01*
X12919643Y-35436572D01*
X12933928Y-35408000D01*
X12962500Y-35393714D01*
X13019643Y-35393714D01*
X13048214Y-35408000D01*
X13062500Y-35436572D01*
X13062500Y-35465143D01*
X12919643Y-35493714D01*
X13176786Y-35579429D02*
X13205357Y-35593714D01*
X13262500Y-35593714D01*
X13291071Y-35579429D01*
X13305357Y-35550857D01*
X13305357Y-35536572D01*
X13291071Y-35508000D01*
X13262500Y-35493714D01*
X13219643Y-35493714D01*
X13191071Y-35479429D01*
X13176786Y-35450857D01*
X13176786Y-35436572D01*
X13191071Y-35408000D01*
X13219643Y-35393714D01*
X13262500Y-35393714D01*
X13291071Y-35408000D01*
X13405357Y-35708000D02*
X13419643Y-35693714D01*
X13448214Y-35650857D01*
X13462500Y-35622286D01*
X13476786Y-35579429D01*
X13491071Y-35508000D01*
X13491071Y-35450857D01*
X13476786Y-35379429D01*
X13462500Y-35336572D01*
X13448214Y-35308000D01*
X13419643Y-35265143D01*
X13405357Y-35250857D01*
X6315000Y-35821500D02*
X6315000Y-35886500D01*
X6282500Y-35854000D02*
X6347500Y-35854000D01*
X6691071Y-35689714D02*
X6719643Y-35689714D01*
X6748214Y-35704000D01*
X6762500Y-35718286D01*
X6776786Y-35746857D01*
X6791071Y-35804000D01*
X6791071Y-35875429D01*
X6776786Y-35932572D01*
X6762500Y-35961143D01*
X6748214Y-35975429D01*
X6719643Y-35989714D01*
X6691071Y-35989714D01*
X6662500Y-35975429D01*
X6648214Y-35961143D01*
X6633928Y-35932572D01*
X6619643Y-35875429D01*
X6619643Y-35804000D01*
X6633928Y-35746857D01*
X6648214Y-35718286D01*
X6662500Y-35704000D01*
X6691071Y-35689714D01*
X6919643Y-35961143D02*
X6933928Y-35975429D01*
X6919643Y-35989714D01*
X6905357Y-35975429D01*
X6919643Y-35961143D01*
X6919643Y-35989714D01*
X7191071Y-35689714D02*
X7133928Y-35689714D01*
X7105357Y-35704000D01*
X7091071Y-35718286D01*
X7062500Y-35761143D01*
X7048214Y-35818286D01*
X7048214Y-35932572D01*
X7062500Y-35961143D01*
X7076786Y-35975429D01*
X7105357Y-35989714D01*
X7162500Y-35989714D01*
X7191071Y-35975429D01*
X7205357Y-35961143D01*
X7219643Y-35932572D01*
X7219643Y-35861143D01*
X7205357Y-35832572D01*
X7191071Y-35818286D01*
X7162500Y-35804000D01*
X7105357Y-35804000D01*
X7076786Y-35818286D01*
X7062500Y-35832572D01*
X7048214Y-35861143D01*
X7491071Y-35689714D02*
X7348214Y-35689714D01*
X7333928Y-35832572D01*
X7348214Y-35818286D01*
X7376786Y-35804000D01*
X7448214Y-35804000D01*
X7476786Y-35818286D01*
X7491071Y-35832572D01*
X7505357Y-35861143D01*
X7505357Y-35932572D01*
X7491071Y-35961143D01*
X7476786Y-35975429D01*
X7448214Y-35989714D01*
X7376786Y-35989714D01*
X7348214Y-35975429D01*
X7333928Y-35961143D01*
X7633928Y-35989714D02*
X7633928Y-35789714D01*
X7633928Y-35818286D02*
X7648214Y-35804000D01*
X7676786Y-35789714D01*
X7719643Y-35789714D01*
X7748214Y-35804000D01*
X7762500Y-35832572D01*
X7762500Y-35989714D01*
X7762500Y-35832572D02*
X7776786Y-35804000D01*
X7805357Y-35789714D01*
X7848214Y-35789714D01*
X7876786Y-35804000D01*
X7891071Y-35832572D01*
X7891071Y-35989714D01*
X8033928Y-35989714D02*
X8033928Y-35789714D01*
X8033928Y-35818286D02*
X8048214Y-35804000D01*
X8076786Y-35789714D01*
X8119643Y-35789714D01*
X8148214Y-35804000D01*
X8162500Y-35832572D01*
X8162500Y-35989714D01*
X8162500Y-35832572D02*
X8176786Y-35804000D01*
X8205357Y-35789714D01*
X8248214Y-35789714D01*
X8276786Y-35804000D01*
X8291071Y-35832572D01*
X8291071Y-35989714D01*
X8876786Y-35675429D02*
X8619643Y-36061143D01*
X9262500Y-35689714D02*
X9291071Y-35689714D01*
X9319643Y-35704000D01*
X9333928Y-35718286D01*
X9348214Y-35746857D01*
X9362500Y-35804000D01*
X9362500Y-35875429D01*
X9348214Y-35932572D01*
X9333928Y-35961143D01*
X9319643Y-35975429D01*
X9291071Y-35989714D01*
X9262500Y-35989714D01*
X9233928Y-35975429D01*
X9219643Y-35961143D01*
X9205357Y-35932572D01*
X9191071Y-35875429D01*
X9191071Y-35804000D01*
X9205357Y-35746857D01*
X9219643Y-35718286D01*
X9233928Y-35704000D01*
X9262500Y-35689714D01*
X9491071Y-35961143D02*
X9505357Y-35975429D01*
X9491071Y-35989714D01*
X9476786Y-35975429D01*
X9491071Y-35961143D01*
X9491071Y-35989714D01*
X9691071Y-35689714D02*
X9719643Y-35689714D01*
X9748214Y-35704000D01*
X9762500Y-35718286D01*
X9776786Y-35746857D01*
X9791071Y-35804000D01*
X9791071Y-35875429D01*
X9776786Y-35932572D01*
X9762500Y-35961143D01*
X9748214Y-35975429D01*
X9719643Y-35989714D01*
X9691071Y-35989714D01*
X9662500Y-35975429D01*
X9648214Y-35961143D01*
X9633928Y-35932572D01*
X9619643Y-35875429D01*
X9619643Y-35804000D01*
X9633928Y-35746857D01*
X9648214Y-35718286D01*
X9662500Y-35704000D01*
X9691071Y-35689714D01*
X9905357Y-35718286D02*
X9919643Y-35704000D01*
X9948214Y-35689714D01*
X10019643Y-35689714D01*
X10048214Y-35704000D01*
X10062500Y-35718286D01*
X10076786Y-35746857D01*
X10076786Y-35775429D01*
X10062500Y-35818286D01*
X9891071Y-35989714D01*
X10076786Y-35989714D01*
X10333928Y-35689714D02*
X10276786Y-35689714D01*
X10248214Y-35704000D01*
X10233928Y-35718286D01*
X10205357Y-35761143D01*
X10191071Y-35818286D01*
X10191071Y-35932572D01*
X10205357Y-35961143D01*
X10219643Y-35975429D01*
X10248214Y-35989714D01*
X10305357Y-35989714D01*
X10333928Y-35975429D01*
X10348214Y-35961143D01*
X10362500Y-35932572D01*
X10362500Y-35861143D01*
X10348214Y-35832572D01*
X10333928Y-35818286D01*
X10305357Y-35804000D01*
X10248214Y-35804000D01*
X10219643Y-35818286D01*
X10205357Y-35832572D01*
X10191071Y-35861143D01*
X10476786Y-35689714D02*
X10476786Y-35746857D01*
X10591071Y-35689714D02*
X10591071Y-35746857D01*
X11033928Y-36104000D02*
X11019643Y-36089714D01*
X10991071Y-36046857D01*
X10976786Y-36018286D01*
X10962500Y-35975429D01*
X10948214Y-35904000D01*
X10948214Y-35846857D01*
X10962500Y-35775429D01*
X10976786Y-35732572D01*
X10991071Y-35704000D01*
X11019643Y-35661143D01*
X11033928Y-35646857D01*
X11133928Y-35718286D02*
X11148214Y-35704000D01*
X11176786Y-35689714D01*
X11248214Y-35689714D01*
X11276786Y-35704000D01*
X11291071Y-35718286D01*
X11305357Y-35746857D01*
X11305357Y-35775429D01*
X11291071Y-35818286D01*
X11119643Y-35989714D01*
X11305357Y-35989714D01*
X11576786Y-35689714D02*
X11433928Y-35689714D01*
X11419643Y-35832572D01*
X11433928Y-35818286D01*
X11462500Y-35804000D01*
X11533928Y-35804000D01*
X11562500Y-35818286D01*
X11576786Y-35832572D01*
X11591071Y-35861143D01*
X11591071Y-35932572D01*
X11576786Y-35961143D01*
X11562500Y-35975429D01*
X11533928Y-35989714D01*
X11462500Y-35989714D01*
X11433928Y-35975429D01*
X11419643Y-35961143D01*
X11948214Y-35989714D02*
X11948214Y-35689714D01*
X12076786Y-35989714D02*
X12076786Y-35832572D01*
X12062500Y-35804000D01*
X12033928Y-35789714D01*
X11991071Y-35789714D01*
X11962500Y-35804000D01*
X11948214Y-35818286D01*
X12262500Y-35989714D02*
X12233928Y-35975429D01*
X12219643Y-35961143D01*
X12205357Y-35932572D01*
X12205357Y-35846857D01*
X12219643Y-35818286D01*
X12233928Y-35804000D01*
X12262500Y-35789714D01*
X12305357Y-35789714D01*
X12333928Y-35804000D01*
X12348214Y-35818286D01*
X12362500Y-35846857D01*
X12362500Y-35932572D01*
X12348214Y-35961143D01*
X12333928Y-35975429D01*
X12305357Y-35989714D01*
X12262500Y-35989714D01*
X12533928Y-35989714D02*
X12505357Y-35975429D01*
X12491071Y-35946857D01*
X12491071Y-35689714D01*
X12762500Y-35975429D02*
X12733928Y-35989714D01*
X12676786Y-35989714D01*
X12648214Y-35975429D01*
X12633928Y-35946857D01*
X12633928Y-35832572D01*
X12648214Y-35804000D01*
X12676786Y-35789714D01*
X12733928Y-35789714D01*
X12762500Y-35804000D01*
X12776786Y-35832572D01*
X12776786Y-35861143D01*
X12633928Y-35889714D01*
X12891071Y-35975429D02*
X12919643Y-35989714D01*
X12976786Y-35989714D01*
X13005357Y-35975429D01*
X13019643Y-35946857D01*
X13019643Y-35932572D01*
X13005357Y-35904000D01*
X12976786Y-35889714D01*
X12933928Y-35889714D01*
X12905357Y-35875429D01*
X12891071Y-35846857D01*
X12891071Y-35832572D01*
X12905357Y-35804000D01*
X12933928Y-35789714D01*
X12976786Y-35789714D01*
X13005357Y-35804000D01*
X13119643Y-36104000D02*
X13133928Y-36089714D01*
X13162500Y-36046857D01*
X13176786Y-36018286D01*
X13191071Y-35975429D01*
X13205357Y-35904000D01*
X13205357Y-35846857D01*
X13191071Y-35775429D01*
X13176786Y-35732572D01*
X13162500Y-35704000D01*
X13133928Y-35661143D01*
X13119643Y-35646857D01*
X6332856Y-36285356D02*
X6332856Y-36214644D01*
X6262144Y-36214644D01*
X6262144Y-36285356D01*
X6332856Y-36285356D01*
X6791071Y-36385714D02*
X6619643Y-36385714D01*
X6705357Y-36385714D02*
X6705357Y-36085714D01*
X6676786Y-36128572D01*
X6648214Y-36157143D01*
X6619643Y-36171429D01*
X6919643Y-36357143D02*
X6933928Y-36371429D01*
X6919643Y-36385714D01*
X6905357Y-36371429D01*
X6919643Y-36357143D01*
X6919643Y-36385714D01*
X7119643Y-36085714D02*
X7148214Y-36085714D01*
X7176786Y-36100000D01*
X7191071Y-36114286D01*
X7205357Y-36142857D01*
X7219643Y-36200000D01*
X7219643Y-36271429D01*
X7205357Y-36328572D01*
X7191071Y-36357143D01*
X7176786Y-36371429D01*
X7148214Y-36385714D01*
X7119643Y-36385714D01*
X7091071Y-36371429D01*
X7076786Y-36357143D01*
X7062500Y-36328572D01*
X7048214Y-36271429D01*
X7048214Y-36200000D01*
X7062500Y-36142857D01*
X7076786Y-36114286D01*
X7091071Y-36100000D01*
X7119643Y-36085714D01*
X7405357Y-36085714D02*
X7433928Y-36085714D01*
X7462500Y-36100000D01*
X7476786Y-36114286D01*
X7491071Y-36142857D01*
X7505357Y-36200000D01*
X7505357Y-36271429D01*
X7491071Y-36328572D01*
X7476786Y-36357143D01*
X7462500Y-36371429D01*
X7433928Y-36385714D01*
X7405357Y-36385714D01*
X7376786Y-36371429D01*
X7362500Y-36357143D01*
X7348214Y-36328572D01*
X7333928Y-36271429D01*
X7333928Y-36200000D01*
X7348214Y-36142857D01*
X7362500Y-36114286D01*
X7376786Y-36100000D01*
X7405357Y-36085714D01*
X7633928Y-36385714D02*
X7633928Y-36185714D01*
X7633928Y-36214286D02*
X7648214Y-36200000D01*
X7676786Y-36185714D01*
X7719643Y-36185714D01*
X7748214Y-36200000D01*
X7762500Y-36228572D01*
X7762500Y-36385714D01*
X7762500Y-36228572D02*
X7776786Y-36200000D01*
X7805357Y-36185714D01*
X7848214Y-36185714D01*
X7876786Y-36200000D01*
X7891071Y-36228572D01*
X7891071Y-36385714D01*
X8033928Y-36385714D02*
X8033928Y-36185714D01*
X8033928Y-36214286D02*
X8048214Y-36200000D01*
X8076786Y-36185714D01*
X8119643Y-36185714D01*
X8148214Y-36200000D01*
X8162500Y-36228572D01*
X8162500Y-36385714D01*
X8162500Y-36228572D02*
X8176786Y-36200000D01*
X8205357Y-36185714D01*
X8248214Y-36185714D01*
X8276786Y-36200000D01*
X8291071Y-36228572D01*
X8291071Y-36385714D01*
X8876786Y-36071429D02*
X8619643Y-36457143D01*
X9262500Y-36085714D02*
X9291071Y-36085714D01*
X9319643Y-36100000D01*
X9333928Y-36114286D01*
X9348214Y-36142857D01*
X9362500Y-36200000D01*
X9362500Y-36271429D01*
X9348214Y-36328572D01*
X9333928Y-36357143D01*
X9319643Y-36371429D01*
X9291071Y-36385714D01*
X9262500Y-36385714D01*
X9233928Y-36371429D01*
X9219643Y-36357143D01*
X9205357Y-36328572D01*
X9191071Y-36271429D01*
X9191071Y-36200000D01*
X9205357Y-36142857D01*
X9219643Y-36114286D01*
X9233928Y-36100000D01*
X9262500Y-36085714D01*
X9491071Y-36357143D02*
X9505357Y-36371429D01*
X9491071Y-36385714D01*
X9476786Y-36371429D01*
X9491071Y-36357143D01*
X9491071Y-36385714D01*
X9691071Y-36085714D02*
X9719643Y-36085714D01*
X9748214Y-36100000D01*
X9762500Y-36114286D01*
X9776786Y-36142857D01*
X9791071Y-36200000D01*
X9791071Y-36271429D01*
X9776786Y-36328572D01*
X9762500Y-36357143D01*
X9748214Y-36371429D01*
X9719643Y-36385714D01*
X9691071Y-36385714D01*
X9662500Y-36371429D01*
X9648214Y-36357143D01*
X9633928Y-36328572D01*
X9619643Y-36271429D01*
X9619643Y-36200000D01*
X9633928Y-36142857D01*
X9648214Y-36114286D01*
X9662500Y-36100000D01*
X9691071Y-36085714D01*
X9891071Y-36085714D02*
X10076786Y-36085714D01*
X9976786Y-36200000D01*
X10019643Y-36200000D01*
X10048214Y-36214286D01*
X10062500Y-36228572D01*
X10076786Y-36257143D01*
X10076786Y-36328572D01*
X10062500Y-36357143D01*
X10048214Y-36371429D01*
X10019643Y-36385714D01*
X9933928Y-36385714D01*
X9905357Y-36371429D01*
X9891071Y-36357143D01*
X10219643Y-36385714D02*
X10276786Y-36385714D01*
X10305357Y-36371429D01*
X10319643Y-36357143D01*
X10348214Y-36314286D01*
X10362500Y-36257143D01*
X10362500Y-36142857D01*
X10348214Y-36114286D01*
X10333928Y-36100000D01*
X10305357Y-36085714D01*
X10248214Y-36085714D01*
X10219643Y-36100000D01*
X10205357Y-36114286D01*
X10191071Y-36142857D01*
X10191071Y-36214286D01*
X10205357Y-36242857D01*
X10219643Y-36257143D01*
X10248214Y-36271429D01*
X10305357Y-36271429D01*
X10333928Y-36257143D01*
X10348214Y-36242857D01*
X10362500Y-36214286D01*
X10476786Y-36085714D02*
X10476786Y-36142857D01*
X10591071Y-36085714D02*
X10591071Y-36142857D01*
X11033928Y-36500000D02*
X11019643Y-36485714D01*
X10991071Y-36442857D01*
X10976786Y-36414286D01*
X10962500Y-36371429D01*
X10948214Y-36300000D01*
X10948214Y-36242857D01*
X10962500Y-36171429D01*
X10976786Y-36128572D01*
X10991071Y-36100000D01*
X11019643Y-36057143D01*
X11033928Y-36042857D01*
X11276786Y-36185714D02*
X11276786Y-36385714D01*
X11205357Y-36071429D02*
X11133928Y-36285714D01*
X11319643Y-36285714D01*
X11491071Y-36085714D02*
X11519643Y-36085714D01*
X11548214Y-36100000D01*
X11562500Y-36114286D01*
X11576786Y-36142857D01*
X11591071Y-36200000D01*
X11591071Y-36271429D01*
X11576786Y-36328572D01*
X11562500Y-36357143D01*
X11548214Y-36371429D01*
X11519643Y-36385714D01*
X11491071Y-36385714D01*
X11462500Y-36371429D01*
X11448214Y-36357143D01*
X11433928Y-36328572D01*
X11419643Y-36271429D01*
X11419643Y-36200000D01*
X11433928Y-36142857D01*
X11448214Y-36114286D01*
X11462500Y-36100000D01*
X11491071Y-36085714D01*
X11948214Y-36385714D02*
X11948214Y-36085714D01*
X12076786Y-36385714D02*
X12076786Y-36228572D01*
X12062500Y-36200000D01*
X12033928Y-36185714D01*
X11991071Y-36185714D01*
X11962500Y-36200000D01*
X11948214Y-36214286D01*
X12262500Y-36385714D02*
X12233928Y-36371429D01*
X12219643Y-36357143D01*
X12205357Y-36328572D01*
X12205357Y-36242857D01*
X12219643Y-36214286D01*
X12233928Y-36200000D01*
X12262500Y-36185714D01*
X12305357Y-36185714D01*
X12333928Y-36200000D01*
X12348214Y-36214286D01*
X12362500Y-36242857D01*
X12362500Y-36328572D01*
X12348214Y-36357143D01*
X12333928Y-36371429D01*
X12305357Y-36385714D01*
X12262500Y-36385714D01*
X12533928Y-36385714D02*
X12505357Y-36371429D01*
X12491071Y-36342857D01*
X12491071Y-36085714D01*
X12762500Y-36371429D02*
X12733928Y-36385714D01*
X12676786Y-36385714D01*
X12648214Y-36371429D01*
X12633928Y-36342857D01*
X12633928Y-36228572D01*
X12648214Y-36200000D01*
X12676786Y-36185714D01*
X12733928Y-36185714D01*
X12762500Y-36200000D01*
X12776786Y-36228572D01*
X12776786Y-36257143D01*
X12633928Y-36285714D01*
X12891071Y-36371429D02*
X12919643Y-36385714D01*
X12976786Y-36385714D01*
X13005357Y-36371429D01*
X13019643Y-36342857D01*
X13019643Y-36328572D01*
X13005357Y-36300000D01*
X12976786Y-36285714D01*
X12933928Y-36285714D01*
X12905357Y-36271429D01*
X12891071Y-36242857D01*
X12891071Y-36228572D01*
X12905357Y-36200000D01*
X12933928Y-36185714D01*
X12976786Y-36185714D01*
X13005357Y-36200000D01*
X13119643Y-36500000D02*
X13133928Y-36485714D01*
X13162500Y-36442857D01*
X13176786Y-36414286D01*
X13191071Y-36371429D01*
X13205357Y-36300000D01*
X13205357Y-36242857D01*
X13191071Y-36171429D01*
X13176786Y-36128572D01*
X13162500Y-36100000D01*
X13133928Y-36057143D01*
X13119643Y-36042857D01*
X6272500Y-36721000D02*
X6347500Y-36646000D01*
X6272500Y-36571000D01*
X6197500Y-36646000D01*
X6272500Y-36721000D01*
X6791071Y-36781714D02*
X6619643Y-36781714D01*
X6705357Y-36781714D02*
X6705357Y-36481714D01*
X6676786Y-36524572D01*
X6648214Y-36553143D01*
X6619643Y-36567429D01*
X6919643Y-36753143D02*
X6933928Y-36767429D01*
X6919643Y-36781714D01*
X6905357Y-36767429D01*
X6919643Y-36753143D01*
X6919643Y-36781714D01*
X7205357Y-36481714D02*
X7062500Y-36481714D01*
X7048214Y-36624572D01*
X7062500Y-36610286D01*
X7091071Y-36596000D01*
X7162500Y-36596000D01*
X7191071Y-36610286D01*
X7205357Y-36624572D01*
X7219643Y-36653143D01*
X7219643Y-36724572D01*
X7205357Y-36753143D01*
X7191071Y-36767429D01*
X7162500Y-36781714D01*
X7091071Y-36781714D01*
X7062500Y-36767429D01*
X7048214Y-36753143D01*
X7405357Y-36481714D02*
X7433928Y-36481714D01*
X7462500Y-36496000D01*
X7476786Y-36510286D01*
X7491071Y-36538857D01*
X7505357Y-36596000D01*
X7505357Y-36667429D01*
X7491071Y-36724572D01*
X7476786Y-36753143D01*
X7462500Y-36767429D01*
X7433928Y-36781714D01*
X7405357Y-36781714D01*
X7376786Y-36767429D01*
X7362500Y-36753143D01*
X7348214Y-36724572D01*
X7333928Y-36667429D01*
X7333928Y-36596000D01*
X7348214Y-36538857D01*
X7362500Y-36510286D01*
X7376786Y-36496000D01*
X7405357Y-36481714D01*
X7633928Y-36781714D02*
X7633928Y-36581714D01*
X7633928Y-36610286D02*
X7648214Y-36596000D01*
X7676786Y-36581714D01*
X7719643Y-36581714D01*
X7748214Y-36596000D01*
X7762500Y-36624572D01*
X7762500Y-36781714D01*
X7762500Y-36624572D02*
X7776786Y-36596000D01*
X7805357Y-36581714D01*
X7848214Y-36581714D01*
X7876786Y-36596000D01*
X7891071Y-36624572D01*
X7891071Y-36781714D01*
X8033928Y-36781714D02*
X8033928Y-36581714D01*
X8033928Y-36610286D02*
X8048214Y-36596000D01*
X8076786Y-36581714D01*
X8119643Y-36581714D01*
X8148214Y-36596000D01*
X8162500Y-36624572D01*
X8162500Y-36781714D01*
X8162500Y-36624572D02*
X8176786Y-36596000D01*
X8205357Y-36581714D01*
X8248214Y-36581714D01*
X8276786Y-36596000D01*
X8291071Y-36624572D01*
X8291071Y-36781714D01*
X8876786Y-36467429D02*
X8619643Y-36853143D01*
X9262500Y-36481714D02*
X9291071Y-36481714D01*
X9319643Y-36496000D01*
X9333928Y-36510286D01*
X9348214Y-36538857D01*
X9362500Y-36596000D01*
X9362500Y-36667429D01*
X9348214Y-36724572D01*
X9333928Y-36753143D01*
X9319643Y-36767429D01*
X9291071Y-36781714D01*
X9262500Y-36781714D01*
X9233928Y-36767429D01*
X9219643Y-36753143D01*
X9205357Y-36724572D01*
X9191071Y-36667429D01*
X9191071Y-36596000D01*
X9205357Y-36538857D01*
X9219643Y-36510286D01*
X9233928Y-36496000D01*
X9262500Y-36481714D01*
X9491071Y-36753143D02*
X9505357Y-36767429D01*
X9491071Y-36781714D01*
X9476786Y-36767429D01*
X9491071Y-36753143D01*
X9491071Y-36781714D01*
X9691071Y-36481714D02*
X9719643Y-36481714D01*
X9748214Y-36496000D01*
X9762500Y-36510286D01*
X9776786Y-36538857D01*
X9791071Y-36596000D01*
X9791071Y-36667429D01*
X9776786Y-36724572D01*
X9762500Y-36753143D01*
X9748214Y-36767429D01*
X9719643Y-36781714D01*
X9691071Y-36781714D01*
X9662500Y-36767429D01*
X9648214Y-36753143D01*
X9633928Y-36724572D01*
X9619643Y-36667429D01*
X9619643Y-36596000D01*
X9633928Y-36538857D01*
X9648214Y-36510286D01*
X9662500Y-36496000D01*
X9691071Y-36481714D01*
X10062500Y-36481714D02*
X9919643Y-36481714D01*
X9905357Y-36624572D01*
X9919643Y-36610286D01*
X9948214Y-36596000D01*
X10019643Y-36596000D01*
X10048214Y-36610286D01*
X10062500Y-36624572D01*
X10076786Y-36653143D01*
X10076786Y-36724572D01*
X10062500Y-36753143D01*
X10048214Y-36767429D01*
X10019643Y-36781714D01*
X9948214Y-36781714D01*
X9919643Y-36767429D01*
X9905357Y-36753143D01*
X10219643Y-36781714D02*
X10276786Y-36781714D01*
X10305357Y-36767429D01*
X10319643Y-36753143D01*
X10348214Y-36710286D01*
X10362500Y-36653143D01*
X10362500Y-36538857D01*
X10348214Y-36510286D01*
X10333928Y-36496000D01*
X10305357Y-36481714D01*
X10248214Y-36481714D01*
X10219643Y-36496000D01*
X10205357Y-36510286D01*
X10191071Y-36538857D01*
X10191071Y-36610286D01*
X10205357Y-36638857D01*
X10219643Y-36653143D01*
X10248214Y-36667429D01*
X10305357Y-36667429D01*
X10333928Y-36653143D01*
X10348214Y-36638857D01*
X10362500Y-36610286D01*
X10476786Y-36481714D02*
X10476786Y-36538857D01*
X10591071Y-36481714D02*
X10591071Y-36538857D01*
X11033928Y-36896000D02*
X11019643Y-36881714D01*
X10991071Y-36838857D01*
X10976786Y-36810286D01*
X10962500Y-36767429D01*
X10948214Y-36696000D01*
X10948214Y-36638857D01*
X10962500Y-36567429D01*
X10976786Y-36524572D01*
X10991071Y-36496000D01*
X11019643Y-36453143D01*
X11033928Y-36438857D01*
X11305357Y-36781714D02*
X11133928Y-36781714D01*
X11219643Y-36781714D02*
X11219643Y-36481714D01*
X11191071Y-36524572D01*
X11162500Y-36553143D01*
X11133928Y-36567429D01*
X11448214Y-36781714D02*
X11505357Y-36781714D01*
X11533928Y-36767429D01*
X11548214Y-36753143D01*
X11576786Y-36710286D01*
X11591071Y-36653143D01*
X11591071Y-36538857D01*
X11576786Y-36510286D01*
X11562500Y-36496000D01*
X11533928Y-36481714D01*
X11476786Y-36481714D01*
X11448214Y-36496000D01*
X11433928Y-36510286D01*
X11419643Y-36538857D01*
X11419643Y-36610286D01*
X11433928Y-36638857D01*
X11448214Y-36653143D01*
X11476786Y-36667429D01*
X11533928Y-36667429D01*
X11562500Y-36653143D01*
X11576786Y-36638857D01*
X11591071Y-36610286D01*
X11848214Y-36581714D02*
X11848214Y-36781714D01*
X11776786Y-36467429D02*
X11705357Y-36681714D01*
X11891071Y-36681714D01*
X12233928Y-36781714D02*
X12233928Y-36481714D01*
X12362500Y-36781714D02*
X12362500Y-36624572D01*
X12348214Y-36596000D01*
X12319643Y-36581714D01*
X12276786Y-36581714D01*
X12248214Y-36596000D01*
X12233928Y-36610286D01*
X12548214Y-36781714D02*
X12519643Y-36767429D01*
X12505357Y-36753143D01*
X12491071Y-36724572D01*
X12491071Y-36638857D01*
X12505357Y-36610286D01*
X12519643Y-36596000D01*
X12548214Y-36581714D01*
X12591071Y-36581714D01*
X12619643Y-36596000D01*
X12633928Y-36610286D01*
X12648214Y-36638857D01*
X12648214Y-36724572D01*
X12633928Y-36753143D01*
X12619643Y-36767429D01*
X12591071Y-36781714D01*
X12548214Y-36781714D01*
X12819643Y-36781714D02*
X12791071Y-36767429D01*
X12776786Y-36738857D01*
X12776786Y-36481714D01*
X13048214Y-36767429D02*
X13019643Y-36781714D01*
X12962500Y-36781714D01*
X12933928Y-36767429D01*
X12919643Y-36738857D01*
X12919643Y-36624572D01*
X12933928Y-36596000D01*
X12962500Y-36581714D01*
X13019643Y-36581714D01*
X13048214Y-36596000D01*
X13062500Y-36624572D01*
X13062500Y-36653143D01*
X12919643Y-36681714D01*
X13176786Y-36767429D02*
X13205357Y-36781714D01*
X13262500Y-36781714D01*
X13291071Y-36767429D01*
X13305357Y-36738857D01*
X13305357Y-36724572D01*
X13291071Y-36696000D01*
X13262500Y-36681714D01*
X13219643Y-36681714D01*
X13191071Y-36667429D01*
X13176786Y-36638857D01*
X13176786Y-36624572D01*
X13191071Y-36596000D01*
X13219643Y-36581714D01*
X13262500Y-36581714D01*
X13291071Y-36596000D01*
X13405357Y-36896000D02*
X13419643Y-36881714D01*
X13448214Y-36838857D01*
X13462500Y-36810286D01*
X13476786Y-36767429D01*
X13491071Y-36696000D01*
X13491071Y-36638857D01*
X13476786Y-36567429D01*
X13462500Y-36524572D01*
X13448214Y-36496000D01*
X13419643Y-36453143D01*
X13405357Y-36438857D01*
X6047500Y-36892000D02*
X6347500Y-37192000D01*
X6347500Y-36892000D02*
X6047500Y-37192000D01*
X6347500Y-37042000D02*
G75*
G03X6347500Y-37042000I-150000J0D01*
G01*
X6605357Y-36877714D02*
X6791071Y-36877714D01*
X6691071Y-36992000D01*
X6733928Y-36992000D01*
X6762500Y-37006286D01*
X6776786Y-37020572D01*
X6791071Y-37049143D01*
X6791071Y-37120572D01*
X6776786Y-37149143D01*
X6762500Y-37163429D01*
X6733928Y-37177714D01*
X6648214Y-37177714D01*
X6619643Y-37163429D01*
X6605357Y-37149143D01*
X6919643Y-37149143D02*
X6933928Y-37163429D01*
X6919643Y-37177714D01*
X6905357Y-37163429D01*
X6919643Y-37149143D01*
X6919643Y-37177714D01*
X7119643Y-36877714D02*
X7148214Y-36877714D01*
X7176786Y-36892000D01*
X7191071Y-36906286D01*
X7205357Y-36934857D01*
X7219643Y-36992000D01*
X7219643Y-37063429D01*
X7205357Y-37120572D01*
X7191071Y-37149143D01*
X7176786Y-37163429D01*
X7148214Y-37177714D01*
X7119643Y-37177714D01*
X7091071Y-37163429D01*
X7076786Y-37149143D01*
X7062500Y-37120572D01*
X7048214Y-37063429D01*
X7048214Y-36992000D01*
X7062500Y-36934857D01*
X7076786Y-36906286D01*
X7091071Y-36892000D01*
X7119643Y-36877714D01*
X7405357Y-36877714D02*
X7433928Y-36877714D01*
X7462500Y-36892000D01*
X7476786Y-36906286D01*
X7491071Y-36934857D01*
X7505357Y-36992000D01*
X7505357Y-37063429D01*
X7491071Y-37120572D01*
X7476786Y-37149143D01*
X7462500Y-37163429D01*
X7433928Y-37177714D01*
X7405357Y-37177714D01*
X7376786Y-37163429D01*
X7362500Y-37149143D01*
X7348214Y-37120572D01*
X7333928Y-37063429D01*
X7333928Y-36992000D01*
X7348214Y-36934857D01*
X7362500Y-36906286D01*
X7376786Y-36892000D01*
X7405357Y-36877714D01*
X7633928Y-37177714D02*
X7633928Y-36977714D01*
X7633928Y-37006286D02*
X7648214Y-36992000D01*
X7676786Y-36977714D01*
X7719643Y-36977714D01*
X7748214Y-36992000D01*
X7762500Y-37020572D01*
X7762500Y-37177714D01*
X7762500Y-37020572D02*
X7776786Y-36992000D01*
X7805357Y-36977714D01*
X7848214Y-36977714D01*
X7876786Y-36992000D01*
X7891071Y-37020572D01*
X7891071Y-37177714D01*
X8033928Y-37177714D02*
X8033928Y-36977714D01*
X8033928Y-37006286D02*
X8048214Y-36992000D01*
X8076786Y-36977714D01*
X8119643Y-36977714D01*
X8148214Y-36992000D01*
X8162500Y-37020572D01*
X8162500Y-37177714D01*
X8162500Y-37020572D02*
X8176786Y-36992000D01*
X8205357Y-36977714D01*
X8248214Y-36977714D01*
X8276786Y-36992000D01*
X8291071Y-37020572D01*
X8291071Y-37177714D01*
X8876786Y-36863429D02*
X8619643Y-37249143D01*
X9262500Y-36877714D02*
X9291071Y-36877714D01*
X9319643Y-36892000D01*
X9333928Y-36906286D01*
X9348214Y-36934857D01*
X9362500Y-36992000D01*
X9362500Y-37063429D01*
X9348214Y-37120572D01*
X9333928Y-37149143D01*
X9319643Y-37163429D01*
X9291071Y-37177714D01*
X9262500Y-37177714D01*
X9233928Y-37163429D01*
X9219643Y-37149143D01*
X9205357Y-37120572D01*
X9191071Y-37063429D01*
X9191071Y-36992000D01*
X9205357Y-36934857D01*
X9219643Y-36906286D01*
X9233928Y-36892000D01*
X9262500Y-36877714D01*
X9491071Y-37149143D02*
X9505357Y-37163429D01*
X9491071Y-37177714D01*
X9476786Y-37163429D01*
X9491071Y-37149143D01*
X9491071Y-37177714D01*
X9791071Y-37177714D02*
X9619643Y-37177714D01*
X9705357Y-37177714D02*
X9705357Y-36877714D01*
X9676786Y-36920572D01*
X9648214Y-36949143D01*
X9619643Y-36963429D01*
X10076786Y-37177714D02*
X9905357Y-37177714D01*
X9991071Y-37177714D02*
X9991071Y-36877714D01*
X9962500Y-36920572D01*
X9933928Y-36949143D01*
X9905357Y-36963429D01*
X10248214Y-37006286D02*
X10219643Y-36992000D01*
X10205357Y-36977714D01*
X10191071Y-36949143D01*
X10191071Y-36934857D01*
X10205357Y-36906286D01*
X10219643Y-36892000D01*
X10248214Y-36877714D01*
X10305357Y-36877714D01*
X10333928Y-36892000D01*
X10348214Y-36906286D01*
X10362500Y-36934857D01*
X10362500Y-36949143D01*
X10348214Y-36977714D01*
X10333928Y-36992000D01*
X10305357Y-37006286D01*
X10248214Y-37006286D01*
X10219643Y-37020572D01*
X10205357Y-37034857D01*
X10191071Y-37063429D01*
X10191071Y-37120572D01*
X10205357Y-37149143D01*
X10219643Y-37163429D01*
X10248214Y-37177714D01*
X10305357Y-37177714D01*
X10333928Y-37163429D01*
X10348214Y-37149143D01*
X10362500Y-37120572D01*
X10362500Y-37063429D01*
X10348214Y-37034857D01*
X10333928Y-37020572D01*
X10305357Y-37006286D01*
X10476786Y-36877714D02*
X10476786Y-36934857D01*
X10591071Y-36877714D02*
X10591071Y-36934857D01*
X11033928Y-37292000D02*
X11019643Y-37277714D01*
X10991071Y-37234857D01*
X10976786Y-37206286D01*
X10962500Y-37163429D01*
X10948214Y-37092000D01*
X10948214Y-37034857D01*
X10962500Y-36963429D01*
X10976786Y-36920572D01*
X10991071Y-36892000D01*
X11019643Y-36849143D01*
X11033928Y-36834857D01*
X11133928Y-36906286D02*
X11148214Y-36892000D01*
X11176786Y-36877714D01*
X11248214Y-36877714D01*
X11276786Y-36892000D01*
X11291071Y-36906286D01*
X11305357Y-36934857D01*
X11305357Y-36963429D01*
X11291071Y-37006286D01*
X11119643Y-37177714D01*
X11305357Y-37177714D01*
X11405357Y-36877714D02*
X11591071Y-36877714D01*
X11491071Y-36992000D01*
X11533928Y-36992000D01*
X11562500Y-37006286D01*
X11576786Y-37020572D01*
X11591071Y-37049143D01*
X11591071Y-37120572D01*
X11576786Y-37149143D01*
X11562500Y-37163429D01*
X11533928Y-37177714D01*
X11448214Y-37177714D01*
X11419643Y-37163429D01*
X11405357Y-37149143D01*
X11948214Y-37177714D02*
X11948214Y-36877714D01*
X12076786Y-37177714D02*
X12076786Y-37020572D01*
X12062500Y-36992000D01*
X12033928Y-36977714D01*
X11991071Y-36977714D01*
X11962500Y-36992000D01*
X11948214Y-37006286D01*
X12262500Y-37177714D02*
X12233928Y-37163429D01*
X12219643Y-37149143D01*
X12205357Y-37120572D01*
X12205357Y-37034857D01*
X12219643Y-37006286D01*
X12233928Y-36992000D01*
X12262500Y-36977714D01*
X12305357Y-36977714D01*
X12333928Y-36992000D01*
X12348214Y-37006286D01*
X12362500Y-37034857D01*
X12362500Y-37120572D01*
X12348214Y-37149143D01*
X12333928Y-37163429D01*
X12305357Y-37177714D01*
X12262500Y-37177714D01*
X12533928Y-37177714D02*
X12505357Y-37163429D01*
X12491071Y-37134857D01*
X12491071Y-36877714D01*
X12762500Y-37163429D02*
X12733928Y-37177714D01*
X12676786Y-37177714D01*
X12648214Y-37163429D01*
X12633928Y-37134857D01*
X12633928Y-37020572D01*
X12648214Y-36992000D01*
X12676786Y-36977714D01*
X12733928Y-36977714D01*
X12762500Y-36992000D01*
X12776786Y-37020572D01*
X12776786Y-37049143D01*
X12633928Y-37077714D01*
X12891071Y-37163429D02*
X12919643Y-37177714D01*
X12976786Y-37177714D01*
X13005357Y-37163429D01*
X13019643Y-37134857D01*
X13019643Y-37120572D01*
X13005357Y-37092000D01*
X12976786Y-37077714D01*
X12933928Y-37077714D01*
X12905357Y-37063429D01*
X12891071Y-37034857D01*
X12891071Y-37020572D01*
X12905357Y-36992000D01*
X12933928Y-36977714D01*
X12976786Y-36977714D01*
X13005357Y-36992000D01*
X13119643Y-37292000D02*
X13133928Y-37277714D01*
X13162500Y-37234857D01*
X13176786Y-37206286D01*
X13191071Y-37163429D01*
X13205357Y-37092000D01*
X13205357Y-37034857D01*
X13191071Y-36963429D01*
X13176786Y-36920572D01*
X13162500Y-36892000D01*
X13133928Y-36849143D01*
X13119643Y-36834857D01*
M02*
