%FSLAX45Y45*%
G04 Gerber Fmt 4.5, Leading zero omitted, Abs format (unit mm)*
G04 Created by KiCad (PCBNEW (5.1.2)-1) date 2020-04-18 22:46:55*
%MOMM*%
%LPD*%
G04 APERTURE LIST*
%ADD10C,0.050000*%
%ADD11C,0.200000*%
%ADD12C,0.300000*%
G04 APERTURE END LIST*
D10*
X6350000Y-20320000D02*
X6350000Y-34099500D01*
X46482000Y-20320000D02*
X6350000Y-20320000D01*
X46482000Y-34099500D02*
X46482000Y-20320000D01*
X6350000Y-34099500D02*
X46482000Y-34099500D01*
D11*
X24197400Y-28972600D02*
X24367400Y-29142600D01*
X24367400Y-28972600D02*
X24197400Y-29142600D01*
X25213400Y-28972600D02*
X25383400Y-29142600D01*
X25383400Y-28972600D02*
X25213400Y-29142600D01*
X20807770Y-22369500D02*
X20977770Y-22539500D01*
X20977770Y-22369500D02*
X20807770Y-22539500D01*
X21823770Y-22369500D02*
X21993770Y-22539500D01*
X21993770Y-22369500D02*
X21823770Y-22539500D01*
X38914950Y-25137200D02*
X39084950Y-25307200D01*
X39084950Y-25137200D02*
X38914950Y-25307200D01*
X39930950Y-25137200D02*
X40100950Y-25307200D01*
X40100950Y-25137200D02*
X39930950Y-25307200D01*
X33200430Y-22369870D02*
X33370430Y-22539870D01*
X33370430Y-22369870D02*
X33200430Y-22539870D01*
X34216430Y-22369870D02*
X34386430Y-22539870D01*
X34386430Y-22369870D02*
X34216430Y-22539870D01*
X20362000Y-28972600D02*
X20532000Y-29142600D01*
X20532000Y-28972600D02*
X20362000Y-29142600D01*
X21378000Y-28972600D02*
X21548000Y-29142600D01*
X21548000Y-28972600D02*
X21378000Y-29142600D01*
X25097350Y-22369500D02*
X25267350Y-22539500D01*
X25267350Y-22369500D02*
X25097350Y-22539500D01*
X26113350Y-22369500D02*
X26283350Y-22539500D01*
X26283350Y-22369500D02*
X26113350Y-22539500D01*
X12684850Y-25137200D02*
X12854850Y-25307200D01*
X12854850Y-25137200D02*
X12684850Y-25307200D01*
X13700850Y-25137200D02*
X13870850Y-25307200D01*
X13870850Y-25137200D02*
X13700850Y-25307200D01*
X33766850Y-32801650D02*
X33936850Y-32971650D01*
X33936850Y-32801650D02*
X33766850Y-32971650D01*
X34782850Y-32801650D02*
X34952850Y-32971650D01*
X34952850Y-32801650D02*
X34782850Y-32971650D01*
X14602550Y-25137200D02*
X14772550Y-25307200D01*
X14772550Y-25137200D02*
X14602550Y-25307200D01*
X15618550Y-25137200D02*
X15788550Y-25307200D01*
X15788550Y-25137200D02*
X15618550Y-25307200D01*
X40832650Y-28972600D02*
X41002650Y-29142600D01*
X41002650Y-28972600D02*
X40832650Y-29142600D01*
X41848650Y-28972600D02*
X42018650Y-29142600D01*
X42018650Y-28972600D02*
X41848650Y-29142600D01*
X12678500Y-22368600D02*
X12848500Y-22538600D01*
X12848500Y-22368600D02*
X12678500Y-22538600D01*
X13694500Y-22368600D02*
X13864500Y-22538600D01*
X13864500Y-22368600D02*
X13694500Y-22538600D01*
X17479100Y-30890300D02*
X17649100Y-31060300D01*
X17649100Y-30890300D02*
X17479100Y-31060300D01*
X18495100Y-30890300D02*
X18665100Y-31060300D01*
X18665100Y-30890300D02*
X18495100Y-31060300D01*
X35919500Y-32801650D02*
X36089500Y-32971650D01*
X36089500Y-32801650D02*
X35919500Y-32971650D01*
X36935500Y-32801650D02*
X37105500Y-32971650D01*
X37105500Y-32801650D02*
X36935500Y-32971650D01*
X10767150Y-25137200D02*
X10937150Y-25307200D01*
X10937150Y-25137200D02*
X10767150Y-25307200D01*
X11783150Y-25137200D02*
X11953150Y-25307200D01*
X11953150Y-25137200D02*
X11783150Y-25307200D01*
X21314500Y-30890300D02*
X21484500Y-31060300D01*
X21484500Y-30890300D02*
X21314500Y-31060300D01*
X22330500Y-30890300D02*
X22500500Y-31060300D01*
X22500500Y-30890300D02*
X22330500Y-31060300D01*
X10773500Y-28972600D02*
X10943500Y-29142600D01*
X10943500Y-28972600D02*
X10773500Y-29142600D01*
X11789500Y-28972600D02*
X11959500Y-29142600D01*
X11959500Y-28972600D02*
X11789500Y-29142600D01*
X28985300Y-27054900D02*
X29155300Y-27224900D01*
X29155300Y-27054900D02*
X28985300Y-27224900D01*
X30001300Y-27054900D02*
X30171300Y-27224900D01*
X30171300Y-27054900D02*
X30001300Y-27224900D01*
X32820700Y-27054900D02*
X32990700Y-27224900D01*
X32990700Y-27054900D02*
X32820700Y-27224900D01*
X33836700Y-27054900D02*
X34006700Y-27224900D01*
X34006700Y-27054900D02*
X33836700Y-27224900D01*
X6931750Y-25137200D02*
X7101750Y-25307200D01*
X7101750Y-25137200D02*
X6931750Y-25307200D01*
X7947750Y-25137200D02*
X8117750Y-25307200D01*
X8117750Y-25137200D02*
X7947750Y-25307200D01*
X29944150Y-25137200D02*
X30114150Y-25307200D01*
X30114150Y-25137200D02*
X29944150Y-25307200D01*
X30960150Y-25137200D02*
X31130150Y-25307200D01*
X31130150Y-25137200D02*
X30960150Y-25307200D01*
X39880150Y-30890300D02*
X40050150Y-31060300D01*
X40050150Y-30890300D02*
X39880150Y-31060300D01*
X40896150Y-30890300D02*
X41066150Y-31060300D01*
X41066150Y-30890300D02*
X40896150Y-31060300D01*
X19396800Y-27054900D02*
X19566800Y-27224900D01*
X19566800Y-27054900D02*
X19396800Y-27224900D01*
X20412800Y-27054900D02*
X20582800Y-27224900D01*
X20582800Y-27054900D02*
X20412800Y-27224900D01*
X27067600Y-30890300D02*
X27237600Y-31060300D01*
X27237600Y-30890300D02*
X27067600Y-31060300D01*
X28083600Y-30890300D02*
X28253600Y-31060300D01*
X28253600Y-30890300D02*
X28083600Y-31060300D01*
X42750350Y-27054900D02*
X42920350Y-27224900D01*
X42920350Y-27054900D02*
X42750350Y-27224900D01*
X43766350Y-27054900D02*
X43936350Y-27224900D01*
X43936350Y-27054900D02*
X43766350Y-27224900D01*
X35116860Y-22369500D02*
X35286860Y-22539500D01*
X35286860Y-22369500D02*
X35116860Y-22539500D01*
X36132860Y-22369500D02*
X36302860Y-22539500D01*
X36302860Y-22369500D02*
X36132860Y-22539500D01*
X18444300Y-28972600D02*
X18614300Y-29142600D01*
X18614300Y-28972600D02*
X18444300Y-29142600D01*
X19460300Y-28972600D02*
X19630300Y-29142600D01*
X19630300Y-28972600D02*
X19460300Y-29142600D01*
X28032800Y-28972600D02*
X28202800Y-29142600D01*
X28202800Y-28972600D02*
X28032800Y-29142600D01*
X29048800Y-28972600D02*
X29218800Y-29142600D01*
X29218800Y-28972600D02*
X29048800Y-29142600D01*
X40832650Y-25137200D02*
X41002650Y-25307200D01*
X41002650Y-25137200D02*
X40832650Y-25307200D01*
X41848650Y-25137200D02*
X42018650Y-25307200D01*
X42018650Y-25137200D02*
X41848650Y-25307200D01*
X35214650Y-27054900D02*
X35384650Y-27224900D01*
X35384650Y-27054900D02*
X35214650Y-27224900D01*
X36230650Y-27054900D02*
X36400650Y-27224900D01*
X36400650Y-27054900D02*
X36230650Y-27224900D01*
X37024400Y-22369870D02*
X37194400Y-22539870D01*
X37194400Y-22369870D02*
X37024400Y-22539870D01*
X38040400Y-22369870D02*
X38210400Y-22539870D01*
X38210400Y-22369870D02*
X38040400Y-22539870D01*
X16526600Y-28972600D02*
X16696600Y-29142600D01*
X16696600Y-28972600D02*
X16526600Y-29142600D01*
X17542600Y-28972600D02*
X17712600Y-29142600D01*
X17712600Y-28972600D02*
X17542600Y-29142600D01*
X26108750Y-25137200D02*
X26278750Y-25307200D01*
X26278750Y-25137200D02*
X26108750Y-25307200D01*
X27124750Y-25137200D02*
X27294750Y-25307200D01*
X27294750Y-25137200D02*
X27124750Y-25307200D01*
X44668050Y-29925100D02*
X44838050Y-30095100D01*
X44838050Y-29925100D02*
X44668050Y-30095100D01*
X45684050Y-29925100D02*
X45854050Y-30095100D01*
X45854050Y-29925100D02*
X45684050Y-30095100D01*
X34973350Y-28972600D02*
X35143350Y-29142600D01*
X35143350Y-28972600D02*
X34973350Y-29142600D01*
X35989350Y-28972600D02*
X36159350Y-29142600D01*
X36159350Y-28972600D02*
X35989350Y-29142600D01*
X19396800Y-30890300D02*
X19566800Y-31060300D01*
X19566800Y-30890300D02*
X19396800Y-31060300D01*
X20412800Y-30890300D02*
X20582800Y-31060300D01*
X20582800Y-30890300D02*
X20412800Y-31060300D01*
X44668050Y-25137200D02*
X44838050Y-25307200D01*
X44838050Y-25137200D02*
X44668050Y-25307200D01*
X45684050Y-25137200D02*
X45854050Y-25307200D01*
X45854050Y-25137200D02*
X45684050Y-25307200D01*
X13643700Y-27054900D02*
X13813700Y-27224900D01*
X13813700Y-27054900D02*
X13643700Y-27224900D01*
X14659700Y-27054900D02*
X14829700Y-27224900D01*
X14829700Y-27054900D02*
X14659700Y-27224900D01*
X15561400Y-27054900D02*
X15731400Y-27224900D01*
X15731400Y-27054900D02*
X15561400Y-27224900D01*
X16577400Y-27054900D02*
X16747400Y-27224900D01*
X16747400Y-27054900D02*
X16577400Y-27224900D01*
X10767150Y-22369500D02*
X10937150Y-22539500D01*
X10937150Y-22369500D02*
X10767150Y-22539500D01*
X11783150Y-22369500D02*
X11953150Y-22539500D01*
X11953150Y-22369500D02*
X11783150Y-22539500D01*
X21314500Y-32808000D02*
X21484500Y-32978000D01*
X21484500Y-32808000D02*
X21314500Y-32978000D01*
X22330500Y-32808000D02*
X22500500Y-32978000D01*
X22500500Y-32808000D02*
X22330500Y-32978000D01*
X33766850Y-30890300D02*
X33936850Y-31060300D01*
X33936850Y-30890300D02*
X33766850Y-31060300D01*
X34782850Y-30890300D02*
X34952850Y-31060300D01*
X34952850Y-30890300D02*
X34782850Y-31060300D01*
X18437950Y-25137200D02*
X18607950Y-25307200D01*
X18607950Y-25137200D02*
X18437950Y-25307200D01*
X19453950Y-25137200D02*
X19623950Y-25307200D01*
X19623950Y-25137200D02*
X19453950Y-25307200D01*
X38914950Y-28972600D02*
X39084950Y-29142600D01*
X39084950Y-28972600D02*
X38914950Y-29142600D01*
X39930950Y-28972600D02*
X40100950Y-29142600D01*
X40100950Y-28972600D02*
X39930950Y-29142600D01*
X33779550Y-25137200D02*
X33949550Y-25307200D01*
X33949550Y-25137200D02*
X33779550Y-25307200D01*
X34795550Y-25137200D02*
X34965550Y-25307200D01*
X34965550Y-25137200D02*
X34795550Y-25307200D01*
X12691200Y-28972600D02*
X12861200Y-29142600D01*
X12861200Y-28972600D02*
X12691200Y-29142600D01*
X13707200Y-28972600D02*
X13877200Y-29142600D01*
X13877200Y-28972600D02*
X13707200Y-29142600D01*
X7662000Y-32808000D02*
X7832000Y-32978000D01*
X7832000Y-32808000D02*
X7662000Y-32978000D01*
X8678000Y-32808000D02*
X8848000Y-32978000D01*
X8848000Y-32808000D02*
X8678000Y-32978000D01*
X25149900Y-30890300D02*
X25319900Y-31060300D01*
X25319900Y-30890300D02*
X25149900Y-31060300D01*
X26165900Y-30890300D02*
X26335900Y-31060300D01*
X26335900Y-30890300D02*
X26165900Y-31060300D01*
X7414350Y-27054900D02*
X7584350Y-27224900D01*
X7584350Y-27054900D02*
X7414350Y-27224900D01*
X8430350Y-27054900D02*
X8600350Y-27224900D01*
X8600350Y-27054900D02*
X8430350Y-27224900D01*
X18888800Y-22368600D02*
X19058800Y-22538600D01*
X19058800Y-22368600D02*
X18888800Y-22538600D01*
X19904800Y-22368600D02*
X20074800Y-22538600D01*
X20074800Y-22368600D02*
X19904800Y-22538600D01*
X8144600Y-28972600D02*
X8314600Y-29142600D01*
X8314600Y-28972600D02*
X8144600Y-29142600D01*
X9160600Y-28972600D02*
X9330600Y-29142600D01*
X9330600Y-28972600D02*
X9160600Y-29142600D01*
X27067600Y-27054900D02*
X27237600Y-27224900D01*
X27237600Y-27054900D02*
X27067600Y-27224900D01*
X28083600Y-27054900D02*
X28253600Y-27224900D01*
X28253600Y-27054900D02*
X28083600Y-27224900D01*
X42750350Y-30890300D02*
X42920350Y-31060300D01*
X42920350Y-30890300D02*
X42750350Y-31060300D01*
X43766350Y-30890300D02*
X43936350Y-31060300D01*
X43936350Y-30890300D02*
X43766350Y-31060300D01*
X31868200Y-28972600D02*
X32038200Y-29142600D01*
X32038200Y-28972600D02*
X31868200Y-29142600D01*
X32884200Y-28972600D02*
X33054200Y-29142600D01*
X33054200Y-28972600D02*
X32884200Y-29142600D01*
X8849450Y-25137200D02*
X9019450Y-25307200D01*
X9019450Y-25137200D02*
X8849450Y-25307200D01*
X9865450Y-25137200D02*
X10035450Y-25307200D01*
X10035450Y-25137200D02*
X9865450Y-25307200D01*
X44669800Y-22368600D02*
X44839800Y-22538600D01*
X44839800Y-22368600D02*
X44669800Y-22538600D01*
X45685800Y-22368600D02*
X45855800Y-22538600D01*
X45855800Y-22368600D02*
X45685800Y-22538600D01*
X23232200Y-30890300D02*
X23402200Y-31060300D01*
X23402200Y-30890300D02*
X23232200Y-31060300D01*
X24248200Y-30890300D02*
X24418200Y-31060300D01*
X24418200Y-30890300D02*
X24248200Y-31060300D01*
X28932750Y-22369500D02*
X29102750Y-22539500D01*
X29102750Y-22369500D02*
X28932750Y-22539500D01*
X29948750Y-22369500D02*
X30118750Y-22539500D01*
X30118750Y-22369500D02*
X29948750Y-22539500D01*
X38935750Y-22369500D02*
X39105750Y-22539500D01*
X39105750Y-22369500D02*
X38935750Y-22539500D01*
X39951750Y-22369500D02*
X40121750Y-22539500D01*
X40121750Y-22369500D02*
X39951750Y-22539500D01*
X21314500Y-27054900D02*
X21484500Y-27224900D01*
X21484500Y-27054900D02*
X21314500Y-27224900D01*
X22330500Y-27054900D02*
X22500500Y-27224900D01*
X22500500Y-27054900D02*
X22330500Y-27224900D01*
X29950500Y-28972600D02*
X30120500Y-29142600D01*
X30120500Y-28972600D02*
X29950500Y-29142600D01*
X30966500Y-28972600D02*
X31136500Y-29142600D01*
X31136500Y-28972600D02*
X30966500Y-29142600D01*
X6931750Y-22369500D02*
X7101750Y-22539500D01*
X7101750Y-22369500D02*
X6931750Y-22539500D01*
X7947750Y-22369500D02*
X8117750Y-22539500D01*
X8117750Y-22369500D02*
X7947750Y-22539500D01*
X40847100Y-22368600D02*
X41017100Y-22538600D01*
X41017100Y-22368600D02*
X40847100Y-22538600D01*
X41863100Y-22368600D02*
X42033100Y-22538600D01*
X42033100Y-22368600D02*
X41863100Y-22538600D01*
X17479100Y-27054900D02*
X17649100Y-27224900D01*
X17649100Y-27054900D02*
X17479100Y-27224900D01*
X18495100Y-27054900D02*
X18665100Y-27224900D01*
X18665100Y-27054900D02*
X18495100Y-27224900D01*
X30903000Y-27054900D02*
X31073000Y-27224900D01*
X31073000Y-27054900D02*
X30903000Y-27224900D01*
X31919000Y-27054900D02*
X32089000Y-27224900D01*
X32089000Y-27054900D02*
X31919000Y-27224900D01*
X16972370Y-22369500D02*
X17142370Y-22539500D01*
X17142370Y-22369500D02*
X16972370Y-22539500D01*
X17988370Y-22369500D02*
X18158370Y-22539500D01*
X18158370Y-22369500D02*
X17988370Y-22539500D01*
X42758450Y-22369500D02*
X42928450Y-22539500D01*
X42928450Y-22369500D02*
X42758450Y-22539500D01*
X43774450Y-22369500D02*
X43944450Y-22539500D01*
X43944450Y-22369500D02*
X43774450Y-22539500D01*
X15561400Y-30890300D02*
X15731400Y-31060300D01*
X15731400Y-30890300D02*
X15561400Y-31060300D01*
X16577400Y-30890300D02*
X16747400Y-31060300D01*
X16747400Y-30890300D02*
X16577400Y-31060300D01*
X25149900Y-27054900D02*
X25319900Y-27224900D01*
X25319900Y-27054900D02*
X25149900Y-27224900D01*
X26165900Y-27054900D02*
X26335900Y-27224900D01*
X26335900Y-27054900D02*
X26165900Y-27224900D01*
X27016800Y-22368600D02*
X27186800Y-22538600D01*
X27186800Y-22368600D02*
X27016800Y-22538600D01*
X28032800Y-22368600D02*
X28202800Y-22538600D01*
X28202800Y-22368600D02*
X28032800Y-22538600D01*
X31379250Y-30890300D02*
X31549250Y-31060300D01*
X31549250Y-30890300D02*
X31379250Y-31060300D01*
X32395250Y-30890300D02*
X32565250Y-31060300D01*
X32565250Y-30890300D02*
X32395250Y-31060300D01*
X13643700Y-30890300D02*
X13813700Y-31060300D01*
X13813700Y-30890300D02*
X13643700Y-31060300D01*
X14659700Y-30890300D02*
X14829700Y-31060300D01*
X14829700Y-30890300D02*
X14659700Y-31060300D01*
X23179650Y-22369500D02*
X23349650Y-22539500D01*
X23349650Y-22369500D02*
X23179650Y-22539500D01*
X24195650Y-22369500D02*
X24365650Y-22539500D01*
X24365650Y-22369500D02*
X24195650Y-22539500D01*
X38914950Y-27054900D02*
X39084950Y-27224900D01*
X39084950Y-27054900D02*
X38914950Y-27224900D01*
X39930950Y-27054900D02*
X40100950Y-27224900D01*
X40100950Y-27054900D02*
X39930950Y-27224900D01*
X16520250Y-25137200D02*
X16690250Y-25307200D01*
X16690250Y-25137200D02*
X16520250Y-25307200D01*
X17536250Y-25137200D02*
X17706250Y-25307200D01*
X17706250Y-25137200D02*
X17536250Y-25307200D01*
X8849450Y-22369500D02*
X9019450Y-22539500D01*
X9019450Y-22369500D02*
X8849450Y-22539500D01*
X9865450Y-22369500D02*
X10035450Y-22539500D01*
X10035450Y-22369500D02*
X9865450Y-22539500D01*
X22273350Y-25137200D02*
X22443350Y-25307200D01*
X22443350Y-25137200D02*
X22273350Y-25307200D01*
X23289350Y-25137200D02*
X23459350Y-25307200D01*
X23459350Y-25137200D02*
X23289350Y-25307200D01*
X31290350Y-22369500D02*
X31460350Y-22539500D01*
X31460350Y-22369500D02*
X31290350Y-22539500D01*
X32306350Y-22369500D02*
X32476350Y-22539500D01*
X32476350Y-22369500D02*
X32306350Y-22539500D01*
X40832650Y-27054900D02*
X41002650Y-27224900D01*
X41002650Y-27054900D02*
X40832650Y-27224900D01*
X41848650Y-27054900D02*
X42018650Y-27224900D01*
X42018650Y-27054900D02*
X41848650Y-27224900D01*
X8614500Y-30890300D02*
X8784500Y-31060300D01*
X8784500Y-30890300D02*
X8614500Y-31060300D01*
X9630500Y-30890300D02*
X9800500Y-31060300D01*
X9800500Y-30890300D02*
X9630500Y-31060300D01*
X11726000Y-30890300D02*
X11896000Y-31060300D01*
X11896000Y-30890300D02*
X11726000Y-31060300D01*
X12742000Y-30890300D02*
X12912000Y-31060300D01*
X12912000Y-30890300D02*
X12742000Y-31060300D01*
X22279700Y-28972600D02*
X22449700Y-29142600D01*
X22449700Y-28972600D02*
X22279700Y-29142600D01*
X23295700Y-28972600D02*
X23465700Y-29142600D01*
X23465700Y-28972600D02*
X23295700Y-29142600D01*
X35697250Y-25137200D02*
X35867250Y-25307200D01*
X35867250Y-25137200D02*
X35697250Y-25307200D01*
X36713250Y-25137200D02*
X36883250Y-25307200D01*
X36883250Y-25137200D02*
X36713250Y-25307200D01*
X11726000Y-27054900D02*
X11896000Y-27224900D01*
X11896000Y-27054900D02*
X11726000Y-27224900D01*
X12742000Y-27054900D02*
X12912000Y-27224900D01*
X12912000Y-27054900D02*
X12742000Y-27224900D01*
X28985300Y-30890300D02*
X29155300Y-31060300D01*
X29155300Y-30890300D02*
X28985300Y-31060300D01*
X30001300Y-30890300D02*
X30171300Y-31060300D01*
X30171300Y-30890300D02*
X30001300Y-31060300D01*
X28026450Y-25137200D02*
X28196450Y-25307200D01*
X28196450Y-25137200D02*
X28026450Y-25307200D01*
X29042450Y-25137200D02*
X29212450Y-25307200D01*
X29212450Y-25137200D02*
X29042450Y-25307200D01*
X42750350Y-28972600D02*
X42920350Y-29142600D01*
X42920350Y-28972600D02*
X42750350Y-29142600D01*
X43766350Y-28972600D02*
X43936350Y-29142600D01*
X43936350Y-28972600D02*
X43766350Y-29142600D01*
X9808300Y-27054900D02*
X9978300Y-27224900D01*
X9978300Y-27054900D02*
X9808300Y-27224900D01*
X10824300Y-27054900D02*
X10994300Y-27224900D01*
X10994300Y-27054900D02*
X10824300Y-27224900D01*
X23232200Y-27054900D02*
X23402200Y-27224900D01*
X23402200Y-27054900D02*
X23232200Y-27224900D01*
X24248200Y-27054900D02*
X24418200Y-27224900D01*
X24418200Y-27054900D02*
X24248200Y-27224900D01*
X44668050Y-27054900D02*
X44838050Y-27224900D01*
X44838050Y-27054900D02*
X44668050Y-27224900D01*
X45684050Y-27054900D02*
X45854050Y-27224900D01*
X45854050Y-27054900D02*
X45684050Y-27224900D01*
X20355650Y-25137200D02*
X20525650Y-25307200D01*
X20525650Y-25137200D02*
X20355650Y-25307200D01*
X21371650Y-25137200D02*
X21541650Y-25307200D01*
X21541650Y-25137200D02*
X21371650Y-25307200D01*
X31861850Y-25137200D02*
X32031850Y-25307200D01*
X32031850Y-25137200D02*
X31861850Y-25307200D01*
X32877850Y-25137200D02*
X33047850Y-25307200D01*
X33047850Y-25137200D02*
X32877850Y-25307200D01*
X15054670Y-22369500D02*
X15224670Y-22539500D01*
X15224670Y-22369500D02*
X15054670Y-22539500D01*
X16070670Y-22369500D02*
X16240670Y-22539500D01*
X16240670Y-22369500D02*
X16070670Y-22539500D01*
X24191050Y-25137200D02*
X24361050Y-25307200D01*
X24361050Y-25137200D02*
X24191050Y-25307200D01*
X25207050Y-25137200D02*
X25377050Y-25307200D01*
X25377050Y-25137200D02*
X25207050Y-25307200D01*
X26115100Y-28972600D02*
X26285100Y-29142600D01*
X26285100Y-28972600D02*
X26115100Y-29142600D01*
X27131100Y-28972600D02*
X27301100Y-29142600D01*
X27301100Y-28972600D02*
X27131100Y-29142600D01*
X42750350Y-25137200D02*
X42920350Y-25307200D01*
X42920350Y-25137200D02*
X42750350Y-25307200D01*
X43766350Y-25137200D02*
X43936350Y-25307200D01*
X43936350Y-25137200D02*
X43766350Y-25307200D01*
X31614200Y-32801650D02*
X31784200Y-32971650D01*
X31784200Y-32801650D02*
X31614200Y-32971650D01*
X32630200Y-32801650D02*
X32800200Y-32971650D01*
X32800200Y-32801650D02*
X32630200Y-32971650D01*
X14608900Y-28972600D02*
X14778900Y-29142600D01*
X14778900Y-28972600D02*
X14608900Y-29142600D01*
X15624900Y-28972600D02*
X15794900Y-29142600D01*
X15794900Y-28972600D02*
X15624900Y-29142600D01*
X8170000Y-30275300D02*
G75*
G03X8170000Y-30275300I-152500J0D01*
G01*
X10550000Y-30275300D02*
G75*
G03X10550000Y-30275300I-152500J0D01*
G01*
X39435650Y-30275300D02*
G75*
G03X39435650Y-30275300I-152500J0D01*
G01*
X41815650Y-30275300D02*
G75*
G03X41815650Y-30275300I-152500J0D01*
G01*
X44713550Y-28820100D02*
G75*
G03X44713550Y-28820100I-152500J0D01*
G01*
X44713550Y-31200100D02*
G75*
G03X44713550Y-31200100I-152500J0D01*
G01*
X34528850Y-28357600D02*
G75*
G03X34528850Y-28357600I-152500J0D01*
G01*
X36908850Y-28357600D02*
G75*
G03X36908850Y-28357600I-152500J0D01*
G01*
X17060000Y-32193000D02*
G75*
G03X17060000Y-32193000I-152500J0D01*
G01*
X27060000Y-32193000D02*
G75*
G03X27060000Y-32193000I-152500J0D01*
G01*
X12319000Y-30775300D02*
X12319000Y-31175300D01*
X12119000Y-30975300D02*
X12519000Y-30975300D01*
X22872700Y-28857600D02*
X22872700Y-29257600D01*
X22672700Y-29057600D02*
X23072700Y-29057600D01*
X36290250Y-25022200D02*
X36290250Y-25422200D01*
X36090250Y-25222200D02*
X36490250Y-25222200D01*
X12319000Y-26939900D02*
X12319000Y-27339900D01*
X12119000Y-27139900D02*
X12519000Y-27139900D01*
X29578300Y-30775300D02*
X29578300Y-31175300D01*
X29378300Y-30975300D02*
X29778300Y-30975300D01*
X28619450Y-25022200D02*
X28619450Y-25422200D01*
X28419450Y-25222200D02*
X28819450Y-25222200D01*
X43343350Y-28857600D02*
X43343350Y-29257600D01*
X43143350Y-29057600D02*
X43543350Y-29057600D01*
X10401300Y-26939900D02*
X10401300Y-27339900D01*
X10201300Y-27139900D02*
X10601300Y-27139900D01*
X23825200Y-26939900D02*
X23825200Y-27339900D01*
X23625200Y-27139900D02*
X24025200Y-27139900D01*
X45261050Y-26939900D02*
X45261050Y-27339900D01*
X45061050Y-27139900D02*
X45461050Y-27139900D01*
X20948650Y-25022200D02*
X20948650Y-25422200D01*
X20748650Y-25222200D02*
X21148650Y-25222200D01*
X32454850Y-25022200D02*
X32454850Y-25422200D01*
X32254850Y-25222200D02*
X32654850Y-25222200D01*
X15647670Y-22254500D02*
X15647670Y-22654500D01*
X15447670Y-22454500D02*
X15847670Y-22454500D01*
X24784050Y-25022200D02*
X24784050Y-25422200D01*
X24584050Y-25222200D02*
X24984050Y-25222200D01*
X26708100Y-28857600D02*
X26708100Y-29257600D01*
X26508100Y-29057600D02*
X26908100Y-29057600D01*
X43343350Y-25022200D02*
X43343350Y-25422200D01*
X43143350Y-25222200D02*
X43543350Y-25222200D01*
X32207200Y-32686650D02*
X32207200Y-33086650D01*
X32007200Y-32886650D02*
X32407200Y-32886650D01*
X15201900Y-28857600D02*
X15201900Y-29257600D01*
X15001900Y-29057600D02*
X15401900Y-29057600D01*
X24790400Y-28857600D02*
X24790400Y-29257600D01*
X24590400Y-29057600D02*
X24990400Y-29057600D01*
X21400770Y-22254500D02*
X21400770Y-22654500D01*
X21200770Y-22454500D02*
X21600770Y-22454500D01*
X39507950Y-25022200D02*
X39507950Y-25422200D01*
X39307950Y-25222200D02*
X39707950Y-25222200D01*
X33793430Y-22254870D02*
X33793430Y-22654870D01*
X33593430Y-22454870D02*
X33993430Y-22454870D01*
X20955000Y-28857600D02*
X20955000Y-29257600D01*
X20755000Y-29057600D02*
X21155000Y-29057600D01*
X25690350Y-22254500D02*
X25690350Y-22654500D01*
X25490350Y-22454500D02*
X25890350Y-22454500D01*
X13277850Y-25022200D02*
X13277850Y-25422200D01*
X13077850Y-25222200D02*
X13477850Y-25222200D01*
X34359850Y-32686650D02*
X34359850Y-33086650D01*
X34159850Y-32886650D02*
X34559850Y-32886650D01*
X15195550Y-25022200D02*
X15195550Y-25422200D01*
X14995550Y-25222200D02*
X15395550Y-25222200D01*
X41425650Y-28857600D02*
X41425650Y-29257600D01*
X41225650Y-29057600D02*
X41625650Y-29057600D01*
X13271500Y-22253600D02*
X13271500Y-22653600D01*
X13071500Y-22453600D02*
X13471500Y-22453600D01*
X18072100Y-30775300D02*
X18072100Y-31175300D01*
X17872100Y-30975300D02*
X18272100Y-30975300D01*
X36512500Y-32686650D02*
X36512500Y-33086650D01*
X36312500Y-32886650D02*
X36712500Y-32886650D01*
X11360150Y-25022200D02*
X11360150Y-25422200D01*
X11160150Y-25222200D02*
X11560150Y-25222200D01*
X21907500Y-30775300D02*
X21907500Y-31175300D01*
X21707500Y-30975300D02*
X22107500Y-30975300D01*
X11366500Y-28857600D02*
X11366500Y-29257600D01*
X11166500Y-29057600D02*
X11566500Y-29057600D01*
X29578300Y-26939900D02*
X29578300Y-27339900D01*
X29378300Y-27139900D02*
X29778300Y-27139900D01*
X33413700Y-26939900D02*
X33413700Y-27339900D01*
X33213700Y-27139900D02*
X33613700Y-27139900D01*
X7524750Y-25022200D02*
X7524750Y-25422200D01*
X7324750Y-25222200D02*
X7724750Y-25222200D01*
X30537150Y-25022200D02*
X30537150Y-25422200D01*
X30337150Y-25222200D02*
X30737150Y-25222200D01*
X39283150Y-31599300D02*
X39283150Y-31999300D01*
X39083150Y-31799300D02*
X39483150Y-31799300D01*
X40473150Y-30775300D02*
X40473150Y-31175300D01*
X40273150Y-30975300D02*
X40673150Y-30975300D01*
X41663150Y-31599300D02*
X41663150Y-31999300D01*
X41463150Y-31799300D02*
X41863150Y-31799300D01*
X19989800Y-26939900D02*
X19989800Y-27339900D01*
X19789800Y-27139900D02*
X20189800Y-27139900D01*
X27660600Y-30775300D02*
X27660600Y-31175300D01*
X27460600Y-30975300D02*
X27860600Y-30975300D01*
X43343350Y-26939900D02*
X43343350Y-27339900D01*
X43143350Y-27139900D02*
X43543350Y-27139900D01*
X35709860Y-22254500D02*
X35709860Y-22654500D01*
X35509860Y-22454500D02*
X35909860Y-22454500D01*
X19037300Y-28857600D02*
X19037300Y-29257600D01*
X18837300Y-29057600D02*
X19237300Y-29057600D01*
X28625800Y-28857600D02*
X28625800Y-29257600D01*
X28425800Y-29057600D02*
X28825800Y-29057600D01*
X41425650Y-25022200D02*
X41425650Y-25422200D01*
X41225650Y-25222200D02*
X41625650Y-25222200D01*
X35807650Y-26939900D02*
X35807650Y-27339900D01*
X35607650Y-27139900D02*
X36007650Y-27139900D01*
X37617400Y-22254870D02*
X37617400Y-22654870D01*
X37417400Y-22454870D02*
X37817400Y-22454870D01*
X17119600Y-28857600D02*
X17119600Y-29257600D01*
X16919600Y-29057600D02*
X17319600Y-29057600D01*
X26701750Y-25022200D02*
X26701750Y-25422200D01*
X26501750Y-25222200D02*
X26901750Y-25222200D01*
X45261050Y-29810100D02*
X45261050Y-30210100D01*
X45061050Y-30010100D02*
X45461050Y-30010100D01*
X46085050Y-28620100D02*
X46085050Y-29020100D01*
X45885050Y-28820100D02*
X46285050Y-28820100D01*
X46085050Y-31000100D02*
X46085050Y-31400100D01*
X45885050Y-31200100D02*
X46285050Y-31200100D01*
X34376350Y-29681600D02*
X34376350Y-30081600D01*
X34176350Y-29881600D02*
X34576350Y-29881600D01*
X35566350Y-28857600D02*
X35566350Y-29257600D01*
X35366350Y-29057600D02*
X35766350Y-29057600D01*
X36756350Y-29681600D02*
X36756350Y-30081600D01*
X36556350Y-29881600D02*
X36956350Y-29881600D01*
X19989800Y-30775300D02*
X19989800Y-31175300D01*
X19789800Y-30975300D02*
X20189800Y-30975300D01*
X45261050Y-25022200D02*
X45261050Y-25422200D01*
X45061050Y-25222200D02*
X45461050Y-25222200D01*
X14236700Y-26939900D02*
X14236700Y-27339900D01*
X14036700Y-27139900D02*
X14436700Y-27139900D01*
X16154400Y-26939900D02*
X16154400Y-27339900D01*
X15954400Y-27139900D02*
X16354400Y-27139900D01*
X11360150Y-22254500D02*
X11360150Y-22654500D01*
X11160150Y-22454500D02*
X11560150Y-22454500D01*
X16907500Y-33517000D02*
X16907500Y-33917000D01*
X16707500Y-33717000D02*
X17107500Y-33717000D01*
X21907500Y-32693000D02*
X21907500Y-33093000D01*
X21707500Y-32893000D02*
X22107500Y-32893000D01*
X26907500Y-33517000D02*
X26907500Y-33917000D01*
X26707500Y-33717000D02*
X27107500Y-33717000D01*
X34359850Y-30775300D02*
X34359850Y-31175300D01*
X34159850Y-30975300D02*
X34559850Y-30975300D01*
X19030950Y-25022200D02*
X19030950Y-25422200D01*
X18830950Y-25222200D02*
X19230950Y-25222200D01*
X39507950Y-28857600D02*
X39507950Y-29257600D01*
X39307950Y-29057600D02*
X39707950Y-29057600D01*
X34372550Y-25022200D02*
X34372550Y-25422200D01*
X34172550Y-25222200D02*
X34572550Y-25222200D01*
X13284200Y-28857600D02*
X13284200Y-29257600D01*
X13084200Y-29057600D02*
X13484200Y-29057600D01*
X8255000Y-32693000D02*
X8255000Y-33093000D01*
X8055000Y-32893000D02*
X8455000Y-32893000D01*
X25742900Y-30775300D02*
X25742900Y-31175300D01*
X25542900Y-30975300D02*
X25942900Y-30975300D01*
X8007350Y-26939900D02*
X8007350Y-27339900D01*
X7807350Y-27139900D02*
X8207350Y-27139900D01*
X19481800Y-22253600D02*
X19481800Y-22653600D01*
X19281800Y-22453600D02*
X19681800Y-22453600D01*
X8737600Y-28857600D02*
X8737600Y-29257600D01*
X8537600Y-29057600D02*
X8937600Y-29057600D01*
X27660600Y-26939900D02*
X27660600Y-27339900D01*
X27460600Y-27139900D02*
X27860600Y-27139900D01*
X43343350Y-30775300D02*
X43343350Y-31175300D01*
X43143350Y-30975300D02*
X43543350Y-30975300D01*
X32461200Y-28857600D02*
X32461200Y-29257600D01*
X32261200Y-29057600D02*
X32661200Y-29057600D01*
X9442450Y-25022200D02*
X9442450Y-25422200D01*
X9242450Y-25222200D02*
X9642450Y-25222200D01*
X45262800Y-22253600D02*
X45262800Y-22653600D01*
X45062800Y-22453600D02*
X45462800Y-22453600D01*
X23825200Y-30775300D02*
X23825200Y-31175300D01*
X23625200Y-30975300D02*
X24025200Y-30975300D01*
X29525750Y-22254500D02*
X29525750Y-22654500D01*
X29325750Y-22454500D02*
X29725750Y-22454500D01*
X39528750Y-22254500D02*
X39528750Y-22654500D01*
X39328750Y-22454500D02*
X39728750Y-22454500D01*
X21907500Y-26939900D02*
X21907500Y-27339900D01*
X21707500Y-27139900D02*
X22107500Y-27139900D01*
X30543500Y-28857600D02*
X30543500Y-29257600D01*
X30343500Y-29057600D02*
X30743500Y-29057600D01*
X7524750Y-22254500D02*
X7524750Y-22654500D01*
X7324750Y-22454500D02*
X7724750Y-22454500D01*
X41440100Y-22253600D02*
X41440100Y-22653600D01*
X41240100Y-22453600D02*
X41640100Y-22453600D01*
X18072100Y-26939900D02*
X18072100Y-27339900D01*
X17872100Y-27139900D02*
X18272100Y-27139900D01*
X31496000Y-26939900D02*
X31496000Y-27339900D01*
X31296000Y-27139900D02*
X31696000Y-27139900D01*
X17565370Y-22254500D02*
X17565370Y-22654500D01*
X17365370Y-22454500D02*
X17765370Y-22454500D01*
X43351450Y-22254500D02*
X43351450Y-22654500D01*
X43151450Y-22454500D02*
X43551450Y-22454500D01*
X16154400Y-30775300D02*
X16154400Y-31175300D01*
X15954400Y-30975300D02*
X16354400Y-30975300D01*
X25742900Y-26939900D02*
X25742900Y-27339900D01*
X25542900Y-27139900D02*
X25942900Y-27139900D01*
X27609800Y-22253600D02*
X27609800Y-22653600D01*
X27409800Y-22453600D02*
X27809800Y-22453600D01*
X31972250Y-30775300D02*
X31972250Y-31175300D01*
X31772250Y-30975300D02*
X32172250Y-30975300D01*
X14236700Y-30775300D02*
X14236700Y-31175300D01*
X14036700Y-30975300D02*
X14436700Y-30975300D01*
X23772650Y-22254500D02*
X23772650Y-22654500D01*
X23572650Y-22454500D02*
X23972650Y-22454500D01*
X39507950Y-26939900D02*
X39507950Y-27339900D01*
X39307950Y-27139900D02*
X39707950Y-27139900D01*
X17113250Y-25022200D02*
X17113250Y-25422200D01*
X16913250Y-25222200D02*
X17313250Y-25222200D01*
X9442450Y-22254500D02*
X9442450Y-22654500D01*
X9242450Y-22454500D02*
X9642450Y-22454500D01*
X22866350Y-25022200D02*
X22866350Y-25422200D01*
X22666350Y-25222200D02*
X23066350Y-25222200D01*
X31883350Y-22254500D02*
X31883350Y-22654500D01*
X31683350Y-22454500D02*
X32083350Y-22454500D01*
X41425650Y-26939900D02*
X41425650Y-27339900D01*
X41225650Y-27139900D02*
X41625650Y-27139900D01*
X8017500Y-31599300D02*
X8017500Y-31999300D01*
X7817500Y-31799300D02*
X8217500Y-31799300D01*
X9207500Y-30775300D02*
X9207500Y-31175300D01*
X9007500Y-30975300D02*
X9407500Y-30975300D01*
X10397500Y-31599300D02*
X10397500Y-31999300D01*
X10197500Y-31799300D02*
X10597500Y-31799300D01*
D12*
X6633928Y-34567714D02*
X6633928Y-34267714D01*
X6705357Y-34267714D01*
X6748214Y-34282000D01*
X6776786Y-34310572D01*
X6791071Y-34339143D01*
X6805357Y-34396286D01*
X6805357Y-34439143D01*
X6791071Y-34496286D01*
X6776786Y-34524857D01*
X6748214Y-34553429D01*
X6705357Y-34567714D01*
X6633928Y-34567714D01*
X6933928Y-34567714D02*
X6933928Y-34367714D01*
X6933928Y-34424857D02*
X6948214Y-34396286D01*
X6962500Y-34382000D01*
X6991071Y-34367714D01*
X7019643Y-34367714D01*
X7119643Y-34567714D02*
X7119643Y-34367714D01*
X7119643Y-34267714D02*
X7105357Y-34282000D01*
X7119643Y-34296286D01*
X7133928Y-34282000D01*
X7119643Y-34267714D01*
X7119643Y-34296286D01*
X7305357Y-34567714D02*
X7276786Y-34553429D01*
X7262500Y-34524857D01*
X7262500Y-34267714D01*
X7462500Y-34567714D02*
X7433928Y-34553429D01*
X7419643Y-34524857D01*
X7419643Y-34267714D01*
X7805357Y-34567714D02*
X7805357Y-34267714D01*
X7905357Y-34482000D01*
X8005357Y-34267714D01*
X8005357Y-34567714D01*
X8276786Y-34567714D02*
X8276786Y-34410572D01*
X8262500Y-34382000D01*
X8233928Y-34367714D01*
X8176786Y-34367714D01*
X8148214Y-34382000D01*
X8276786Y-34553429D02*
X8248214Y-34567714D01*
X8176786Y-34567714D01*
X8148214Y-34553429D01*
X8133928Y-34524857D01*
X8133928Y-34496286D01*
X8148214Y-34467714D01*
X8176786Y-34453429D01*
X8248214Y-34453429D01*
X8276786Y-34439143D01*
X8419643Y-34367714D02*
X8419643Y-34667714D01*
X8419643Y-34382000D02*
X8448214Y-34367714D01*
X8505357Y-34367714D01*
X8533928Y-34382000D01*
X8548214Y-34396286D01*
X8562500Y-34424857D01*
X8562500Y-34510572D01*
X8548214Y-34539143D01*
X8533928Y-34553429D01*
X8505357Y-34567714D01*
X8448214Y-34567714D01*
X8419643Y-34553429D01*
X8691071Y-34539143D02*
X8705357Y-34553429D01*
X8691071Y-34567714D01*
X8676786Y-34553429D01*
X8691071Y-34539143D01*
X8691071Y-34567714D01*
X8691071Y-34382000D02*
X8705357Y-34396286D01*
X8691071Y-34410572D01*
X8676786Y-34396286D01*
X8691071Y-34382000D01*
X8691071Y-34410572D01*
X6177500Y-34977000D02*
X6347500Y-35147000D01*
X6347500Y-34977000D02*
X6177500Y-35147000D01*
X6791071Y-35197714D02*
X6619643Y-35197714D01*
X6705357Y-35197714D02*
X6705357Y-34897714D01*
X6676786Y-34940572D01*
X6648214Y-34969143D01*
X6619643Y-34983429D01*
X6919643Y-35169143D02*
X6933928Y-35183429D01*
X6919643Y-35197714D01*
X6905357Y-35183429D01*
X6919643Y-35169143D01*
X6919643Y-35197714D01*
X7033928Y-34897714D02*
X7233928Y-34897714D01*
X7105357Y-35197714D01*
X7405357Y-34897714D02*
X7433928Y-34897714D01*
X7462500Y-34912000D01*
X7476786Y-34926286D01*
X7491071Y-34954857D01*
X7505357Y-35012000D01*
X7505357Y-35083429D01*
X7491071Y-35140572D01*
X7476786Y-35169143D01*
X7462500Y-35183429D01*
X7433928Y-35197714D01*
X7405357Y-35197714D01*
X7376786Y-35183429D01*
X7362500Y-35169143D01*
X7348214Y-35140572D01*
X7333928Y-35083429D01*
X7333928Y-35012000D01*
X7348214Y-34954857D01*
X7362500Y-34926286D01*
X7376786Y-34912000D01*
X7405357Y-34897714D01*
X7633928Y-35197714D02*
X7633928Y-34997714D01*
X7633928Y-35026286D02*
X7648214Y-35012000D01*
X7676786Y-34997714D01*
X7719643Y-34997714D01*
X7748214Y-35012000D01*
X7762500Y-35040572D01*
X7762500Y-35197714D01*
X7762500Y-35040572D02*
X7776786Y-35012000D01*
X7805357Y-34997714D01*
X7848214Y-34997714D01*
X7876786Y-35012000D01*
X7891071Y-35040572D01*
X7891071Y-35197714D01*
X8033928Y-35197714D02*
X8033928Y-34997714D01*
X8033928Y-35026286D02*
X8048214Y-35012000D01*
X8076786Y-34997714D01*
X8119643Y-34997714D01*
X8148214Y-35012000D01*
X8162500Y-35040572D01*
X8162500Y-35197714D01*
X8162500Y-35040572D02*
X8176786Y-35012000D01*
X8205357Y-34997714D01*
X8248214Y-34997714D01*
X8276786Y-35012000D01*
X8291071Y-35040572D01*
X8291071Y-35197714D01*
X8876786Y-34883429D02*
X8619643Y-35269143D01*
X9262500Y-34897714D02*
X9291071Y-34897714D01*
X9319643Y-34912000D01*
X9333928Y-34926286D01*
X9348214Y-34954857D01*
X9362500Y-35012000D01*
X9362500Y-35083429D01*
X9348214Y-35140572D01*
X9333928Y-35169143D01*
X9319643Y-35183429D01*
X9291071Y-35197714D01*
X9262500Y-35197714D01*
X9233928Y-35183429D01*
X9219643Y-35169143D01*
X9205357Y-35140572D01*
X9191071Y-35083429D01*
X9191071Y-35012000D01*
X9205357Y-34954857D01*
X9219643Y-34926286D01*
X9233928Y-34912000D01*
X9262500Y-34897714D01*
X9491071Y-35169143D02*
X9505357Y-35183429D01*
X9491071Y-35197714D01*
X9476786Y-35183429D01*
X9491071Y-35169143D01*
X9491071Y-35197714D01*
X9691071Y-34897714D02*
X9719643Y-34897714D01*
X9748214Y-34912000D01*
X9762500Y-34926286D01*
X9776786Y-34954857D01*
X9791071Y-35012000D01*
X9791071Y-35083429D01*
X9776786Y-35140572D01*
X9762500Y-35169143D01*
X9748214Y-35183429D01*
X9719643Y-35197714D01*
X9691071Y-35197714D01*
X9662500Y-35183429D01*
X9648214Y-35169143D01*
X9633928Y-35140572D01*
X9619643Y-35083429D01*
X9619643Y-35012000D01*
X9633928Y-34954857D01*
X9648214Y-34926286D01*
X9662500Y-34912000D01*
X9691071Y-34897714D01*
X10048214Y-34897714D02*
X9991071Y-34897714D01*
X9962500Y-34912000D01*
X9948214Y-34926286D01*
X9919643Y-34969143D01*
X9905357Y-35026286D01*
X9905357Y-35140572D01*
X9919643Y-35169143D01*
X9933928Y-35183429D01*
X9962500Y-35197714D01*
X10019643Y-35197714D01*
X10048214Y-35183429D01*
X10062500Y-35169143D01*
X10076786Y-35140572D01*
X10076786Y-35069143D01*
X10062500Y-35040572D01*
X10048214Y-35026286D01*
X10019643Y-35012000D01*
X9962500Y-35012000D01*
X9933928Y-35026286D01*
X9919643Y-35040572D01*
X9905357Y-35069143D01*
X10176786Y-34897714D02*
X10376786Y-34897714D01*
X10248214Y-35197714D01*
X10476786Y-34897714D02*
X10476786Y-34954857D01*
X10591071Y-34897714D02*
X10591071Y-34954857D01*
X11033928Y-35312000D02*
X11019643Y-35297714D01*
X10991071Y-35254857D01*
X10976786Y-35226286D01*
X10962500Y-35183429D01*
X10948214Y-35112000D01*
X10948214Y-35054857D01*
X10962500Y-34983429D01*
X10976786Y-34940572D01*
X10991071Y-34912000D01*
X11019643Y-34869143D01*
X11033928Y-34854857D01*
X11305357Y-35197714D02*
X11133928Y-35197714D01*
X11219643Y-35197714D02*
X11219643Y-34897714D01*
X11191071Y-34940572D01*
X11162500Y-34969143D01*
X11133928Y-34983429D01*
X11448214Y-35197714D02*
X11505357Y-35197714D01*
X11533928Y-35183429D01*
X11548214Y-35169143D01*
X11576786Y-35126286D01*
X11591071Y-35069143D01*
X11591071Y-34954857D01*
X11576786Y-34926286D01*
X11562500Y-34912000D01*
X11533928Y-34897714D01*
X11476786Y-34897714D01*
X11448214Y-34912000D01*
X11433928Y-34926286D01*
X11419643Y-34954857D01*
X11419643Y-35026286D01*
X11433928Y-35054857D01*
X11448214Y-35069143D01*
X11476786Y-35083429D01*
X11533928Y-35083429D01*
X11562500Y-35069143D01*
X11576786Y-35054857D01*
X11591071Y-35026286D01*
X11848214Y-34997714D02*
X11848214Y-35197714D01*
X11776786Y-34883429D02*
X11705357Y-35097714D01*
X11891071Y-35097714D01*
X12233928Y-35197714D02*
X12233928Y-34897714D01*
X12362500Y-35197714D02*
X12362500Y-35040572D01*
X12348214Y-35012000D01*
X12319643Y-34997714D01*
X12276786Y-34997714D01*
X12248214Y-35012000D01*
X12233928Y-35026286D01*
X12548214Y-35197714D02*
X12519643Y-35183429D01*
X12505357Y-35169143D01*
X12491071Y-35140572D01*
X12491071Y-35054857D01*
X12505357Y-35026286D01*
X12519643Y-35012000D01*
X12548214Y-34997714D01*
X12591071Y-34997714D01*
X12619643Y-35012000D01*
X12633928Y-35026286D01*
X12648214Y-35054857D01*
X12648214Y-35140572D01*
X12633928Y-35169143D01*
X12619643Y-35183429D01*
X12591071Y-35197714D01*
X12548214Y-35197714D01*
X12819643Y-35197714D02*
X12791071Y-35183429D01*
X12776786Y-35154857D01*
X12776786Y-34897714D01*
X13048214Y-35183429D02*
X13019643Y-35197714D01*
X12962500Y-35197714D01*
X12933928Y-35183429D01*
X12919643Y-35154857D01*
X12919643Y-35040572D01*
X12933928Y-35012000D01*
X12962500Y-34997714D01*
X13019643Y-34997714D01*
X13048214Y-35012000D01*
X13062500Y-35040572D01*
X13062500Y-35069143D01*
X12919643Y-35097714D01*
X13176786Y-35183429D02*
X13205357Y-35197714D01*
X13262500Y-35197714D01*
X13291071Y-35183429D01*
X13305357Y-35154857D01*
X13305357Y-35140572D01*
X13291071Y-35112000D01*
X13262500Y-35097714D01*
X13219643Y-35097714D01*
X13191071Y-35083429D01*
X13176786Y-35054857D01*
X13176786Y-35040572D01*
X13191071Y-35012000D01*
X13219643Y-34997714D01*
X13262500Y-34997714D01*
X13291071Y-35012000D01*
X13405357Y-35312000D02*
X13419643Y-35297714D01*
X13448214Y-35254857D01*
X13462500Y-35226286D01*
X13476786Y-35183429D01*
X13491071Y-35112000D01*
X13491071Y-35054857D01*
X13476786Y-34983429D01*
X13462500Y-34940572D01*
X13448214Y-34912000D01*
X13419643Y-34869143D01*
X13405357Y-34854857D01*
X13948214Y-35312000D02*
X13933928Y-35297714D01*
X13905357Y-35254857D01*
X13891071Y-35226286D01*
X13876786Y-35183429D01*
X13862500Y-35112000D01*
X13862500Y-35054857D01*
X13876786Y-34983429D01*
X13891071Y-34940572D01*
X13905357Y-34912000D01*
X13933928Y-34869143D01*
X13948214Y-34854857D01*
X14062500Y-34997714D02*
X14062500Y-35197714D01*
X14062500Y-35026286D02*
X14076786Y-35012000D01*
X14105357Y-34997714D01*
X14148214Y-34997714D01*
X14176786Y-35012000D01*
X14191071Y-35040572D01*
X14191071Y-35197714D01*
X14376786Y-35197714D02*
X14348214Y-35183429D01*
X14333928Y-35169143D01*
X14319643Y-35140572D01*
X14319643Y-35054857D01*
X14333928Y-35026286D01*
X14348214Y-35012000D01*
X14376786Y-34997714D01*
X14419643Y-34997714D01*
X14448214Y-35012000D01*
X14462500Y-35026286D01*
X14476786Y-35054857D01*
X14476786Y-35140572D01*
X14462500Y-35169143D01*
X14448214Y-35183429D01*
X14419643Y-35197714D01*
X14376786Y-35197714D01*
X14562500Y-34997714D02*
X14676786Y-34997714D01*
X14605357Y-34897714D02*
X14605357Y-35154857D01*
X14619643Y-35183429D01*
X14648214Y-35197714D01*
X14676786Y-35197714D01*
X15005357Y-34997714D02*
X15005357Y-35297714D01*
X15005357Y-35012000D02*
X15033928Y-34997714D01*
X15091071Y-34997714D01*
X15119643Y-35012000D01*
X15133928Y-35026286D01*
X15148214Y-35054857D01*
X15148214Y-35140572D01*
X15133928Y-35169143D01*
X15119643Y-35183429D01*
X15091071Y-35197714D01*
X15033928Y-35197714D01*
X15005357Y-35183429D01*
X15319643Y-35197714D02*
X15291071Y-35183429D01*
X15276786Y-35154857D01*
X15276786Y-34897714D01*
X15562500Y-35197714D02*
X15562500Y-35040572D01*
X15548214Y-35012000D01*
X15519643Y-34997714D01*
X15462500Y-34997714D01*
X15433928Y-35012000D01*
X15562500Y-35183429D02*
X15533928Y-35197714D01*
X15462500Y-35197714D01*
X15433928Y-35183429D01*
X15419643Y-35154857D01*
X15419643Y-35126286D01*
X15433928Y-35097714D01*
X15462500Y-35083429D01*
X15533928Y-35083429D01*
X15562500Y-35069143D01*
X15662500Y-34997714D02*
X15776786Y-34997714D01*
X15705357Y-34897714D02*
X15705357Y-35154857D01*
X15719643Y-35183429D01*
X15748214Y-35197714D01*
X15776786Y-35197714D01*
X15991071Y-35183429D02*
X15962500Y-35197714D01*
X15905357Y-35197714D01*
X15876786Y-35183429D01*
X15862500Y-35154857D01*
X15862500Y-35040572D01*
X15876786Y-35012000D01*
X15905357Y-34997714D01*
X15962500Y-34997714D01*
X15991071Y-35012000D01*
X16005357Y-35040572D01*
X16005357Y-35069143D01*
X15862500Y-35097714D01*
X16262500Y-35197714D02*
X16262500Y-34897714D01*
X16262500Y-35183429D02*
X16233928Y-35197714D01*
X16176786Y-35197714D01*
X16148214Y-35183429D01*
X16133928Y-35169143D01*
X16119643Y-35140572D01*
X16119643Y-35054857D01*
X16133928Y-35026286D01*
X16148214Y-35012000D01*
X16176786Y-34997714D01*
X16233928Y-34997714D01*
X16262500Y-35012000D01*
X16376786Y-35312000D02*
X16391071Y-35297714D01*
X16419643Y-35254857D01*
X16433928Y-35226286D01*
X16448214Y-35183429D01*
X16462500Y-35112000D01*
X16462500Y-35054857D01*
X16448214Y-34983429D01*
X16433928Y-34940572D01*
X16419643Y-34912000D01*
X16391071Y-34869143D01*
X16376786Y-34854857D01*
X6347500Y-35458000D02*
G75*
G03X6347500Y-35458000I-152500J0D01*
G01*
X6605357Y-35293714D02*
X6791071Y-35293714D01*
X6691071Y-35408000D01*
X6733928Y-35408000D01*
X6762500Y-35422286D01*
X6776786Y-35436572D01*
X6791071Y-35465143D01*
X6791071Y-35536572D01*
X6776786Y-35565143D01*
X6762500Y-35579429D01*
X6733928Y-35593714D01*
X6648214Y-35593714D01*
X6619643Y-35579429D01*
X6605357Y-35565143D01*
X6919643Y-35565143D02*
X6933928Y-35579429D01*
X6919643Y-35593714D01*
X6905357Y-35579429D01*
X6919643Y-35565143D01*
X6919643Y-35593714D01*
X7119643Y-35293714D02*
X7148214Y-35293714D01*
X7176786Y-35308000D01*
X7191071Y-35322286D01*
X7205357Y-35350857D01*
X7219643Y-35408000D01*
X7219643Y-35479429D01*
X7205357Y-35536572D01*
X7191071Y-35565143D01*
X7176786Y-35579429D01*
X7148214Y-35593714D01*
X7119643Y-35593714D01*
X7091071Y-35579429D01*
X7076786Y-35565143D01*
X7062500Y-35536572D01*
X7048214Y-35479429D01*
X7048214Y-35408000D01*
X7062500Y-35350857D01*
X7076786Y-35322286D01*
X7091071Y-35308000D01*
X7119643Y-35293714D01*
X7491071Y-35293714D02*
X7348214Y-35293714D01*
X7333928Y-35436572D01*
X7348214Y-35422286D01*
X7376786Y-35408000D01*
X7448214Y-35408000D01*
X7476786Y-35422286D01*
X7491071Y-35436572D01*
X7505357Y-35465143D01*
X7505357Y-35536572D01*
X7491071Y-35565143D01*
X7476786Y-35579429D01*
X7448214Y-35593714D01*
X7376786Y-35593714D01*
X7348214Y-35579429D01*
X7333928Y-35565143D01*
X7633928Y-35593714D02*
X7633928Y-35393714D01*
X7633928Y-35422286D02*
X7648214Y-35408000D01*
X7676786Y-35393714D01*
X7719643Y-35393714D01*
X7748214Y-35408000D01*
X7762500Y-35436572D01*
X7762500Y-35593714D01*
X7762500Y-35436572D02*
X7776786Y-35408000D01*
X7805357Y-35393714D01*
X7848214Y-35393714D01*
X7876786Y-35408000D01*
X7891071Y-35436572D01*
X7891071Y-35593714D01*
X8033928Y-35593714D02*
X8033928Y-35393714D01*
X8033928Y-35422286D02*
X8048214Y-35408000D01*
X8076786Y-35393714D01*
X8119643Y-35393714D01*
X8148214Y-35408000D01*
X8162500Y-35436572D01*
X8162500Y-35593714D01*
X8162500Y-35436572D02*
X8176786Y-35408000D01*
X8205357Y-35393714D01*
X8248214Y-35393714D01*
X8276786Y-35408000D01*
X8291071Y-35436572D01*
X8291071Y-35593714D01*
X8876786Y-35279429D02*
X8619643Y-35665143D01*
X9262500Y-35293714D02*
X9291071Y-35293714D01*
X9319643Y-35308000D01*
X9333928Y-35322286D01*
X9348214Y-35350857D01*
X9362500Y-35408000D01*
X9362500Y-35479429D01*
X9348214Y-35536572D01*
X9333928Y-35565143D01*
X9319643Y-35579429D01*
X9291071Y-35593714D01*
X9262500Y-35593714D01*
X9233928Y-35579429D01*
X9219643Y-35565143D01*
X9205357Y-35536572D01*
X9191071Y-35479429D01*
X9191071Y-35408000D01*
X9205357Y-35350857D01*
X9219643Y-35322286D01*
X9233928Y-35308000D01*
X9262500Y-35293714D01*
X9491071Y-35565143D02*
X9505357Y-35579429D01*
X9491071Y-35593714D01*
X9476786Y-35579429D01*
X9491071Y-35565143D01*
X9491071Y-35593714D01*
X9791071Y-35593714D02*
X9619643Y-35593714D01*
X9705357Y-35593714D02*
X9705357Y-35293714D01*
X9676786Y-35336572D01*
X9648214Y-35365143D01*
X9619643Y-35379429D01*
X9905357Y-35322286D02*
X9919643Y-35308000D01*
X9948214Y-35293714D01*
X10019643Y-35293714D01*
X10048214Y-35308000D01*
X10062500Y-35322286D01*
X10076786Y-35350857D01*
X10076786Y-35379429D01*
X10062500Y-35422286D01*
X9891071Y-35593714D01*
X10076786Y-35593714D01*
X10262500Y-35293714D02*
X10291071Y-35293714D01*
X10319643Y-35308000D01*
X10333928Y-35322286D01*
X10348214Y-35350857D01*
X10362500Y-35408000D01*
X10362500Y-35479429D01*
X10348214Y-35536572D01*
X10333928Y-35565143D01*
X10319643Y-35579429D01*
X10291071Y-35593714D01*
X10262500Y-35593714D01*
X10233928Y-35579429D01*
X10219643Y-35565143D01*
X10205357Y-35536572D01*
X10191071Y-35479429D01*
X10191071Y-35408000D01*
X10205357Y-35350857D01*
X10219643Y-35322286D01*
X10233928Y-35308000D01*
X10262500Y-35293714D01*
X10476786Y-35293714D02*
X10476786Y-35350857D01*
X10591071Y-35293714D02*
X10591071Y-35350857D01*
X11033928Y-35708000D02*
X11019643Y-35693714D01*
X10991071Y-35650857D01*
X10976786Y-35622286D01*
X10962500Y-35579429D01*
X10948214Y-35508000D01*
X10948214Y-35450857D01*
X10962500Y-35379429D01*
X10976786Y-35336572D01*
X10991071Y-35308000D01*
X11019643Y-35265143D01*
X11033928Y-35250857D01*
X11305357Y-35593714D02*
X11133928Y-35593714D01*
X11219643Y-35593714D02*
X11219643Y-35293714D01*
X11191071Y-35336572D01*
X11162500Y-35365143D01*
X11133928Y-35379429D01*
X11491071Y-35293714D02*
X11519643Y-35293714D01*
X11548214Y-35308000D01*
X11562500Y-35322286D01*
X11576786Y-35350857D01*
X11591071Y-35408000D01*
X11591071Y-35479429D01*
X11576786Y-35536572D01*
X11562500Y-35565143D01*
X11548214Y-35579429D01*
X11519643Y-35593714D01*
X11491071Y-35593714D01*
X11462500Y-35579429D01*
X11448214Y-35565143D01*
X11433928Y-35536572D01*
X11419643Y-35479429D01*
X11419643Y-35408000D01*
X11433928Y-35350857D01*
X11448214Y-35322286D01*
X11462500Y-35308000D01*
X11491071Y-35293714D01*
X11948214Y-35593714D02*
X11948214Y-35293714D01*
X12076786Y-35593714D02*
X12076786Y-35436572D01*
X12062500Y-35408000D01*
X12033928Y-35393714D01*
X11991071Y-35393714D01*
X11962500Y-35408000D01*
X11948214Y-35422286D01*
X12262500Y-35593714D02*
X12233928Y-35579429D01*
X12219643Y-35565143D01*
X12205357Y-35536572D01*
X12205357Y-35450857D01*
X12219643Y-35422286D01*
X12233928Y-35408000D01*
X12262500Y-35393714D01*
X12305357Y-35393714D01*
X12333928Y-35408000D01*
X12348214Y-35422286D01*
X12362500Y-35450857D01*
X12362500Y-35536572D01*
X12348214Y-35565143D01*
X12333928Y-35579429D01*
X12305357Y-35593714D01*
X12262500Y-35593714D01*
X12533928Y-35593714D02*
X12505357Y-35579429D01*
X12491071Y-35550857D01*
X12491071Y-35293714D01*
X12762500Y-35579429D02*
X12733928Y-35593714D01*
X12676786Y-35593714D01*
X12648214Y-35579429D01*
X12633928Y-35550857D01*
X12633928Y-35436572D01*
X12648214Y-35408000D01*
X12676786Y-35393714D01*
X12733928Y-35393714D01*
X12762500Y-35408000D01*
X12776786Y-35436572D01*
X12776786Y-35465143D01*
X12633928Y-35493714D01*
X12891071Y-35579429D02*
X12919643Y-35593714D01*
X12976786Y-35593714D01*
X13005357Y-35579429D01*
X13019643Y-35550857D01*
X13019643Y-35536572D01*
X13005357Y-35508000D01*
X12976786Y-35493714D01*
X12933928Y-35493714D01*
X12905357Y-35479429D01*
X12891071Y-35450857D01*
X12891071Y-35436572D01*
X12905357Y-35408000D01*
X12933928Y-35393714D01*
X12976786Y-35393714D01*
X13005357Y-35408000D01*
X13119643Y-35708000D02*
X13133928Y-35693714D01*
X13162500Y-35650857D01*
X13176786Y-35622286D01*
X13191071Y-35579429D01*
X13205357Y-35508000D01*
X13205357Y-35450857D01*
X13191071Y-35379429D01*
X13176786Y-35336572D01*
X13162500Y-35308000D01*
X13133928Y-35265143D01*
X13119643Y-35250857D01*
X13662500Y-35708000D02*
X13648214Y-35693714D01*
X13619643Y-35650857D01*
X13605357Y-35622286D01*
X13591071Y-35579429D01*
X13576786Y-35508000D01*
X13576786Y-35450857D01*
X13591071Y-35379429D01*
X13605357Y-35336572D01*
X13619643Y-35308000D01*
X13648214Y-35265143D01*
X13662500Y-35250857D01*
X13776786Y-35393714D02*
X13776786Y-35593714D01*
X13776786Y-35422286D02*
X13791071Y-35408000D01*
X13819643Y-35393714D01*
X13862500Y-35393714D01*
X13891071Y-35408000D01*
X13905357Y-35436572D01*
X13905357Y-35593714D01*
X14091071Y-35593714D02*
X14062500Y-35579429D01*
X14048214Y-35565143D01*
X14033928Y-35536572D01*
X14033928Y-35450857D01*
X14048214Y-35422286D01*
X14062500Y-35408000D01*
X14091071Y-35393714D01*
X14133928Y-35393714D01*
X14162500Y-35408000D01*
X14176786Y-35422286D01*
X14191071Y-35450857D01*
X14191071Y-35536572D01*
X14176786Y-35565143D01*
X14162500Y-35579429D01*
X14133928Y-35593714D01*
X14091071Y-35593714D01*
X14276786Y-35393714D02*
X14391071Y-35393714D01*
X14319643Y-35293714D02*
X14319643Y-35550857D01*
X14333928Y-35579429D01*
X14362500Y-35593714D01*
X14391071Y-35593714D01*
X14719643Y-35393714D02*
X14719643Y-35693714D01*
X14719643Y-35408000D02*
X14748214Y-35393714D01*
X14805357Y-35393714D01*
X14833928Y-35408000D01*
X14848214Y-35422286D01*
X14862500Y-35450857D01*
X14862500Y-35536572D01*
X14848214Y-35565143D01*
X14833928Y-35579429D01*
X14805357Y-35593714D01*
X14748214Y-35593714D01*
X14719643Y-35579429D01*
X15033928Y-35593714D02*
X15005357Y-35579429D01*
X14991071Y-35550857D01*
X14991071Y-35293714D01*
X15276786Y-35593714D02*
X15276786Y-35436572D01*
X15262500Y-35408000D01*
X15233928Y-35393714D01*
X15176786Y-35393714D01*
X15148214Y-35408000D01*
X15276786Y-35579429D02*
X15248214Y-35593714D01*
X15176786Y-35593714D01*
X15148214Y-35579429D01*
X15133928Y-35550857D01*
X15133928Y-35522286D01*
X15148214Y-35493714D01*
X15176786Y-35479429D01*
X15248214Y-35479429D01*
X15276786Y-35465143D01*
X15376786Y-35393714D02*
X15491071Y-35393714D01*
X15419643Y-35293714D02*
X15419643Y-35550857D01*
X15433928Y-35579429D01*
X15462500Y-35593714D01*
X15491071Y-35593714D01*
X15705357Y-35579429D02*
X15676786Y-35593714D01*
X15619643Y-35593714D01*
X15591071Y-35579429D01*
X15576786Y-35550857D01*
X15576786Y-35436572D01*
X15591071Y-35408000D01*
X15619643Y-35393714D01*
X15676786Y-35393714D01*
X15705357Y-35408000D01*
X15719643Y-35436572D01*
X15719643Y-35465143D01*
X15576786Y-35493714D01*
X15976786Y-35593714D02*
X15976786Y-35293714D01*
X15976786Y-35579429D02*
X15948214Y-35593714D01*
X15891071Y-35593714D01*
X15862500Y-35579429D01*
X15848214Y-35565143D01*
X15833928Y-35536572D01*
X15833928Y-35450857D01*
X15848214Y-35422286D01*
X15862500Y-35408000D01*
X15891071Y-35393714D01*
X15948214Y-35393714D01*
X15976786Y-35408000D01*
X16091071Y-35708000D02*
X16105357Y-35693714D01*
X16133928Y-35650857D01*
X16148214Y-35622286D01*
X16162500Y-35579429D01*
X16176786Y-35508000D01*
X16176786Y-35450857D01*
X16162500Y-35379429D01*
X16148214Y-35336572D01*
X16133928Y-35308000D01*
X16105357Y-35265143D01*
X16091071Y-35250857D01*
X6147500Y-35693000D02*
X6147500Y-36093000D01*
X5947500Y-35893000D02*
X6347500Y-35893000D01*
X6762500Y-35828714D02*
X6762500Y-36028714D01*
X6691071Y-35714429D02*
X6619643Y-35928714D01*
X6805357Y-35928714D01*
X6919643Y-36000143D02*
X6933928Y-36014429D01*
X6919643Y-36028714D01*
X6905357Y-36014429D01*
X6919643Y-36000143D01*
X6919643Y-36028714D01*
X7119643Y-35728714D02*
X7148214Y-35728714D01*
X7176786Y-35743000D01*
X7191071Y-35757286D01*
X7205357Y-35785857D01*
X7219643Y-35843000D01*
X7219643Y-35914429D01*
X7205357Y-35971572D01*
X7191071Y-36000143D01*
X7176786Y-36014429D01*
X7148214Y-36028714D01*
X7119643Y-36028714D01*
X7091071Y-36014429D01*
X7076786Y-36000143D01*
X7062500Y-35971572D01*
X7048214Y-35914429D01*
X7048214Y-35843000D01*
X7062500Y-35785857D01*
X7076786Y-35757286D01*
X7091071Y-35743000D01*
X7119643Y-35728714D01*
X7405357Y-35728714D02*
X7433928Y-35728714D01*
X7462500Y-35743000D01*
X7476786Y-35757286D01*
X7491071Y-35785857D01*
X7505357Y-35843000D01*
X7505357Y-35914429D01*
X7491071Y-35971572D01*
X7476786Y-36000143D01*
X7462500Y-36014429D01*
X7433928Y-36028714D01*
X7405357Y-36028714D01*
X7376786Y-36014429D01*
X7362500Y-36000143D01*
X7348214Y-35971572D01*
X7333928Y-35914429D01*
X7333928Y-35843000D01*
X7348214Y-35785857D01*
X7362500Y-35757286D01*
X7376786Y-35743000D01*
X7405357Y-35728714D01*
X7633928Y-36028714D02*
X7633928Y-35828714D01*
X7633928Y-35857286D02*
X7648214Y-35843000D01*
X7676786Y-35828714D01*
X7719643Y-35828714D01*
X7748214Y-35843000D01*
X7762500Y-35871572D01*
X7762500Y-36028714D01*
X7762500Y-35871572D02*
X7776786Y-35843000D01*
X7805357Y-35828714D01*
X7848214Y-35828714D01*
X7876786Y-35843000D01*
X7891071Y-35871572D01*
X7891071Y-36028714D01*
X8033928Y-36028714D02*
X8033928Y-35828714D01*
X8033928Y-35857286D02*
X8048214Y-35843000D01*
X8076786Y-35828714D01*
X8119643Y-35828714D01*
X8148214Y-35843000D01*
X8162500Y-35871572D01*
X8162500Y-36028714D01*
X8162500Y-35871572D02*
X8176786Y-35843000D01*
X8205357Y-35828714D01*
X8248214Y-35828714D01*
X8276786Y-35843000D01*
X8291071Y-35871572D01*
X8291071Y-36028714D01*
X8876786Y-35714429D02*
X8619643Y-36100143D01*
X9262500Y-35728714D02*
X9291071Y-35728714D01*
X9319643Y-35743000D01*
X9333928Y-35757286D01*
X9348214Y-35785857D01*
X9362500Y-35843000D01*
X9362500Y-35914429D01*
X9348214Y-35971572D01*
X9333928Y-36000143D01*
X9319643Y-36014429D01*
X9291071Y-36028714D01*
X9262500Y-36028714D01*
X9233928Y-36014429D01*
X9219643Y-36000143D01*
X9205357Y-35971572D01*
X9191071Y-35914429D01*
X9191071Y-35843000D01*
X9205357Y-35785857D01*
X9219643Y-35757286D01*
X9233928Y-35743000D01*
X9262500Y-35728714D01*
X9491071Y-36000143D02*
X9505357Y-36014429D01*
X9491071Y-36028714D01*
X9476786Y-36014429D01*
X9491071Y-36000143D01*
X9491071Y-36028714D01*
X9791071Y-36028714D02*
X9619643Y-36028714D01*
X9705357Y-36028714D02*
X9705357Y-35728714D01*
X9676786Y-35771572D01*
X9648214Y-35800143D01*
X9619643Y-35814429D01*
X10062500Y-35728714D02*
X9919643Y-35728714D01*
X9905357Y-35871572D01*
X9919643Y-35857286D01*
X9948214Y-35843000D01*
X10019643Y-35843000D01*
X10048214Y-35857286D01*
X10062500Y-35871572D01*
X10076786Y-35900143D01*
X10076786Y-35971572D01*
X10062500Y-36000143D01*
X10048214Y-36014429D01*
X10019643Y-36028714D01*
X9948214Y-36028714D01*
X9919643Y-36014429D01*
X9905357Y-36000143D01*
X10176786Y-35728714D02*
X10376786Y-35728714D01*
X10248214Y-36028714D01*
X10476786Y-35728714D02*
X10476786Y-35785857D01*
X10591071Y-35728714D02*
X10591071Y-35785857D01*
X11033928Y-36143000D02*
X11019643Y-36128714D01*
X10991071Y-36085857D01*
X10976786Y-36057286D01*
X10962500Y-36014429D01*
X10948214Y-35943000D01*
X10948214Y-35885857D01*
X10962500Y-35814429D01*
X10976786Y-35771572D01*
X10991071Y-35743000D01*
X11019643Y-35700143D01*
X11033928Y-35685857D01*
X11305357Y-36028714D02*
X11133928Y-36028714D01*
X11219643Y-36028714D02*
X11219643Y-35728714D01*
X11191071Y-35771572D01*
X11162500Y-35800143D01*
X11133928Y-35814429D01*
X11491071Y-35728714D02*
X11519643Y-35728714D01*
X11548214Y-35743000D01*
X11562500Y-35757286D01*
X11576786Y-35785857D01*
X11591071Y-35843000D01*
X11591071Y-35914429D01*
X11576786Y-35971572D01*
X11562500Y-36000143D01*
X11548214Y-36014429D01*
X11519643Y-36028714D01*
X11491071Y-36028714D01*
X11462500Y-36014429D01*
X11448214Y-36000143D01*
X11433928Y-35971572D01*
X11419643Y-35914429D01*
X11419643Y-35843000D01*
X11433928Y-35785857D01*
X11448214Y-35757286D01*
X11462500Y-35743000D01*
X11491071Y-35728714D01*
X11691071Y-35728714D02*
X11891071Y-35728714D01*
X11762500Y-36028714D01*
X12233928Y-36028714D02*
X12233928Y-35728714D01*
X12362500Y-36028714D02*
X12362500Y-35871572D01*
X12348214Y-35843000D01*
X12319643Y-35828714D01*
X12276786Y-35828714D01*
X12248214Y-35843000D01*
X12233928Y-35857286D01*
X12548214Y-36028714D02*
X12519643Y-36014429D01*
X12505357Y-36000143D01*
X12491071Y-35971572D01*
X12491071Y-35885857D01*
X12505357Y-35857286D01*
X12519643Y-35843000D01*
X12548214Y-35828714D01*
X12591071Y-35828714D01*
X12619643Y-35843000D01*
X12633928Y-35857286D01*
X12648214Y-35885857D01*
X12648214Y-35971572D01*
X12633928Y-36000143D01*
X12619643Y-36014429D01*
X12591071Y-36028714D01*
X12548214Y-36028714D01*
X12819643Y-36028714D02*
X12791071Y-36014429D01*
X12776786Y-35985857D01*
X12776786Y-35728714D01*
X13048214Y-36014429D02*
X13019643Y-36028714D01*
X12962500Y-36028714D01*
X12933928Y-36014429D01*
X12919643Y-35985857D01*
X12919643Y-35871572D01*
X12933928Y-35843000D01*
X12962500Y-35828714D01*
X13019643Y-35828714D01*
X13048214Y-35843000D01*
X13062500Y-35871572D01*
X13062500Y-35900143D01*
X12919643Y-35928714D01*
X13176786Y-36014429D02*
X13205357Y-36028714D01*
X13262500Y-36028714D01*
X13291071Y-36014429D01*
X13305357Y-35985857D01*
X13305357Y-35971572D01*
X13291071Y-35943000D01*
X13262500Y-35928714D01*
X13219643Y-35928714D01*
X13191071Y-35914429D01*
X13176786Y-35885857D01*
X13176786Y-35871572D01*
X13191071Y-35843000D01*
X13219643Y-35828714D01*
X13262500Y-35828714D01*
X13291071Y-35843000D01*
X13405357Y-36143000D02*
X13419643Y-36128714D01*
X13448214Y-36085857D01*
X13462500Y-36057286D01*
X13476786Y-36014429D01*
X13491071Y-35943000D01*
X13491071Y-35885857D01*
X13476786Y-35814429D01*
X13462500Y-35771572D01*
X13448214Y-35743000D01*
X13419643Y-35700143D01*
X13405357Y-35685857D01*
X13948214Y-36143000D02*
X13933928Y-36128714D01*
X13905357Y-36085857D01*
X13891071Y-36057286D01*
X13876786Y-36014429D01*
X13862500Y-35943000D01*
X13862500Y-35885857D01*
X13876786Y-35814429D01*
X13891071Y-35771572D01*
X13905357Y-35743000D01*
X13933928Y-35700143D01*
X13948214Y-35685857D01*
X14062500Y-35828714D02*
X14062500Y-36028714D01*
X14062500Y-35857286D02*
X14076786Y-35843000D01*
X14105357Y-35828714D01*
X14148214Y-35828714D01*
X14176786Y-35843000D01*
X14191071Y-35871572D01*
X14191071Y-36028714D01*
X14376786Y-36028714D02*
X14348214Y-36014429D01*
X14333928Y-36000143D01*
X14319643Y-35971572D01*
X14319643Y-35885857D01*
X14333928Y-35857286D01*
X14348214Y-35843000D01*
X14376786Y-35828714D01*
X14419643Y-35828714D01*
X14448214Y-35843000D01*
X14462500Y-35857286D01*
X14476786Y-35885857D01*
X14476786Y-35971572D01*
X14462500Y-36000143D01*
X14448214Y-36014429D01*
X14419643Y-36028714D01*
X14376786Y-36028714D01*
X14562500Y-35828714D02*
X14676786Y-35828714D01*
X14605357Y-35728714D02*
X14605357Y-35985857D01*
X14619643Y-36014429D01*
X14648214Y-36028714D01*
X14676786Y-36028714D01*
X15005357Y-35828714D02*
X15005357Y-36128714D01*
X15005357Y-35843000D02*
X15033928Y-35828714D01*
X15091071Y-35828714D01*
X15119643Y-35843000D01*
X15133928Y-35857286D01*
X15148214Y-35885857D01*
X15148214Y-35971572D01*
X15133928Y-36000143D01*
X15119643Y-36014429D01*
X15091071Y-36028714D01*
X15033928Y-36028714D01*
X15005357Y-36014429D01*
X15319643Y-36028714D02*
X15291071Y-36014429D01*
X15276786Y-35985857D01*
X15276786Y-35728714D01*
X15562500Y-36028714D02*
X15562500Y-35871572D01*
X15548214Y-35843000D01*
X15519643Y-35828714D01*
X15462500Y-35828714D01*
X15433928Y-35843000D01*
X15562500Y-36014429D02*
X15533928Y-36028714D01*
X15462500Y-36028714D01*
X15433928Y-36014429D01*
X15419643Y-35985857D01*
X15419643Y-35957286D01*
X15433928Y-35928714D01*
X15462500Y-35914429D01*
X15533928Y-35914429D01*
X15562500Y-35900143D01*
X15662500Y-35828714D02*
X15776786Y-35828714D01*
X15705357Y-35728714D02*
X15705357Y-35985857D01*
X15719643Y-36014429D01*
X15748214Y-36028714D01*
X15776786Y-36028714D01*
X15991071Y-36014429D02*
X15962500Y-36028714D01*
X15905357Y-36028714D01*
X15876786Y-36014429D01*
X15862500Y-35985857D01*
X15862500Y-35871572D01*
X15876786Y-35843000D01*
X15905357Y-35828714D01*
X15962500Y-35828714D01*
X15991071Y-35843000D01*
X16005357Y-35871572D01*
X16005357Y-35900143D01*
X15862500Y-35928714D01*
X16262500Y-36028714D02*
X16262500Y-35728714D01*
X16262500Y-36014429D02*
X16233928Y-36028714D01*
X16176786Y-36028714D01*
X16148214Y-36014429D01*
X16133928Y-36000143D01*
X16119643Y-35971572D01*
X16119643Y-35885857D01*
X16133928Y-35857286D01*
X16148214Y-35843000D01*
X16176786Y-35828714D01*
X16233928Y-35828714D01*
X16262500Y-35843000D01*
X16376786Y-36143000D02*
X16391071Y-36128714D01*
X16419643Y-36085857D01*
X16433928Y-36057286D01*
X16448214Y-36014429D01*
X16462500Y-35943000D01*
X16462500Y-35885857D01*
X16448214Y-35814429D01*
X16433928Y-35771572D01*
X16419643Y-35743000D01*
X16391071Y-35700143D01*
X16376786Y-35685857D01*
M02*
